<svg width="73" height="59" viewBox="0 0 73 59" fill="none" xmlns="http://www.w3.org/2000/svg">
<path d="M20.6155 41.8883C20.6155 42.6255 20.3969 43.3461 19.9874 43.959C19.5778 44.5719 18.9957 45.0496 18.3147 45.3317C17.6337 45.6138 16.8843 45.6876 16.1613 45.5438C15.4383 45.4 14.7742 45.045 14.253 44.5238C13.7317 44.0025 13.3768 43.3384 13.233 42.6154C13.0892 41.8925 13.163 41.1431 13.4451 40.462C13.7271 39.781 14.2049 39.1989 14.8178 38.7894C15.4307 38.3799 16.1513 38.1613 16.8884 38.1613C17.8769 38.1613 18.8249 38.5539 19.5238 39.2529C20.2228 39.9519 20.6155 40.8999 20.6155 41.8883ZM33.039 41.8883C33.039 45.0826 32.0918 48.2052 30.3172 50.8611C28.5425 53.5171 26.0201 55.5872 23.069 56.8096C20.1178 58.032 16.8705 58.3518 13.7376 57.7286C10.6047 57.1054 7.72691 55.5672 5.4682 53.3085C3.2095 51.0498 1.6713 48.1721 1.04813 45.0392C0.424955 41.9062 0.744791 38.6589 1.96719 35.7078C3.18959 32.7566 5.25966 30.2342 7.91561 28.4596C10.5716 26.6849 13.6941 25.7377 16.8884 25.7377C21.1703 25.7427 25.2754 27.4458 28.3032 30.4736C31.3309 33.5013 33.0341 37.6064 33.039 41.8883ZM25.5849 41.8883C25.5849 40.1683 25.0749 38.487 24.1193 37.0568C23.1637 35.6267 21.8055 34.512 20.2164 33.8538C18.6273 33.1956 16.8788 33.0234 15.1918 33.3589C13.5049 33.6945 11.9553 34.5228 10.7391 35.739C9.52285 36.9552 8.69459 38.5048 8.35903 40.1917C8.02347 41.8787 8.19569 43.6273 8.85391 45.2163C9.51213 46.8054 10.6268 48.1636 12.0569 49.1192C13.487 50.0748 15.1684 50.5848 16.8884 50.5848C19.1949 50.5848 21.4068 49.6686 23.0378 48.0377C24.6687 46.4068 25.5849 44.1948 25.5849 41.8883ZM72.7944 46.8577C72.7894 49.7121 71.693 52.4565 69.7298 54.5286C67.7667 56.6006 65.0854 57.8434 62.2354 58.0022C59.3855 58.1611 56.5827 57.2239 54.4014 55.3829C52.2201 53.5418 50.8255 50.9362 50.5034 48.1001H40.4932C39.8342 48.1001 39.2022 47.8383 38.7362 47.3724C38.2702 46.9064 38.0084 46.2744 38.0084 45.6154V41.8883C38.0027 36.2887 35.7757 30.9201 31.8162 26.9606C27.8566 23.001 22.488 20.7741 16.8884 20.7683H8.19193C7.53294 20.7683 6.90095 20.5065 6.43497 20.0405C5.969 19.5746 5.70722 18.9426 5.70722 18.2836C5.70722 17.6246 5.969 16.9926 6.43497 16.5266C6.90095 16.0607 7.53294 15.7989 8.19193 15.7989H10.6766V5.86004H8.19193C7.53294 5.86004 6.90095 5.59826 6.43497 5.13229C5.969 4.66632 5.70722 4.03432 5.70722 3.37533C5.70722 2.71635 5.969 2.08435 6.43497 1.61838C6.90095 1.15241 7.53294 0.890625 8.19193 0.890625H45.4626C46.1216 0.890625 46.7536 1.15241 47.2195 1.61838C47.6855 2.08435 47.9473 2.71635 47.9473 3.37533C47.9473 4.03432 47.6855 4.66632 47.2195 5.13229C46.7536 5.59826 46.1216 5.86004 45.4626 5.86004H42.9779V18.8675L50.432 20.8863V10.8295C50.432 10.1705 50.6938 9.53848 51.1597 9.07251C51.6257 8.60653 52.2577 8.34475 52.9167 8.34475C53.5757 8.34475 54.2077 8.60653 54.6737 9.07251C55.1396 9.53848 55.4014 10.1705 55.4014 10.8295V22.2312L66.7037 25.2936L66.769 25.3122C67.7976 25.6152 68.6997 26.245 69.3385 27.1063C69.9773 27.9676 70.3183 29.0136 70.3097 30.086V39.8571C71.916 41.8368 72.7932 44.3083 72.7944 46.8577ZM66.5826 46.8577C66.5826 45.8749 66.2912 44.9141 65.7451 44.0969C65.1991 43.2797 64.4229 42.6427 63.5149 42.2666C62.6069 41.8905 61.6077 41.7921 60.6437 41.9838C59.6797 42.1756 58.7943 42.6489 58.0993 43.3438C57.4043 44.0388 56.931 44.9243 56.7393 45.8883C56.5475 46.8522 56.6459 47.8514 57.022 48.7595C57.3982 49.6675 58.0351 50.4436 58.8523 50.9897C59.6695 51.5357 60.6303 51.8272 61.6132 51.8272C62.9312 51.8272 64.1951 51.3036 65.1271 50.3717C66.059 49.4397 66.5826 48.1757 66.5826 46.8577Z" fill="#00BF66"/>
</svg>
