<svg width="61" height="60" viewBox="0 0 61 60" fill="none" xmlns="http://www.w3.org/2000/svg">
<path d="M59.105 23.5644L54.4784 22.4077C54.0373 21.0018 53.4758 19.6426 52.8011 18.3482L55.2522 14.263C55.6648 13.5756 55.5563 12.6957 54.9895 12.1288L48.4008 5.54028C47.834 4.97353 46.954 4.8651 46.2666 5.27764L42.1813 7.72865C40.8869 7.05393 39.5281 6.49243 38.1221 6.05147L36.9654 1.42479C36.7711 0.647228 36.0723 0.101562 35.2706 0.101562H25.953C25.1513 0.101562 24.4525 0.647228 24.2581 1.4249L23.1014 6.05159C21.6954 6.49266 20.3366 7.05405 19.0422 7.72877L14.9569 5.27776C14.2694 4.86533 13.3895 4.97365 12.8226 5.5404L6.23401 12.1289C5.66714 12.6958 5.55883 13.5757 5.97125 14.2631L8.42238 18.3483C7.74778 19.6427 7.18615 21.0018 6.74508 22.4078L2.11851 23.5645C1.34095 23.7589 0.795288 24.4577 0.795288 25.2592V34.5769C0.795288 35.3786 1.34095 36.0774 2.11863 36.2718L6.74508 37.4283C7.18615 38.8343 7.74766 40.1934 8.42238 41.4877L5.97125 45.573C5.55871 46.2604 5.66714 47.1404 6.23401 47.7072L12.8226 54.2959C13.3894 54.8628 14.2694 54.9711 14.9569 54.5586L19.0421 52.1075C20.3365 52.7822 21.6954 53.3437 23.1014 53.7848L24.2581 58.4114C24.4525 59.1889 25.1513 59.7346 25.953 59.7346H35.2706C36.0723 59.7346 36.7711 59.1889 36.9655 58.4112L38.1222 53.7847C39.5282 53.3436 40.8871 52.7821 42.1815 52.1074L46.2668 54.5585C46.9542 54.9711 47.8341 54.8627 48.401 54.2958L54.9896 47.7071C55.5565 47.1403 55.6648 46.2603 55.2524 45.5729L52.8012 41.4876C53.4758 40.1932 54.0374 38.8343 54.4785 37.4282L59.105 36.2717C59.8826 36.0774 60.4283 35.3787 60.4283 34.5769V25.2592C60.4283 24.4577 59.8826 23.7589 59.105 23.5644ZM30.6118 46.224C21.6207 46.224 14.3059 38.9092 14.3059 29.9181C14.3059 20.927 21.6207 13.6122 30.6118 13.6122C39.6029 13.6122 46.9177 20.927 46.9177 29.9181C46.9177 38.9092 39.6029 46.224 30.6118 46.224Z" fill="#00BF66"/>
<path d="M40.2424 24.5282C38.7082 24.0368 35.7879 23.4124 33.4706 24.7503C32.0578 25.566 31.1668 26.9491 30.6111 28.2392C30.0554 26.9492 29.1644 25.566 27.7516 24.7503C25.4343 23.4124 22.5142 24.0368 20.9798 24.5282C20.1187 24.8039 19.6139 25.6781 19.8056 26.5617C20.1474 28.1362 21.0666 30.9773 23.384 32.3152C24.423 32.9152 25.5873 33.1176 26.6855 33.1176C27.469 33.1176 28.2174 33.0142 28.8642 32.8789V36.4078C26.2358 36.6652 23.7004 37.4991 21.4329 38.8443C23.7618 41.2379 27.0155 42.7274 30.6111 42.7274C34.2067 42.7274 37.4604 41.2379 39.7895 38.8445C37.5219 37.4992 34.9866 36.6653 32.3582 36.4079V32.8791C33.0049 33.0143 33.7533 33.1177 34.5369 33.1176C35.635 33.1175 36.7994 32.915 37.8384 32.3152C40.1558 30.9773 41.075 28.1361 41.4167 26.5617C41.6083 25.6781 41.1035 24.8039 40.2424 24.5282Z" fill="#00BF66"/>
</svg>
