<svg width="61" height="61" viewBox="0 0 61 61" fill="none" xmlns="http://www.w3.org/2000/svg">
<path d="M19.3025 4.45506C21.1778 4.45506 22.9396 5.39684 23.9987 6.9112C21.6135 8.64312 19.943 11.3021 19.5238 14.3551H41.4436C41.0244 11.3021 39.3539 8.64312 36.9686 6.91108C38.0276 5.39684 39.7896 4.45506 41.6649 4.45506C42.6297 4.45506 43.4119 3.67284 43.4119 2.708C43.4119 1.74316 42.6297 0.960938 41.6649 0.960938C38.4792 0.960938 35.4967 2.6479 33.8315 5.32475C31.7128 4.65038 29.3757 4.61183 27.1358 5.32475C25.4707 2.6479 22.4881 0.960938 19.3025 0.960938C18.3376 0.960938 17.5554 1.74316 17.5554 2.708C17.5554 3.67284 18.3376 4.45506 19.3025 4.45506Z" fill="#00BF66"/>
<path d="M19.904 39.0469C18.9466 39.6339 17.9333 40.1266 16.8816 40.5179C17.0947 42.0274 17.4395 43.4879 17.9089 44.8704H43.0572C43.5266 43.4879 43.8714 42.0274 44.0845 40.5179C43.0328 40.1266 42.0195 39.6339 41.0621 39.0469H19.904Z" fill="#00BF66"/>
<path d="M28.7361 55.6676V58.8417C28.7361 59.8066 29.5183 60.5888 30.4831 60.5888C31.448 60.5888 32.2302 59.8066 32.2302 58.8417V55.6676C36.3431 54.9757 39.5151 51.9601 41.5187 48.3594H19.4475C21.4514 51.9605 24.6236 54.9758 28.7361 55.6676Z" fill="#00BF66"/>
<path d="M30.483 27.7891C30.483 27.7891 24.1942 35.3382 24.0061 35.5588H36.96C36.7735 35.34 30.483 27.7891 30.483 27.7891Z" fill="#00BF66"/>
<path d="M50.1666 17.8438C47.507 17.8438 13.4594 17.8438 10.7995 17.8438C5.21212 17.8438 0.666504 22.3894 0.666504 27.9767C0.666504 33.564 5.21212 38.1097 10.7995 38.1097C14.9464 38.1097 18.8475 36.2825 21.5023 33.0968L30.483 22.3198L39.4637 33.0968C42.1187 36.2825 46.0197 38.1097 50.1666 38.1097C55.7539 38.1097 60.2995 33.564 60.2995 27.9767C60.2995 22.3894 55.7539 17.8438 50.1666 17.8438Z" fill="#00BF66"/>
</svg>
