<svg width="68" height="61" viewBox="0 0 68 61" fill="none" xmlns="http://www.w3.org/2000/svg">
<path d="M46.9923 14.6259C46.02 14.595 45.0466 14.6303 44.079 14.7315C42.4757 11.9918 40.3884 9.5661 37.9185 7.57222C27.1211 -1.12785 12.3604 0.863833 11.7383 0.952289C11.2209 1.02475 10.744 1.27251 10.3872 1.6542C10.0305 2.0359 9.81544 2.52842 9.77804 3.04955C9.75456 3.45952 9.83953 3.86843 10.0244 4.23512C10.2092 4.6018 10.4874 4.9133 10.831 5.13826C15.7959 8.47105 18.0701 13.9582 19.0203 19.3055C13.7952 19.8531 8.97775 22.3795 5.55627 26.3663C2.1348 30.3532 0.368699 35.4982 0.620298 40.7459C0.871897 45.9935 3.12212 50.946 6.90932 54.5872C10.6965 58.2284 15.7336 60.2823 20.9871 60.3276C26.2406 60.3728 31.3122 58.4059 35.1616 54.8305C39.0109 51.255 41.3461 46.342 41.688 41.0995C42.0299 35.8569 40.3527 30.6822 37.0003 26.6371C33.648 22.5919 28.8748 19.9829 23.6599 19.3454C22.7725 13.6529 20.7808 8.91904 17.7676 5.31517C22.5243 5.52061 29.5351 6.6791 35.0708 11.159C36.7224 12.496 38.1651 14.0723 39.3509 15.8357C38.8087 16.0326 38.2694 16.2466 37.7387 16.4892C37.4488 16.6144 37.1864 16.7955 36.9666 17.0222C36.7468 17.2489 36.5738 17.5167 36.4575 17.8103C36.2896 18.2565 36.2656 18.7442 36.3889 19.2048C36.5123 19.6653 36.7767 20.0758 37.1452 20.3784C38.5804 21.5637 39.8809 22.9033 41.023 24.3732C41.0767 24.4426 41.139 24.5049 41.2085 24.5586C41.7363 24.941 43.3999 26.0396 46.3018 26.0396C49.7687 26.0396 51.4893 24.4673 51.5607 24.3988L51.535 24.4245C51.7471 24.2124 51.9989 24.0442 52.276 23.9294C52.5531 23.8146 52.8501 23.7555 53.15 23.7555C53.45 23.7555 53.747 23.8146 54.0241 23.9294C54.3012 24.0442 54.553 24.2124 54.7651 24.4245C54.9771 24.6366 55.1454 24.8884 55.2602 25.1655C55.3749 25.4426 55.434 25.7396 55.434 26.0396C55.434 26.3395 55.3749 26.6365 55.2602 26.9136C55.1454 27.1907 54.9771 27.4425 54.7651 27.6546C54.4626 27.9571 51.6577 30.605 46.3018 30.605H45.8424C45.7014 30.5969 45.5605 30.6237 45.4324 30.6832C45.3043 30.7427 45.1929 30.833 45.1081 30.946C45.0234 31.059 44.9679 31.1912 44.9467 31.3309C44.9254 31.4706 44.9391 31.6133 44.9864 31.7464C46.113 35.1001 46.5175 38.6542 46.1733 42.1753C45.829 45.6964 44.7439 49.1049 42.989 52.1769C42.6654 52.7105 42.5631 53.3494 42.7036 53.9574C42.8219 54.4208 43.0827 54.8354 43.4493 55.1426C43.8159 55.4498 44.2697 55.6341 44.7467 55.6695C45.2546 55.7066 45.7711 55.7265 46.279 55.7265C51.7278 55.8181 56.9897 53.7414 60.9074 49.9533C64.825 46.1652 67.0773 40.9759 67.1689 35.5272C67.2604 30.0784 65.1837 24.8164 61.3956 20.8988C57.6075 16.9812 52.4183 14.7289 46.9695 14.6373L46.9923 14.6259ZM26.4477 28.9529L26.422 28.9786C26.8504 28.5502 27.4313 28.3096 28.0371 28.3096C28.6428 28.3096 29.2238 28.5502 29.6521 28.9786C30.0804 29.4069 30.3211 29.9879 30.3211 30.5936C30.3211 31.1994 30.0804 31.7803 29.6521 32.2086C29.3525 32.5225 26.5476 35.1705 21.1917 35.1705C15.8359 35.1705 13.0309 32.5225 12.7285 32.2201C12.5164 32.008 12.3482 31.7562 12.2334 31.4791C12.1186 31.202 12.0595 30.905 12.0595 30.605C12.0595 29.9993 12.3001 29.4183 12.7285 28.99C13.1568 28.5617 13.7378 28.321 14.3435 28.321C14.9493 28.321 15.5302 28.5617 15.9585 28.99L15.9329 28.9643C16.0042 29.0328 17.7248 30.605 21.1917 30.605C24.6586 30.605 26.3792 29.0328 26.4506 28.9643L26.4477 28.9529Z" fill="#00BF66"/>
</svg>
