<svg width="67" height="61" viewBox="0 0 67 61" fill="none" xmlns="http://www.w3.org/2000/svg">
<path d="M27.093 49.543C27.093 50.1288 26.8603 50.6905 26.4461 51.1047C26.0319 51.5189 25.4701 51.7516 24.8844 51.7516H20.4671C19.8813 51.7516 19.3196 51.5189 18.9054 51.1047C18.4912 50.6905 18.2585 50.1288 18.2585 49.543C18.2585 48.9572 18.4912 48.3955 18.9054 47.9813C19.3196 47.5671 19.8813 47.3344 20.4671 47.3344H24.8844C25.4701 47.3344 26.0319 47.5671 26.4461 47.9813C26.8603 48.3955 27.093 48.9572 27.093 49.543ZM46.9707 47.3344H42.5534C41.9676 47.3344 41.4059 47.5671 40.9917 47.9813C40.5775 48.3955 40.3448 48.9572 40.3448 49.543C40.3448 50.1288 40.5775 50.6905 40.9917 51.1047C41.4059 51.5189 41.9676 51.7516 42.5534 51.7516H46.9707C47.5564 51.7516 48.1182 51.5189 48.5324 51.1047C48.9466 50.6905 49.1793 50.1288 49.1793 49.543C49.1793 48.9572 48.9466 48.3955 48.5324 47.9813C48.1182 47.5671 47.5564 47.3344 46.9707 47.3344ZM65.8517 30.2506C65.4375 30.7578 64.9157 31.1666 64.3241 31.4474C63.7325 31.7281 63.0859 31.8738 62.4311 31.874H53.5966V40.7085C55.4508 42.0991 56.8204 44.038 57.5115 46.2503C58.2026 48.4626 58.1801 50.8363 57.4471 53.0351C56.7142 55.234 55.308 57.1465 53.4277 58.5017C51.5475 59.8569 49.2884 60.5862 46.9707 60.5862H20.4671C18.1493 60.5862 15.8903 59.8569 14.0101 58.5017C12.1298 57.1465 10.7236 55.234 9.99066 53.0351C9.25772 50.8363 9.23519 48.4626 9.92627 46.2503C10.6174 44.038 11.987 42.0991 13.8412 40.7085V31.874H5.0067C4.35704 31.8729 3.71561 31.7285 3.12813 31.4512C2.54065 31.1738 2.02157 30.7703 1.6079 30.2694C1.19423 29.7684 0.896154 29.1824 0.734906 28.5531C0.573657 27.9237 0.55321 27.2666 0.675023 26.6285C1.3832 23.1279 3.2788 19.9794 6.04116 17.7156C8.80351 15.4518 12.263 14.2116 15.8345 14.2049H16.2873C14.8134 12.7682 13.6422 11.0509 12.8427 9.15423C12.0433 7.25757 11.6318 5.22001 11.6326 3.16176C11.6326 2.57599 11.8653 2.01422 12.2795 1.60002C12.6937 1.18582 13.2555 0.953125 13.8412 0.953125C14.427 0.953125 14.9888 1.18582 15.403 1.60002C15.8172 2.01422 16.0499 2.57599 16.0499 3.16176C16.0499 6.09058 17.2133 8.89945 19.2843 10.9704C21.3553 13.0414 24.1642 14.2049 27.093 14.2049H40.3448C41.795 14.2049 43.231 13.9193 44.5708 13.3643C45.9106 12.8093 47.128 11.9959 48.1535 10.9704C49.1789 9.94499 49.9924 8.7276 50.5473 7.38779C51.1023 6.04797 51.3879 4.61196 51.3879 3.16176C51.3879 2.57599 51.6206 2.01422 52.0348 1.60002C52.449 1.18582 53.0108 0.953125 53.5966 0.953125C54.1823 0.953125 54.7441 1.18582 55.1583 1.60002C55.5725 2.01422 55.8052 2.57599 55.8052 3.16176C55.806 5.22001 55.3945 7.25757 54.5951 9.15423C53.7956 11.0509 52.6244 12.7682 51.1505 14.2049H51.6033C55.1747 14.2116 58.6343 15.4518 61.3966 17.7156C64.159 19.9794 66.0546 23.1279 66.7628 26.6285C66.8882 27.262 66.8715 27.9155 66.714 28.5418C66.5564 29.1682 66.2619 29.7518 65.8517 30.2506ZM38.1362 30.7696C38.1362 31.4249 38.3305 32.0654 38.6945 32.6102C39.0585 33.155 39.5759 33.5797 40.1813 33.8304C40.7867 34.0811 41.4528 34.1468 42.0954 34.0189C42.7381 33.8911 43.3284 33.5756 43.7917 33.1122C44.255 32.6489 44.5706 32.0586 44.6984 31.416C44.8262 30.7733 44.7606 30.1072 44.5099 29.5018C44.2591 28.8965 43.8345 28.3791 43.2897 28.015C42.7449 27.651 42.1043 27.4567 41.4491 27.4567C40.5704 27.4567 39.7278 27.8057 39.1065 28.427C38.4852 29.0483 38.1362 29.891 38.1362 30.7696ZM22.6757 30.7696C22.6757 31.4249 22.87 32.0654 23.2341 32.6102C23.5981 33.155 24.1155 33.5797 24.7209 33.8304C25.3262 34.0811 25.9924 34.1468 26.635 34.0189C27.2777 33.8911 27.868 33.5756 28.3313 33.1122C28.7946 32.6489 29.1101 32.0586 29.238 31.416C29.3658 30.7733 29.3002 30.1072 29.0494 29.5018C28.7987 28.8965 28.3741 28.3791 27.8293 28.015C27.2844 27.651 26.6439 27.4567 25.9887 27.4567C25.11 27.4567 24.2674 27.8057 23.6461 28.427C23.0248 29.0483 22.6757 29.891 22.6757 30.7696ZM13.8412 27.4567V25.2481C13.8374 22.858 14.6128 20.5319 16.0499 18.6222H15.829C13.2844 18.6263 10.819 19.5071 8.84786 21.1162C6.8767 22.7253 5.52018 24.9645 5.0067 27.4567H13.8412ZM53.5966 49.543C53.5966 47.7857 52.8985 46.1004 51.6559 44.8578C50.4133 43.6152 48.728 42.9171 46.9707 42.9171H20.4671C18.7098 42.9171 17.0245 43.6152 15.7819 44.8578C14.5393 46.1004 13.8412 47.7857 13.8412 49.543C13.8412 51.3003 14.5393 52.9856 15.7819 54.2282C17.0245 55.4708 18.7098 56.1689 20.4671 56.1689H46.9707C48.728 56.1689 50.4133 55.4708 51.6559 54.2282C52.8985 52.9856 53.5966 51.3003 53.5966 49.543ZM62.4311 27.4567C61.9181 24.9642 60.5617 22.7248 58.5904 21.1156C56.6192 19.5064 54.1535 18.6258 51.6088 18.6222H51.3879C52.825 20.5319 53.6004 22.858 53.5966 25.2481V27.4567H62.4311Z" fill="#00BF66"/>
</svg>
