<svg width="61" height="61" viewBox="0 0 61 61" fill="none" xmlns="http://www.w3.org/2000/svg">
<path d="M14.2005 48.6156C11.1293 50.0095 7.85245 50.8965 4.49745 51.2421C4.27593 51.2651 4.0525 51.2231 3.85443 51.1213C3.65636 51.0195 3.49222 50.8622 3.38206 50.6686C0.896078 46.2873 0.0788863 40.8365 1.08819 34.8552C2.37562 27.1364 6.56194 19.4089 12.8787 13.0922C19.1954 6.77541 26.9286 2.5891 34.6418 1.30166C41.1764 0.214942 47.0774 1.30166 51.6422 4.34104C51.829 4.46372 51.9759 4.6383 52.0648 4.84333C52.1538 5.04835 52.1809 5.27489 52.1428 5.49511C52.1047 5.71532 52.0031 5.91962 51.8505 6.08289C51.6979 6.24615 51.501 6.36128 51.2838 6.41413C49.135 6.92633 47.0399 7.64259 45.0273 8.55316C38.7851 11.3918 30.8053 17.4591 28.2476 30.2589C26.4957 38.9412 21.7732 45.1174 14.2005 48.6156ZM57.5805 10.7409C57.4705 10.5479 57.3068 10.3909 57.1093 10.2891C56.9118 10.1873 56.689 10.145 56.468 10.1675C53.1116 10.5109 49.8335 11.398 46.762 12.794C39.1894 16.2921 34.4669 22.4683 32.7293 31.1449C30.1687 43.9447 22.1918 50.012 15.9496 52.8507C13.9369 53.7612 11.8419 54.4775 9.69307 54.9897C9.47105 55.0398 9.26895 55.1548 9.11249 55.3201C8.95603 55.4854 8.85229 55.6935 8.81448 55.9179C8.77666 56.1424 8.80648 56.373 8.90013 56.5804C8.99378 56.7879 9.14704 56.9628 9.34039 57.0828C12.7439 59.3538 16.8872 60.5236 21.4836 60.5236C23.1093 60.5189 24.7319 60.3808 26.3351 60.1108C34.0511 58.8233 41.7815 54.637 48.0982 48.3203C54.4149 42.0035 58.6013 34.2703 59.8887 26.5572C60.8751 20.5759 60.0665 15.1222 57.5805 10.7409Z" fill="#00BF66"/>
</svg>
