<svg width="50" height="61" viewBox="0 0 50 61" fill="none" xmlns="http://www.w3.org/2000/svg">
<path d="M47.2248 12.0165C44.2055 12.0168 41.2128 12.5807 38.4005 13.6794C34.4318 5.44822 26.414 1.35758 26.0482 1.17189C25.7402 1.01775 25.4004 0.9375 25.056 0.9375C24.7116 0.9375 24.3719 1.01775 24.0638 1.17189C23.6952 1.34926 15.6774 5.43991 11.7087 13.6794C8.89559 12.5804 5.90192 12.0164 2.8817 12.0165C2.29368 12.0165 1.72974 12.2501 1.31394 12.6659C0.898143 13.0817 0.664551 13.6457 0.664551 14.2337V36.4052C0.671789 42.2702 2.78942 47.9367 6.63038 52.369C10.4713 56.8012 15.7791 59.7032 21.5834 60.5445C21.7406 60.5651 21.9004 60.5518 22.052 60.5054C22.2036 60.459 22.3435 60.3806 22.4622 60.2755C22.5809 60.1704 22.6758 60.0411 22.7403 59.8963C22.8048 59.7514 22.8374 59.5944 22.8361 59.4359V45.3487C22.829 44.7767 23.0385 44.2231 23.4224 43.7991C23.8064 43.3751 24.3365 43.1118 24.9064 43.0622C25.2096 43.0421 25.5138 43.0845 25.8 43.1869C26.0862 43.2893 26.3483 43.4494 26.57 43.6573C26.7917 43.8652 26.9682 44.1165 27.0887 44.3956C27.2092 44.6746 27.2711 44.9754 27.2704 45.2794V59.4525C27.269 59.6111 27.3017 59.7681 27.3662 59.9129C27.4307 60.0577 27.5255 60.1871 27.6443 60.2921C27.763 60.3972 27.9029 60.4756 28.0545 60.522C28.2061 60.5684 28.3659 60.5817 28.5231 60.5611C34.3302 59.7194 39.6402 56.815 43.4815 52.3793C47.3228 47.9436 49.4387 42.2731 49.4419 36.4052V14.2337C49.4419 13.6457 49.2083 13.0817 48.7925 12.6659C48.3767 12.2501 47.8128 12.0165 47.2248 12.0165ZM22.8361 37.9184C20.8028 35.0204 18.163 32.5997 15.1 30.8246C12.037 29.0495 8.62425 27.9625 5.09886 27.6392V16.5728C9.97468 17.124 14.4772 19.4501 17.7483 23.1076C21.0194 26.7651 22.8304 31.4983 22.8361 36.4052V37.9184ZM25.0532 26.2507C23.0352 21.8732 19.7735 18.1865 15.6747 15.6499C18.2272 10.326 22.9913 6.96697 25.0532 5.70042C27.118 6.96974 31.8793 10.3287 34.4318 15.6499C30.333 18.1865 27.0713 21.8732 25.0532 26.2507ZM45.0076 27.6364C41.4822 27.9598 38.0695 29.0467 35.0065 30.8218C31.9435 32.597 29.3037 35.0176 27.2704 37.9157V36.4052C27.2761 31.4983 29.087 26.7651 32.3582 23.1076C35.6293 19.4501 40.1318 17.124 45.0076 16.5728V27.6364Z" fill="#00BF66"/>
</svg>
