<svg width="69" height="52" viewBox="0 0 69 52" fill="none" xmlns="http://www.w3.org/2000/svg">
<path d="M51.3371 0.835946C51.1031 0.835328 50.8702 0.869749 50.6463 0.938065L2.59041 15.3548C2.09566 15.5033 1.66193 15.8074 1.35355 16.2218C1.04518 16.6362 0.878563 17.139 0.878418 17.6555V22.4611C0.878418 23.0984 1.13157 23.7095 1.58218 24.1601C2.03279 24.6108 2.64395 24.8639 3.28121 24.8639H5.52182C9.56152 24.8639 12.9675 28.1677 12.8924 32.2105C12.8562 34.0982 12.0808 35.8964 10.7329 37.2185C9.38494 38.5406 7.57209 39.281 5.68401 39.2807H3.28121C2.64395 39.2807 2.03279 39.5338 1.58218 39.9844C1.13157 40.435 0.878418 41.0462 0.878418 41.6835V48.8919C0.878418 49.5291 1.13157 50.1403 1.58218 50.5909C2.03279 51.0415 2.64395 51.2947 3.28121 51.2947H63.3511C64.6256 51.2947 65.8479 50.7883 66.7492 49.8871C67.6504 48.9859 68.1567 47.7636 68.1567 46.4891V17.6555C68.1519 13.1962 66.3783 8.9208 63.2251 5.76755C60.0718 2.6143 55.7965 0.840716 51.3371 0.835946ZM20.1008 46.4891C20.1008 43.94 21.1134 41.4954 22.9158 39.6929C24.7183 37.8905 27.1629 36.8779 29.712 36.8779C32.261 36.8779 34.7057 37.8905 36.5081 39.6929C38.3105 41.4954 39.3231 43.94 39.3231 46.4891H20.1008ZM46.5315 32.0723C45.0643 32.073 43.6163 31.7378 42.2987 31.0924C40.981 30.4469 39.8287 29.5084 38.9299 28.3486C38.0311 27.1889 37.4097 25.8388 37.1135 24.4018C36.8172 22.9647 36.8539 21.479 37.2207 20.0583H55.8424C56.2092 21.479 56.2459 22.9647 55.9496 24.4018C55.6533 25.8388 55.032 27.1889 54.1332 28.3486C53.2344 29.5084 52.082 30.4469 50.7644 31.0924C49.4467 31.7378 47.9988 32.073 46.5315 32.0723ZM19.6533 15.2527L51.6735 5.64154C54.3835 5.72101 56.9873 6.71344 59.0627 8.45793C61.1381 10.2024 62.5635 12.5967 63.1078 15.2527H19.6533Z" fill="#00BF66"/>
</svg>
