<svg width="61" height="60" viewBox="0 0 61 60" fill="none" xmlns="http://www.w3.org/2000/svg">
<path d="M43.5571 7.60657C44.6704 5.8507 45.2654 3.81623 45.2738 1.73718C45.2738 1.30132 45.1006 0.883302 44.7924 0.575099C44.4842 0.266897 44.0662 0.09375 43.6303 0.09375H2.30981C1.87395 0.09375 1.45593 0.266897 1.14773 0.575099C0.839528 0.883302 0.666382 1.30132 0.666382 1.73718C0.674728 3.81623 1.26977 5.8507 2.38306 7.60657H43.5571Z" fill="#00BF66"/>
<path d="M24.6128 27.0927V28.5315C25.7117 27.8066 26.988 27.3961 28.3035 27.3444L28.9956 27.1003C29.7733 26.8242 30.4465 26.3142 30.9229 25.6403C31.3992 24.9664 31.6553 24.1616 31.6561 23.3363V23.1016H28.604C27.5458 23.1028 26.5314 23.5237 25.7832 24.2719C25.0349 25.0202 24.614 26.0346 24.6128 27.0927Z" fill="#00BF66"/>
<path d="M24.6128 34.6006V34.8353H27.6649C28.723 34.8341 29.7375 34.4132 30.4857 33.665C31.2339 32.9167 31.6548 31.9023 31.6561 30.8442V30.6094H28.604C27.5458 30.6106 26.5314 31.0315 25.7832 31.7797C25.0349 32.528 24.614 33.5424 24.6128 34.6006Z" fill="#00BF66"/>
<path d="M17.3365 23.1016H14.2844V23.3363C14.2852 24.1616 14.5413 24.9664 15.0176 25.6403C15.494 26.3142 16.1672 26.8242 16.9449 27.1003L17.637 27.3444C18.9525 27.3961 20.2287 27.8066 21.3277 28.5315V27.0927C21.3265 26.0346 20.9056 25.0202 20.1573 24.2719C19.4091 23.5237 18.3947 23.1028 17.3365 23.1016Z" fill="#00BF66"/>
<path d="M17.3365 30.6094H14.2844V30.8442C14.2857 31.9023 14.7066 32.9167 15.4548 33.665C16.203 34.4132 17.2175 34.8341 18.2756 34.8353H21.3277V34.6006C21.3265 33.5424 20.9056 32.528 20.1573 31.7797C19.4091 31.0315 18.3947 30.6106 17.3365 30.6094Z" fill="#00BF66"/>
<path d="M45.0456 35.086C45.194 33.3749 45.2738 31.6507 45.2738 29.9153C45.276 23.4504 44.2294 17.0281 42.1747 10.8984H3.76638C-0.36695 23.2394 -0.36695 36.5911 3.76638 48.9321H34.475V48.2278C34.4773 47.2844 34.7503 46.3615 35.2617 45.5687C35.7731 44.776 36.5014 44.1467 37.36 43.7558L41.893 37.7098C42.7261 36.6024 43.8054 35.7041 45.0456 35.086ZM34.9436 23.3415C34.9403 24.7838 34.507 26.1923 33.6993 27.3872C34.0541 27.4755 34.3693 27.6798 34.5947 27.9677C34.8202 28.2556 34.943 28.6105 34.9436 28.9762V30.8544C34.9414 32.7839 34.1739 34.6338 32.8095 35.9983C31.4451 37.3627 29.5952 38.1302 27.6656 38.1324H24.6135V41.1845C24.6135 41.6204 24.4404 42.0384 24.1322 42.3466C23.824 42.6548 23.406 42.8279 22.9701 42.8279C22.5342 42.8279 22.1162 42.6548 21.808 42.3466C21.4998 42.0384 21.3267 41.6204 21.3267 41.1845V38.1324H18.2746C16.345 38.1302 14.4951 37.3627 13.1307 35.9983C11.7663 34.6338 10.9988 32.7839 10.9965 30.8544V28.9762C10.9972 28.6105 11.12 28.2556 11.3455 27.9677C11.5709 27.6798 11.886 27.4755 12.2408 27.3872C11.4331 26.1923 10.9999 24.7838 10.9965 23.3415V18.646C10.9965 18.2102 11.1697 17.7922 11.4779 17.484C11.7861 17.1758 12.2041 17.0026 12.64 17.0026C13.0758 17.0026 13.4938 17.1758 13.802 17.484C14.1102 17.7922 14.2834 18.2102 14.2834 18.646V19.8199H17.3355C18.7547 19.8193 20.1428 20.2364 21.3267 21.0191V18.646C21.3267 18.2102 21.4998 17.7922 21.808 17.484C22.1162 17.1758 22.5342 17.0026 22.9701 17.0026C23.406 17.0026 23.824 17.1758 24.1322 17.484C24.4404 17.7922 24.6135 18.2102 24.6135 18.646V21.0191C25.7974 20.2364 27.1854 19.8193 28.6047 19.8199H31.6568V18.646C31.6568 18.2102 31.8299 17.7922 32.1381 17.484C32.4463 17.1758 32.8644 17.0026 33.3002 17.0026C33.7361 17.0026 34.1541 17.1758 34.4623 17.484C34.7705 17.7922 34.9436 18.2102 34.9436 18.646V23.3415Z" fill="#00BF66"/>
<path d="M34.4741 52.2188H2.38306C1.26977 53.9746 0.674728 56.0091 0.666382 58.0881C0.666382 58.524 0.839528 58.942 1.14773 59.2502C1.45593 59.5584 1.87395 59.7316 2.30981 59.7316H36.4866C35.1839 58.1429 34.4726 56.1515 34.4741 54.097V52.2188Z" fill="#00BF66"/>
<path d="M58.6553 46.5859H39.4037C38.9679 46.5862 38.55 46.7594 38.2419 47.0676C37.9337 47.3757 37.7605 47.7936 37.7603 48.2294V54.0988C37.7603 55.5932 38.3539 57.0263 39.4106 58.083C40.4673 59.1397 41.9005 59.7334 43.3949 59.7334H54.6641C56.1585 59.7334 57.5917 59.1397 58.6484 58.083C59.7051 57.0263 60.2987 55.5932 60.2987 54.0988V48.2294C60.2985 47.7936 60.1252 47.3757 59.8171 47.0676C59.5089 46.7594 59.0911 46.5862 58.6553 46.5859Z" fill="#00BF66"/>
<path d="M44.5219 39.6757L41.8098 43.2913H56.2485L53.5373 39.6757C53.0125 38.9759 52.3319 38.4079 51.5495 38.0167C50.7671 37.6255 49.9044 37.4219 49.0296 37.4219C48.1549 37.4219 47.2922 37.6255 46.5098 38.0167C45.7274 38.4079 45.0468 38.9759 44.5219 39.6757Z" fill="#00BF66"/>
</svg>
