<svg width="43" height="60" viewBox="0 0 43 60" fill="none" xmlns="http://www.w3.org/2000/svg">
<path d="M23.2714 32.3779H25.9663C27.6211 32.3779 28.9675 31.0316 28.9675 29.3769V27.9844H26.2725C24.6178 27.9844 23.2714 29.3307 23.2714 30.9854V32.3779Z" fill="#00BF66"/>
<path d="M17.0695 26.7374H19.7645V25.3449C19.7645 23.6902 18.4181 22.3438 16.7633 22.3438H14.0684V23.7364C14.0684 25.3912 15.4148 26.7374 17.0695 26.7374Z" fill="#00BF66"/>
<path d="M3.55298 11.0391L0.366943 15.7648V59.9148H42.6693V11.0391H3.55298ZM15.893 47.9882V44.4803H27.1435V47.9882H15.893ZM10.5603 18.8378H16.7631C20.308 18.8378 23.198 21.6866 23.2687 25.2148C24.1682 24.7446 25.1898 24.477 26.2733 24.477H32.4761V29.3773C32.4761 32.9662 29.5561 35.8862 25.9671 35.8862H23.2721V40.5401H19.7643V30.2471H17.0693C13.4802 30.2471 10.5603 27.3272 10.5603 23.7382V18.8378Z" fill="#00BF66"/>
<path d="M5.09717 0.28125H16.8541V7.53076H5.09717V0.28125Z" fill="#00BF66"/>
<path d="M24.8058 5.25067C24.8058 4.44469 25.4614 3.78907 26.2674 3.78907H37.7009C38.5069 3.78907 39.1625 4.44469 39.1625 5.25067V7.53076H42.6703V5.25067C42.6703 2.51047 40.4411 0.28125 37.7009 0.28125H26.2674C23.5272 0.28125 21.298 2.51047 21.298 5.25067V7.53076H24.8058V5.25067Z" fill="#00BF66"/>
</svg>
