<svg width="61" height="61" viewBox="0 0 61 61" fill="none" xmlns="http://www.w3.org/2000/svg">
<path d="M43.8591 14.2637C43.8591 14.8738 43.6782 15.4702 43.3393 15.9774C43.0004 16.4846 42.5186 16.88 41.955 17.1135C41.3914 17.3469 40.7712 17.408 40.1729 17.289C39.5745 17.17 39.0249 16.8762 38.5936 16.4448C38.1622 16.0134 37.8684 15.4638 37.7494 14.8655C37.6304 14.2672 37.6915 13.647 37.9249 13.0833C38.1584 12.5197 38.5537 12.038 39.061 11.6991C39.5682 11.3601 40.1646 11.1792 40.7746 11.1792C41.5927 11.1792 42.3773 11.5042 42.9557 12.0827C43.5342 12.6611 43.8591 13.4457 43.8591 14.2637ZM56.3823 31.6501C51.4034 40.6209 42.1318 45.4687 28.817 46.0702L23.1621 59.2848C23.0031 59.6558 22.7385 59.9719 22.4012 60.1936C22.0638 60.4153 21.6687 60.5328 21.2651 60.5315H21.134C20.7102 60.5049 20.3051 60.3478 19.9742 60.0818C19.6433 59.8158 19.4028 59.4539 19.2858 59.0457L15.4816 45.7232L2.16679 41.9113C1.75751 41.7963 1.39391 41.5573 1.12604 41.2272C0.858179 40.8971 0.699215 40.4921 0.67103 40.0679C0.642844 39.6437 0.746823 39.2212 0.968656 38.8585C1.19049 38.4959 1.51927 38.2109 1.90975 38.0428L15.1243 32.3878C15.7284 19.0781 20.5762 9.80919 29.5419 4.8277C35.9037 1.29593 43.0983 0.756137 48.0181 0.925786C52.8094 1.09029 57.2716 2.02336 58.0068 2.46804C58.307 2.64497 58.5573 2.89528 58.7342 3.19547C59.1686 3.92805 60.1043 8.39031 60.2765 13.1816C60.4513 18.0911 59.914 25.2883 56.3823 31.6501ZM55.277 5.92784C51.6398 5.15671 38.8005 3.10037 29.4956 9.71922C27.9555 10.8181 26.5719 12.1212 25.3829 13.5929C25.2855 14.9357 25.4822 16.2836 25.9595 17.5425C26.4367 18.8014 27.1829 19.941 28.1459 20.8818C29.109 21.8226 30.2658 22.5419 31.5355 22.9896C32.8053 23.4372 34.1574 23.6024 35.4975 23.4736C35.7994 23.4445 36.104 23.4826 36.3895 23.5851C36.675 23.6876 36.9342 23.8519 37.1487 24.0664C37.3632 24.2809 37.5275 24.5401 37.63 24.8256C37.7325 25.1111 37.7706 25.4157 37.7415 25.7176C37.613 27.0582 37.7786 28.4108 38.2269 29.6808C38.6751 30.9508 39.3952 32.1077 40.3368 33.0706C41.2784 34.0335 42.4189 34.7793 43.6786 35.2558C44.9383 35.7324 46.2868 35.9282 47.63 35.8296C49.0961 34.6403 50.3933 33.2567 51.4856 31.7169C58.1045 22.4197 56.0481 9.57014 55.277 5.92784Z" fill="#00BF66"/>
</svg>
