<svg width="56" height="61" viewBox="0 0 56 61" fill="none" xmlns="http://www.w3.org/2000/svg">
<path d="M49.9098 30.8805C49.6942 30.7554 49.4573 30.6356 49.2124 30.5185C49.4573 30.4014 49.6942 30.2816 49.9098 30.1565C51.1303 29.4625 52.2016 28.534 53.0618 27.4244C53.9221 26.3147 54.5543 25.0459 54.9222 23.6909C55.2901 22.3359 55.3863 20.9215 55.2053 19.5292C55.0243 18.1368 54.5698 16.7941 53.8677 15.5781C53.1657 14.3622 52.2301 13.2971 51.1147 12.4443C49.9994 11.5914 48.7264 10.9676 47.369 10.6087C46.0116 10.2498 44.5966 10.163 43.2055 10.3532C41.8144 10.5434 40.4746 11.0069 39.2634 11.717C39.0478 11.8421 38.8242 11.9831 38.6033 12.1402C38.6246 11.874 38.6379 11.6079 38.6379 11.3417C38.6379 8.5181 37.5163 5.81015 35.5197 3.81356C33.5231 1.81698 30.8151 0.695313 27.9915 0.695312C25.1679 0.695313 22.46 1.81698 20.4634 3.81356C18.4668 5.81015 17.3452 8.5181 17.3452 11.3417C17.3452 11.5919 17.3452 11.858 17.3798 12.1402C17.1589 11.9885 16.9353 11.8421 16.7197 11.717C15.5084 11.0069 14.1687 10.5434 12.7776 10.3532C11.3865 10.163 9.97152 10.2498 8.61411 10.6087C7.25671 10.9676 5.98369 11.5914 4.86836 12.4443C3.75303 13.2971 2.81741 14.3622 2.11538 15.5781C1.41334 16.7941 0.958748 18.1368 0.777774 19.5292C0.5968 20.9215 0.69302 22.3359 1.06089 23.6909C1.42876 25.0459 2.06102 26.3147 2.92127 27.4244C3.78151 28.534 4.85275 29.4625 6.07331 30.1565C6.2889 30.2816 6.52578 30.4014 6.77065 30.5185C6.52578 30.6356 6.2889 30.7554 6.07331 30.8805C4.85275 31.5744 3.78151 32.5029 2.92127 33.6126C2.06102 34.7222 1.42876 35.9911 1.06089 37.3461C0.69302 38.7011 0.5968 40.1155 0.777774 41.5078C0.958748 42.9001 1.41334 44.2429 2.11538 45.4588C2.81741 46.6748 3.75303 47.7398 4.86836 48.5927C5.98369 49.4456 7.25671 50.0694 8.61411 50.4283C9.97152 50.7871 11.3865 50.874 12.7776 50.6838C14.1687 50.4936 15.5084 50.0301 16.7197 49.32C16.9353 49.1949 17.1589 49.0538 17.3798 48.8968C17.3585 49.1629 17.3452 49.4291 17.3452 49.682C17.3452 52.5056 18.4668 55.2135 20.4634 57.2101C22.46 59.2067 25.1679 60.3283 27.9915 60.3283C30.8151 60.3283 33.5231 59.2067 35.5197 57.2101C37.5163 55.2135 38.6379 52.5056 38.6379 49.682C38.6379 49.4318 38.6246 49.1656 38.6033 48.8968C38.8242 49.0485 39.0478 49.1949 39.2634 49.32C40.8761 50.2542 42.7068 50.7463 44.5706 50.7466C45.5071 50.7454 46.4395 50.6219 47.344 50.3793C49.3779 49.8342 51.2045 48.6981 52.5928 47.1148C53.981 45.5316 54.8686 43.5722 55.1432 41.4844C55.4179 39.3967 55.0673 37.2744 54.1357 35.386C53.2042 33.4975 51.7335 31.9277 49.9098 30.8751V30.8805ZM27.9915 37.9709C26.5176 37.9709 25.0767 37.5339 23.8512 36.715C22.6256 35.8961 21.6704 34.7322 21.1064 33.3704C20.5423 32.0087 20.3947 30.5102 20.6823 29.0646C20.9698 27.6189 21.6796 26.291 22.7219 25.2488C23.7641 24.2065 25.092 23.4968 26.5376 23.2092C27.9833 22.9217 29.4817 23.0692 30.8435 23.6333C32.2052 24.1974 33.3692 25.1526 34.188 26.3781C35.0069 27.6037 35.444 29.0445 35.444 30.5185C35.444 32.495 34.6588 34.3906 33.2612 35.7882C31.8636 37.1858 29.9681 37.9709 27.9915 37.9709Z" fill="#00BF66"/>
</svg>
