<svg width="46" height="61" viewBox="0 0 46 61" fill="none" xmlns="http://www.w3.org/2000/svg">
<path d="M32.9778 17.1073C35.6235 15.7091 37.8383 13.6164 39.3839 11.0541C40.9296 8.4917 41.7477 5.55656 41.7505 2.56411C41.7505 2.01875 41.5338 1.49572 41.1482 1.11009C40.7626 0.724457 40.2395 0.507813 39.6942 0.507812H37.6379C34.6982 0.508926 31.8126 1.29774 29.2811 2.7922C26.7497 4.28665 24.6649 6.43214 23.2438 9.00546C21.8227 6.43214 19.7379 4.28665 17.2065 2.7922C14.675 1.29774 11.7894 0.508926 8.84973 0.507812H6.79343C6.24807 0.507813 5.72504 0.724457 5.33941 1.11009C4.95378 1.49572 4.73713 2.01875 4.73713 2.56411C4.73713 3.10947 4.95378 3.6325 5.33941 4.01813C5.72504 4.40376 6.24807 4.62041 6.79343 4.62041H8.84973C11.7832 4.62443 14.6195 5.67178 16.8516 7.57517C19.0837 9.47856 20.5659 12.1139 21.0333 15.0098C15.5904 15.5426 10.5248 18.0293 6.77426 22.0096C3.02376 25.99 0.842355 31.1943 0.633883 36.6593C0.425412 42.1243 2.20399 47.4797 5.64036 51.7342C9.07673 55.9887 13.9382 58.8541 19.3247 59.7999C24.7112 60.7458 30.258 59.708 34.9383 56.8788C39.6185 54.0496 43.1152 49.6205 44.7811 44.4114C46.4469 39.2024 46.1691 33.5662 43.999 28.5462C41.829 23.5262 37.9136 19.4625 32.9778 17.1073ZM37.4657 4.62041C36.9807 7.46445 35.5161 10.0492 33.3257 11.927C31.1353 13.8047 28.3571 14.8572 25.4723 14.9019C25.9573 12.0578 27.4219 9.47305 29.6123 7.5953C31.8027 5.71754 34.5809 4.66514 37.4657 4.62041ZM37.6096 39.9167C37.0806 42.8978 35.6489 45.6445 33.508 47.7854C31.3672 49.9263 28.6205 51.358 25.6394 51.8869C25.5272 51.9052 25.4138 51.9146 25.3001 51.9152C24.7845 51.9144 24.288 51.72 23.909 51.3705C23.5301 51.0209 23.2962 50.5417 23.2538 50.0279C23.2115 49.514 23.3637 49.003 23.6803 48.5961C23.997 48.1892 24.4549 47.9161 24.9634 47.8309C27.1031 47.4507 29.0746 46.4228 30.6113 44.8861C32.148 43.3493 33.1759 41.3779 33.5561 39.2382C33.6505 38.7044 33.9519 38.2295 34.3946 37.9167C34.8373 37.604 35.3857 37.4787 35.9203 37.5681C36.4549 37.6576 36.9326 37.9545 37.2495 38.3943C37.5663 38.8342 37.6967 39.3813 37.6122 39.9167H37.6096Z" fill="#00BF66"/>
</svg>
