<svg width="48" height="61" viewBox="0 0 48 61" fill="none" xmlns="http://www.w3.org/2000/svg">
<path d="M36.2091 11.2848C32.9207 7.48701 29.2196 4.06718 25.1742 1.08855C24.8161 0.837691 24.3895 0.703125 23.9522 0.703125C23.515 0.703125 23.0884 0.837691 22.7303 1.08855C18.6924 4.06842 14.9985 7.48821 11.7167 11.2848C4.39828 19.6894 0.5354 28.5493 0.5354 36.9087C0.5354 43.122 3.00365 49.0809 7.39716 53.4744C11.7907 57.8679 17.7495 60.3361 23.9629 60.3361C30.1763 60.3361 36.1351 57.8679 40.5286 53.4744C44.9221 49.0809 47.3904 43.122 47.3904 36.9087C47.3904 28.5493 43.5275 19.6894 36.2091 11.2848ZM38.8314 39.3952C38.2791 42.4799 36.795 45.3214 34.5789 47.537C32.3627 49.7527 29.5209 51.2362 26.4361 51.7878C26.3225 51.806 26.2077 51.8158 26.0927 51.8171C25.5584 51.8169 25.0438 51.616 24.6507 51.2542C24.2577 50.8923 24.015 50.396 23.9708 49.8636C23.9265 49.3312 24.084 48.8016 24.412 48.3799C24.7399 47.9582 25.2144 47.6751 25.7413 47.5868C30.1525 46.844 33.8956 43.101 34.6437 38.6817C34.7383 38.1246 35.0504 37.6279 35.5112 37.3009C35.972 36.9739 36.5438 36.8433 37.1009 36.9379C37.658 37.0326 38.1547 37.3446 38.4817 37.8054C38.8087 38.2662 38.9393 38.8381 38.8447 39.3952H38.8314Z" fill="#00BF66"/>
</svg>
