<svg width="58" height="61" viewBox="0 0 58 61" fill="none" xmlns="http://www.w3.org/2000/svg">
<path d="M57.6698 3.41306C57.6343 2.80519 57.3768 2.23152 56.9463 1.80096C56.5157 1.3704 55.9421 1.11293 55.3342 1.07743C31.6891 -0.310897 12.7494 6.8078 4.67407 20.1631C1.87493 24.7316 0.495586 30.0285 0.710956 35.382C0.851536 38.8054 1.54807 42.1831 2.77326 45.3829C2.84526 45.5798 2.96592 45.7553 3.12401 45.8931C3.28209 46.0308 3.47247 46.1263 3.67739 46.1706C3.88232 46.2149 4.09514 46.2067 4.29602 46.1466C4.4969 46.0865 4.67931 45.9766 4.82626 45.8271L31.2263 19.0233C31.4571 18.7924 31.7312 18.6093 32.0328 18.4843C32.3345 18.3594 32.6577 18.2951 32.9842 18.2951C33.3107 18.2951 33.634 18.3594 33.9356 18.4843C34.2372 18.6093 34.5113 18.7924 34.7422 19.0233C34.973 19.2541 35.1561 19.5282 35.2811 19.8298C35.406 20.1314 35.4703 20.4547 35.4703 20.7812C35.4703 21.1077 35.406 21.4309 35.2811 21.7326C35.1561 22.0342 34.973 22.3083 34.7422 22.5391L5.89158 51.8245L1.48432 56.2318C1.02597 56.678 0.752333 57.2804 0.717805 57.9192C0.683278 58.5579 0.890391 59.1863 1.29797 59.6793C1.52118 59.9378 1.79528 60.1475 2.10316 60.2953C2.41104 60.4431 2.74608 60.5259 3.08737 60.5384C3.42866 60.5509 3.76887 60.493 4.08676 60.3681C4.40465 60.2433 4.69339 60.0543 4.93496 59.8129L10.1497 54.5981C14.5415 56.7225 18.9736 57.881 23.3684 58.0363C23.7142 58.0487 24.0589 58.0549 24.4027 58.0549C29.4075 58.0677 34.3174 56.6892 38.5841 54.0732C51.9395 45.9979 59.0612 27.0613 57.6698 3.41306Z" fill="#00BF66"/>
</svg>
