<svg width="52" height="61" viewBox="0 0 52 61" fill="none" xmlns="http://www.w3.org/2000/svg">
<path d="M25.7854 52.4375C35.2317 52.4375 42.9167 44.7525 42.9167 35.3062V16.5926C42.9167 12.4149 39.5179 9.01604 35.3402 9.01604C32.9521 9.01604 30.7277 10.0909 29.2376 11.9652C26.5611 15.3317 22.9687 18.0415 18.849 19.8015C15.949 21.0405 13.6245 22.7507 11.9403 24.8849C9.75974 27.648 8.6542 31.1541 8.6542 35.3062C8.65408 44.7525 16.3392 52.4375 25.7854 52.4375ZM24.0161 35.4766C27.2792 35.4766 29.9339 38.1312 29.9339 41.3942C29.9339 44.6573 27.2792 47.312 24.0161 47.312C20.7531 47.312 18.0983 44.6571 18.0983 41.3942C18.0983 38.1313 20.7531 35.4766 24.0161 35.4766Z" fill="#00BF66"/>
<path d="M24.0178 43.8125C25.3542 43.8125 26.4414 42.7252 26.4414 41.3889C26.4414 40.0525 25.3542 38.9653 24.0178 38.9653C22.6814 38.9653 21.5941 40.0526 21.5941 41.389C21.5941 42.7254 22.6814 43.8125 24.0178 43.8125Z" fill="#00BF66"/>
<path d="M0.54884 35.3019C0.54884 42.0337 3.17863 48.3695 7.9537 53.1425C12.7259 57.9123 19.059 60.5391 25.7862 60.5391C25.7906 60.5391 25.7942 60.5391 25.7988 60.5391C32.4889 60.5358 38.8125 57.8619 43.6049 53.0098C48.3886 48.1666 51.0232 41.7948 51.0232 35.0685V16.7702C51.0232 8.04651 44.0082 0.929798 35.3852 0.906155H35.3851C35.3705 0.906155 35.3551 0.906036 35.3404 0.906036C31.1981 0.905918 27.2939 2.50506 24.3415 5.41171C24.0397 5.70894 23.7471 6.02073 23.4722 6.33823C21.2866 8.86227 18.5518 10.8991 15.5636 12.2287C6.44261 16.2868 0.54884 25.3436 0.54884 35.3019ZM26.5032 9.78658C28.6603 7.07363 31.8815 5.51781 35.3408 5.51781C41.4452 5.51781 46.4115 10.4841 46.4115 16.5885V35.3019C46.4115 46.6748 37.1591 55.9274 25.7861 55.9274C14.4131 55.9274 5.16062 46.675 5.16062 35.3019C5.16062 30.3453 6.51902 26.1109 9.19796 22.7161C11.2482 20.1182 14.0336 18.0551 17.4769 16.5842C21.065 15.0513 24.1863 12.7008 26.5032 9.78658Z" fill="#00BF66"/>
</svg>
