<svg width="68" height="60" viewBox="0 0 68 60" fill="none" xmlns="http://www.w3.org/2000/svg">
<path d="M66.9255 19.947C66.7022 19.692 66.4272 19.4875 66.1187 19.3471C65.8102 19.2067 65.4753 19.1337 65.1363 19.1329H51.9053L35.913 0.862353C35.6891 0.608512 35.4138 0.405212 35.1054 0.265959C34.7969 0.126706 34.4623 0.0546875 34.1238 0.0546875C33.7854 0.0546875 33.4508 0.126706 33.1423 0.265959C32.8338 0.405212 32.5585 0.608512 32.3347 0.862353L16.3423 19.1329H3.11132C2.77133 19.1329 2.43527 19.2055 2.12565 19.346C1.81603 19.4864 1.54 19.6914 1.31608 19.9473C1.09215 20.2031 0.925502 20.5039 0.827288 20.8293C0.729075 21.1548 0.701571 21.4976 0.74662 21.8346L5.24045 55.5487C5.39721 56.6929 5.96217 57.742 6.83124 58.5025C7.70032 59.2631 8.81497 59.684 9.96986 59.6877H58.2778C59.4327 59.684 60.5473 59.2631 61.4164 58.5025C62.2855 57.742 62.8505 56.6929 63.0072 55.5487L67.501 21.8346C67.5453 21.4971 67.5169 21.154 67.4176 20.8285C67.3183 20.5029 67.1506 20.2023 66.9255 19.947ZM20.2875 50.1454C20.207 50.1499 20.1264 50.1499 20.0459 50.1454C19.4525 50.1484 18.8792 49.93 18.4381 49.533C17.997 49.136 17.7197 48.5889 17.6604 47.9984L15.9905 31.2993C15.9272 30.6698 16.1166 30.0409 16.517 29.551C16.9174 29.0612 17.496 28.7504 18.1256 28.6871C18.7551 28.6239 19.384 28.8133 19.8738 29.2137C20.3637 29.6141 20.6745 30.1927 20.7378 30.8222L22.4077 47.5213C22.4745 48.1504 22.2886 48.7803 21.891 49.2724C21.4934 49.7645 20.9166 50.0786 20.2875 50.1454ZM36.5094 47.7598C36.5094 48.3925 36.2581 48.9993 35.8107 49.4467C35.3633 49.8941 34.7565 50.1454 34.1238 50.1454C33.4911 50.1454 32.8844 49.8941 32.437 49.4467C31.9896 48.9993 31.7383 48.3925 31.7383 47.7598V31.0608C31.7383 30.4281 31.9896 29.8213 32.437 29.3739C32.8844 28.9265 33.4911 28.6752 34.1238 28.6752C34.7565 28.6752 35.3633 28.9265 35.8107 29.3739C36.2581 29.8213 36.5094 30.4281 36.5094 31.0608V47.7598ZM22.682 19.1329L34.1238 6.05695L45.5657 19.1329H22.682ZM52.2423 31.2993L50.5724 47.9984C50.5133 48.5863 50.2381 49.1314 49.8002 49.528C49.3622 49.9247 48.7926 50.1447 48.2017 50.1454C48.1213 50.1499 48.0406 50.1499 47.9602 50.1454C47.6485 50.1141 47.346 50.0217 47.07 49.8734C46.794 49.7252 46.5499 49.5241 46.3516 49.2815C46.1534 49.0389 46.0048 48.7597 45.9145 48.4597C45.8241 48.1597 45.7938 47.8449 45.8251 47.5332L47.495 30.8342C47.5583 30.2046 47.869 29.626 48.3589 29.2256C48.8488 28.8252 49.4777 28.6358 50.1072 28.6991C50.7367 28.7623 51.3153 29.0731 51.7158 29.563C52.1162 30.0529 52.3056 30.6817 52.2423 31.3113V31.2993Z" fill="#00BF66"/>
</svg>
