<svg width="65" height="61" viewBox="0 0 65 61" fill="none" xmlns="http://www.w3.org/2000/svg">
<path d="M59.1372 10.7678C57.3448 8.72115 55.8476 6.43376 54.689 3.97217C54.2773 3.07501 53.7848 2.21718 53.2176 1.40926C53.0128 1.13092 52.7302 0.919331 52.4055 0.801095C52.0807 0.682859 51.7283 0.663251 51.3924 0.744733C50.4387 0.998996 49.51 1.33951 48.618 1.76208C46.1481 2.90312 43.5308 3.69324 40.8421 4.10948C35.4439 4.99796 30.5867 7.90879 27.2578 12.2502C28.9423 13.9062 30.8465 15.3227 32.9168 16.4599C36.5284 18.4742 39.5764 21.3629 41.7813 24.8613L45.8747 13.6134C46.0342 13.1762 46.3608 12.8203 46.7827 12.624C46.9916 12.5268 47.2176 12.4717 47.4478 12.4618C47.678 12.4519 47.9079 12.4875 48.1244 12.5665C48.3408 12.6454 48.5396 12.7663 48.7094 12.9221C48.8791 13.0779 49.0165 13.2656 49.1138 13.4745C49.211 13.6834 49.2661 13.9094 49.276 14.1396C49.2858 14.3698 49.2503 14.5997 49.1713 14.8161L43.9593 29.1431C46.2213 34.9053 46.3884 41.2788 44.4314 47.1516C48.5844 46.7583 52.5373 45.1813 55.8206 42.6079C59.104 40.0346 61.5798 36.573 62.954 32.6342C64.323 28.9798 64.691 25.0261 64.02 21.1818C63.349 17.3376 61.6633 13.7423 59.1372 10.7678Z" fill="#00BF66"/>
<path d="M31.2119 19.5316C28.8281 18.2204 26.639 16.5829 24.708 14.6664C24.0143 13.9643 23.2581 13.3269 22.4488 12.762C22.1609 12.5708 21.8231 12.4688 21.4775 12.4688C21.132 12.4688 20.7941 12.5708 20.5063 12.762C19.697 13.327 18.9409 13.9644 18.2471 14.6664C16.3163 16.5835 14.1272 18.2214 11.7431 19.5326C8.3517 21.464 5.53792 24.2664 3.59283 27.65C1.64774 31.0335 0.641988 34.8753 0.679607 38.7779C0.679607 49.4425 7.94634 58.4813 17.9694 60.2664C18.5834 60.3739 19.2131 60.3509 19.8176 60.1987C20.422 60.0466 20.9876 59.7688 21.4775 59.3834C22.2591 59.9966 23.2234 60.3307 24.2168 60.3326C24.476 60.3325 24.7346 60.3093 24.9896 60.2634C35.0087 58.4813 42.2754 49.4425 42.2754 38.7779C42.3132 34.8751 41.3075 31.0331 39.3624 27.6494C37.4174 24.2656 34.6035 21.4631 31.2119 19.5316ZM23.2316 47.7897C23.2316 48.2549 23.0468 48.701 22.7178 49.03C22.3889 49.3589 21.9427 49.5437 21.4775 49.5437C21.0123 49.5437 20.5662 49.3589 20.2372 49.03C19.9083 48.701 19.7235 48.2549 19.7235 47.7897V26.7412C19.7235 26.276 19.9083 25.8298 20.2372 25.5009C20.5662 25.1719 21.0123 24.9871 21.4775 24.9871C21.9427 24.9871 22.3889 25.1719 22.7178 25.5009C23.0468 25.8298 23.2316 26.276 23.2316 26.7412V47.7897Z" fill="#00BF66"/>
</svg>
