<svg width="45" height="61" viewBox="0 0 45 61" fill="none" xmlns="http://www.w3.org/2000/svg">
<path d="M43.8454 30.0979L16.0201 59.9107C15.7253 60.2254 15.3361 60.4357 14.9112 60.5097C14.4864 60.5838 14.049 60.5177 13.665 60.3214C13.281 60.125 12.9713 59.8091 12.7827 59.4214C12.594 59.0336 12.5365 58.595 12.619 58.1717L16.2611 39.9536L1.94354 34.5773C1.63605 34.4623 1.36184 34.2729 1.14541 34.026C0.928974 33.7792 0.777063 33.4826 0.703242 33.1627C0.629421 32.8428 0.635991 32.5096 0.722364 32.1929C0.808737 31.8761 0.972223 31.5857 1.19822 31.3476L29.0235 1.53478C29.3184 1.2201 29.7076 1.00986 30.1324 0.935789C30.5573 0.861718 30.9947 0.927837 31.3786 1.12417C31.7626 1.3205 32.0723 1.63639 32.261 2.02417C32.4497 2.41195 32.5071 2.85058 32.4246 3.27387L28.7726 21.5118L43.0902 26.8806C43.3954 26.9964 43.6674 27.1856 43.8821 27.4315C44.0969 27.6774 44.2478 27.9724 44.3214 28.2904C44.3951 28.6084 44.3893 28.9397 44.3046 29.2549C44.2198 29.5702 44.0587 29.8597 43.8355 30.0979H43.8454Z" fill="#00BF66"/>
</svg>
