<svg width="61" height="61" viewBox="0 0 61 61" fill="none" xmlns="http://www.w3.org/2000/svg">
<path d="M23.189 51.3135C23.189 52.1316 22.864 52.9162 22.2855 53.4947C21.707 54.0732 20.9224 54.3982 20.1042 54.3982H7.76521C6.50215 54.3974 5.26155 54.0642 4.16802 53.4321C3.07449 52.8 2.16655 51.8913 1.53538 50.7973C0.904214 49.7032 0.572055 48.4623 0.572266 47.1993C0.572477 45.9362 0.905052 44.6954 1.53658 43.6016L9.10708 30.5223L7.88346 30.8487C7.48921 30.963 7.07612 30.9974 6.66839 30.95C6.26066 30.9026 5.86649 30.7742 5.50899 30.5725C5.15149 30.3708 4.83783 30.0998 4.58641 29.7753C4.33499 29.4509 4.15085 29.0795 4.04479 28.683C3.93872 28.2864 3.91287 27.8727 3.96874 27.466C4.0246 27.0594 4.16107 26.668 4.37014 26.3147C4.57921 25.9615 4.85668 25.6535 5.18629 25.4089C5.5159 25.1642 5.89102 24.9878 6.28967 24.89L14.7136 22.6356C15.5034 22.4243 16.3448 22.5352 17.0529 22.944C17.761 23.3527 18.2778 24.0259 18.4899 24.8155L20.7495 33.2394C20.8676 33.6346 20.9054 34.0494 20.8604 34.4594C20.8155 34.8694 20.6888 35.2662 20.4878 35.6264C20.2868 35.9866 20.0157 36.3028 19.6904 36.5564C19.365 36.8099 18.9922 36.9956 18.5938 37.1026C18.1955 37.2095 17.7797 37.2355 17.3712 37.1789C16.9626 37.1224 16.5695 36.9845 16.2152 36.7734C15.8609 36.5623 15.5525 36.2823 15.3082 35.9499C15.064 35.6175 14.8889 35.2396 14.7933 34.8383L14.4694 33.5762L6.88606 46.6864C6.79628 46.8418 6.74877 47.0181 6.74827 47.1977C6.74777 47.3772 6.79428 47.5538 6.88319 47.7097C6.97211 47.8657 7.10031 47.9957 7.25505 48.0868C7.40979 48.1778 7.58568 48.2268 7.76521 48.2287H20.1042C20.9224 48.2287 21.707 48.5537 22.2855 49.1322C22.864 49.7107 23.189 50.4954 23.189 51.3135ZM30.3867 7.09869C30.5677 7.09535 30.7462 7.14146 30.903 7.23206C31.0597 7.32265 31.1887 7.4543 31.2762 7.61281L38.8467 20.6896L37.6256 20.3631C37.2292 20.2424 36.8125 20.2028 36.4004 20.2466C35.9883 20.2905 35.5893 20.4169 35.2271 20.6184C34.865 20.8199 34.5472 21.0923 34.2926 21.4193C34.0381 21.7463 33.852 22.1213 33.7456 22.5218C33.6392 22.9223 33.6145 23.3402 33.6731 23.7504C33.7318 24.1607 33.8724 24.5549 34.0868 24.9096C34.3011 25.2642 34.5847 25.5721 34.9207 25.8147C35.2566 26.0574 35.638 26.2299 36.0421 26.3218L44.4661 28.5814C45.2559 28.7927 46.0973 28.6818 46.8053 28.273C47.5134 27.8643 48.0303 27.1911 48.2423 26.4015L50.4891 17.9724C50.7011 17.1816 50.5903 16.3389 50.181 15.6297C49.9783 15.2786 49.7085 14.9708 49.3869 14.724C49.0653 14.4771 48.6982 14.296 48.3066 14.1911C47.5157 13.979 46.673 14.0898 45.9639 14.4991C45.2547 14.9084 44.7372 15.5827 44.5252 16.3735L44.1884 17.6228L36.6154 4.52806C35.983 3.43612 35.0747 2.52961 33.9815 1.89942C32.8883 1.26922 31.6486 0.9375 30.3867 0.9375C29.1249 0.9375 27.8852 1.26922 26.792 1.89942C25.6988 2.52961 24.7905 3.43612 24.1581 4.52806L18.2045 14.8106C17.9861 15.1617 17.8406 15.5532 17.7765 15.9617C17.7125 16.3703 17.7312 16.7875 17.8316 17.1887C17.932 17.5898 18.112 17.9667 18.361 18.2969C18.61 18.627 18.9228 18.9038 19.2808 19.1107C19.6389 19.3175 20.0349 19.4503 20.4453 19.5011C20.8557 19.5519 21.2721 19.5196 21.6698 19.4062C22.0675 19.2928 22.4383 19.1007 22.7602 18.8411C23.0821 18.5815 23.3486 18.2599 23.5437 17.8953L29.4973 7.61281C29.5847 7.4543 29.7138 7.32265 29.8705 7.23206C30.0273 7.14146 30.2057 7.09535 30.3867 7.09869ZM59.2266 43.6016L53.2782 33.3191C53.083 32.9545 52.8166 32.6329 52.4947 32.3733C52.1727 32.1138 51.8019 31.9216 51.4042 31.8082C51.0066 31.6948 50.5901 31.6626 50.1798 31.7133C49.7694 31.7641 49.3734 31.8969 49.0153 32.1038C48.6572 32.3106 48.3444 32.5874 48.0955 32.9176C47.8465 33.2477 47.6665 33.6246 47.566 34.0258C47.4656 34.4269 47.4469 34.8441 47.511 35.2527C47.575 35.6612 47.7206 36.0527 47.939 36.4038L53.8874 46.6864C53.9776 46.8426 54.0251 47.0198 54.0252 47.2002C54.0252 47.3806 53.9778 47.5579 53.8877 47.7142C53.7976 47.8704 53.6679 48.0003 53.5117 48.0906C53.3556 48.1809 53.1784 48.2285 52.998 48.2287H37.8416L38.7439 47.3264C39.0308 47.0395 39.2584 46.6988 39.4137 46.3239C39.569 45.949 39.6489 45.5472 39.6489 45.1414C39.6489 44.7356 39.569 44.3338 39.4137 43.9589C39.2584 43.584 39.0308 43.2433 38.7439 42.9564C38.4569 42.6694 38.1163 42.4418 37.7414 42.2865C37.3664 42.1312 36.9646 42.0513 36.5588 42.0513C36.153 42.0513 35.7512 42.1312 35.3763 42.2865C35.0014 42.4418 34.6607 42.6694 34.3738 42.9564L28.2043 49.1259C27.9167 49.4125 27.6885 49.753 27.5328 50.128C27.3771 50.5029 27.297 50.9049 27.297 51.3109C27.297 51.7169 27.3771 52.1189 27.5328 52.4939C27.6885 52.8688 27.9167 53.2094 28.2043 53.496L34.3738 59.6655C34.6607 59.9524 35.0014 60.18 35.3763 60.3353C35.7512 60.4906 36.153 60.5705 36.5588 60.5705C36.9646 60.5705 37.3664 60.4906 37.7414 60.3353C38.1163 60.18 38.4569 59.9524 38.7439 59.6655C39.0308 59.3785 39.2584 59.0379 39.4137 58.663C39.569 58.288 39.6489 57.8862 39.6489 57.4804C39.6489 57.0746 39.569 56.6728 39.4137 56.2979C39.2584 55.923 39.0308 55.5823 38.7439 55.2954L37.8416 54.3982H53.0083C54.2713 54.3974 55.5119 54.0642 56.6055 53.4321C57.699 52.8 58.6069 51.8913 59.2381 50.7973C59.8693 49.7032 60.2014 48.4623 60.2012 47.1993C60.201 45.9362 59.8684 44.6954 59.2369 43.6016H59.2266Z" fill="#00BF66"/>
</svg>
