<svg width="75" height="61" viewBox="0 0 75 61" fill="none" xmlns="http://www.w3.org/2000/svg">
<path d="M61.4316 37.8915C58.4528 39.7022 55.0315 40.6545 51.5455 40.6433C48.6251 40.6201 45.7377 40.0228 43.0478 38.8854C40.9747 41.8121 39.8652 45.3121 39.8736 48.8987V58.058C39.8744 58.3986 39.8051 58.7358 39.67 59.0485C39.535 59.3612 39.3371 59.6428 39.0887 59.8758C38.8402 60.1088 38.5465 60.2883 38.2258 60.403C37.9051 60.5177 37.5642 60.5653 37.2243 60.5427C36.5856 60.4871 35.9916 60.1921 35.5613 59.7169C35.131 59.2417 34.8963 58.6214 34.9042 57.9803V54.1166L22.9093 42.1217C21.1262 42.7869 19.2404 43.1348 17.3373 43.1497C14.7174 43.1562 12.1465 42.4393 9.90802 41.0781C3.14029 36.9659 -0.502913 27.5023 0.202124 15.7527C0.237622 15.1448 0.495092 14.5712 0.925652 14.1406C1.35621 13.7101 1.92988 13.4526 2.53775 13.4171C14.2873 12.7245 23.751 16.3552 27.8507 23.123C29.4615 25.7757 30.1647 28.8807 29.854 31.9685C29.8347 32.2078 29.7465 32.4363 29.6001 32.6265C29.4537 32.8167 29.2553 32.9604 29.0289 33.0402C28.8026 33.12 28.5579 33.1326 28.3246 33.0763C28.0912 33.0201 27.8792 32.8975 27.7141 32.7233L21.7508 26.4804C21.281 26.0341 20.6555 25.789 20.0076 25.7973C19.3596 25.8056 18.7406 26.0667 18.2824 26.5248C17.8242 26.983 17.5632 27.6021 17.5549 28.25C17.5466 28.8979 17.7917 29.5234 18.238 29.9932L34.9725 47.1532C34.9912 46.911 35.0129 46.6687 35.0378 46.4296C35.5811 41.8227 37.6139 37.5194 40.8271 34.1737L56.5398 17.5697C57.006 17.1038 57.2681 16.4719 57.2684 15.8128C57.2687 15.1538 57.0072 14.5216 56.5414 14.0553C56.0755 13.5891 55.4436 13.327 54.7845 13.3267C54.1255 13.3264 53.4933 13.588 53.027 14.0538L37.8082 30.1485C37.6559 30.3098 37.4631 30.4275 37.2499 30.4891C37.0367 30.5507 36.811 30.5542 36.596 30.499C36.3811 30.4438 36.1848 30.3321 36.0277 30.1754C35.8705 30.0187 35.7582 29.8228 35.7024 29.6081C34.2302 24.179 34.8794 18.7747 37.6902 14.1345C43.2373 4.97839 56.1454 0.0772988 72.2214 1.02149C72.8293 1.05699 73.403 1.31446 73.8335 1.74502C74.2641 2.17558 74.5216 2.74925 74.5571 3.35712C75.4888 19.4363 70.5877 32.3444 61.4316 37.8915Z" fill="#00BF66"/>
</svg>
