<svg width="61" height="61" viewBox="0 0 61 61" fill="none" xmlns="http://www.w3.org/2000/svg">
<path d="M49.6285 15.0212L40.4167 24.2298V37.0816L49.6285 46.2902C49.8593 46.521 50.0424 46.7951 50.1674 47.0967C50.2923 47.3983 50.3566 47.7216 50.3566 48.0481C50.3566 48.3745 50.2923 48.6978 50.1674 48.9994C50.0424 49.301 49.8593 49.5751 49.6285 49.8059C49.3976 50.0368 49.1236 50.2199 48.822 50.3448C48.5204 50.4698 48.1971 50.5341 47.8706 50.5341C47.5441 50.5341 47.2209 50.4698 46.9193 50.3448C46.6176 50.2199 46.3436 50.0368 46.1127 49.8059L36.9041 40.5942H24.0524L14.8437 49.8059C14.3775 50.2722 13.7452 50.5341 13.0859 50.5341C12.4265 50.5341 11.7942 50.2722 11.328 49.8059C10.8618 49.3397 10.5999 48.7074 10.5999 48.0481C10.5999 47.3887 10.8618 46.7564 11.328 46.2902L20.5397 37.0816V24.2298L11.328 15.0212C10.8618 14.555 10.5999 13.9227 10.5999 13.2633C10.5999 12.604 10.8618 11.9717 11.328 11.5055C11.7942 11.0392 12.4265 10.7773 13.0859 10.7773C13.7452 10.7773 14.3775 11.0392 14.8437 11.5055L24.0524 20.7172H36.9041L46.1127 11.5055C46.579 11.0392 47.2113 10.7773 47.8706 10.7773C48.5299 10.7773 49.1623 11.0392 49.6285 11.5055C50.0947 11.9717 50.3566 12.604 50.3566 13.2633C50.3566 13.9227 50.0947 14.555 49.6285 15.0212ZM35.2549 13.1205C35.876 13.3403 36.559 13.3044 37.1536 13.0208C37.7483 12.7372 38.2059 12.229 38.4259 11.6079C38.9161 10.2235 39.749 8.98578 40.8468 8.01019C41.9446 7.03461 43.2716 6.35295 44.704 6.0288C46.1365 5.70465 47.6277 5.74856 49.0386 6.15644C50.4495 6.56433 51.734 7.3229 52.7725 8.36139C53.811 9.39989 54.5696 10.6845 54.9775 12.0954C55.3854 13.5062 55.4293 14.9975 55.1051 16.4299C54.781 17.8623 54.0993 19.1893 53.1237 20.2871C52.1482 21.385 50.9104 22.2178 49.526 22.708C48.9623 22.8954 48.4844 23.2786 48.179 23.7881C47.8735 24.2976 47.7607 24.8996 47.861 25.4851C47.9613 26.0706 48.268 26.6008 48.7256 26.9796C49.1832 27.3584 49.7613 27.5607 50.3552 27.5499C50.6378 27.5507 50.9184 27.5023 51.1845 27.4071C53.3602 26.6369 55.3055 25.3283 56.8387 23.6032C58.372 21.8781 59.4434 19.7927 59.9529 17.5417C60.4625 15.2906 60.3935 12.9471 59.7526 10.7299C59.1117 8.51268 57.9196 6.4939 56.2876 4.86189C54.6556 3.22988 52.6368 2.0378 50.4196 1.39687C48.2023 0.755931 45.8589 0.687014 43.6078 1.19654C41.3567 1.70607 39.2714 2.77745 37.5463 4.31073C35.8212 5.84402 34.5125 7.78925 33.7424 9.96499C33.5274 10.5841 33.5657 11.2631 33.849 11.8541C34.1323 12.4452 34.6376 12.9003 35.2549 13.1205ZM51.1845 33.9292C50.5667 33.7225 49.8924 33.7667 49.3069 34.0523C48.7214 34.3379 48.2715 34.842 48.054 35.4561C47.8366 36.0701 47.869 36.7451 48.1443 37.3355C48.4196 37.9259 48.9158 38.3846 49.526 38.6127C50.9104 39.1029 52.1482 39.9358 53.1237 41.0336C54.0993 42.1314 54.781 43.4584 55.1051 44.8908C55.4293 46.3233 55.3854 47.8145 54.9775 49.2253C54.5696 50.6362 53.811 51.9208 52.7725 52.9593C51.734 53.9978 50.4495 54.7564 49.0386 55.1643C47.6277 55.5722 46.1365 55.6161 44.704 55.2919C43.2716 54.9678 41.9446 54.2861 40.8468 53.3105C39.749 52.3349 38.9161 51.0972 38.4259 49.7128C38.1978 49.1026 37.7391 48.6064 37.1487 48.3311C36.5583 48.0558 35.8834 48.0233 35.2693 48.2408C34.6552 48.4582 34.1511 48.9082 33.8655 49.4937C33.5799 50.0792 33.5357 50.7535 33.7424 51.3713C34.5125 53.547 35.8212 55.4922 37.5463 57.0255C39.2714 58.5588 41.3567 59.6302 43.6078 60.1397C45.8589 60.6492 48.2023 60.5803 50.4196 59.9394C52.6368 59.2984 54.6556 58.1064 56.2876 56.4744C57.9196 54.8423 59.1117 52.8236 59.7526 50.6063C60.3935 48.3891 60.4625 46.0457 59.9529 43.7946C59.4434 41.5435 58.372 39.4582 56.8387 37.7331C55.3055 36.008 53.3602 34.6993 51.1845 33.9292ZM25.7171 48.2158C25.096 47.996 24.413 48.0318 23.8184 48.3154C23.2237 48.5991 22.7661 49.1073 22.5461 49.7283C22.0559 51.1127 21.223 52.3505 20.1252 53.3261C19.0274 54.3016 17.7004 54.9833 16.268 55.3074C14.8355 55.6316 13.3443 55.5877 11.9334 55.1798C10.5226 54.7719 9.23796 54.0133 8.19946 52.9748C7.16096 51.9364 6.40239 50.6518 5.99451 49.2409C5.58662 47.83 5.54271 46.3388 5.86686 44.9064C6.19102 43.4739 6.87267 42.1469 7.84826 41.0491C8.82385 39.9513 10.0616 39.1184 11.446 38.6282C12.0562 38.4001 12.5524 37.9414 12.8277 37.351C13.103 36.7606 13.1355 36.0857 12.918 35.4716C12.7005 34.8575 12.2506 34.3534 11.6651 34.0678C11.0796 33.7822 10.4053 33.738 9.78753 33.9447C7.61179 34.7149 5.66655 36.0235 4.13327 37.7486C2.59998 39.4737 1.52861 41.559 1.01908 43.8101C0.50955 46.0612 0.578467 48.4046 1.2194 50.6219C1.86034 52.8391 3.05241 54.8579 4.68443 56.4899C6.31644 58.1219 8.33522 59.314 10.5525 59.9549C12.7697 60.5958 15.1131 60.6648 17.3642 60.1552C19.6153 59.6457 21.7006 58.5743 23.4257 57.041C25.1508 55.5078 26.4595 53.5625 27.2296 51.3868C27.3419 51.0768 27.3914 50.7476 27.3752 50.4183C27.3589 50.089 27.2773 49.7662 27.1351 49.4687C26.9929 49.1713 26.7929 48.9051 26.5468 48.6857C26.3006 48.4664 26.0133 48.2982 25.7015 48.1909L25.7171 48.2158ZM9.78753 27.4071C10.0487 27.5006 10.3239 27.5489 10.6012 27.5499C11.1871 27.5497 11.7539 27.3424 12.2018 26.9648C12.6496 26.5871 12.9497 26.0634 13.0489 25.486C13.148 24.9087 13.0401 24.3148 12.7439 23.8094C12.4478 23.3039 11.9826 22.9193 11.4305 22.7235C10.046 22.2333 8.80832 21.4005 7.83273 20.3027C6.85714 19.2049 6.17549 17.8779 5.85133 16.4454C5.52718 15.013 5.5711 13.5218 5.97898 12.1109C6.38687 10.7 7.14543 9.41542 8.18393 8.37692C9.22243 7.33843 10.507 6.57986 11.9179 6.17197C13.3288 5.76409 14.82 5.72017 16.2524 6.04433C17.6849 6.36848 19.0119 7.05014 20.1097 8.02572C21.2075 9.00131 22.0403 10.239 22.5305 11.6235C22.6352 11.9364 22.8012 12.2253 23.0187 12.4733C23.2363 12.7214 23.501 12.9236 23.7976 13.0683C24.0941 13.2129 24.4165 13.297 24.7459 13.3157C25.0753 13.3344 25.4051 13.2874 25.7162 13.1772C26.0272 13.0671 26.3131 12.8961 26.5574 12.6743C26.8016 12.4525 26.9992 12.1842 27.1386 11.8852C27.278 11.5862 27.3565 11.2624 27.3695 10.9327C27.3824 10.603 27.3296 10.274 27.2141 9.96499C26.4439 7.78925 25.1353 5.84402 23.4102 4.31073C21.6851 2.77745 19.5997 1.70607 17.3487 1.19654C15.0976 0.687014 12.7542 0.755931 10.5369 1.39687C8.31969 2.0378 6.30091 3.22988 4.6689 4.86189C3.03688 6.4939 1.84481 8.51268 1.20388 10.7299C0.562939 12.9471 0.49402 15.2906 1.00355 17.5417C1.51308 19.7927 2.58446 21.8781 4.11774 23.6032C5.65102 25.3283 7.59626 26.6369 9.772 27.4071H9.78753Z" fill="#00BF66"/>
</svg>
