<svg width="51" height="60" viewBox="0 0 51 60" fill="none" xmlns="http://www.w3.org/2000/svg">
<path d="M48.4531 0.0546875H9.46228C7.0291 0.0546875 4.69557 1.02126 2.97506 2.74178C1.25454 4.4623 0.287964 6.79582 0.287964 9.229V57.3941C0.287964 58.0024 0.529608 58.5858 0.959738 59.0159C1.38987 59.4461 1.97325 59.6877 2.58154 59.6877H43.8659C44.4742 59.6877 45.0576 59.4461 45.4878 59.0159C45.9179 58.5858 46.1595 58.0024 46.1595 57.3941C46.1595 56.7858 45.9179 56.2025 45.4878 55.7723C45.0576 55.3422 44.4742 55.1006 43.8659 55.1006H4.87512C4.87512 53.884 5.35841 52.7172 6.21867 51.8569C7.07893 50.9967 8.24569 50.5134 9.46228 50.5134H48.4531C49.0614 50.5134 49.6448 50.2718 50.0749 49.8416C50.505 49.4115 50.7467 48.8281 50.7467 48.2198V2.34827C50.7467 1.73997 50.505 1.15659 50.0749 0.726461C49.6448 0.296332 49.0614 0.0546875 48.4531 0.0546875ZM41.5724 27.5776L34.2301 22.073C34.0315 21.9242 33.7901 21.8437 33.542 21.8437C33.2938 21.8437 33.0524 21.9242 32.8539 22.073L25.5173 27.5776V4.64184H41.5724V27.5776Z" fill="#00BF66"/>
</svg>
