<svg width="61" height="61" viewBox="0 0 61 61" fill="none" xmlns="http://www.w3.org/2000/svg">
<path d="M58.0859 18.612H49.0966C51.0411 21.9812 51.8194 25.898 51.3107 29.7547C50.802 33.6114 49.0349 37.1925 46.2833 39.9424C43.931 42.3415 40.8692 44.6137 37.49 46.7092C37.2785 46.838 37.0298 46.8919 36.784 46.8624C36.5381 46.8328 36.3094 46.7215 36.1344 46.5463L26.5156 36.9275C26.3063 36.7182 26.0572 36.5531 25.7829 36.442C25.5086 36.3308 25.2148 36.276 24.9189 36.2806C24.623 36.2852 24.3311 36.3493 24.0604 36.469C23.7898 36.5886 23.5459 36.7615 23.3433 36.9772C22.9536 37.4145 22.7478 37.9854 22.7688 38.5709C22.7899 39.1563 23.0363 39.7109 23.4565 40.1191L31.706 48.3685C31.8292 48.4915 31.9216 48.6419 31.9756 48.8074C32.0296 48.9729 32.0438 49.1488 32.0169 49.3208C31.9899 49.4928 31.9227 49.6561 31.8207 49.7971C31.7187 49.9382 31.5848 50.0532 31.4299 50.1327C20.4665 55.8256 8.66665 59.6217 6.9494 60.1573C6.12791 60.54 5.20859 60.6608 4.31614 60.5033C3.42368 60.3457 2.60127 59.9175 1.96045 59.2767C1.31963 58.6359 0.891411 57.8135 0.733879 56.921C0.576347 56.0286 0.697122 55.1092 1.07982 54.2878C1.83354 51.8831 9.0863 29.3655 18.9867 17.4718C19.0851 17.3541 19.2069 17.2582 19.3444 17.1902C19.4819 17.1222 19.6321 17.0836 19.7853 17.0768C19.9386 17.0701 20.0916 17.0953 20.2345 17.151C20.3775 17.2066 20.5073 17.2914 20.6156 17.4L32.225 29.0121C32.4397 29.2267 32.6964 29.3948 32.979 29.5057C33.2616 29.6167 33.564 29.6682 33.8674 29.6571C34.1707 29.6459 34.4686 29.5724 34.7422 29.441C35.0159 29.3096 35.2596 29.1232 35.458 28.8934C35.8209 28.4554 36.0054 27.8967 35.9747 27.3287C35.944 26.7608 35.7003 26.2252 35.2923 25.8289L23.8734 14.41C23.757 14.294 23.6679 14.1536 23.6126 13.9988C23.5574 13.8441 23.5374 13.6789 23.554 13.5155C23.5707 13.352 23.6236 13.1943 23.709 13.0539C23.7943 12.9134 23.9099 12.7938 24.0474 12.7038C26.7867 10.8955 29.9756 9.88609 33.2564 9.78856C36.5373 9.69103 39.7805 10.5093 42.6224 12.1516V3.15122C42.6217 2.84819 42.6834 2.54826 42.8036 2.27008C42.9238 1.99191 43.0999 1.74145 43.3211 1.53428C43.5422 1.32711 43.8037 1.16766 44.0891 1.06586C44.3745 0.964061 44.6778 0.922082 44.9802 0.942538C45.5493 0.992053 46.0786 1.25544 46.4612 1.67963C46.8439 2.10382 47.0516 2.65729 47.0425 3.22852V11.0721L54.3146 3.79726C54.5198 3.59205 54.7634 3.42927 55.0315 3.31821C55.2997 3.20715 55.587 3.14999 55.8772 3.14999C56.1674 3.14999 56.4548 3.20715 56.7229 3.31821C56.9911 3.42927 57.2347 3.59205 57.4399 3.79726C57.6451 4.00247 57.8079 4.24609 57.9189 4.51421C58.03 4.78233 58.0872 5.06969 58.0872 5.3599C58.0872 5.65011 58.03 5.93748 57.9189 6.2056C57.8079 6.47372 57.6451 6.71734 57.4399 6.92255L50.165 14.1946H58.0086C58.5799 14.1855 59.1333 14.3932 59.5575 14.7759C59.9817 15.1586 60.2451 15.6878 60.2946 16.257C60.3147 16.5591 60.2724 16.8621 60.1704 17.1472C60.0684 17.4323 59.9089 17.6934 59.7018 17.9142C59.4947 18.1351 59.2443 18.311 58.9664 18.431C58.6884 18.5511 58.3887 18.6127 58.0859 18.612Z" fill="#00BF66"/>
</svg>
