<svg width="53" height="61" viewBox="0 0 53 61" fill="none" xmlns="http://www.w3.org/2000/svg">
<path d="M51.7058 16.9549C49.7563 23.5128 43.8284 27.1533 39.3429 28.2778C36.2111 29.0638 33.2352 28.8543 30.3083 27.9213C29.55 27.6796 29.3596 26.6926 29.9825 26.1971C31.7786 24.768 32.5372 22.6334 32.2225 20.4473C32.12 19.7358 32.7652 19.1445 33.4591 19.3319C34.6795 19.6616 35.8974 19.7389 37.1251 19.4313C39.4535 18.8474 42.1622 17.052 42.9636 14.3558C43.806 11.5216 42.2057 8.73472 41.695 7.94698C40.3258 5.83847 40.9284 3.00807 43.0381 1.64009C45.1479 0.270858 47.977 0.873467 49.3463 2.98322C50.6894 5.05185 53.6068 10.5573 51.7058 16.9549ZM28.127 43.6077C27.5702 39.5873 25.1922 36.7523 21.8932 34.475C21.6264 34.2907 21.2863 34.2524 20.9819 34.3641C20.5553 34.5207 19.9843 34.3824 18.812 34.8816C15.9369 36.0958 15.2183 39.3686 16.6774 41.9576C16.6774 41.9576 16.6786 41.9576 16.6786 41.9589C18.069 42.9056 18.9499 43.8263 19.0928 44.8576C19.3947 47.0481 17.8751 50.2749 15.461 51.1521C13.3574 51.9175 10.5941 50.9993 8.58627 48.8671C5.78382 45.8937 0.830624 47.8385 0.707617 51.8566C0.671585 53.0742 1.11143 54.2335 1.94638 55.1194C9.23783 62.8661 21.027 62.4463 26.2533 52.9698C27.8636 50.0512 28.5457 46.6393 28.127 43.6077ZM28.0666 16.7422C28.0026 16.6689 27.9282 16.606 27.8455 16.5545C22.6216 13.2959 17.606 9.89645 11.4154 12.1775C5.30522 14.4316 0.787758 21.6893 1.68173 28.0628C2.55819 34.3096 8.07138 37.2514 12.517 39.5872C13.1544 39.922 13.924 39.4885 13.969 38.77C14.1048 36.5986 15.2317 34.6303 17.2149 33.4708C17.8893 33.0764 17.8709 32.0956 17.1792 31.7324C14.07 30.0995 10.9548 28.5161 10.7147 26.7981C10.4252 24.7356 12.479 21.5063 14.5701 20.736C17.0237 19.8316 20.7923 23.127 25.374 25.7051C25.6387 25.854 25.9551 25.8724 26.2381 25.7619C26.6563 25.5983 27.2488 25.6114 28.2748 24.9792C32.7128 22.2545 28.7454 17.5189 28.0666 16.7422Z" fill="#00BF66"/>
</svg>
