<svg width="61" height="61" viewBox="0 0 61 61" fill="none" xmlns="http://www.w3.org/2000/svg">
<path d="M55.7297 5.37321C52.8591 2.50304 48.966 0.890625 44.9067 0.890625C40.8474 0.890625 36.9543 2.50304 34.0837 5.37321L4.91791 34.5362C2.1079 37.4185 0.546632 41.2919 0.572334 45.3172C0.598036 49.3425 2.20864 53.1957 5.05522 56.0419C7.90181 58.8881 11.7552 60.4982 15.7805 60.5234C19.8058 60.5485 23.679 58.9867 26.561 56.1763L55.7297 27.0134C58.5946 24.1412 60.2034 20.25 60.2034 16.1933C60.2034 12.1366 58.5946 8.2454 55.7297 5.37321ZM52.4769 23.7635L37.894 38.3435L22.7536 23.206L37.3365 8.62312C39.3522 6.65398 42.0629 5.55889 44.8808 5.57536C47.6986 5.59182 50.3964 6.71851 52.3889 8.71106C54.3815 10.7036 55.5082 13.4014 55.5246 16.2192C55.5411 19.0371 54.446 21.7478 52.4769 23.7635ZM48.0431 17.6545C48.2568 17.868 48.4264 18.1215 48.5421 18.4006C48.6578 18.6796 48.7173 18.9788 48.7173 19.2809C48.7173 19.583 48.6578 19.8821 48.5421 20.1612C48.4264 20.4402 48.2568 20.6938 48.0431 20.9072L41.1468 27.8036C40.9332 28.017 40.6797 28.1862 40.4007 28.3016C40.1217 28.4171 39.8227 28.4764 39.5208 28.4763C39.2189 28.4761 38.9199 28.4165 38.6411 28.3009C38.3622 28.1852 38.1088 28.0157 37.8954 27.8022C37.682 27.5886 37.5128 27.3351 37.3974 27.0561C37.282 26.7771 37.2226 26.4781 37.2228 26.1762C37.2229 25.8743 37.2825 25.5753 37.3981 25.2965C37.5138 25.0176 37.6833 24.7642 37.8968 24.5508L44.7932 17.6545C45.2243 17.2237 45.8087 16.9817 46.4182 16.9817C47.0276 16.9817 47.612 17.2237 48.0431 17.6545Z" fill="#00BF66"/>
</svg>
