<svg width="25" height="25" viewBox="0 0 25 25" fill="none" xmlns="http://www.w3.org/2000/svg">
<g clip-path="url(#clip0_1217_53202)">
<path d="M0 0H33.3333V25H0V0Z" fill="#CE1720"/>
<mask id="mask0_1217_53202" style="mask-type:luminance" maskUnits="userSpaceOnUse" x="0" y="0" width="6" height="25">
<path d="M0.260742 0H5.7696V16.8888H5.98995V24.7776L5.7696 24.9998H0.260742V0Z" fill="white"/>
</mask>
<g mask="url(#mask0_1217_53202)">
<path d="M1.25199 0V0.388886H1.00409V0.777773H0.701102V1.22221H0.480747V1.58332H0.0400391V0.666663H0.480747V0.166666H0.0400391V0H1.25199ZM1.96814 2.13888V2.55554H1.74778V2.88887H1.52743V2.55554H1.30708V2.13888H1.08672V1.58332H1.30708V1.16666H1.52743V0.833328H1.74778V1.16666H1.96814V1.58332H2.18849V2.13888H1.96814ZM1.49989 2.1111H1.77533V1.6111H1.49989V2.1111ZM0.783734 5.0833H1.00409V4.5833H0.783734V5.0833ZM2.27113 5.0833H2.49148V4.5833H2.27113V5.0833ZM0.0400391 8.47217H0.425659V8.83328H0.590925V9.27772H0.838823V9.69438H1.16935V9.27772H1.41725V8.83328H1.63761V8.47217H1.30708V8.05551H1.88551V8.33328H2.24358V8.8055H2.54657V9.33327H2.32621V9.72216H2.1334V10.0833H1.96814V10.4722H1.72024V10.8055H1.52743V11.111H1.27953V11.4999H0.921456V11.0833H0.673557V10.6944H0.480747V10.4444H0.0400391V9.80549H0.480747V9.24994H0.0400391V8.47217Z" fill="white"/>
<path d="M4.77829 0V0.388886H5.02618V0.777773H5.32917V1.22221H5.54953V1.58332H5.99023V0.666663H5.54953V0.166666H5.99023V0H4.77829ZM4.06214 2.13888V2.55554H4.28249V2.88887H4.50284V2.55554H4.7232V2.13888H4.94355V1.58332H4.7232V1.16666H4.50284V0.833328H4.28249V1.16666H4.06214V1.58332H3.84178V2.13888H4.06214ZM4.53039 2.1111H4.25495V1.6111H4.53039V2.1111ZM5.24654 5.0833H5.02618V4.5833H5.24654V5.0833ZM3.75915 5.0833H3.53879V4.5833H3.75915V5.0833ZM5.99023 8.47217H5.60461V8.83328H5.43935V9.27772H5.19145V9.69438H4.86092V9.27772H4.61302V8.83328H4.39267V8.47217H4.7232V8.05551H4.14477V8.33328H3.78669V8.8055H3.48371V9.33327H3.70406V9.72216H3.89687V10.0833H4.06214V10.4722H4.31003V10.8055H4.50284V11.111H4.75074V11.4999H5.10882V11.0833H5.35672V10.6944H5.54953V10.4444H5.99023V9.80549H5.54953V9.24994H5.99023V8.47217Z" fill="white"/>
<path d="M2.90464 0V0.888883H3.125V0H4.00641V0.388886H3.78606V0.777773H3.45553V1.22221H3.23517V1.58332H2.79447V1.22221H2.57411V0.777773H2.24358V0.388886H2.02323V0H2.90464ZM2.84956 7.61106V7.30551H2.68429V6.9444H2.49148V6.55551H2.27113V6.16663H2.05077V5.88885H1.80287V5.49997H1.47234V5.88885H1.22444V6.16663H1.03163V6.55551H0.811279V6.9444H0.646013V7.30551H0.480747V7.77773H0.0400391V6.55551H0.480747V5.99996H0.0400391V5.0833H0.480747V5.47219H0.75619V5.86107H1.03163V5.47219H1.30708V5.0833H1.52743V4.5833H1.30708V4.19442H1.03163V3.80553H0.75619V4.19442H0.480747V4.5833H0.0400391V3.44442H0.480747V2.91665H0.0400391V2.13888H0.480747V2.49998H0.701102V2.94443H1.00409V3.30553H1.25199V3.7222H1.4448V4.05553H1.83042V3.7222H2.02323V3.30553H2.27113V2.94443H2.57411V2.49998H2.79447V2.13888H3.23517V2.49998H3.45553V2.94443H3.75852V3.30553H4.00641V3.7222H4.19922V4.05553H4.58484V3.7222H4.77765V3.30553H5.02555V2.94443H5.32854V2.49998H5.54889V2.13888H5.9896V2.91665H5.54889V3.44442H5.9896V4.5833H5.54889V4.19442H5.27345V3.80553H4.99801V4.19442H4.72257V4.5833H4.50221V5.0833H4.72257V5.47219H4.99801V5.86107H5.27345V5.47219H5.54889V5.0833H5.9896V5.99996H5.54889V6.55551H5.9896V7.77773H5.54889V7.30551H5.38363V6.9444H5.21836V6.55551H4.99801V6.16663H4.8052V5.88885H4.5573V5.49997H4.22677V5.88885H3.97887V6.16663H3.75852V6.55551H3.53816V6.9444H3.34535V7.30551H3.18009V7.61106H2.84956ZM2.90464 2.9722V3.7222H3.125V2.9722H2.90464ZM2.79447 4.5833V4.19442H2.51902V3.80553H2.24358V4.19442H1.96814V4.5833H1.74778V5.0833H1.96814V5.47219H2.24358V5.86107H2.51902V5.47219H2.79447V5.0833H3.23517V5.47219H3.51062V5.86107H3.78606V5.47219H4.0615V5.0833H4.28186V4.5833H4.0615V4.19442H3.78606V3.80553H3.51062V4.19442H3.23517V4.5833H2.79447ZM2.90464 5.86107V6.61107H3.125V5.86107H2.90464Z" fill="white"/>
<path d="M1.25199 25V24.6111H1.00409V24.2222H0.701102V23.7778H0.480747V23.4167H0.0400391V24.3333H0.480747V24.8333H0.0400391V25H1.25199ZM1.96814 22.8611V22.4445H1.74778V22.1111H1.52743V22.4445H1.30708V22.8611H1.08672V23.4167H1.30708V23.8333H1.52743V24.1667H1.74778V23.8333H1.96814V23.4167H2.18849V22.8611H1.96814ZM1.49989 22.8889H1.77533V23.3889H1.49989V22.8889ZM0.783734 19.9167H1.00409V20.4167H0.783734V19.9167ZM2.27113 19.9167H2.49148V20.4167H2.27113V19.9167ZM0.0400391 16.5278H0.425659V16.1667H0.590925V15.7223H0.838823V15.3056H1.16935V15.7223H1.41725V16.1667H1.63761V16.5278H1.30708V16.9445H1.88551V16.6667H2.24358V16.1945H2.54657V15.6667H2.32621V15.2778H2.1334V14.9167H1.96814V14.5278H1.72024V14.1945H1.52743V13.889H1.27953V13.5001H0.921456V13.9167H0.673557V14.3056H0.480747V14.5556H0.0400391V15.1945H0.480747V15.7501H0.0400391V16.5278Z" fill="white"/>
<path d="M4.77829 25V24.6111H5.02618V24.2222H5.32917V23.7778H5.54953V23.4167H5.99023V24.3333H5.54953V24.8333H5.99023V25H4.77829ZM4.06214 22.8611V22.4445H4.28249V22.1111H4.50284V22.4445H4.7232V22.8611H4.94355V23.4167H4.7232V23.8333H4.50284V24.1667H4.28249V23.8333H4.06214V23.4167H3.84178V22.8611H4.06214ZM4.53039 22.8889H4.25495V23.3889H4.53039V22.8889ZM5.24654 19.9167H5.02618V20.4167H5.24654V19.9167ZM3.75915 19.9167H3.53879V20.4167H3.75915V19.9167ZM5.99023 16.5278H5.60461V16.1667H5.43935V15.7223H5.19145V15.3056H4.86092V15.7223H4.61302V16.1667H4.39267V16.5278H4.7232V16.9445H4.14477V16.6667H3.78669V16.1945H3.48371V15.6667H3.70406V15.2778H3.89687V14.9167H4.06214V14.5278H4.31003V14.1945H4.50284V13.889H4.75074V13.5001H5.10882V13.9167H5.35672V14.3056H5.54953V14.5556H5.99023V15.1945H5.54953V15.7501H5.99023V16.5278Z" fill="white"/>
<path d="M2.90464 25V24.1111H3.125V25H4.00641V24.6111H3.78606V24.2222H3.45553V23.7778H3.23517V23.4167H2.79447V23.7778H2.57411V24.2222H2.24358V24.6111H2.02323V25H2.90464ZM2.84956 17.3889V17.6945H2.68429V18.0556H2.49148V18.4445H2.27113V18.8334H2.05077V19.1111H1.80287V19.5H1.47234V19.1111H1.22444V18.8334H1.03163V18.4445H0.811279V18.0556H0.646013V17.6945H0.480747V17.2223H0.0400391V18.4445H0.480747V19H0.0400391V19.9167H0.480747V19.5278H0.75619V19.1389H1.03163V19.5278H1.30708V19.9167H1.52743V20.4167H1.30708V20.8056H1.03163V21.1945H0.75619V20.8056H0.480747V20.4167H0.0400391V21.5556H0.480747V22.0834H0.0400391V22.8611H0.480747V22.5H0.701102V22.0556H1.00409V21.6945H1.25199V21.2778H1.4448V20.9445H1.83042V21.2778H2.02323V21.6945H2.27113V22.0556H2.57411V22.5H2.79447V22.8611H3.23517V22.5H3.45553V22.0556H3.75852V21.6945H4.00641V21.2778H4.19922V20.9445H4.58484V21.2778H4.77765V21.6945H5.02555V22.0556H5.32854V22.5H5.54889V22.8611H5.9896V22.0834H5.54889V21.5556H5.9896V20.4167H5.54889V20.8056H5.27345V21.1945H4.99801V20.8056H4.72257V20.4167H4.50221V19.9167H4.72257V19.5278H4.99801V19.1389H5.27345V19.5278H5.54889V19.9167H5.9896V19H5.54889V18.4445H5.9896V17.2223H5.54889V17.6945H5.38363V18.0556H5.21836V18.4445H4.99801V18.8334H4.8052V19.1111H4.5573V19.5H4.22677V19.1111H3.97887V18.8334H3.75852V18.4445H3.53816V18.0556H3.34535V17.6945H3.18009V17.3889H2.84956ZM2.90464 22.0278V21.2778H3.125V22.0278H2.90464ZM2.79447 20.4167V20.8056H2.51902V21.1945H2.24358V20.8056H1.96814V20.4167H1.74778V19.9167H1.96814V19.5278H2.24358V19.1389H2.51902V19.5278H2.79447V19.9167H3.23517V19.5278H3.51062V19.1389H3.78606V19.5278H4.0615V19.9167H4.28186V20.4167H4.0615V20.8056H3.78606V21.1945H3.51062V20.8056H3.23517V20.4167H2.79447ZM2.90464 19.1389V18.3889H3.125V19.1389H2.90464Z" fill="white"/>
<path d="M0.0400391 11.3334H0.480747V11.7223H0.673557V11.9445H0.893912V12.3334H1.08672V12.6668H0.893912V13.0556H0.673557V13.2779H0.480747V13.6668H0.0400391V11.3334ZM5.9896 11.3334V13.6668H5.54889V13.2779H5.35608V13.0556H5.13573V12.6668H4.94292V12.3334H5.13573V11.9445H5.35608V11.7223H5.54889V11.3334H5.9896ZM1.96814 12.7501H2.18849V12.2501H1.96814V12.7501ZM4.0615 12.7501V12.2501H3.84115V12.7501H4.0615ZM2.90464 11.1112H3.125V10.6112H2.90464V11.1112ZM2.90464 13.889V14.389H3.125V13.889H2.90464ZM1.52743 11.8057H1.91305V11.5001H2.18849V11.2223H2.32621V10.9445H2.49148V10.5557H2.71183V10.1668H2.82201V9.80566H3.20763V10.1668H3.31781V10.5557H3.53816V10.9445H3.70343V11.2223H3.84115V11.5001H4.11659V11.8057H4.50221V13.1945H4.11659V13.5001H3.84115V13.7779H3.70343V14.0556H3.53816V14.4445H3.31781V14.8334H3.20763V15.1945H2.82201V14.8334H2.71183V14.4445H2.49148V14.0556H2.32621V13.7779H2.18849V13.5001H1.91305V13.1945H1.52743V11.8057ZM2.90464 12.0556V11.639H2.68429V11.3612H2.46394V12.0556H2.68429V12.3056H2.82201V12.6945H2.68429V12.9445H2.46394V13.639H2.68429V13.3612H2.90464V12.9445H3.125V13.3612H3.34535V13.639H3.56571V12.9445H3.34535V12.6945H3.20763V12.3056H3.34535V12.0556H3.56571V11.3612H3.34535V11.639H3.125V12.0556H2.90464Z" fill="white"/>
</g>
<path d="M5.72949 16.6665H33.3337V24.9998H5.72949V16.6665Z" fill="#007C30"/>
</g>
<rect x="0.5" y="0.5" width="24" height="24" rx="12" stroke="#EAEAEA"/>
<defs>
<clipPath id="clip0_1217_53202">
<rect width="25" height="25" rx="12.5" fill="white"/>
</clipPath>
</defs>
</svg>
