<svg width="25" height="25" viewBox="0 0 25 25" fill="none" xmlns="http://www.w3.org/2000/svg">
<g clip-path="url(#clip0_1267_64417)">
<path d="M0 0H25V25H0V0Z" fill="#EE1C25"/>
<path d="M0 0H25V16.665H0V0Z" fill="#0B4EA2"/>
<path d="M0 0H25V8.33496H0V0Z" fill="white"/>
<path d="M9.92188 19.3115C7.68066 18.2373 4.47754 16.0889 4.47754 11.8506C4.47754 7.6123 4.67773 5.68848 4.67773 5.68848H15.166C15.166 5.68848 15.3711 7.6123 15.3711 11.8506C15.3711 16.0889 12.1582 18.2324 9.92188 19.3115Z" fill="white"/>
<path d="M9.92188 18.75C7.86621 17.7588 4.92676 15.7959 4.92676 11.9043C4.92676 8.0127 5.1123 6.25 5.1123 6.25H14.7314C14.7314 6.25 14.917 8.01758 14.917 11.9043C14.917 15.791 11.9775 17.7637 9.92188 18.75Z" fill="#EE1C25"/>
<path d="M10.3613 10.8887C10.918 10.8984 12.0068 10.918 12.9736 10.5957C12.9736 10.5957 12.9443 10.9375 12.9443 11.3428C12.9443 11.748 12.9736 12.0898 12.9736 12.0898C12.1236 11.8557 11.2421 11.7568 10.3613 11.7969V13.9453H9.48242V11.7969C8.60167 11.7568 7.72011 11.8557 6.87012 12.0898C6.87012 12.0898 6.89941 11.748 6.89941 11.3428C6.89941 10.9375 6.87012 10.5957 6.87012 10.5957C7.8418 10.918 8.92578 10.8984 9.48242 10.8887V9.53613C8.78212 9.51897 8.08391 9.61965 7.41699 9.83398C7.41699 9.83398 7.44141 9.49219 7.44141 9.08691C7.44141 8.68164 7.41699 8.33496 7.41699 8.33496C8.24707 8.61328 8.97461 8.6377 9.47754 8.62793C9.45313 7.77832 9.2041 6.7041 9.2041 6.7041C9.2041 6.7041 9.7168 6.74316 9.92187 6.74316C10.127 6.74316 10.6396 6.7041 10.6396 6.7041C10.6396 6.7041 10.3906 7.77832 10.3613 8.63281C11.0615 8.65344 11.76 8.55436 12.4268 8.33984C12.4268 8.33984 12.4023 8.68164 12.4023 9.08691C12.4023 9.49219 12.4268 9.83398 12.4268 9.83398C11.5967 9.55566 10.8691 9.53613 10.3613 9.54102V10.8887Z" fill="white"/>
<path d="M9.92188 13.7109C8.88672 13.7109 8.33008 15.1465 8.33008 15.1465C8.33008 15.1465 8.02246 14.4629 7.17773 14.4629C6.60645 14.4629 6.18652 14.9756 5.91797 15.4492C6.95801 17.0996 8.61816 18.1201 9.92188 18.75C11.2256 18.1201 12.8857 17.0996 13.9258 15.4443C13.6572 14.9756 13.2373 14.4678 12.666 14.4678C11.8213 14.4678 11.5137 15.1514 11.5137 15.1514C11.5137 15.1514 10.957 13.7109 9.92188 13.7109Z" fill="#0B4EA2"/>
</g>
<rect x="0.5" y="0.5" width="24" height="24" rx="12" stroke="#EAEAEA"/>
<defs>
<clipPath id="clip0_1267_64417">
<rect width="25" height="25" rx="12.5" fill="white"/>
</clipPath>
</defs>
</svg>
