<svg width="25" height="25" viewBox="0 0 25 25" fill="none" xmlns="http://www.w3.org/2000/svg">
<g clip-path="url(#clip0_1914_5105)">
<mask id="mask0_1914_5105" style="mask-type:alpha" maskUnits="userSpaceOnUse" x="0" y="0" width="18" height="13">
<rect x="0.229492" y="0.466797" width="17.2888" height="12.4863" rx="1.53678" fill="#D9D9D9"/>
</mask>
<g mask="url(#mask0_1914_5105)">
</g>
<g clip-path="url(#clip1_1914_5105)">
<mask id="mask1_1914_5105" style="mask-type:alpha" maskUnits="userSpaceOnUse" x="0" y="0" width="26" height="26">
<path d="M0.229492 0.466797L25.0298 0.466797V25.2671H0.229492L0.229492 0.466797Z" fill="white"/>
</mask>
<g mask="url(#mask1_1914_5105)">
<path fill-rule="evenodd" clip-rule="evenodd" d="M0.229492 0.466797L0.229492 25.2671H25.0298V0.466797L0.229492 0.466797Z" fill="#2E42A5"/>
<mask id="mask2_1914_5105" style="mask-type:alpha" maskUnits="userSpaceOnUse" x="0" y="0" width="26" height="26">
<path fill-rule="evenodd" clip-rule="evenodd" d="M0.229492 0.466797L0.229492 25.2671H25.0298V0.466797L0.229492 0.466797Z" fill="white"/>
</mask>
<g mask="url(#mask2_1914_5105)">
<mask id="mask3_1914_5105" style="mask-type:alpha" maskUnits="userSpaceOnUse" x="0" y="0" width="26" height="26">
<path d="M0.229492 0.466797L25.0298 0.466797V25.2671H0.229492L0.229492 0.466797Z" fill="white"/>
</mask>
<g mask="url(#mask3_1914_5105)">
<path d="M-2.53125 23.4948L2.92636 26.5732L25.1536 3.8127L28.0328 -0.760884L22.197 -1.78906L13.1309 8.01842L5.83342 14.6277L-2.53125 23.4948Z" fill="white"/>
<path d="M-1.78516 25.6515L0.996351 27.4371L26.9987 -1.18555L23.095 -1.18555L-1.78438 25.6504L-1.78516 25.6515Z" fill="#F50100"/>
<path d="M27.7916 23.4948L22.334 26.5732L0.106698 3.8127L-2.77246 -0.760884L3.06336 -1.78906L12.1294 8.01842L19.4269 14.6277L27.7916 23.4948Z" fill="white"/>
<path d="M27.6057 25.0426L24.8249 26.8282L13.7532 14.5727L10.4702 13.2046L-3.0498 -0.745605L0.854689 -0.745605L14.3662 12.8739L17.9553 14.5148L27.6057 25.0426Z" fill="#F50100"/>
<mask id="mask4_1914_5105" style="mask-type:alpha" maskUnits="userSpaceOnUse" x="-2" y="-2" width="29" height="30">
<path fill-rule="evenodd" clip-rule="evenodd" d="M15.5586 -1.6001L9.70263 -1.6001V8.73335L-1.29785 8.73335L-1.29785 17.0001L9.70263 17.0001V27.3336H15.5586V17.0001H26.6025V8.73335L15.5586 8.73335V-1.6001Z" fill="white"/>
</mask>
<g mask="url(#mask4_1914_5105)">
<path fill-rule="evenodd" clip-rule="evenodd" d="M15.5586 -1.6001L9.70263 -1.6001V8.73335L-1.29785 8.73335L-1.29785 17.0001L9.70263 17.0001V27.3336H15.5586V17.0001H26.6025V8.73335L15.5586 8.73335V-1.6001Z" fill="#F50100"/>
<path d="M9.70284 -1.59981V-3.6665H8.15282V-1.59981H9.70284ZM15.5588 -1.59981H17.1088V-3.6665H15.5588V-1.59981ZM9.70284 8.73364V10.8003H11.2529V8.73364H9.70284ZM-1.29764 8.73364L-1.29764 6.66695H-2.84766V8.73364H-1.29764ZM-1.29764 17.0004H-2.84766V19.0671H-1.29764V17.0004ZM9.70284 17.0004H11.2529V14.9337H9.70284V17.0004ZM9.70284 27.3338H8.15282L8.15282 29.4005H9.70284L9.70284 27.3338ZM15.5588 27.3338V29.4005L17.1088 29.4005V27.3338H15.5588ZM15.5588 17.0004V14.9337H14.0088V17.0004H15.5588ZM26.6027 17.0004V19.0671H28.1527V17.0004H26.6027ZM26.6027 8.73364H28.1527V6.66695H26.6027V8.73364ZM15.5588 8.73364H14.0088V10.8003H15.5588V8.73364ZM9.70284 0.466877L15.5588 0.466877V-3.6665L9.70284 -3.6665V0.466877ZM11.2529 8.73364V-1.59981L8.15282 -1.59981V8.73364H11.2529ZM-1.29764 10.8003L9.70284 10.8003V6.66695L-1.29764 6.66695L-1.29764 10.8003ZM0.25238 17.0004V8.73364H-2.84766V17.0004H0.25238ZM9.70284 14.9337L-1.29764 14.9337L-1.29764 19.0671L9.70284 19.0671V14.9337ZM11.2529 27.3338V17.0004H8.15282V27.3338H11.2529ZM15.5588 25.2672H9.70284L9.70284 29.4005H15.5588V25.2672ZM14.0088 17.0004V27.3338H17.1088V17.0004H14.0088ZM26.6027 14.9337L15.5588 14.9337V19.0671L26.6027 19.0671V14.9337ZM25.0527 8.73364V17.0004L28.1527 17.0004V8.73364H25.0527ZM15.5588 10.8003L26.6027 10.8003V6.66695L15.5588 6.66695V10.8003ZM14.0088 -1.59981V8.73364H17.1088V-1.59981L14.0088 -1.59981Z" fill="white"/>
</g>
</g>
</g>
</g>
</g>
</g>
<rect x="0.325541" y="0.562846" width="23.8079" height="23.8079" rx="11.904" stroke="white" stroke-width="0.192098"/>
<defs>
<clipPath id="clip0_1914_5105">
<rect x="0.229492" y="0.466797" width="24" height="24" rx="12" fill="white"/>
</clipPath>
<clipPath id="clip1_1914_5105">
<rect x="0.229492" y="0.466797" width="24.8003" height="24.8003" rx="1.53678" fill="white"/>
</clipPath>
</defs>
</svg>
