<svg width="25" height="25" viewBox="0 0 25 25" fill="none" xmlns="http://www.w3.org/2000/svg">
<g clip-path="url(#clip0_1267_63735)">
<path d="M10 0H25V25H9.99512L10 0Z" fill="#FF0000"/>
<path d="M-4.65661e-10 0H10V25H-0.00488281L-4.65661e-10 0Z" fill="#006600"/>
<path fill-rule="evenodd" clip-rule="evenodd" d="M14.3457 15.9473C12.666 15.8984 4.9707 11.0937 4.92188 10.3271L5.3418 9.61914C6.10352 10.7275 13.9746 15.4004 14.7461 15.2344L14.3457 15.9473Z" fill="#FFFF00" stroke="black" stroke-width="0.0341797" stroke-linecap="round" stroke-linejoin="round"/>
<path fill-rule="evenodd" clip-rule="evenodd" d="M5.25343 9.52148C5.10207 9.92676 7.26027 11.2598 9.85793 12.8418C12.4556 14.4189 14.6919 15.3955 14.8628 15.2588L14.9361 15.1172C14.9068 15.166 14.8286 15.1807 14.7114 15.1465C14.0083 14.9414 12.1773 14.1016 9.91164 12.7295C7.64601 11.3574 5.67336 10.0879 5.37062 9.55078C5.34567 9.50086 5.33391 9.4454 5.33644 9.38965H5.32668L5.2632 9.50195L5.25343 9.52148ZM14.3843 15.9668C14.355 16.0205 14.3013 16.0205 14.2036 16.0156C13.5737 15.9424 11.6646 15.0146 9.41847 13.667C6.79152 12.0947 4.62355 10.6641 4.86281 10.293L4.92629 10.1758L4.93605 10.1807C4.72609 10.8154 9.2134 13.3789 9.47707 13.5449C12.0698 15.1562 14.2622 16.0938 14.4575 15.8496L14.3843 15.9668Z" fill="#FFFF00" stroke="black" stroke-width="0.0341797" stroke-linecap="round" stroke-linejoin="round"/>
<path fill-rule="evenodd" clip-rule="evenodd" d="M10.0098 10.791C11.6846 10.7764 13.7598 10.5615 14.9512 10.0879L14.6973 9.66797C13.9893 10.0586 11.9092 10.3174 9.99512 10.3516C7.72949 10.332 6.13281 10.1221 5.33203 9.58496L5.08789 10.0293C6.5625 10.6494 8.06641 10.7861 10.0098 10.791Z" fill="#FFFF00" stroke="black" stroke-width="0.0341797" stroke-linecap="round" stroke-linejoin="round"/>
<path fill-rule="evenodd" clip-rule="evenodd" d="M15.0244 10.0977C14.9805 10.1611 14.2041 10.4297 13.0566 10.625C12.0449 10.7767 11.0231 10.8518 10 10.8496C9.02037 10.854 8.04156 10.792 7.07031 10.6641C5.87402 10.4736 5.24902 10.21 5.01953 10.1172L5.07812 10.0049C5.72745 10.2608 6.40412 10.441 7.09473 10.542C8.05794 10.668 9.0286 10.7283 10 10.7227C11.0149 10.7233 12.0285 10.6482 13.0322 10.498C14.2041 10.3076 14.8486 10.0635 14.9365 9.95117L15.0244 10.0977ZM14.7949 9.66797C14.668 9.76563 14.0332 9.99512 12.9199 10.1709C11.9577 10.309 10.9867 10.3776 10.0146 10.376C9.07728 10.3831 8.14061 10.3227 7.21191 10.1953C6.07422 10.0488 5.47363 9.78027 5.25879 9.70215L5.32227 9.58984C5.48828 9.67773 6.07422 9.91211 7.22656 10.0781C8.151 10.1979 9.08249 10.255 10.0146 10.249C10.9786 10.2504 11.9414 10.1818 12.8955 10.0439C14.0186 9.8877 14.624 9.60449 14.7168 9.53125L14.7949 9.66797ZM4.49219 12.8125C5.52734 13.3691 7.81738 13.6523 9.99023 13.6719C11.9678 13.6719 14.5459 13.3643 15.5078 12.8516L15.4785 12.2949C15.1807 12.7686 12.4219 13.2227 9.9707 13.2031C7.51953 13.1836 5.24414 12.8027 4.4873 12.3145V12.8125" fill="#FFFF00"/>
<path d="M4.49219 12.8125C5.52734 13.3691 7.81738 13.6523 9.99023 13.6719C11.9678 13.6719 14.5459 13.3643 15.5078 12.8516L15.4785 12.2949C15.1807 12.7686 12.4219 13.2227 9.9707 13.2031C7.51953 13.1836 5.24414 12.8027 4.4873 12.3145V12.8125M15.0244 10.0977C14.9805 10.1611 14.2041 10.4297 13.0566 10.625C12.0449 10.7767 11.0231 10.8518 10 10.8496C9.02037 10.854 8.04156 10.792 7.07031 10.6641C5.87402 10.4736 5.24902 10.21 5.01953 10.1172L5.07812 10.0049C5.72745 10.2608 6.40412 10.441 7.09473 10.542C8.05794 10.668 9.0286 10.7283 10 10.7227C11.0149 10.7233 12.0285 10.6482 13.0322 10.498C14.2041 10.3076 14.8486 10.0635 14.9365 9.95117L15.0244 10.0977ZM14.7949 9.66797C14.668 9.76563 14.0332 9.99512 12.9199 10.1709C11.9577 10.309 10.9867 10.3776 10.0146 10.376C9.07728 10.3831 8.14061 10.3227 7.21191 10.1953C6.07422 10.0488 5.47363 9.78027 5.25879 9.70215L5.32227 9.58984C5.48828 9.67773 6.07422 9.91211 7.22656 10.0781C8.151 10.1979 9.08249 10.255 10.0146 10.249C10.9786 10.2504 11.9414 10.1818 12.8955 10.0439C14.0186 9.8877 14.624 9.60449 14.7168 9.53125L14.7949 9.66797Z" stroke="black" stroke-width="0.0341797" stroke-linecap="round" stroke-linejoin="round"/>
<path fill-rule="evenodd" clip-rule="evenodd" d="M15.5615 12.7344V12.8662C15.415 13.042 14.5068 13.3057 13.3691 13.4863C12.2422 13.6501 11.1045 13.7284 9.96582 13.7207C8.62793 13.7207 7.56348 13.623 6.7334 13.4961C5.93695 13.4056 5.1585 13.1966 4.42383 12.876V12.7197C4.93164 13.0566 6.29395 13.3008 6.75293 13.374C7.57324 13.501 8.63281 13.5937 9.96582 13.5937C11.3672 13.5937 12.4902 13.4961 13.3496 13.3643C14.1699 13.2471 15.332 12.9395 15.5615 12.7344ZM15.5615 12.2607V12.3975C15.415 12.5684 14.5068 12.832 13.3691 13.0127C12.2422 13.1764 11.1045 13.2548 9.96582 13.2471C8.62793 13.2471 7.56348 13.1494 6.73828 13.0273C5.93994 12.9356 5.15983 12.7249 4.42383 12.4023V12.2461C4.93164 12.583 6.29395 12.832 6.75293 12.9004C7.57813 13.0273 8.6377 13.125 9.96582 13.125C11.3672 13.125 12.4902 13.0273 13.3496 12.8906C14.1699 12.7734 15.332 12.4658 15.5615 12.2607ZM9.98535 15.8496C7.6123 15.835 5.57617 15.2051 5.14648 15.0977L5.45898 15.5859C6.21582 15.9082 8.20312 16.3867 10.0098 16.333C11.8164 16.2793 13.3936 16.1377 14.502 15.6006L14.8242 15.0879C14.0674 15.4443 11.4893 15.8496 9.99023 15.8496" fill="#FFFF00"/>
<path d="M9.98535 15.8496C7.6123 15.835 5.57617 15.2051 5.14648 15.0977L5.45898 15.5859C6.21582 15.9082 8.20313 16.3867 10.0098 16.333C11.8164 16.2793 13.3936 16.1377 14.502 15.6006L14.8242 15.0879C14.0674 15.4443 11.4893 15.8496 9.99023 15.8496M15.5615 12.7344V12.8662C15.415 13.042 14.5068 13.3057 13.3691 13.4863C12.2422 13.6501 11.1045 13.7284 9.96582 13.7207C8.62793 13.7207 7.56348 13.623 6.7334 13.4961C5.93695 13.4056 5.1585 13.1966 4.42383 12.876V12.7197C4.93164 13.0566 6.29395 13.3008 6.75293 13.374C7.57324 13.501 8.63281 13.5937 9.96582 13.5937C11.3672 13.5937 12.4902 13.4961 13.3496 13.3643C14.1699 13.2471 15.332 12.9395 15.5615 12.7344ZM15.5615 12.2607V12.3975C15.415 12.5684 14.5068 12.832 13.3691 13.0127C12.2422 13.1764 11.1045 13.2548 9.96582 13.2471C8.62793 13.2471 7.56348 13.1494 6.73828 13.0273C5.93994 12.9356 5.15983 12.7249 4.42383 12.4023V12.2461C4.93164 12.583 6.29395 12.832 6.75293 12.9004C7.57813 13.0273 8.6377 13.125 9.96582 13.125C11.3672 13.125 12.4902 13.0273 13.3496 12.8906C14.1699 12.7734 15.332 12.4658 15.5615 12.2607Z" stroke="black" stroke-width="0.0341797" stroke-linecap="round" stroke-linejoin="round"/>
<path fill-rule="evenodd" clip-rule="evenodd" d="M14.624 15.4834C14.5764 15.5559 14.5276 15.6275 14.4775 15.6982C13.9235 15.882 13.3573 16.0272 12.7832 16.1328C11.8619 16.3023 10.927 16.3873 9.99023 16.3867C7.88574 16.3574 6.16211 15.9473 5.35156 15.5957L5.2832 15.4834L5.29785 15.4639L5.40527 15.5078C6.88779 15.9991 8.43825 16.2545 10 16.2646C10.9766 16.2695 11.9531 16.1523 12.7393 16.0156C13.9502 15.7715 14.4385 15.5908 14.5898 15.5078L14.624 15.4834ZM14.9023 15.0244H14.9072C14.8719 15.0865 14.8361 15.1484 14.7998 15.21C14.5215 15.3076 13.7598 15.5322 12.6514 15.6885C11.9189 15.7861 11.4648 15.8838 10.0146 15.9131C8.35306 15.8952 6.70183 15.6487 5.10742 15.1807L5.04883 15.0586C6.66831 15.503 8.33581 15.749 10.0146 15.791C11.3428 15.7617 11.9092 15.6641 12.6318 15.5615C13.9258 15.3662 14.5752 15.1514 14.7705 15.0879C14.769 15.0846 14.7674 15.0813 14.7656 15.0781L14.9023 15.0244Z" fill="#FFFF00" stroke="black" stroke-width="0.0292969" stroke-linecap="round" stroke-linejoin="round"/>
<path fill-rule="evenodd" clip-rule="evenodd" d="M14.9316 12.373C14.9414 13.9355 14.1406 15.3418 13.4961 15.9619C12.5493 16.8827 11.2864 17.4068 9.96582 17.4268C8.38867 17.4561 6.9043 16.4258 6.50391 15.9766C5.72266 15.0928 5.08789 13.9746 5.06836 12.4609C5.16602 10.752 5.83496 9.56543 6.80664 8.75C7.74689 7.97662 8.92908 7.55836 10.1465 7.56836C11.3867 7.60254 12.8418 8.21289 13.8428 9.42383C14.4971 10.2148 14.7852 11.0742 14.9316 12.3779V12.373ZM9.98047 7.02148C13.0078 7.02148 15.498 9.48731 15.498 12.5049C15.489 13.9623 14.9037 15.357 13.87 16.3843C12.8362 17.4117 11.4379 17.9883 9.98047 17.9883C6.95312 17.9883 4.48242 15.5273 4.48242 12.5049C4.48242 9.48242 6.95312 7.02148 9.98047 7.02148Z" fill="#FFFF00" stroke="black" stroke-width="0.0341797" stroke-linecap="round" stroke-linejoin="round"/>
<path fill-rule="evenodd" clip-rule="evenodd" d="M9.99512 7.00195C13.0225 7.00195 15.4932 9.47754 15.4932 12.5049C15.4932 15.5322 13.0225 18.0078 9.99512 18.0078C8.53599 18.0039 7.13781 17.4223 6.10651 16.39C5.07521 15.3578 4.49476 13.9591 4.49219 12.5C4.49605 11.0417 5.07707 9.64427 6.10823 8.61311C7.13939 7.58195 8.53684 7.00094 9.99512 6.99707V7.00195ZM4.61426 12.5049C4.61426 15.4639 7.0459 17.8857 9.99512 17.8857C12.9443 17.8857 15.3711 15.4639 15.3711 12.5049C15.3711 9.5459 12.9443 7.12891 9.99512 7.12891C8.57045 7.13404 7.20553 7.70193 6.19767 8.70888C5.18982 9.71582 4.62069 11.0802 4.61426 12.5049Z" fill="#FFFF00" stroke="black" stroke-width="0.0341797" stroke-linecap="round" stroke-linejoin="round"/>
<path fill-rule="evenodd" clip-rule="evenodd" d="M10 7.46094C12.7588 7.46094 15.0342 9.73144 15.0342 12.5C15.0342 15.2734 12.7588 17.5391 10 17.5391C8.66429 17.5352 7.38433 17.0032 6.43938 16.0592C5.49443 15.1152 4.96121 13.8357 4.95605 12.5C4.95605 9.73144 7.23145 7.46094 9.99512 7.46094H10ZM5.07812 12.5C5.07812 15.2051 7.2998 17.417 10 17.417C12.6953 17.417 14.917 15.2051 14.917 12.5C14.917 9.79492 12.6953 7.58301 9.99512 7.58301C7.29492 7.58301 5.07812 9.79492 5.07812 12.5Z" fill="#FFFF00" stroke="black" stroke-width="0.0341797" stroke-linecap="round" stroke-linejoin="round"/>
<path fill-rule="evenodd" clip-rule="evenodd" d="M10.2197 6.98242H9.74609V18.0371H10.2197V6.98242Z" fill="#FFFF00" stroke="black" stroke-width="0.0341797" stroke-linecap="round" stroke-linejoin="round"/>
<path fill-rule="evenodd" clip-rule="evenodd" d="M10.1709 6.91895H10.293V18.1006H10.1709V6.91895ZM9.70215 6.91895H9.82422V18.1006H9.70215V6.91895Z" fill="#FFFF00" stroke="black" stroke-width="0.0341797" stroke-linecap="round" stroke-linejoin="round"/>
<path fill-rule="evenodd" clip-rule="evenodd" d="M15.498 12.7197V12.3047L15.166 11.9971L13.2764 11.4941L10.5518 11.2158L7.28027 11.3818L4.94141 11.9385L4.47266 12.29V12.6953L5.66406 12.1582L8.49609 11.7188H11.2207L13.2227 11.9385L14.6094 12.2754L15.498 12.7197Z" fill="#FFFF00" stroke="black" stroke-width="0.0341797" stroke-linecap="round" stroke-linejoin="round"/>
<path fill-rule="evenodd" clip-rule="evenodd" d="M9.99512 11.6555C11.1889 11.6506 12.3806 11.7569 13.5547 11.9729C14.585 12.178 15.3125 12.4368 15.5566 12.7248V12.8713C15.2637 12.51 14.2871 12.2463 13.5303 12.0901C12.5391 11.8996 11.2842 11.7776 9.99512 11.7776C8.62793 11.7776 7.3584 11.9094 6.38184 12.0998C5.60059 12.2561 4.55566 12.5637 4.42383 12.8713V12.7248C4.49707 12.51 5.27344 12.1926 6.36719 11.9729C7.56416 11.7557 8.77862 11.6495 9.99512 11.6555ZM9.99512 11.1819C11.1905 11.1773 12.3838 11.2835 13.5596 11.4993C14.585 11.7043 15.3174 11.9631 15.5615 12.2561V12.3977C15.2637 12.0364 14.2822 11.7727 13.5303 11.6213C12.5391 11.426 11.2842 11.3039 9.99512 11.3039C8.78659 11.3002 7.58029 11.4081 6.3916 11.6262C5.63477 11.7727 4.5459 12.095 4.42383 12.3977V12.2512C4.49707 12.0412 5.29297 11.7141 6.36719 11.5041C7.56401 11.2853 8.77847 11.1775 9.99512 11.1819ZM9.9707 8.77465C12.0166 8.76488 13.8037 9.06273 14.6191 9.48266L14.917 9.99535C14.209 9.61449 12.2803 9.2141 9.9707 9.27758C8.09082 9.28734 6.08398 9.48266 5.07324 10.0198L5.42969 9.42406C6.25977 8.99437 8.21289 8.77953 9.9707 8.77465Z" fill="#FFFF00" stroke="black" stroke-width="0.0341797" stroke-linecap="round" stroke-linejoin="round"/>
<path fill-rule="evenodd" clip-rule="evenodd" d="M9.99512 9.19902C11.167 9.19902 12.29 9.2625 13.1885 9.42363C14.0234 9.57988 14.8242 9.81425 14.9365 9.94121L15.0244 10.0975C14.7461 9.91679 14.0576 9.71171 13.1689 9.5457C12.1196 9.3785 11.0575 9.30497 9.99512 9.32597C8.67676 9.32597 7.65137 9.38945 6.77246 9.5457C5.84473 9.7166 5.2002 9.96562 5.03906 10.0828L5.12695 9.92168C5.43457 9.76054 5.92773 9.57011 6.75293 9.42363C7.66113 9.25761 8.69141 9.20878 9.99512 9.19902ZM9.99512 8.73027C11.0264 8.71404 12.0571 8.78592 13.0762 8.94511C13.7549 9.07695 14.4238 9.28203 14.6729 9.46269L14.7998 9.66777C14.5801 9.42363 13.7549 9.19414 13.0225 9.06718C12.1729 8.9207 11.1133 8.86211 9.99512 8.85234C8.82324 8.85234 7.73926 8.92558 6.89941 9.07695C6.09863 9.2332 5.58105 9.41386 5.36133 9.55546L5.47363 9.37968C5.77637 9.22343 6.26465 9.07695 6.87988 8.95488C7.72461 8.80351 8.81836 8.73027 9.99512 8.73027ZM12.7295 14.7898C11.8267 14.6342 10.911 14.5655 9.99512 14.5848C6.58203 14.6238 5.4834 15.283 5.34668 15.4832L5.09277 15.0682C5.95703 14.4383 7.8125 14.0867 10.0098 14.1209C11.1475 14.1404 12.1289 14.2186 12.959 14.3748L12.7246 14.7898" fill="#FFFF00"/>
<path d="M12.7295 14.7898C11.8267 14.6342 10.911 14.5655 9.99512 14.5848C6.58203 14.6238 5.4834 15.283 5.34668 15.4832L5.09277 15.0682C5.95703 14.4383 7.8125 14.0867 10.0098 14.1209C11.1475 14.1404 12.1289 14.2186 12.959 14.3748L12.7246 14.7898M9.99512 9.19902C11.167 9.19902 12.29 9.2625 13.1885 9.42363C14.0234 9.57988 14.8242 9.81425 14.9365 9.94121L15.0244 10.0975C14.7461 9.91679 14.0576 9.71171 13.1689 9.5457C12.1196 9.3785 11.0575 9.30497 9.99512 9.32597C8.67676 9.32597 7.65137 9.38945 6.77246 9.5457C5.84473 9.7166 5.2002 9.96562 5.03906 10.0828L5.12695 9.92168C5.43457 9.76054 5.92773 9.57011 6.75293 9.42363C7.66113 9.25761 8.69141 9.20878 9.99512 9.19902ZM9.99512 8.73027C11.0264 8.71404 12.0571 8.78592 13.0762 8.94511C13.7549 9.07695 14.4238 9.28203 14.6729 9.46269L14.7998 9.66777C14.5801 9.42363 13.7549 9.19414 13.0225 9.06718C12.1729 8.9207 11.1133 8.86211 9.99512 8.85234C8.82324 8.85234 7.73926 8.92558 6.89941 9.07695C6.09863 9.2332 5.58105 9.41386 5.36133 9.55546L5.47363 9.37968C5.77637 9.22343 6.26465 9.07695 6.87988 8.95488C7.72461 8.80351 8.81836 8.73027 9.99512 8.73027Z" stroke="black" stroke-width="0.0341797" stroke-linecap="round" stroke-linejoin="round"/>
<path fill-rule="evenodd" clip-rule="evenodd" d="M9.97559 14.5262C10.9229 14.5408 11.8555 14.575 12.7588 14.7459L12.6904 14.8631C11.7957 14.7086 10.8884 14.6383 9.98047 14.6531C8.7207 14.6434 7.44141 14.7605 6.33789 15.0779C5.98633 15.1756 5.41016 15.4002 5.34668 15.5857L5.2832 15.4783C5.30273 15.3709 5.6543 15.1414 6.30859 14.9607C7.57812 14.5945 8.76465 14.5359 9.9707 14.5213L9.97559 14.5262ZM10.0195 14.0477C11.0196 14.0467 12.0179 14.1333 13.0029 14.3064L12.9346 14.4285C11.9746 14.2529 11.0003 14.1679 10.0244 14.1746C8.75977 14.1746 7.42187 14.2674 6.20117 14.6189C5.81055 14.7361 5.12695 14.9803 5.10742 15.1756L5.04395 15.0633C5.05859 14.8875 5.64453 14.6531 6.17676 14.4969C7.43052 14.1689 8.72394 14.0177 10.0195 14.0477Z" fill="#FFFF00" stroke="black" stroke-width="0.0292969" stroke-linecap="round" stroke-linejoin="round"/>
<path fill-rule="evenodd" clip-rule="evenodd" d="M14.8633 15.1318L14.4531 15.7666L13.2764 14.7217L10.2197 12.6709L6.77734 10.7764L4.98535 10.166L5.36621 9.45801L5.49805 9.38965L6.61133 9.66797L10.2734 11.5576L12.3877 12.8906L14.1602 14.1602L14.8828 14.9951L14.8633 15.1318Z" fill="#FFFF00" stroke="black" stroke-width="0.0341797" stroke-linecap="round" stroke-linejoin="round"/>
<path fill-rule="evenodd" clip-rule="evenodd" d="M4.92188 10.1808C5.23926 9.97083 7.54395 10.9962 9.95117 12.4513C12.3584 13.9113 14.6582 15.5568 14.4531 15.8693L14.3848 15.9718L14.3506 15.9962C14.3604 15.9962 14.3945 15.9474 14.3506 15.8351C14.2432 15.4982 12.6172 14.1993 9.90723 12.5636C7.27051 10.9913 5.07324 10.0441 4.85352 10.3175L4.92188 10.1808ZM14.9463 15.1222C15.1416 14.7316 13.0078 13.1202 10.3564 11.5529C7.64648 10.0148 5.68848 9.11145 5.33203 9.38001L5.25391 9.52649C5.25391 9.53137 5.25391 9.51673 5.27344 9.50208C5.33691 9.44837 5.44434 9.45325 5.49316 9.45325C6.1084 9.45813 7.86621 10.2638 10.3271 11.6798C11.4062 12.3048 14.8877 14.5411 14.873 15.1661C14.873 15.2199 14.8779 15.2296 14.8584 15.2589L14.9463 15.1222Z" fill="#FFFF00" stroke="black" stroke-width="0.0341797" stroke-linecap="round" stroke-linejoin="round"/>
<path d="M6.69824 13.1092C6.69907 13.5404 6.78542 13.9672 6.9523 14.3649C7.11918 14.7626 7.36328 15.1232 7.67047 15.4258C7.97391 15.734 8.33532 15.979 8.73387 16.1468C9.13243 16.3146 9.56025 16.4019 9.99269 16.4036C10.8679 16.4036 11.7072 16.0558 12.326 15.437C12.6321 15.1326 12.8751 14.7708 13.041 14.3723C13.2069 13.9738 13.2924 13.5464 13.2927 13.1147V8.71472L6.69824 8.70361V13.1092Z" fill="white" stroke="black" stroke-width="0.038889"/>
<path d="M6.83203 13.1148C6.8332 13.5285 6.91628 13.9379 7.07647 14.3193C7.23667 14.7007 7.4708 15.0466 7.76537 15.337C8.35685 15.9316 9.16004 16.2673 9.9987 16.2704C10.8359 16.2708 11.6391 15.9392 12.232 15.3482C12.5256 15.0572 12.7587 14.7111 12.9179 14.3297C13.0772 13.9483 13.1594 13.5392 13.1598 13.1259V8.84814H6.83203V13.1148ZM11.8876 10.1315V12.8482L11.882 13.1315C11.8839 13.3797 11.8357 13.6257 11.7402 13.8548C11.6448 14.0839 11.504 14.2914 11.3265 14.4648C10.9732 14.8193 10.4936 15.0192 9.99315 15.0204C9.47093 15.0204 9.00981 14.7982 8.66537 14.4537C8.31085 14.1004 8.11104 13.6209 8.10981 13.1204V10.1204L11.8876 10.1315Z" fill="#FF0000" stroke="black" stroke-width="0.0277778"/>
<path d="M7.23047 9.96469C7.23602 9.65914 7.45269 9.58691 7.45269 9.58691C7.45825 9.58691 7.69158 9.66469 7.69158 9.97025L7.23047 9.96469Z" fill="#FFFF00"/>
<path d="M7.04201 9.59247L7.00313 9.94247H7.23646C7.23646 9.65358 7.45868 9.60914 7.45868 9.60914C7.46424 9.60914 7.6809 9.67025 7.68646 9.94247H7.91979L7.87535 9.58691L7.04201 9.59247ZM6.98646 9.94803H7.93091C7.94757 9.94803 7.96424 9.96469 7.96424 9.98691C7.96424 10.0147 7.94757 10.0314 7.93091 10.0314H6.98646C6.96979 10.0314 6.95312 10.0147 6.95312 9.98691C6.95312 9.96469 6.96979 9.94803 6.99201 9.94803H6.98646Z" fill="#FFFF00" stroke="black" stroke-width="0.0277778"/>
<path d="M7.33114 9.94227C7.33114 9.75893 7.45892 9.70893 7.45892 9.70893C7.45892 9.70893 7.5867 9.76449 7.5867 9.94227H7.33114ZM7.00892 9.44226H7.91448C7.93114 9.44226 7.94781 9.46449 7.94781 9.48671C7.94781 9.50338 7.93114 9.52004 7.91448 9.52004H7.00892C6.99225 9.52004 6.97559 9.50338 6.97559 9.48115C6.97559 9.46449 6.99225 9.44782 7.00892 9.44782V9.44226ZM7.03114 9.5256H7.8867C7.90337 9.5256 7.92003 9.54226 7.92003 9.56449C7.92003 9.58671 7.90337 9.60338 7.8867 9.60338H7.02559C7.00336 9.60338 6.99225 9.58671 6.99225 9.56449C6.99225 9.54226 7.00336 9.5256 7.02559 9.5256H7.03114ZM7.30892 8.93671H7.37559V8.98115H7.42559V8.93671H7.49781V8.98671H7.54781V8.93115H7.61448V9.04226C7.61448 9.06449 7.60336 9.0756 7.5867 9.0756H7.34225C7.32559 9.0756 7.30892 9.06449 7.30892 9.04782V8.93671ZM7.56448 9.08671L7.58114 9.44226H7.34225L7.35892 9.08115H7.56448" fill="#FFFF00"/>
<path d="M7.56448 9.08671L7.58114 9.44226H7.34225L7.35892 9.08115H7.56448M7.33114 9.94227C7.33114 9.75893 7.45892 9.70893 7.45892 9.70893C7.45892 9.70893 7.5867 9.76449 7.5867 9.94227H7.33114ZM7.00892 9.44226H7.91448C7.93114 9.44226 7.94781 9.46449 7.94781 9.48671C7.94781 9.50338 7.93114 9.52004 7.91448 9.52004H7.00892C6.99225 9.52004 6.97559 9.50338 6.97559 9.48115C6.97559 9.46449 6.99225 9.44782 7.00892 9.44782V9.44226ZM7.03114 9.5256H7.8867C7.90337 9.5256 7.92003 9.54226 7.92003 9.56449C7.92003 9.58671 7.90337 9.60338 7.8867 9.60338H7.02559C7.00336 9.60338 6.99225 9.58671 6.99225 9.56449C6.99225 9.54226 7.00336 9.5256 7.02559 9.5256H7.03114ZM7.30892 8.93671H7.37559V8.98115H7.42559V8.93671H7.49781V8.98671H7.54781V8.93115H7.61448V9.04226C7.61448 9.06449 7.60336 9.0756 7.5867 9.0756H7.34225C7.32559 9.0756 7.30892 9.06449 7.30892 9.04782V8.93671Z" stroke="black" stroke-width="0.0277778"/>
<path d="M7.27496 9.25342V9.44231H7.05273V9.25342H7.27496Z" fill="#FFFF00" stroke="black" stroke-width="0.0277778"/>
<path d="M7.8648 9.25342V9.44231H7.64258V9.25342H7.8648Z" fill="#FFFF00" stroke="black" stroke-width="0.0277778"/>
<path d="M7.01465 9.10889H7.08132V9.16444H7.13131V9.10889H7.19798V9.16444H7.24798V9.10889H7.31465V9.22C7.31465 9.24222 7.30354 9.25333 7.28687 9.25333H7.04798C7.03914 9.25333 7.03066 9.24982 7.02441 9.24357C7.01816 9.23732 7.01465 9.22884 7.01465 9.22V9.10889Z" fill="#FFFF00" stroke="black" stroke-width="0.0277778"/>
<path d="M7.60352 9.10889H7.67018V9.16444H7.72018V9.10889H7.78685V9.16444H7.83685V9.10889H7.90352V9.22C7.90352 9.24222 7.8924 9.25333 7.87574 9.25333H7.63685C7.62801 9.25333 7.61953 9.24982 7.61328 9.24357C7.60703 9.23732 7.60352 9.22884 7.60352 9.22V9.10889Z" fill="#FFFF00" stroke="black" stroke-width="0.0277778"/>
<path d="M7.43652 9.19785C7.43652 9.16452 7.48652 9.16452 7.48652 9.19785V9.28674H7.43652V9.19785Z" fill="#000001"/>
<path d="M7.1416 9.31992C7.1416 9.28659 7.18605 9.28659 7.18605 9.31992V9.38659H7.1416V9.31992Z" fill="#000001"/>
<path d="M7.73047 9.31992C7.73047 9.28659 7.77491 9.28659 7.77491 9.31992V9.38659H7.73047V9.31992Z" fill="#000001"/>
<path d="M7.23047 12.537C7.23602 12.2314 7.45269 12.1592 7.45269 12.1592C7.45825 12.1592 7.69158 12.237 7.69158 12.5425L7.23047 12.537Z" fill="#FFFF00"/>
<path d="M7.04201 12.1647L7.00313 12.5147H7.23646C7.23646 12.2258 7.45868 12.1814 7.45868 12.1814C7.46424 12.1814 7.6809 12.2425 7.68646 12.5147H7.91979L7.87535 12.1592L7.04201 12.1647ZM6.98646 12.5203H7.93091C7.94757 12.5203 7.96424 12.537 7.96424 12.5592C7.96424 12.587 7.94757 12.6036 7.93091 12.6036H6.98646C6.96979 12.6036 6.95312 12.587 6.95312 12.5592C6.95312 12.537 6.96979 12.5203 6.99201 12.5203H6.98646Z" fill="#FFFF00" stroke="black" stroke-width="0.0277778"/>
<path d="M7.33114 12.5145C7.33114 12.3312 7.45892 12.2812 7.45892 12.2812C7.45892 12.2812 7.5867 12.3368 7.5867 12.5145H7.33114ZM7.00892 12.0145H7.91448C7.93114 12.0145 7.94781 12.0368 7.94781 12.059C7.94781 12.0756 7.93114 12.0923 7.91448 12.0923H7.00892C6.99225 12.0923 6.97559 12.0756 6.97559 12.0534C6.97559 12.0368 6.99225 12.0201 7.00892 12.0201V12.0145ZM7.03114 12.0979H7.8867C7.90337 12.0979 7.92003 12.1145 7.92003 12.1368C7.92003 12.159 7.90337 12.1756 7.8867 12.1756H7.02559C7.00336 12.1756 6.99225 12.159 6.99225 12.1368C6.99225 12.1145 7.00336 12.0979 7.02559 12.0979H7.03114ZM7.30892 11.509H7.37559V11.5534H7.42559V11.509H7.49781V11.559H7.54781V11.5034H7.61448V11.6145C7.61448 11.6368 7.60336 11.6479 7.5867 11.6479H7.34225C7.32559 11.6479 7.30892 11.6368 7.30892 11.6201V11.509ZM7.56448 11.659L7.58114 12.0145H7.34225L7.35892 11.6534H7.56448" fill="#FFFF00"/>
<path d="M7.56448 11.659L7.58114 12.0145H7.34225L7.35892 11.6534H7.56448M7.33114 12.5145C7.33114 12.3312 7.45892 12.2812 7.45892 12.2812C7.45892 12.2812 7.5867 12.3368 7.5867 12.5145H7.33114ZM7.00892 12.0145H7.91448C7.93114 12.0145 7.94781 12.0368 7.94781 12.059C7.94781 12.0756 7.93114 12.0923 7.91448 12.0923H7.00892C6.99225 12.0923 6.97559 12.0756 6.97559 12.0534C6.97559 12.0368 6.99225 12.0201 7.00892 12.0201V12.0145ZM7.03114 12.0979H7.8867C7.90337 12.0979 7.92003 12.1145 7.92003 12.1368C7.92003 12.159 7.90337 12.1756 7.8867 12.1756H7.02559C7.00336 12.1756 6.99225 12.159 6.99225 12.1368C6.99225 12.1145 7.00336 12.0979 7.02559 12.0979H7.03114ZM7.30892 11.509H7.37559V11.5534H7.42559V11.509H7.49781V11.559H7.54781V11.5034H7.61448V11.6145C7.61448 11.6368 7.60336 11.6479 7.5867 11.6479H7.34225C7.32559 11.6479 7.30892 11.6368 7.30892 11.6201V11.509Z" stroke="black" stroke-width="0.0277778"/>
<path d="M7.27496 11.8257V12.0146H7.05273V11.8257H7.27496Z" fill="#FFFF00" stroke="black" stroke-width="0.0277778"/>
<path d="M7.8648 11.8257V12.0146H7.64258V11.8257H7.8648Z" fill="#FFFF00" stroke="black" stroke-width="0.0277778"/>
<path d="M7.01465 11.6812H7.08132V11.7367H7.13131V11.6812H7.19798V11.7367H7.24798V11.6812H7.31465V11.7923C7.31465 11.8145 7.30354 11.8256 7.28687 11.8256H7.04798C7.03914 11.8256 7.03066 11.8221 7.02441 11.8158C7.01816 11.8096 7.01465 11.8011 7.01465 11.7923V11.6812Z" fill="#FFFF00" stroke="black" stroke-width="0.0277778"/>
<path d="M7.60352 11.6812H7.67018V11.7367H7.72018V11.6812H7.78685V11.7367H7.83685V11.6812H7.90352V11.7923C7.90352 11.8145 7.8924 11.8256 7.87574 11.8256H7.63685C7.62801 11.8256 7.61953 11.8221 7.61328 11.8158C7.60703 11.8096 7.60352 11.8011 7.60352 11.7923V11.6812Z" fill="#FFFF00" stroke="black" stroke-width="0.0277778"/>
<path d="M7.43652 11.7701C7.43652 11.7368 7.48652 11.7368 7.48652 11.7701V11.859H7.43652V11.7701Z" fill="#000001"/>
<path d="M7.1416 11.8922C7.1416 11.8589 7.18605 11.8589 7.18605 11.8922V11.9589H7.1416V11.8922Z" fill="#000001"/>
<path d="M7.73047 11.8922C7.73047 11.8589 7.77491 11.8589 7.77491 11.8922V11.9589H7.73047V11.8922Z" fill="#000001"/>
<path d="M8.23388 15.2174C8.02098 14.9981 8.12241 14.7935 8.12241 14.7935C8.12632 14.7895 8.34592 14.6788 8.56274 14.8941L8.23388 15.2174Z" fill="#FFFF00"/>
<path d="M7.83611 15.0893L8.05706 15.3635L8.22147 15.1979C8.01648 14.9944 8.14153 14.8054 8.14153 14.8054C8.14545 14.8014 8.34148 14.6907 8.53856 14.8786L8.70297 14.7131L8.41936 14.4941L7.83611 15.0893ZM8.04925 15.3792L8.71474 14.7091C8.72649 14.6973 8.75006 14.6972 8.76582 14.7128C8.78554 14.7324 8.78562 14.756 8.77387 14.7678L8.10838 15.438C8.09664 15.4498 8.07307 15.4499 8.05336 15.4303C8.03759 15.4146 8.03751 15.3911 8.05317 15.3753L8.04925 15.3792Z" fill="#FFFF00" stroke="black" stroke-width="0.0277778"/>
<path d="M8.28831 15.1311C8.15822 15.0019 8.21278 14.876 8.21278 14.876C8.21278 14.876 8.34223 14.8245 8.46838 14.9497L8.28831 15.1311ZM7.70647 15.0074L8.34456 14.3648C8.3563 14.353 8.38381 14.3568 8.39958 14.3725C8.41141 14.3842 8.41149 14.4078 8.39975 14.4196L7.76166 15.0622C7.74991 15.074 7.72635 15.0741 7.71058 15.0584C7.69875 15.0467 7.69867 15.0231 7.71041 15.0113L7.70647 15.0074ZM7.78126 15.0503L8.38411 14.4433C8.39586 14.4314 8.41943 14.4314 8.4352 14.447C8.45097 14.4627 8.45105 14.4862 8.4393 14.4981L7.83253 15.1091C7.81688 15.1249 7.79722 15.121 7.78145 15.1053C7.76568 15.0897 7.76169 15.0701 7.77735 15.0543L7.78126 15.0503ZM7.55913 14.4383L7.60611 14.391L7.63764 14.4223L7.67288 14.3868L7.64134 14.3555L7.69223 14.3043L7.72771 14.3395L7.76294 14.304L7.72352 14.2649L7.7705 14.2176L7.84934 14.2959C7.86511 14.3115 7.86516 14.3272 7.85342 14.3391L7.68117 14.5125C7.66943 14.5243 7.6498 14.5283 7.63797 14.5166L7.55913 14.4383ZM7.84564 14.3626L8.10968 14.6014L7.94135 14.7709L7.69686 14.5046L7.8417 14.3587" fill="#FFFF00"/>
<path d="M7.84564 14.3626L8.10968 14.6014L7.94135 14.7709L7.69686 14.5046L7.8417 14.3587M8.28831 15.1311C8.15822 15.0019 8.21278 14.876 8.21278 14.876C8.21278 14.876 8.34223 14.8245 8.46838 14.9497L8.28831 15.1311ZM7.70647 15.0074L8.34456 14.3648C8.3563 14.353 8.38381 14.3568 8.39958 14.3725C8.41141 14.3842 8.41149 14.4078 8.39975 14.4196L7.76166 15.0622C7.74991 15.074 7.72635 15.0741 7.71058 15.0584C7.69875 15.0467 7.69867 15.0231 7.71041 15.0113L7.70647 15.0074ZM7.78126 15.0503L8.38411 14.4433C8.39586 14.4314 8.41943 14.4314 8.4352 14.447C8.45097 14.4627 8.45105 14.4862 8.4393 14.4981L7.83253 15.1091C7.81688 15.1249 7.79722 15.121 7.78145 15.1053C7.76568 15.0897 7.76169 15.0701 7.77735 15.0543L7.78126 15.0503ZM7.55913 14.4383L7.60611 14.391L7.63764 14.4223L7.67288 14.3868L7.64134 14.3555L7.69223 14.3043L7.72771 14.3395L7.76294 14.304L7.72352 14.2649L7.7705 14.2176L7.84934 14.2959C7.86511 14.3115 7.86516 14.3272 7.85342 14.3391L7.68117 14.5125C7.66943 14.5243 7.6498 14.5283 7.63797 14.5166L7.55913 14.4383Z" stroke="black" stroke-width="0.0277778"/>
<path d="M7.7601 14.6851L7.89413 14.8182L7.73755 14.9759L7.60352 14.8428L7.7601 14.6851Z" fill="#FFFF00" stroke="black" stroke-width="0.0277778"/>
<path d="M8.17514 14.2671L8.30917 14.4002L8.15258 14.5579L8.01855 14.4248L8.17514 14.2671Z" fill="#FFFF00" stroke="black" stroke-width="0.0277778"/>
<path d="M7.47363 14.7686L7.52061 14.7212L7.56003 14.7604L7.59526 14.7249L7.55584 14.6858L7.60282 14.6385L7.64224 14.6776L7.67747 14.6421L7.63805 14.603L7.68502 14.5557L7.76386 14.634C7.77963 14.6496 7.77969 14.6653 7.76794 14.6772L7.59961 14.8467C7.59338 14.853 7.58492 14.8565 7.57608 14.8565C7.56724 14.8566 7.55875 14.8531 7.55247 14.8468L7.47363 14.7686Z" fill="#FFFF00" stroke="black" stroke-width="0.0277778"/>
<path d="M7.88867 14.3506L7.93565 14.3033L7.97507 14.3424L8.0103 14.3069L7.97088 14.2678L8.01786 14.2205L8.05728 14.2596L8.09251 14.2242L8.05309 14.185L8.10006 14.1377L8.1789 14.216C8.19467 14.2317 8.19473 14.2474 8.18298 14.2592L8.01465 14.4287C8.00842 14.435 7.99996 14.4385 7.99112 14.4386C7.98228 14.4386 7.97379 14.4351 7.96751 14.4289L7.88867 14.3506Z" fill="#FFFF00" stroke="black" stroke-width="0.0277778"/>
<path d="M7.83415 14.5313C7.81049 14.5078 7.84573 14.4723 7.86938 14.4958L7.93245 14.5584L7.89722 14.5939L7.83415 14.5313Z" fill="#000001"/>
<path d="M7.71403 14.8267C7.69038 14.8032 7.72169 14.7717 7.74535 14.7952L7.79265 14.8421L7.76133 14.8737L7.71403 14.8267Z" fill="#000001"/>
<path d="M8.12907 14.4087C8.10542 14.3852 8.13673 14.3537 8.16038 14.3772L8.20769 14.4242L8.17637 14.4557L8.12907 14.4087Z" fill="#000001"/>
<path d="M9.77051 9.96469C9.77606 9.65914 9.99273 9.58691 9.99273 9.58691C9.99829 9.58691 10.2316 9.66469 10.2316 9.97025L9.77051 9.96469Z" fill="#FFFF00"/>
<path d="M9.58205 9.59247L9.54316 9.94247H9.7765C9.7765 9.65358 9.99872 9.60914 9.99872 9.60914C10.0043 9.60914 10.2209 9.67025 10.2265 9.94247H10.4598L10.4154 9.58691L9.58205 9.59247ZM9.5265 9.94803H10.4709C10.4876 9.94803 10.5043 9.96469 10.5043 9.98691C10.5043 10.0147 10.4876 10.0314 10.4709 10.0314H9.5265C9.50983 10.0314 9.49316 10.0147 9.49316 9.98691C9.49316 9.96469 9.50983 9.94803 9.53205 9.94803H9.5265Z" fill="#FFFF00" stroke="black" stroke-width="0.0277778"/>
<path d="M9.87118 9.94227C9.87118 9.75893 9.99896 9.70893 9.99896 9.70893C9.99896 9.70893 10.1267 9.76449 10.1267 9.94227H9.87118ZM9.54896 9.44226H10.4545C10.4712 9.44226 10.4878 9.46449 10.4878 9.48671C10.4878 9.50338 10.4712 9.52004 10.4545 9.52004H9.54896C9.53229 9.52004 9.51562 9.50338 9.51562 9.48115C9.51562 9.46449 9.53229 9.44782 9.54896 9.44782V9.44226ZM9.57118 9.5256H10.4267C10.4434 9.5256 10.4601 9.54226 10.4601 9.56449C10.4601 9.58671 10.4434 9.60338 10.4267 9.60338H9.56562C9.5434 9.60338 9.53229 9.58671 9.53229 9.56449C9.53229 9.54226 9.5434 9.5256 9.56562 9.5256H9.57118ZM9.84896 8.93671H9.91563V8.98115H9.96563V8.93671H10.0378V8.98671H10.0878V8.93115H10.1545V9.04226C10.1545 9.06449 10.1434 9.0756 10.1267 9.0756H9.88229C9.86563 9.0756 9.84896 9.06449 9.84896 9.04782V8.93671ZM10.1045 9.08671L10.1212 9.44226H9.88229L9.89896 9.08115H10.1045" fill="#FFFF00"/>
<path d="M10.1045 9.08671L10.1212 9.44226H9.88229L9.89896 9.08115H10.1045M9.87118 9.94227C9.87118 9.75893 9.99896 9.70893 9.99896 9.70893C9.99896 9.70893 10.1267 9.76449 10.1267 9.94227H9.87118ZM9.54896 9.44226H10.4545C10.4712 9.44226 10.4878 9.46449 10.4878 9.48671C10.4878 9.50338 10.4712 9.52004 10.4545 9.52004H9.54896C9.53229 9.52004 9.51562 9.50338 9.51562 9.48115C9.51562 9.46449 9.53229 9.44782 9.54896 9.44782V9.44226ZM9.57118 9.5256H10.4267C10.4434 9.5256 10.4601 9.54226 10.4601 9.56449C10.4601 9.58671 10.4434 9.60338 10.4267 9.60338H9.56562C9.5434 9.60338 9.53229 9.58671 9.53229 9.56449C9.53229 9.54226 9.5434 9.5256 9.56562 9.5256H9.57118ZM9.84896 8.93671H9.91563V8.98115H9.96563V8.93671H10.0378V8.98671H10.0878V8.93115H10.1545V9.04226C10.1545 9.06449 10.1434 9.0756 10.1267 9.0756H9.88229C9.86563 9.0756 9.84896 9.06449 9.84896 9.04782V8.93671Z" stroke="black" stroke-width="0.0277778"/>
<path d="M9.815 9.25342V9.44231H9.59277V9.25342H9.815Z" fill="#FFFF00" stroke="black" stroke-width="0.0277778"/>
<path d="M10.4039 9.25342V9.44231H10.1816V9.25342H10.4039Z" fill="#FFFF00" stroke="black" stroke-width="0.0277778"/>
<path d="M9.55469 9.10889H9.62135V9.16444H9.67135V9.10889H9.73802V9.16444H9.78802V9.10889H9.85469V9.22C9.85469 9.24222 9.84358 9.25333 9.82691 9.25333H9.58802C9.57918 9.25333 9.5707 9.24982 9.56445 9.24357C9.5582 9.23732 9.55469 9.22884 9.55469 9.22V9.10889Z" fill="#FFFF00" stroke="black" stroke-width="0.0277778"/>
<path d="M10.1436 9.10889H10.2102V9.16444H10.2602V9.10889H10.3269V9.16444H10.3769V9.10889H10.4436V9.22C10.4436 9.24222 10.4324 9.25333 10.4158 9.25333H10.1769C10.168 9.25333 10.1596 9.24982 10.1533 9.24357C10.1471 9.23732 10.1436 9.22884 10.1436 9.22V9.10889Z" fill="#FFFF00" stroke="black" stroke-width="0.0277778"/>
<path d="M9.97656 9.19785C9.97656 9.16452 10.0266 9.16452 10.0266 9.19785V9.28674H9.97656V9.19785Z" fill="#000001"/>
<path d="M9.68164 9.31992C9.68164 9.28659 9.72608 9.28659 9.72608 9.31992V9.38659H9.68164V9.31992Z" fill="#000001"/>
<path d="M10.2705 9.31992C10.2705 9.28659 10.315 9.28659 10.315 9.31992V9.38659H10.2705V9.31992Z" fill="#000001"/>
<path d="M12.7549 9.96469C12.7493 9.65914 12.5327 9.58691 12.5327 9.58691C12.5271 9.58691 12.2938 9.66469 12.2938 9.97025L12.7549 9.96469Z" fill="#FFFF00"/>
<path d="M12.9433 9.59247L12.9822 9.94247H12.7489C12.7489 9.65358 12.5267 9.60914 12.5267 9.60914C12.5211 9.60914 12.3044 9.67025 12.2989 9.94247H12.0656L12.11 9.58691L12.9433 9.59247ZM12.9989 9.94803H12.0544C12.0378 9.94803 12.0211 9.96469 12.0211 9.98691C12.0211 10.0147 12.0378 10.0314 12.0544 10.0314H12.9989C13.0156 10.0314 13.0322 10.0147 13.0322 9.98691C13.0322 9.96469 13.0156 9.94803 12.9933 9.94803H12.9989Z" fill="#FFFF00" stroke="black" stroke-width="0.0277778"/>
<path d="M12.6542 9.94227C12.6542 9.75893 12.5264 9.70893 12.5264 9.70893C12.5264 9.70893 12.3987 9.76449 12.3987 9.94227H12.6542ZM12.9764 9.44226H12.0709C12.0542 9.44226 12.0375 9.46449 12.0375 9.48671C12.0375 9.50338 12.0542 9.52004 12.0709 9.52004H12.9764C12.9931 9.52004 13.0098 9.50338 13.0098 9.48115C13.0098 9.46449 12.9931 9.44782 12.9764 9.44782V9.44226ZM12.9542 9.5256H12.0987C12.082 9.5256 12.0653 9.54226 12.0653 9.56449C12.0653 9.58671 12.082 9.60338 12.0987 9.60338H12.9598C12.982 9.60338 12.9931 9.58671 12.9931 9.56449C12.9931 9.54226 12.982 9.5256 12.9598 9.5256H12.9542ZM12.6764 8.93671H12.6098V8.98115H12.5598V8.93671H12.4875V8.98671H12.4375V8.93115H12.3709V9.04226C12.3709 9.06449 12.382 9.0756 12.3987 9.0756H12.6431C12.6598 9.0756 12.6764 9.06449 12.6764 9.04782V8.93671ZM12.4209 9.08671L12.4042 9.44226H12.6431L12.6264 9.08115H12.4209" fill="#FFFF00"/>
<path d="M12.4209 9.08671L12.4042 9.44226H12.6431L12.6264 9.08115H12.4209M12.6542 9.94227C12.6542 9.75893 12.5264 9.70893 12.5264 9.70893C12.5264 9.70893 12.3987 9.76449 12.3987 9.94227H12.6542ZM12.9764 9.44226H12.0709C12.0542 9.44226 12.0375 9.46449 12.0375 9.48671C12.0375 9.50338 12.0542 9.52004 12.0709 9.52004H12.9764C12.9931 9.52004 13.0098 9.50338 13.0098 9.48115C13.0098 9.46449 12.9931 9.44782 12.9764 9.44782V9.44226ZM12.9542 9.5256H12.0987C12.082 9.5256 12.0653 9.54226 12.0653 9.56449C12.0653 9.58671 12.082 9.60338 12.0987 9.60338H12.9598C12.982 9.60338 12.9931 9.58671 12.9931 9.56449C12.9931 9.54226 12.982 9.5256 12.9598 9.5256H12.9542ZM12.6764 8.93671H12.6098V8.98115H12.5598V8.93671H12.4875V8.98671H12.4375V8.93115H12.3709V9.04226C12.3709 9.06449 12.382 9.0756 12.3987 9.0756H12.6431C12.6598 9.0756 12.6764 9.06449 12.6764 9.04782V8.93671Z" stroke="black" stroke-width="0.0277778"/>
<path d="M12.7104 9.25342V9.44231H12.9326V9.25342H12.7104Z" fill="#FFFF00" stroke="black" stroke-width="0.0277778"/>
<path d="M12.1215 9.25342V9.44231H12.3438V9.25342H12.1215Z" fill="#FFFF00" stroke="black" stroke-width="0.0277778"/>
<path d="M12.9717 9.10889H12.905V9.16444H12.855V9.10889H12.7883V9.16444H12.7383V9.10889H12.6717V9.22C12.6717 9.24222 12.6828 9.25333 12.6995 9.25333H12.9383C12.9472 9.25333 12.9557 9.24982 12.9619 9.24357C12.9682 9.23732 12.9717 9.22884 12.9717 9.22V9.10889Z" fill="#FFFF00" stroke="black" stroke-width="0.0277778"/>
<path d="M12.3818 9.10889H12.3152V9.16444H12.2652V9.10889H12.1985V9.16444H12.1485V9.10889H12.0818V9.22C12.0818 9.24222 12.0929 9.25333 12.1096 9.25333H12.3485C12.3573 9.25333 12.3658 9.24982 12.3721 9.24357C12.3783 9.23732 12.3818 9.22884 12.3818 9.22V9.10889Z" fill="#FFFF00" stroke="black" stroke-width="0.0277778"/>
<path d="M12.5488 9.19785C12.5488 9.16452 12.4988 9.16452 12.4988 9.19785V9.28674H12.5488V9.19785Z" fill="#000001"/>
<path d="M12.8438 9.31992C12.8438 9.28659 12.7993 9.28659 12.7993 9.31992V9.38659H12.8438V9.31992Z" fill="#000001"/>
<path d="M12.2549 9.31992C12.2549 9.28659 12.2104 9.28659 12.2104 9.31992V9.38659H12.2549V9.31992Z" fill="#000001"/>
<path d="M12.7549 12.537C12.7493 12.2314 12.5327 12.1592 12.5327 12.1592C12.5271 12.1592 12.2938 12.237 12.2938 12.5425L12.7549 12.537Z" fill="#FFFF00"/>
<path d="M12.9433 12.1647L12.9822 12.5147H12.7489C12.7489 12.2258 12.5267 12.1814 12.5267 12.1814C12.5211 12.1814 12.3044 12.2425 12.2989 12.5147H12.0656L12.11 12.1592L12.9433 12.1647ZM12.9989 12.5203H12.0544C12.0378 12.5203 12.0211 12.537 12.0211 12.5592C12.0211 12.587 12.0378 12.6036 12.0544 12.6036H12.9989C13.0156 12.6036 13.0322 12.587 13.0322 12.5592C13.0322 12.537 13.0156 12.5203 12.9933 12.5203H12.9989Z" fill="#FFFF00" stroke="black" stroke-width="0.0277778"/>
<path d="M12.6542 12.5145C12.6542 12.3312 12.5264 12.2812 12.5264 12.2812C12.5264 12.2812 12.3987 12.3368 12.3987 12.5145H12.6542ZM12.9764 12.0145H12.0709C12.0542 12.0145 12.0375 12.0368 12.0375 12.059C12.0375 12.0756 12.0542 12.0923 12.0709 12.0923H12.9764C12.9931 12.0923 13.0098 12.0756 13.0098 12.0534C13.0098 12.0368 12.9931 12.0201 12.9764 12.0201V12.0145ZM12.9542 12.0979H12.0987C12.082 12.0979 12.0653 12.1145 12.0653 12.1368C12.0653 12.159 12.082 12.1756 12.0987 12.1756H12.9598C12.982 12.1756 12.9931 12.159 12.9931 12.1368C12.9931 12.1145 12.982 12.0979 12.9598 12.0979H12.9542ZM12.6764 11.509H12.6098V11.5534H12.5598V11.509H12.4875V11.559H12.4375V11.5034H12.3709V11.6145C12.3709 11.6368 12.382 11.6479 12.3987 11.6479H12.6431C12.6598 11.6479 12.6764 11.6368 12.6764 11.6201V11.509ZM12.4209 11.659L12.4042 12.0145H12.6431L12.6264 11.6534H12.4209" fill="#FFFF00"/>
<path d="M12.4209 11.659L12.4042 12.0145H12.6431L12.6264 11.6534H12.4209M12.6542 12.5145C12.6542 12.3312 12.5264 12.2812 12.5264 12.2812C12.5264 12.2812 12.3987 12.3368 12.3987 12.5145H12.6542ZM12.9764 12.0145H12.0709C12.0542 12.0145 12.0375 12.0368 12.0375 12.059C12.0375 12.0756 12.0542 12.0923 12.0709 12.0923H12.9764C12.9931 12.0923 13.0098 12.0756 13.0098 12.0534C13.0098 12.0368 12.9931 12.0201 12.9764 12.0201V12.0145ZM12.9542 12.0979H12.0987C12.082 12.0979 12.0653 12.1145 12.0653 12.1368C12.0653 12.159 12.082 12.1756 12.0987 12.1756H12.9598C12.982 12.1756 12.9931 12.159 12.9931 12.1368C12.9931 12.1145 12.982 12.0979 12.9598 12.0979H12.9542ZM12.6764 11.509H12.6098V11.5534H12.5598V11.509H12.4875V11.559H12.4375V11.5034H12.3709V11.6145C12.3709 11.6368 12.382 11.6479 12.3987 11.6479H12.6431C12.6598 11.6479 12.6764 11.6368 12.6764 11.6201V11.509Z" stroke="black" stroke-width="0.0277778"/>
<path d="M12.7104 11.8257V12.0146H12.9326V11.8257H12.7104Z" fill="#FFFF00" stroke="black" stroke-width="0.0277778"/>
<path d="M12.1215 11.8257V12.0146H12.3438V11.8257H12.1215Z" fill="#FFFF00" stroke="black" stroke-width="0.0277778"/>
<path d="M12.9717 11.6812H12.905V11.7367H12.855V11.6812H12.7883V11.7367H12.7383V11.6812H12.6717V11.7923C12.6717 11.8145 12.6828 11.8256 12.6995 11.8256H12.9383C12.9472 11.8256 12.9557 11.8221 12.9619 11.8158C12.9682 11.8096 12.9717 11.8011 12.9717 11.7923V11.6812Z" fill="#FFFF00" stroke="black" stroke-width="0.0277778"/>
<path d="M12.3818 11.6812H12.3152V11.7367H12.2652V11.6812H12.1985V11.7367H12.1485V11.6812H12.0818V11.7923C12.0818 11.8145 12.0929 11.8256 12.1096 11.8256H12.3485C12.3573 11.8256 12.3658 11.8221 12.3721 11.8158C12.3783 11.8096 12.3818 11.8011 12.3818 11.7923V11.6812Z" fill="#FFFF00" stroke="black" stroke-width="0.0277778"/>
<path d="M12.5488 11.7701C12.5488 11.7368 12.4988 11.7368 12.4988 11.7701V11.859H12.5488V11.7701Z" fill="#000001"/>
<path d="M12.8438 11.8922C12.8438 11.8589 12.7993 11.8589 12.7993 11.8922V11.9589H12.8438V11.8922Z" fill="#000001"/>
<path d="M12.2549 11.8922C12.2549 11.8589 12.2104 11.8589 12.2104 11.8922V11.9589H12.2549V11.8922Z" fill="#000001"/>
<path d="M11.7515 15.2174C11.9644 14.9981 11.8629 14.7935 11.8629 14.7935C11.859 14.7895 11.6394 14.6788 11.4226 14.8941L11.7515 15.2174Z" fill="#FFFF00"/>
<path d="M12.1492 15.0893L11.9283 15.3635L11.7639 15.1979C11.9689 14.9944 11.8438 14.8054 11.8438 14.8054C11.8399 14.8014 11.6439 14.6907 11.4468 14.8786L11.2824 14.7131L11.566 14.4941L12.1492 15.0893ZM11.9361 15.3792L11.2706 14.7091C11.2589 14.6973 11.2353 14.6972 11.2195 14.7128C11.1998 14.7324 11.1997 14.756 11.2115 14.7678L11.877 15.438C11.8887 15.4498 11.9123 15.4499 11.932 15.4303C11.9478 15.4146 11.9478 15.3911 11.9322 15.3753L11.9361 15.3792Z" fill="#FFFF00" stroke="black" stroke-width="0.0277778"/>
<path d="M11.6961 15.1306C11.8262 15.0014 11.7716 14.8755 11.7716 14.8755C11.7716 14.8755 11.6421 14.824 11.516 14.9492L11.6961 15.1306ZM12.2779 15.0069L11.6398 14.3643C11.6281 14.3525 11.6006 14.3564 11.5848 14.372C11.573 14.3838 11.5729 14.4073 11.5846 14.4192L12.2227 15.0617C12.2345 15.0735 12.258 15.0736 12.2738 15.058C12.2856 15.0462 12.2857 15.0226 12.274 15.0108L12.2779 15.0069ZM12.2031 15.0499L11.6003 14.4428C11.5885 14.431 11.5649 14.4309 11.5492 14.4465C11.5334 14.4622 11.5333 14.4858 11.5451 14.4976L12.1518 15.1086C12.1675 15.1244 12.1872 15.1205 12.2029 15.1049C12.2187 15.0892 12.2227 15.0696 12.207 15.0538L12.2031 15.0499ZM12.4252 14.4378L12.3783 14.3905L12.3467 14.4218L12.3115 14.3863L12.343 14.355L12.2921 14.3038L12.2567 14.339L12.2214 14.3035L12.2609 14.2644L12.2139 14.2171L12.135 14.2954C12.1193 14.311 12.1192 14.3267 12.131 14.3386L12.3032 14.512C12.3149 14.5238 12.3346 14.5278 12.3464 14.5161L12.4252 14.4378ZM12.1387 14.3622L11.8747 14.6009L12.043 14.7704L12.2875 14.5041L12.1427 14.3582" fill="#FFFF00"/>
<path d="M12.1387 14.3622L11.8747 14.6009L12.043 14.7704L12.2875 14.5041L12.1427 14.3582M11.6961 15.1306C11.8262 15.0014 11.7716 14.8755 11.7716 14.8755C11.7716 14.8755 11.6421 14.824 11.516 14.9492L11.6961 15.1306ZM12.2779 15.0069L11.6398 14.3643C11.6281 14.3525 11.6006 14.3564 11.5848 14.372C11.573 14.3838 11.5729 14.4073 11.5846 14.4192L12.2227 15.0617C12.2345 15.0735 12.258 15.0736 12.2738 15.058C12.2856 15.0462 12.2857 15.0226 12.274 15.0108L12.2779 15.0069ZM12.2031 15.0499L11.6003 14.4428C11.5885 14.431 11.5649 14.4309 11.5492 14.4465C11.5334 14.4622 11.5333 14.4858 11.5451 14.4976L12.1518 15.1086C12.1675 15.1244 12.1872 15.1205 12.2029 15.1049C12.2187 15.0892 12.2227 15.0696 12.207 15.0538L12.2031 15.0499ZM12.4252 14.4378L12.3783 14.3905L12.3467 14.4218L12.3115 14.3863L12.343 14.355L12.2921 14.3038L12.2567 14.339L12.2214 14.3035L12.2609 14.2644L12.2139 14.2171L12.135 14.2954C12.1193 14.311 12.1192 14.3267 12.131 14.3386L12.3032 14.512C12.3149 14.5238 12.3346 14.5278 12.3464 14.5161L12.4252 14.4378Z" stroke="black" stroke-width="0.0277778"/>
<path d="M12.2243 14.6846L12.0902 14.8177L12.2468 14.9754L12.3809 14.8423L12.2243 14.6846Z" fill="#FFFF00" stroke="black" stroke-width="0.0277778"/>
<path d="M11.8092 14.2671L11.6752 14.4002L11.8318 14.5579L11.9658 14.4248L11.8092 14.2671Z" fill="#FFFF00" stroke="black" stroke-width="0.0277778"/>
<path d="M12.5117 14.7686L12.4647 14.7212L12.4253 14.7604L12.3901 14.7249L12.4295 14.6858L12.3825 14.6385L12.3431 14.6776L12.3079 14.6421L12.3473 14.603L12.3003 14.5557L12.2215 14.634C12.2057 14.6496 12.2057 14.6653 12.2174 14.6772L12.3857 14.8467C12.392 14.853 12.4004 14.8565 12.4093 14.8565C12.4181 14.8566 12.4266 14.8531 12.4329 14.8468L12.5117 14.7686Z" fill="#FFFF00" stroke="black" stroke-width="0.0277778"/>
<path d="M12.0967 14.3506L12.0497 14.3033L12.0103 14.3424L11.9751 14.3069L12.0145 14.2678L11.9675 14.2205L11.9281 14.2596L11.8928 14.2242L11.9323 14.185L11.8853 14.1377L11.8064 14.216C11.7907 14.2317 11.7906 14.2474 11.8024 14.2592L11.9707 14.4287C11.9769 14.435 11.9854 14.4385 11.9942 14.4386C12.0031 14.4386 12.0116 14.4351 12.0178 14.4289L12.0967 14.3506Z" fill="#FFFF00" stroke="black" stroke-width="0.0277778"/>
<path d="M12.1502 14.5313C12.1739 14.5078 12.1386 14.4723 12.115 14.4958L12.0519 14.5584L12.0872 14.5939L12.1502 14.5313Z" fill="#000001"/>
<path d="M12.2713 14.8267C12.295 14.8032 12.2637 14.7717 12.24 14.7952L12.1927 14.8421L12.224 14.8737L12.2713 14.8267Z" fill="#000001"/>
<path d="M11.8563 14.4087C11.8799 14.3852 11.8486 14.3537 11.825 14.3772L11.7777 14.4242L11.809 14.4557L11.8563 14.4087Z" fill="#000001"/>
<path d="M9.58791 12.6313C9.5869 12.7485 9.63061 12.8617 9.71013 12.9479C9.74723 12.9894 9.79258 13.0227 9.84329 13.0457C9.89399 13.0686 9.94892 13.0807 10.0046 13.0813C10.1212 13.0813 10.2268 13.0257 10.299 12.9479C10.3785 12.8617 10.4222 12.7485 10.4212 12.6313V12.0312H9.58791V12.6313Z" fill="#003399"/>
<path d="M9.78255 12.342C9.82858 12.342 9.86589 12.3047 9.86589 12.2586C9.86589 12.2126 9.82858 12.1753 9.78255 12.1753C9.73653 12.1753 9.69922 12.2126 9.69922 12.2586C9.69922 12.3047 9.73653 12.342 9.78255 12.342Z" fill="white"/>
<path d="M10.2435 12.342C10.2895 12.342 10.3268 12.3047 10.3268 12.2586C10.3268 12.2126 10.2895 12.1753 10.2435 12.1753C10.1975 12.1753 10.1602 12.2126 10.1602 12.2586C10.1602 12.3047 10.1975 12.342 10.2435 12.342Z" fill="white"/>
<path d="M10.0101 12.5641C10.0561 12.5641 10.0934 12.5268 10.0934 12.4808C10.0934 12.4348 10.0561 12.3975 10.0101 12.3975C9.96407 12.3975 9.92676 12.4348 9.92676 12.4808C9.92676 12.5268 9.96407 12.5641 10.0101 12.5641Z" fill="white"/>
<path d="M9.78255 12.798C9.82858 12.798 9.86589 12.7607 9.86589 12.7147C9.86589 12.6687 9.82858 12.6313 9.78255 12.6313C9.73653 12.6313 9.69922 12.6687 9.69922 12.7147C9.69922 12.7607 9.73653 12.798 9.78255 12.798Z" fill="white"/>
<path d="M10.2435 12.7975C10.2895 12.7975 10.3268 12.7602 10.3268 12.7142C10.3268 12.6682 10.2895 12.6309 10.2435 12.6309C10.1975 12.6309 10.1602 12.6682 10.1602 12.7142C10.1602 12.7602 10.1975 12.7975 10.2435 12.7975Z" fill="white"/>
<path d="M9.58791 11.1869C9.5869 11.3042 9.63061 11.4174 9.71013 11.5036C9.74723 11.5451 9.79258 11.5784 9.84329 11.6013C9.89399 11.6243 9.94892 11.6364 10.0046 11.6369C10.1212 11.6369 10.2268 11.5814 10.299 11.5036C10.3785 11.4174 10.4222 11.3042 10.4212 11.1869V10.5869H9.58791V11.1869Z" fill="#003399"/>
<path d="M9.78255 10.8981C9.82858 10.8981 9.86589 10.8608 9.86589 10.8148C9.86589 10.7688 9.82858 10.7314 9.78255 10.7314C9.73653 10.7314 9.69922 10.7688 9.69922 10.8148C9.69922 10.8608 9.73653 10.8981 9.78255 10.8981Z" fill="white"/>
<path d="M10.2435 10.8976C10.2895 10.8976 10.3268 10.8603 10.3268 10.8143C10.3268 10.7683 10.2895 10.731 10.2435 10.731C10.1975 10.731 10.1602 10.7683 10.1602 10.8143C10.1602 10.8603 10.1975 10.8976 10.2435 10.8976Z" fill="white"/>
<path d="M10.0101 11.1198C10.0561 11.1198 10.0934 11.0825 10.0934 11.0365C10.0934 10.9904 10.0561 10.9531 10.0101 10.9531C9.96407 10.9531 9.92676 10.9904 9.92676 11.0365C9.92676 11.0825 9.96407 11.1198 10.0101 11.1198Z" fill="white"/>
<path d="M9.78255 11.3537C9.82858 11.3537 9.86589 11.3164 9.86589 11.2703C9.86589 11.2243 9.82858 11.187 9.78255 11.187C9.73653 11.187 9.69922 11.2243 9.69922 11.2703C9.69922 11.3164 9.73653 11.3537 9.78255 11.3537Z" fill="white"/>
<path d="M10.2435 11.3532C10.2895 11.3532 10.3268 11.3159 10.3268 11.2699C10.3268 11.2238 10.2895 11.1865 10.2435 11.1865C10.1975 11.1865 10.1602 11.2238 10.1602 11.2699C10.1602 11.3159 10.1975 11.3532 10.2435 11.3532Z" fill="white"/>
<path d="M8.43166 12.6313C8.43065 12.7485 8.47436 12.8617 8.55388 12.9479C8.59098 12.9894 8.63633 13.0227 8.68704 13.0457C8.73774 13.0686 8.79267 13.0807 8.84833 13.0813C8.96499 13.0813 9.07055 13.0257 9.14277 12.9479C9.22229 12.8617 9.266 12.7485 9.26499 12.6313V12.0312H8.43166V12.6313Z" fill="#003399"/>
<path d="M8.6263 12.3424C8.67233 12.3424 8.70964 12.3051 8.70964 12.2591C8.70964 12.2131 8.67233 12.1758 8.6263 12.1758C8.58028 12.1758 8.54297 12.2131 8.54297 12.2591C8.54297 12.3051 8.58028 12.3424 8.6263 12.3424Z" fill="white"/>
<path d="M9.08724 12.3424C9.13326 12.3424 9.17057 12.3051 9.17057 12.2591C9.17057 12.2131 9.13326 12.1758 9.08724 12.1758C9.04122 12.1758 9.00391 12.2131 9.00391 12.2591C9.00391 12.3051 9.04122 12.3424 9.08724 12.3424Z" fill="white"/>
<path d="M8.85384 12.5646C8.89987 12.5646 8.93717 12.5273 8.93717 12.4813C8.93717 12.4353 8.89987 12.3979 8.85384 12.3979C8.80782 12.3979 8.77051 12.4353 8.77051 12.4813C8.77051 12.5273 8.80782 12.5646 8.85384 12.5646Z" fill="white"/>
<path d="M8.6263 12.798C8.67233 12.798 8.70964 12.7607 8.70964 12.7147C8.70964 12.6687 8.67233 12.6313 8.6263 12.6313C8.58028 12.6313 8.54297 12.6687 8.54297 12.7147C8.54297 12.7607 8.58028 12.798 8.6263 12.798Z" fill="white"/>
<path d="M9.08724 12.798C9.13326 12.798 9.17057 12.7607 9.17057 12.7147C9.17057 12.6687 9.13326 12.6313 9.08724 12.6313C9.04122 12.6313 9.00391 12.6687 9.00391 12.7147C9.00391 12.7607 9.04122 12.798 9.08724 12.798Z" fill="white"/>
<path d="M10.7432 12.6313C10.7422 12.7485 10.7859 12.8617 10.8654 12.9479C10.9025 12.9894 10.9479 13.0227 10.9986 13.0457C11.0493 13.0686 11.1042 13.0807 11.1598 13.0813C11.2765 13.0813 11.3821 13.0257 11.4543 12.9479C11.5338 12.8617 11.5775 12.7485 11.5765 12.6313V12.0312H10.7432V12.6313Z" fill="#003399"/>
<path d="M10.9378 12.342C10.9838 12.342 11.0212 12.3047 11.0212 12.2586C11.0212 12.2126 10.9838 12.1753 10.9378 12.1753C10.8918 12.1753 10.8545 12.2126 10.8545 12.2586C10.8545 12.3047 10.8918 12.342 10.9378 12.342Z" fill="white"/>
<path d="M11.3988 12.342C11.4448 12.342 11.4821 12.3047 11.4821 12.2586C11.4821 12.2126 11.4448 12.1753 11.3988 12.1753C11.3527 12.1753 11.3154 12.2126 11.3154 12.2586C11.3154 12.3047 11.3527 12.342 11.3988 12.342Z" fill="white"/>
<path d="M11.1654 12.5641C11.2114 12.5641 11.2487 12.5268 11.2487 12.4808C11.2487 12.4348 11.2114 12.3975 11.1654 12.3975C11.1193 12.3975 11.082 12.4348 11.082 12.4808C11.082 12.5268 11.1193 12.5641 11.1654 12.5641Z" fill="white"/>
<path d="M10.9378 12.798C10.9838 12.798 11.0212 12.7607 11.0212 12.7147C11.0212 12.6687 10.9838 12.6313 10.9378 12.6313C10.8918 12.6313 10.8545 12.6687 10.8545 12.7147C10.8545 12.7607 10.8918 12.798 10.9378 12.798Z" fill="white"/>
<path d="M11.3988 12.7975C11.4448 12.7975 11.4821 12.7602 11.4821 12.7142C11.4821 12.6682 11.4448 12.6309 11.3988 12.6309C11.3527 12.6309 11.3154 12.6682 11.3154 12.7142C11.3154 12.7602 11.3527 12.7975 11.3988 12.7975Z" fill="white"/>
<path d="M9.58791 14.0648C9.5869 14.1821 9.63061 14.2953 9.71013 14.3815C9.74723 14.423 9.79258 14.4563 9.84329 14.4792C9.89399 14.5022 9.94892 14.5143 10.0046 14.5148C10.1212 14.5148 10.2268 14.4593 10.299 14.3815C10.3785 14.2953 10.4222 14.1821 10.4212 14.0648V13.4648H9.58791V14.0648Z" fill="#003399"/>
<path d="M9.78255 13.776C9.82858 13.776 9.86589 13.7387 9.86589 13.6927C9.86589 13.6467 9.82858 13.6094 9.78255 13.6094C9.73653 13.6094 9.69922 13.6467 9.69922 13.6927C9.69922 13.7387 9.73653 13.776 9.78255 13.776Z" fill="white"/>
<path d="M10.2435 13.7756C10.2895 13.7756 10.3268 13.7382 10.3268 13.6922C10.3268 13.6462 10.2895 13.6089 10.2435 13.6089C10.1975 13.6089 10.1602 13.6462 10.1602 13.6922C10.1602 13.7382 10.1975 13.7756 10.2435 13.7756Z" fill="white"/>
<path d="M10.0101 13.9982C10.0561 13.9982 10.0934 13.9609 10.0934 13.9149C10.0934 13.8689 10.0561 13.8315 10.0101 13.8315C9.96407 13.8315 9.92676 13.8689 9.92676 13.9149C9.92676 13.9609 9.96407 13.9982 10.0101 13.9982Z" fill="white"/>
<path d="M9.78255 14.2316C9.82858 14.2316 9.86589 14.1943 9.86589 14.1483C9.86589 14.1023 9.82858 14.0649 9.78255 14.0649C9.73653 14.0649 9.69922 14.1023 9.69922 14.1483C9.69922 14.1943 9.73653 14.2316 9.78255 14.2316Z" fill="white"/>
<path d="M10.2435 14.2311C10.2895 14.2311 10.3268 14.1938 10.3268 14.1478C10.3268 14.1018 10.2895 14.0645 10.2435 14.0645C10.1975 14.0645 10.1602 14.1018 10.1602 14.1478C10.1602 14.1938 10.1975 14.2311 10.2435 14.2311Z" fill="white"/>
</g>
<rect x="0.5" y="0.5" width="24" height="24" rx="12" stroke="#EAEAEA"/>
<defs>
<clipPath id="clip0_1267_63735">
<rect width="25" height="25" rx="12.5" fill="white"/>
</clipPath>
</defs>
</svg>
