<svg width="25" height="25" viewBox="0 0 25 25" fill="none" xmlns="http://www.w3.org/2000/svg">
<g clip-path="url(#clip0_1267_64425)">
<mask id="mask0_1267_64425" style="mask-type:luminance" maskUnits="userSpaceOnUse" x="-1" y="0" width="26" height="25">
<path d="M-0.000976562 0H24.9976V24.9986H-0.000976562V0Z" fill="white"/>
</mask>
<g mask="url(#mask0_1267_64425)">
<path fill-rule="evenodd" clip-rule="evenodd" d="M-3.02734 0H46.9748V24.9986H-3.02734V0Z" fill="white"/>
<path fill-rule="evenodd" clip-rule="evenodd" d="M-3.02734 16.6689H46.9748V24.9984H-3.02734V16.6689Z" fill="#D50000"/>
<path fill-rule="evenodd" clip-rule="evenodd" d="M-3.02734 8.33447H46.9748V16.669H-3.02734V8.33447Z" fill="#0000BF"/>
<path fill-rule="evenodd" clip-rule="evenodd" d="M11.1482 4.53921C10.9522 7.5503 10.8416 9.1991 10.3842 9.96319C9.88649 10.7826 9.40392 11.3808 7.46858 12.1046C5.53826 11.3808 5.05569 10.7826 4.55803 9.96319C4.10561 9.1991 3.98999 7.5503 3.79395 4.53921L4.08048 4.4437C4.65354 4.26776 5.08585 4.12701 5.40254 4.06668C5.85496 3.96615 6.24202 3.86058 7.46355 3.83545C8.68508 3.85556 9.07214 3.97117 9.52456 4.06668C9.84628 4.13203 10.2937 4.26776 10.8617 4.4437L11.1482 4.53921Z" fill="#D50000"/>
<path fill-rule="evenodd" clip-rule="evenodd" d="M10.8673 4.43882C10.6813 7.44488 10.5305 8.82223 10.2842 9.48075C9.8167 10.6168 9.07272 11.2402 7.46916 11.8283C5.87062 11.2351 5.12664 10.6168 4.65412 9.48075C4.41283 8.82223 4.25699 7.4499 4.08105 4.43882C4.64406 4.26288 5.08643 4.12715 5.40312 4.0618C5.85553 3.96629 6.2426 3.85067 7.46413 3.83057C8.68565 3.85067 9.07775 3.96629 9.53017 4.0618C9.85188 4.12715 10.2993 4.26288 10.8673 4.43882Z" fill="#0000BF"/>
<path fill-rule="evenodd" clip-rule="evenodd" d="M7.46841 5.3584L7.54381 5.54439L7.88061 5.58963L7.66446 5.72033L7.87559 5.86108L7.56895 5.91135L7.47344 6.07724L7.3729 5.90633L7.07129 5.86611L7.27236 5.72033L7.07129 5.58963L7.39301 5.53937L7.46841 5.3584Z" fill="#FFDF00"/>
<path fill-rule="evenodd" clip-rule="evenodd" d="M10.1682 8.77164L9.98224 8.62084L9.84651 8.39966L9.58511 8.16842L9.44436 7.93718L9.18297 7.70092L9.05227 7.46969L8.91152 7.35407L8.81601 7.26861L8.57974 7.47471L8.44905 7.70595L8.28316 7.85173L8.10722 7.71098L7.97149 7.47471L7.46881 6.58496L6.96612 7.47471L6.83542 7.71098L6.65446 7.85173L6.4936 7.70092L6.3629 7.47471L6.12664 7.26861L6.03113 7.35407L5.89038 7.46969L5.75968 7.70092L5.49828 7.93718L5.35753 8.16842L5.09111 8.39966L4.96041 8.62084L4.77441 8.77164C4.88172 9.44217 5.19845 10.0616 5.67925 10.5411C6.00097 10.8477 6.65948 11.265 7.46378 11.5414C8.12431 11.3323 8.73504 10.9901 9.25837 10.5361C9.74007 10.0585 10.0585 9.44099 10.1682 8.77164Z" fill="white"/>
<path fill-rule="evenodd" clip-rule="evenodd" d="M8.27329 4.09682L8.3487 4.27779L8.6855 4.32806L8.46934 4.45373L8.68047 4.59951L8.37383 4.64978L8.27832 4.81566L8.17778 4.64475L7.8812 4.60454L8.08227 4.45373L7.87617 4.32806L8.19789 4.27779L8.27329 4.09682ZM6.6647 4.09682L6.7401 4.27276L7.0769 4.32303L6.86075 4.45373L7.07187 4.59448L6.76524 4.64475L6.66973 4.81064L6.56416 4.63972L6.27261 4.59951L6.47368 4.45373L6.26758 4.32303L6.5893 4.27276L6.6647 4.0918V4.09682Z" fill="#FFDF00"/>
<path fill-rule="evenodd" clip-rule="evenodd" d="M9.75107 9.91321H9.38913L9.05233 9.88808L8.64516 9.687L8.18269 9.69203L7.78557 9.88808L7.4739 9.91321L7.15721 9.88808L6.76009 9.69203H6.30264L5.89547 9.8931L5.55867 9.91321H5.18668L5.01074 9.6116L5.01577 9.60155L5.5637 9.69203L5.89547 9.66689L6.30264 9.46582H6.76512L7.16726 9.66689L7.47893 9.69203L7.79059 9.66187L8.19274 9.47085H8.64516L9.05736 9.66689L9.39416 9.69203L9.92198 9.59652L9.93203 9.6116L9.75107 9.91321ZM5.52851 10.3807L5.89044 10.3556L6.29762 10.1545H6.75506L7.15721 10.3505L7.46887 10.3807L7.78054 10.3505L8.18269 10.1545H8.64013L9.04731 10.3556L9.41427 10.3807L9.65053 10.0892L9.64048 10.0791L9.38913 10.1545L9.05233 10.1294L8.64516 9.92829H8.18772L7.78557 10.1294L7.4739 10.1545L7.16224 10.1294L6.76009 9.92829H6.30264L5.89547 10.1294L5.55867 10.1545L5.30733 10.0942V10.1042L5.52851 10.3807Z" fill="#0000BF"/>
</g>
</g>
<rect x="0.5" y="0.5" width="24" height="24" rx="12" stroke="#EAEAEA"/>
<defs>
<clipPath id="clip0_1267_64425">
<rect width="25" height="25" rx="12.5" fill="white"/>
</clipPath>
</defs>
</svg>
