<svg width="25" height="25" viewBox="0 0 25 25" fill="none" xmlns="http://www.w3.org/2000/svg">
<g clip-path="url(#clip0_1217_53042)">
<path d="M0 0H25V25H0V0Z" fill="#FF0000"/>
<path d="M10.625 4.85938C10.4453 4.85938 10.1445 4.9375 10.1484 5.11979C9.64062 5.01042 9.58984 5.28646 9.62109 5.53646C9.66797 5.4375 9.72656 5.38021 9.77344 5.375C9.83984 5.35937 9.91016 5.39062 9.98438 5.44792C10.0544 5.50647 10.1176 5.57842 10.1719 5.66146C9.99219 5.71875 9.85156 5.68229 9.71094 5.65104C9.63147 5.62846 9.55593 5.58605 9.48828 5.52604C9.42969 5.47396 9.41016 5.42187 9.32031 5.30208C9.21484 5.15625 9.10156 5.19792 9.13672 5.42187C9.21875 5.63021 9.35547 5.72396 9.52734 5.76562C9.60937 5.78125 9.73438 5.81771 9.875 5.81771C10.0156 5.81771 10.1719 5.79167 10.2578 5.81771C10.207 5.85937 10.1484 5.9375 10.0312 5.96354C9.91406 5.99479 9.73828 5.86979 9.62891 5.83854C9.64062 5.95833 9.75781 6.07292 9.98438 6.13542C10.3594 6.23958 10.668 6.32292 10.875 6.47396C11.0387 6.59567 11.1833 6.75837 11.3008 6.95312C11.4844 7.23958 11.4961 7.46354 11.5039 7.51562C11.543 7.97396 11.4219 8.23437 11.1953 8.31771C11.0859 8.35417 10.8828 8.28125 10.8125 8.16667C10.7344 8.05208 10.668 7.85417 10.6875 7.54167C10.707 7.42708 10.8086 7.10937 10.7227 7.04687C10.3153 6.74848 9.89387 6.48577 9.46094 6.26042C9.36328 6.20833 9.28516 6.38542 9.25391 6.45833C8.96547 6.40472 8.68961 6.26613 8.44637 6.05261C8.20312 5.8391 7.9986 5.55603 7.84766 5.22396C7.68359 4.82813 7.40625 5.22396 7.45312 5.60417C7.52734 6.02083 7.76562 6.32292 8.05469 6.54167C8.34766 6.75521 8.71875 6.96875 9.08984 6.95833C9.29297 7.01042 9.28906 7.35417 9.05078 7.42187C8.57812 7.42187 8.19922 7.41146 7.84375 6.95312C7.57422 6.625 7.42578 7.01562 7.5 7.23437C7.63281 7.91667 8.36328 8.10937 9.10156 7.89062C9.39062 7.82812 9.21875 8.23437 9.14062 8.23958C8.82812 8.53646 8.27734 8.82292 7.78906 8.23958C7.56641 8.01042 7.41406 8.19792 7.5 8.52604C7.71484 9.38542 8.54297 9.20312 9.10937 8.78646C9.25391 8.67708 9.38672 8.92708 9.21094 9.11979C8.50391 9.77604 8.15234 9.78646 7.83203 9.53646C7.43359 9.32292 7.40234 9.91146 7.63672 10.1094C7.89844 10.3177 8.56641 10.1615 9.05859 9.74479C9.26953 9.53646 9.27734 9.86458 9.14453 9.99479C8.5625 10.6667 8.33203 10.8437 7.72656 10.7344C7.42578 10.7031 7.42969 11.1979 7.66406 11.3906C7.98828 11.6562 8.62109 11.2187 9.10937 10.6719C9.31641 10.526 9.35156 10.7656 9.25 11.0521C9.03376 11.46 8.7398 11.7837 8.39844 11.9896C8.125 12.1302 7.86719 12.1094 7.68359 12.026C7.45703 11.9219 7.42969 12.2344 7.55469 12.5156C7.62891 12.6875 7.9375 12.7396 8.27344 12.5833C8.60938 12.4271 8.96875 12.0521 9.21484 11.6198C9.42969 11.3646 9.40625 11.7031 9.30469 11.9427C8.8125 12.9844 8.35937 13.3698 7.76172 13.3073C7.5 13.2448 7.4375 13.5156 7.60547 13.776C7.90234 14.099 8.26953 14.0885 8.59766 13.7656C8.88281 13.401 9.43359 12.599 9.72266 12.1719C9.92578 11.9583 9.99219 12.1719 9.92969 12.6094C9.875 12.8594 9.74219 13.1302 9.37109 13.3177C9.11719 13.5104 9.30859 13.776 9.49609 13.7865C9.60156 13.7865 9.8125 13.6198 9.97656 13.3802C10.1875 13.0573 10.2031 12.8437 10.3203 12.3437C10.4297 12.1042 10.6289 12.2187 10.6289 12.4687C10.5312 12.9687 10.4531 13.0573 10.2578 13.2604C10.0742 13.4948 10.3867 13.5729 10.4922 13.474C10.7969 13.2031 10.9062 12.849 11.0078 12.526C11.0859 12.2969 11.2969 12.4062 11.1953 12.7865C10.9609 13.6927 10.5703 14.0469 9.89453 14.2344C9.82812 14.25 9.78516 14.3021 9.80859 14.4062L10.082 14.7708C9.66406 14.9375 9.32422 15.0312 8.90234 15.1875L8.32422 14.6771C8.27344 14.5104 8.24609 14.25 7.94141 14.4323C7.73828 14.3073 7.64062 14.3542 7.52734 14.4844C7.69141 14.4844 7.76172 14.5469 7.82812 14.6458C7.91406 14.9427 8.10937 14.974 8.30859 14.8906C8.4375 15.0312 8.50391 15.1458 8.63672 15.2917L7.98437 15.2656C7.75 14.9375 7.57031 14.9531 7.40625 15.2135C7.27734 15.2396 7.22656 15.2396 7.14062 15.4427C7.27344 15.3698 7.35937 15.349 7.41797 15.4271C7.66406 15.6198 7.82422 15.5781 7.94531 15.4271L8.62891 15.4844C8.54297 15.5885 8.42578 15.6406 8.33594 15.7344C7.98437 15.599 7.79687 15.7865 7.73437 16.1667C7.685 16.3191 7.66876 16.4869 7.6875 16.651C7.71875 16.4948 7.77734 16.3646 7.87891 16.2865C8.19141 16.3906 8.30859 16.2187 8.32812 15.9687C8.48437 15.8021 8.71094 15.7656 8.86328 15.599C9.04297 15.6719 9.12891 15.7187 9.30859 15.7969C9.37109 16.0573 9.51562 16.1562 9.75 16.0885C10.0234 16.099 9.97656 16.2552 10 16.375C10.0781 16.2031 10.0742 16.0312 9.90234 15.875C9.83984 15.651 9.69922 15.5469 9.51953 15.6771C9.34766 15.6146 9.30469 15.5208 9.13281 15.4531C9.5625 15.2708 9.86719 15.2292 10.2969 15.0469L10.5977 15.401C10.6562 15.4479 10.7109 15.4583 10.7461 15.401C11.0156 14.8802 11.1367 14.4271 11.3828 14.0833C11.4805 13.9375 11.6016 13.75 11.7344 13.7031C11.8008 13.6771 11.8828 13.6927 11.9375 13.7708C11.9883 13.8437 12.0312 13.9844 12.0156 14.1979C11.9883 14.4948 11.9336 14.5937 11.8711 14.7708C11.8047 14.9531 11.7305 15.0625 11.6484 15.2031C11.4922 15.4792 11.2812 15.6406 11.1562 15.75C10.9062 15.9635 10.8047 15.8698 10.6094 15.8542C10.3594 15.8906 10.2969 16.0521 10.5 16.276C10.6875 16.4115 10.8594 16.4271 11 16.3906C11.1172 16.3594 11.2578 16.1562 11.3594 16.0469C11.4687 15.875 11.6562 16.0781 11.5273 16.2812C11.2969 16.6458 11.0703 16.8854 10.7852 16.8802C10.4844 16.9323 10.543 17.1562 10.7383 17.2656C11.0977 17.4583 11.418 17.0937 11.582 16.849C11.707 16.6667 11.7969 16.6615 11.7773 16.9479C11.6484 17.4635 11.4805 17.6615 11.1992 17.6875C10.9727 17.6562 10.9688 17.8958 11.1367 18.0521C11.5117 18.3958 11.7852 17.8021 11.9141 17.4479C12.0039 17.125 12.1445 17.276 12.1602 17.5417C12.1602 17.901 12.043 18.1875 11.7188 18.5521C11.9648 19.0781 12.2539 19.6146 12.5 20.1406L13.25 8.99479L12.5 7.23958C12.4219 7.14583 12.1562 6.72917 12.0898 6.66667C12.0625 6.63542 12.0508 6.61458 12.0859 6.59375C12.1211 6.57292 12.2031 6.55208 12.2617 6.54167C12.1055 6.32812 11.9648 6.26042 11.6641 6.14583C11.7383 6.10417 11.8086 6.125 12.0273 6.11458C11.8931 5.87412 11.7102 5.6898 11.5 5.58333C11.6641 5.42708 11.6953 5.41667 11.8594 5.23437C11.6006 5.20772 11.345 5.14131 11.0977 5.03646C10.9499 4.94286 10.7915 4.883 10.6289 4.85938H10.625ZM10.6562 5.29687C10.8047 5.29687 10.8945 5.36458 10.8945 5.44792C10.8945 5.53125 10.8047 5.59896 10.6562 5.59896C10.5078 5.59896 10.4141 5.52083 10.4141 5.44271C10.4141 5.35937 10.5078 5.29687 10.6562 5.29687Z" fill="#000001"/>
<path d="M14.375 4.85938C14.5547 4.85938 14.8555 4.9375 14.8516 5.11979C15.3594 5.01042 15.4102 5.28646 15.3789 5.53646C15.332 5.4375 15.2734 5.38021 15.2266 5.375C15.1602 5.35937 15.0898 5.39062 15.0156 5.44792C14.9456 5.50647 14.8824 5.57842 14.8281 5.66146C15.0078 5.71875 15.1484 5.68229 15.2891 5.65104C15.3685 5.62846 15.4441 5.58605 15.5117 5.52604C15.5703 5.47396 15.5898 5.42187 15.6797 5.30208C15.7852 5.15625 15.8984 5.19792 15.8633 5.42187C15.7813 5.63021 15.6445 5.72396 15.4727 5.76562C15.3906 5.78125 15.2656 5.81771 15.125 5.81771C14.9844 5.81771 14.8281 5.79167 14.7422 5.81771C14.793 5.85937 14.8516 5.9375 14.9688 5.96354C15.0859 5.99479 15.2617 5.86979 15.3711 5.83854C15.3594 5.95833 15.2422 6.07292 15.0156 6.13542C14.6406 6.23958 14.332 6.32292 14.125 6.47396C13.9613 6.59567 13.8167 6.75837 13.6992 6.95312C13.5156 7.23958 13.5039 7.46354 13.4961 7.51562C13.457 7.97396 13.5781 8.23437 13.8047 8.31771C13.9141 8.35417 14.1172 8.28125 14.1875 8.16667C14.2656 8.05208 14.332 7.85417 14.3125 7.54167C14.293 7.42708 14.1914 7.10937 14.2773 7.04687C14.6847 6.74848 15.1061 6.48577 15.5391 6.26042C15.6367 6.20833 15.7148 6.38542 15.7461 6.45833C16.0345 6.40472 16.3104 6.26613 16.5536 6.05261C16.7969 5.8391 17.0014 5.55603 17.1523 5.22396C17.3164 4.82813 17.5938 5.22396 17.5469 5.60417C17.4727 6.02083 17.2344 6.32292 16.9453 6.54167C16.6523 6.75521 16.2813 6.96875 15.9102 6.95833C15.707 7.01042 15.7109 7.35417 15.9492 7.42187C16.4219 7.42187 16.8008 7.41146 17.1562 6.95312C17.4258 6.625 17.5742 7.01562 17.5 7.23437C17.3672 7.91667 16.6367 8.10937 15.8984 7.89062C15.6094 7.82812 15.7812 8.23437 15.8594 8.23958C16.1719 8.53646 16.7227 8.82292 17.2109 8.23958C17.4336 8.01042 17.5859 8.19792 17.5 8.52604C17.2852 9.38542 16.457 9.20312 15.8906 8.78646C15.7461 8.67708 15.6133 8.92708 15.7891 9.11979C16.4961 9.77604 16.8477 9.78646 17.168 9.53646C17.5664 9.32292 17.5977 9.91146 17.3633 10.1094C17.1016 10.3177 16.4336 10.1615 15.9414 9.74479C15.7305 9.53646 15.7227 9.86458 15.8555 9.99479C16.4375 10.6667 16.668 10.8437 17.2734 10.7344C17.5742 10.7031 17.5703 11.1979 17.3359 11.3906C17.0117 11.6562 16.3789 11.2187 15.8906 10.6719C15.6836 10.526 15.6484 10.7656 15.75 11.0521C15.9662 11.46 16.2602 11.7837 16.6016 11.9896C16.875 12.1302 17.1328 12.1094 17.3164 12.026C17.543 11.9219 17.5703 12.2344 17.4453 12.5156C17.3711 12.6875 17.0625 12.7396 16.7266 12.5833C16.3906 12.4271 16.0313 12.0521 15.7852 11.6198C15.5703 11.3646 15.5938 11.7031 15.6953 11.9427C16.1875 12.9844 16.6406 13.3698 17.2383 13.3073C17.5 13.2448 17.5625 13.5156 17.3945 13.776C17.0977 14.099 16.7305 14.0885 16.4023 13.7656C16.1172 13.401 15.5664 12.599 15.2773 12.1719C15.0742 11.9583 15.0078 12.1719 15.0703 12.6094C15.125 12.8594 15.2578 13.1302 15.6289 13.3177C15.8828 13.5104 15.6914 13.776 15.5039 13.7865C15.3984 13.7865 15.1875 13.6198 15.0234 13.3802C14.8125 13.0573 14.7969 12.8437 14.6797 12.3437C14.5703 12.1042 14.3711 12.2187 14.3711 12.4687C14.4688 12.9687 14.5469 13.0573 14.7422 13.2604C14.9258 13.4948 14.6133 13.5729 14.5078 13.474C14.2031 13.2031 14.0938 12.849 13.9922 12.526C13.9141 12.2969 13.7031 12.4062 13.8047 12.7865C14.0391 13.6927 14.4297 14.0469 15.1055 14.2344C15.1719 14.25 15.2148 14.3021 15.1914 14.4062L14.918 14.7708C15.3359 14.9375 15.6758 15.0312 16.0977 15.1875L16.6758 14.6771C16.7266 14.5104 16.7539 14.25 17.0586 14.4323C17.2617 14.3073 17.3594 14.3542 17.4727 14.4844C17.3086 14.4844 17.2383 14.5469 17.1719 14.6458C17.0859 14.9427 16.8906 14.974 16.6914 14.8906C16.5625 15.0312 16.4961 15.1458 16.3633 15.2917L17.0156 15.2656C17.25 14.9375 17.4297 14.9531 17.5937 15.2135C17.7227 15.2396 17.7734 15.2396 17.8594 15.4427C17.7266 15.3698 17.6406 15.349 17.582 15.4271C17.3359 15.6198 17.1758 15.5781 17.0547 15.4271L16.3711 15.4844C16.457 15.5885 16.5742 15.6406 16.6641 15.7344C17.0156 15.599 17.2031 15.7865 17.2656 16.1667C17.315 16.3191 17.3312 16.4869 17.3125 16.651C17.2812 16.4948 17.2227 16.3646 17.1211 16.2865C16.8086 16.3906 16.6914 16.2187 16.6719 15.9687C16.5156 15.8021 16.2891 15.7656 16.1367 15.599C15.957 15.6719 15.8711 15.7187 15.6914 15.7969C15.6289 16.0573 15.4844 16.1562 15.25 16.0885C14.9766 16.099 15.0234 16.2552 15 16.375C14.9219 16.2031 14.9258 16.0312 15.0977 15.875C15.1602 15.651 15.3008 15.5469 15.4805 15.6771C15.6523 15.6146 15.6953 15.5208 15.8672 15.4531C15.4375 15.2708 15.1328 15.2292 14.7031 15.0469L14.4023 15.401C14.3438 15.4479 14.2891 15.4583 14.2539 15.401C13.9844 14.8802 13.8633 14.4271 13.6172 14.0833C13.5195 13.9375 13.3984 13.75 13.2656 13.7031C13.1992 13.6771 13.1172 13.6927 13.0625 13.7708C13.0117 13.8437 12.9688 13.9844 12.9844 14.1979C13.0117 14.4948 13.0664 14.5937 13.1289 14.7708C13.1953 14.9531 13.2695 15.0625 13.3516 15.2031C13.5078 15.4792 13.7188 15.6406 13.8438 15.75C14.0938 15.9635 14.1953 15.8698 14.3906 15.8542C14.6406 15.8906 14.7031 16.0521 14.5 16.276C14.3125 16.4115 14.1406 16.4271 14 16.3906C13.8828 16.3594 13.7422 16.1562 13.6406 16.0469C13.5313 15.875 13.3438 16.0781 13.4727 16.2812C13.7031 16.6458 13.9297 16.8854 14.2148 16.8802C14.5156 16.9323 14.457 17.1562 14.2617 17.2656C13.9023 17.4583 13.582 17.0937 13.418 16.849C13.293 16.6667 13.2031 16.6615 13.2227 16.9479C13.3516 17.4635 13.5195 17.6615 13.8008 17.6875C14.0273 17.6562 14.0312 17.8958 13.8633 18.0521C13.4883 18.3958 13.2148 17.8021 13.0859 17.4479C12.9961 17.125 12.8555 17.276 12.8398 17.5417C12.8398 17.901 12.957 18.1875 13.2812 18.5521C13.0352 19.0781 12.7461 19.6146 12.5 20.1406L11.75 8.99479L12.5 7.23958C12.5781 7.14583 12.8438 6.72917 12.9102 6.66667C12.9375 6.63542 12.9492 6.61458 12.9141 6.59375C12.8789 6.57292 12.7969 6.55208 12.7383 6.54167C12.8945 6.32812 13.0352 6.26042 13.3359 6.14583C13.2617 6.10417 13.1914 6.125 12.9727 6.11458C13.1069 5.87412 13.2898 5.6898 13.5 5.58333C13.3359 5.42708 13.3047 5.41667 13.1406 5.23437C13.3994 5.20772 13.655 5.14131 13.9023 5.03646C14.0501 4.94286 14.2085 4.883 14.3711 4.85938H14.375ZM14.3438 5.29687C14.1953 5.29687 14.1055 5.36458 14.1055 5.44792C14.1055 5.53125 14.1953 5.59896 14.3438 5.59896C14.4922 5.59896 14.5859 5.52083 14.5859 5.44271C14.5859 5.35937 14.4922 5.29687 14.3438 5.29687Z" fill="#000001"/>
</g>
<rect x="0.5" y="0.5" width="24" height="24" rx="12" stroke="#EAEAEA"/>
<defs>
<clipPath id="clip0_1217_53042">
<rect width="25" height="25" rx="12.5" fill="white"/>
</clipPath>
</defs>
</svg>
