<svg width="25" height="25" viewBox="0 0 25 25" fill="none" xmlns="http://www.w3.org/2000/svg">
<g clip-path="url(#clip0_1267_63873)">
<path fill-rule="evenodd" clip-rule="evenodd" d="M0 0H8.33496V25H0V0Z" fill="#00319C"/>
<path fill-rule="evenodd" clip-rule="evenodd" d="M8.33496 0H16.665V25H8.33496V0Z" fill="#FFDE00"/>
<path fill-rule="evenodd" clip-rule="evenodd" d="M16.665 0H25V25H16.665V0Z" fill="#DE2110"/>
<path fill-rule="evenodd" clip-rule="evenodd" d="M14.1436 15.6993L15.1055 17.0872C15.1599 17.1656 15.2127 17.2418 15.1329 17.2924C15.0508 17.3443 15.0767 17.5473 15.1311 17.6257C15.2383 17.7804 15.3725 17.8084 15.4523 17.7579L16.1819 17.2961C16.2617 17.2456 16.2871 17.1167 16.1799 16.962C16.1195 16.8843 15.94 16.7815 15.8602 16.832C15.7782 16.884 15.7253 16.8077 15.6724 16.7315L14.7075 15.3393" fill="#FF1900"/>
<path d="M14.1436 15.6993L15.1055 17.0872C15.1599 17.1656 15.2127 17.2418 15.1329 17.2924C15.0508 17.3443 15.0767 17.5473 15.1311 17.6257C15.2383 17.7804 15.3725 17.8084 15.4523 17.7579L16.1819 17.2961C16.2617 17.2456 16.2871 17.1167 16.1799 16.962C16.1195 16.8843 15.94 16.7815 15.8602 16.832C15.7782 16.884 15.7253 16.8077 15.6724 16.7315L14.7075 15.3393" stroke="black" stroke-width="0.0356595"/>
<path fill-rule="evenodd" clip-rule="evenodd" d="M14.5161 14.7176C14.9457 15.2055 15.0951 15.7649 14.8503 15.9618C14.6054 16.1586 14.0542 15.9221 13.6246 15.4342C13.1951 14.9463 13.0477 14.3852 13.2926 14.1883C13.5374 13.9915 14.0869 14.226 14.5182 14.7159L14.5161 14.7176Z" fill="#A77B3B" stroke="black" stroke-width="0.0829125"/>
<path fill-rule="evenodd" clip-rule="evenodd" d="M10.2361 15.131L9.38696 16.5844C9.33897 16.6665 9.29231 16.7464 9.20874 16.7018C9.12278 16.6559 8.94589 16.7711 8.89789 16.8532C8.80324 17.0152 8.83883 17.1419 8.9224 17.1865L9.68649 17.5941C9.77006 17.6387 9.90163 17.6012 9.99628 17.4392C10.0408 17.3522 10.054 17.1527 9.97044 17.1081C9.88448 17.0623 9.93114 16.9824 9.9778 16.9026L10.8297 15.4446" fill="#FF1900"/>
<path d="M10.2361 15.131L9.38696 16.5844C9.33897 16.6665 9.29231 16.7464 9.20874 16.7018C9.12278 16.6559 8.94589 16.7711 8.89789 16.8532C8.80324 17.0152 8.83883 17.1419 8.9224 17.1865L9.68649 17.5941C9.77006 17.6387 9.90163 17.6012 9.99628 17.4392C10.0408 17.3522 10.054 17.1527 9.97044 17.1081C9.88448 17.0623 9.93114 16.9824 9.9778 16.9026L10.8297 15.4446" stroke="black" stroke-width="0.0356568"/>
<path fill-rule="evenodd" clip-rule="evenodd" d="M12.9798 14.1201H12.2059C12.1785 14.1462 11.9597 15.5312 11.7218 16.0643C11.4319 16.7124 10.5596 17.2847 10.5596 17.2847C10.5596 17.2847 11.0792 17.4415 11.2378 17.546C11.2761 17.5355 12.1074 17.3605 12.2059 16.3439C12.3016 17.3605 11.6234 17.823 11.6234 17.823C11.6234 17.823 12.5942 18.1 12.5942 18.7507C12.5942 18.1026 13.5623 17.823 13.5623 17.823C13.5623 17.823 13.0755 17.3605 12.9798 16.3413C13.1712 17.3605 13.9096 17.5355 13.9506 17.5434C14.1065 17.4415 14.6261 17.2821 14.6261 17.2821C14.6261 17.2821 13.7565 16.715 13.4666 16.0643C13.2287 15.5339 13.0071 14.1436 12.9825 14.1201H12.9798Z" fill="#A77B3B" stroke="black" stroke-width="0.082871"/>
<path fill-rule="evenodd" clip-rule="evenodd" d="M9.68359 9.48748L11.1385 9.95001C11.3897 9.93408 11.6264 9.8315 11.8045 9.66135C11.9825 9.4912 12.0899 9.26505 12.1066 9.02495C12.123 7.99535 11.7182 7.63473 11.6225 7.63473L11.8139 7.45181L11.5268 7.16959C11.5268 7.16959 11.6252 6.68876 12.5933 6.70705C13.5614 6.72534 13.5614 7.16959 13.5614 7.63212C13.5614 8.09727 13.0774 8.09727 13.0774 9.02233C13.0947 9.26266 13.2026 9.48884 13.3811 9.65894C13.5596 9.82904 13.7966 9.93153 14.0482 9.9474L15.5003 9.48487V14.1207H9.68359V9.48748Z" fill="#A77B3B" stroke="black" stroke-width="0.082871"/>
<path d="M11.9111 9.67236L12.0077 9.95082L12.105 9.67236L12.2016 9.95082L12.3954 9.67236L12.4901 9.96567L12.5893 9.67236L12.7322 9.96567L12.8797 9.67236L12.9763 9.95082L13.0736 9.67236" stroke="black" stroke-width="0.00664945"/>
<path d="M12.3006 8.65381L12.1064 9.67295M12.3963 8.65381V9.67295M12.5905 8.65381V9.67295M12.7847 8.65381L12.8804 9.67295M12.9788 8.65381L13.0745 9.67295" stroke="black" stroke-width="0.00801978"/>
<path fill-rule="evenodd" clip-rule="evenodd" d="M8.71531 6.70947C7.74722 7.17201 7.74722 8.09969 7.74722 8.56222C7.78004 8.98294 7.74722 17.8207 7.74722 17.8207C7.74722 17.8207 7.81012 17.2981 8.23126 16.8957L8.71257 16.4331L9.19662 15.9706C9.55213 15.6622 9.68066 15.0429 9.68066 14.5804V8.09969C9.68066 8.09969 9.68066 7.63454 8.71257 6.70947H8.71531Z" fill="#A77B3B" stroke="black" stroke-width="0.082871"/>
<path d="M9.68359 8.56361C9.67265 8.56361 9.19955 8.10107 9.19955 8.10107L8.7155 8.56361L8.23146 8.10107L7.74741 8.56361" stroke="black" stroke-width="0.082871"/>
<path d="M9.68359 9.02331C9.67265 9.02331 9.19955 9.48584 9.19955 9.48584L8.7155 9.02331L8.23146 9.48584L7.74741 9.02331" stroke="black" stroke-width="0.082871"/>
<path d="M9.68359 10.4093C9.67265 10.4093 9.19955 9.94678 9.19955 9.94678L8.7155 10.4093L8.23146 9.94678L7.74741 10.4093" stroke="black" stroke-width="0.082871"/>
<path d="M9.19375 8.10107L9.19922 15.9735" stroke="black" stroke-width="0.114143"/>
<path d="M8.71523 8.56592L8.7207 16.4192" stroke="black" stroke-width="0.108136"/>
<path d="M8.23184 8.10107L8.2373 16.8985" stroke="black" stroke-width="0.114452"/>
<path fill-rule="evenodd" clip-rule="evenodd" d="M16.4693 6.70947C17.4374 7.17201 17.4374 8.09969 17.4374 8.56222C17.4045 8.98294 17.4374 17.8207 17.4374 17.8207C17.4374 17.8207 17.3745 17.2981 16.9533 16.8957L16.472 16.4331L15.988 15.9706C15.6324 15.6622 15.5039 15.0429 15.5039 14.5804V8.09969C15.5039 8.09969 15.5039 7.63454 16.472 6.70947H16.4693Z" fill="#A77B3B" stroke="black" stroke-width="0.082871"/>
<path d="M15.502 8.5641C15.5129 8.5641 15.986 8.10156 15.986 8.10156L16.47 8.5641L16.9541 8.10156L17.4381 8.5641" stroke="black" stroke-width="0.082871"/>
<path d="M15.502 9.02379C15.5129 9.02379 15.986 9.48633 15.986 9.48633L16.47 9.02379L16.9541 9.48633L17.4381 9.02379" stroke="black" stroke-width="0.082871"/>
<path d="M15.502 10.4098C15.5129 10.4098 15.986 9.94727 15.986 9.94727L16.47 10.4098L16.9541 9.94727L17.4381 10.4098" stroke="black" stroke-width="0.082871"/>
<path d="M15.9918 8.10107L15.9863 15.9735" stroke="black" stroke-width="0.114143"/>
<path d="M16.4693 8.56592L16.4639 16.4192" stroke="black" stroke-width="0.108136"/>
<path d="M16.9537 8.10107L16.9482 16.8985" stroke="black" stroke-width="0.114452"/>
<path fill-rule="evenodd" clip-rule="evenodd" d="M11.3194 15.0026C11.0627 15.5912 10.6111 15.9747 10.3158 15.8571C10.0204 15.7395 9.98737 15.163 10.244 14.5744C10.5007 13.9859 10.9548 13.6034 11.2502 13.7209C11.5455 13.8385 11.5796 14.4126 11.3219 15.0036L11.3194 15.0026Z" fill="#A77B3B" stroke="black" stroke-width="0.0828926"/>
<path fill-rule="evenodd" clip-rule="evenodd" d="M9.6875 9.95117H15.498V12.7295H9.6875V9.95117Z" fill="#FF0000"/>
<path fill-rule="evenodd" clip-rule="evenodd" d="M9.6875 12.7295H15.498V14.1113C15.498 15.0391 14.0479 15.0391 12.5928 15.9668C11.1377 15.0391 9.6875 15.0391 9.6875 14.1113V12.7295Z" fill="#564DFF"/>
<path d="M9.68359 9.9502H15.4976V14.1208C15.4976 15.0459 14.0455 15.0459 12.5906 15.9736C11.1385 15.0459 9.68359 15.0459 9.68359 14.1182V9.95281V9.9502Z" stroke="#FFFF00" stroke-width="0.0668315"/>
<path fill-rule="evenodd" clip-rule="evenodd" d="M11.5272 10.1387C11.5272 10.1387 10.5586 10.8197 10.5586 11.4712C10.5586 12.1228 11.5751 12.3412 11.5751 12.3412C11.5751 12.3412 11.2363 12.3412 11.2363 13.21C11.2363 13.6456 12.2528 13.4284 12.2528 13.6456C12.2528 13.8628 12.2394 14.3879 12.2528 14.7327C12.2528 14.9499 11.5751 14.7328 11.5751 14.9499C11.5751 15.0579 12.0843 15.6015 12.5935 15.6015C13.1027 15.6015 13.61 15.0579 13.61 14.9499C13.61 14.7328 12.9323 14.9499 12.9323 14.7327V13.6456C12.9323 13.4284 13.9488 13.6456 13.9488 13.21C13.9488 12.3412 13.61 12.3412 13.61 12.3412C13.61 12.3412 14.6284 12.124 14.6284 11.4712C14.6284 10.8185 13.6579 10.1387 13.6579 10.1387C13.6579 10.1387 14.2034 11.0369 14.2034 11.4712C14.2034 11.6884 13.9488 12.124 13.2712 12.124C13.2712 12.124 13.0989 11.9056 12.9323 12.124C12.9323 12.124 12.7371 11.9056 12.5935 12.124C12.5437 12.1977 12.4557 11.9056 12.2528 12.124C12.1685 12.1817 12.0996 11.9056 11.9139 12.124C11.5751 12.124 10.8974 11.9056 10.8974 11.4712C10.8974 11.0369 11.5272 10.1387 11.5272 10.1387Z" fill="#FFFF00" stroke="black" stroke-width="0.0459789"/>
<path fill-rule="evenodd" clip-rule="evenodd" d="M11.5446 14.0294C11.4757 14.0736 11.6326 14.7816 11.6786 14.8123C11.7475 14.8552 12.1552 14.8552 12.2222 14.8123C12.2701 14.7816 12.2222 14.1166 12.1552 14.0736C12.0863 14.0294 11.5924 14 11.5427 14.0294H11.5446Z" fill="#FFFF00" stroke="black" stroke-width="0.0459789"/>
<path fill-rule="evenodd" clip-rule="evenodd" d="M13.641 14.0294C13.7099 14.0736 13.5529 14.7816 13.507 14.8123C13.4381 14.8552 13.0303 14.8552 12.9633 14.8123C12.9154 14.7816 12.9633 14.1166 13.0303 14.0736C13.0992 14.0294 13.5931 14 13.6429 14.0294H13.641Z" fill="#FFFF00" stroke="black" stroke-width="0.0459789"/>
<path fill-rule="evenodd" clip-rule="evenodd" d="M12.2432 13.7687C12.2432 13.8336 12.2061 13.8958 12.1401 13.9417C12.074 13.9876 11.9845 14.0134 11.8911 14.0134C11.7977 14.0134 11.7082 13.9876 11.6422 13.9417C11.5762 13.8958 11.5391 13.8336 11.5391 13.7687C11.5391 13.7038 11.5762 13.6415 11.6422 13.5956C11.7082 13.5497 11.7977 13.5239 11.8911 13.5239C11.9845 13.5239 12.074 13.5497 12.1401 13.5956C12.2061 13.6415 12.2432 13.7038 12.2432 13.7687Z" fill="#FFFF00" stroke="black" stroke-width="0.0550378"/>
<path fill-rule="evenodd" clip-rule="evenodd" d="M13.6445 13.7687C13.6445 13.8336 13.6074 13.8958 13.5414 13.9417C13.4754 13.9876 13.3859 14.0134 13.2925 14.0134C13.1991 14.0134 13.1096 13.9876 13.0435 13.9417C12.9775 13.8958 12.9404 13.8336 12.9404 13.7687C12.9404 13.7038 12.9775 13.6415 13.0435 13.5956C13.1096 13.5497 13.1991 13.5239 13.2925 13.5239C13.3859 13.5239 13.4754 13.5497 13.5414 13.5956C13.6074 13.6415 13.6445 13.7038 13.6445 13.7687Z" fill="#FFFF00" stroke="black" stroke-width="0.0550386"/>
<path fill-rule="evenodd" clip-rule="evenodd" d="M13.2031 15.1855C13.2031 15.2441 13.125 15.293 13.0322 15.293C12.9395 15.293 12.8662 15.2441 12.8662 15.1855C12.8662 15.127 12.9395 15.0781 13.0322 15.0781C13.125 15.0781 13.2031 15.127 13.2031 15.1855ZM12.3242 15.1855C12.3242 15.2441 12.2461 15.293 12.1533 15.293C12.0605 15.293 11.9824 15.2441 11.9824 15.1855C11.9824 15.127 12.0605 15.0781 12.1533 15.0781C12.2461 15.0781 12.3193 15.127 12.3193 15.1855H12.3242Z" fill="black"/>
<path fill-rule="evenodd" clip-rule="evenodd" d="M12.5928 11.7123L12.3847 11.4497L12.0432 11.4931L12.0912 11.1667L11.8164 10.9704L12.0912 10.7716L12.0432 10.4452L12.3847 10.4911L12.5928 10.2285L12.8009 10.4911L13.1397 10.4452L13.0944 10.7716L13.3665 10.9704L13.0944 11.1693L13.1397 11.4931L12.7982 11.4497L12.5928 11.7123Z" fill="#FFFF00" stroke="black" stroke-width="0.0347742"/>
<path fill-rule="evenodd" clip-rule="evenodd" d="M14.043 12.7277L14.6255 13.0073L15.208 12.7277L14.6255 12.4507L14.043 12.7277Z" fill="#FFFF00" stroke="black" stroke-width="0.0356435"/>
<path fill-rule="evenodd" clip-rule="evenodd" d="M9.87793 12.7277L10.4604 13.0073L11.0429 12.7277L10.4604 12.4507L9.87793 12.7277Z" fill="#FFFF00" stroke="black" stroke-width="0.0356435"/>
<path fill-rule="evenodd" clip-rule="evenodd" d="M14.949 14.3873C14.7706 14.2742 14.4702 14.3306 14.3018 14.423C14.1335 14.5154 13.9651 14.6078 13.9424 14.9426C13.749 14.6209 13.9013 14.3233 14.1575 14.1828C14.2933 14.119 14.4488 14.1048 14.5948 14.1428C14.7408 14.1809 14.8673 14.2687 14.9503 14.3896L14.949 14.3873Z" fill="#FFFF00" stroke="black" stroke-width="0.0356574"/>
<path fill-rule="evenodd" clip-rule="evenodd" d="M10.9471 13.8395C10.9471 13.8884 10.9268 13.9352 10.8906 13.9698C10.8545 14.0043 10.8055 14.0237 10.7543 14.0237C10.7032 14.0237 10.6541 14.0043 10.618 13.9698C10.5818 13.9352 10.5615 13.8884 10.5615 13.8395C10.5615 13.7906 10.5818 13.7438 10.618 13.7092C10.6541 13.6747 10.7032 13.6553 10.7543 13.6553C10.8055 13.6553 10.8545 13.6747 10.8906 13.7092C10.9268 13.7438 10.9471 13.7906 10.9471 13.8395Z" fill="#FFFF00" stroke="black" stroke-width="0.0356435"/>
<path fill-rule="evenodd" clip-rule="evenodd" d="M10.7518 14.4889C10.7518 14.5378 10.7315 14.5846 10.6953 14.6192C10.6592 14.6537 10.6101 14.6731 10.559 14.6731C10.5079 14.6731 10.4588 14.6537 10.4227 14.6192C10.3865 14.5846 10.3662 14.5378 10.3662 14.4889C10.3662 14.4401 10.3865 14.3932 10.4227 14.3586C10.4588 14.3241 10.5079 14.3047 10.559 14.3047C10.6101 14.3047 10.6592 14.3241 10.6953 14.3586C10.7315 14.3932 10.7518 14.4401 10.7518 14.4889Z" fill="#FFFF00" stroke="black" stroke-width="0.0356435"/>
<path fill-rule="evenodd" clip-rule="evenodd" d="M10.6541 14.1178C10.6541 14.1667 10.6338 14.2135 10.5977 14.2481C10.5615 14.2826 10.5125 14.3021 10.4614 14.3021C10.4102 14.3021 10.3612 14.2826 10.325 14.2481C10.2889 14.2135 10.2686 14.1667 10.2686 14.1178C10.2686 14.069 10.2889 14.0221 10.325 13.9876C10.3612 13.953 10.4102 13.9336 10.4614 13.9336C10.5125 13.9336 10.5615 13.953 10.5977 13.9876C10.6338 14.0221 10.6541 14.069 10.6541 14.1178Z" fill="#FFFF00" stroke="black" stroke-width="0.0356435"/>
<path fill-rule="evenodd" clip-rule="evenodd" d="M11.1375 14.4889C11.1375 14.5378 11.1172 14.5846 11.0811 14.6192C11.0449 14.6537 10.9959 14.6731 10.9448 14.6731C10.8936 14.6731 10.8446 14.6537 10.8084 14.6192C10.7723 14.5846 10.752 14.5378 10.752 14.4889C10.752 14.4401 10.7723 14.3932 10.8084 14.3586C10.8446 14.3241 10.8936 14.3047 10.9448 14.3047C10.9959 14.3047 11.0449 14.3241 11.0811 14.3586C11.1172 14.3932 11.1375 14.4401 11.1375 14.4889Z" fill="#FFFF00" stroke="black" stroke-width="0.0356435"/>
<path fill-rule="evenodd" clip-rule="evenodd" d="M11.2352 14.1178C11.2352 14.1667 11.2149 14.2135 11.1787 14.2481C11.1426 14.2826 11.0935 14.3021 11.0424 14.3021C10.9913 14.3021 10.9422 14.2826 10.9061 14.2481C10.8699 14.2135 10.8496 14.1667 10.8496 14.1178C10.8496 14.069 10.8699 14.0221 10.9061 13.9876C10.9422 13.953 10.9913 13.9336 11.0424 13.9336C11.0935 13.9336 11.1426 13.953 11.1787 13.9876C11.2149 14.0221 11.2352 14.069 11.2352 14.1178Z" fill="#FFFF00" stroke="black" stroke-width="0.0356435"/>
<path fill-rule="evenodd" clip-rule="evenodd" d="M10.9471 14.2106C10.9471 14.2595 10.9268 14.3063 10.8906 14.3409C10.8545 14.3754 10.8055 14.3948 10.7543 14.3948C10.7032 14.3948 10.6541 14.3754 10.618 14.3409C10.5818 14.3063 10.5615 14.2595 10.5615 14.2106C10.5615 14.1617 10.5818 14.1149 10.618 14.0803C10.6541 14.0458 10.7032 14.0264 10.7543 14.0264C10.8055 14.0264 10.8545 14.0458 10.8906 14.0803C10.9268 14.1149 10.9471 14.1617 10.9471 14.2106Z" fill="#FFFF00" stroke="black" stroke-width="0.0356435"/>
<path fill-rule="evenodd" clip-rule="evenodd" d="M11.6553 7.76367C11.167 7.76367 11.1035 7.83691 10.8838 7.91016C10.8838 7.70019 11.4258 7.45117 11.9141 7.45117C11.9141 7.60742 11.7871 7.75879 11.6553 7.75879V7.76367Z" fill="#DA4500"/>
<path fill-rule="evenodd" clip-rule="evenodd" d="M12.4023 7.26563C12.4023 7.36816 12.3145 7.45117 12.207 7.45117C12.0996 7.45117 12.0117 7.36816 12.0117 7.26563C12.0117 7.16309 12.0996 7.08008 12.207 7.08008C12.3145 7.08008 12.4023 7.16309 12.4023 7.26563Z" fill="#CAC9C7"/>
<path fill-rule="evenodd" clip-rule="evenodd" d="M10.3613 6.61814V6.89514H10.8454V8.28274H11.138V6.89514H11.622V6.61814H11.138V6.24707H10.8426V6.61814H10.3613Z" fill="#FFFF00" stroke="black" stroke-width="0.0356435"/>
<path fill-rule="evenodd" clip-rule="evenodd" d="M11.9141 7.45117C11.5203 7.42946 11.126 7.48248 10.752 7.60742C10.752 7.31934 11.084 6.9873 11.6553 6.9873C11.7871 6.9873 11.9141 7.29492 11.9141 7.45117Z" fill="#DA4500"/>
<path fill-rule="evenodd" clip-rule="evenodd" d="M6.87559 12.3663C6.73612 12.0657 6.73936 11.9697 6.98747 12.3137L9.9761 17.9797L9.88462 18.0055L6.87713 12.3675L6.87559 12.3663Z" fill="#008500" stroke="black" stroke-width="0.0131053"/>
<path fill-rule="evenodd" clip-rule="evenodd" d="M8.90133 16.0936C8.93551 15.6737 8.16891 15.2196 8.13473 15.2489C8.10543 15.2782 8.18356 15.5223 8.33004 15.6493C8.04684 15.5077 7.75387 15.4198 7.7441 15.4832C7.72457 15.5663 8.18356 15.7664 8.22262 15.8446C8.22262 15.8983 7.88082 15.8934 7.89059 15.9471C7.89547 16.0057 8.8525 16.4842 8.90133 16.0936ZM8.13473 14.8729C8.16403 14.453 7.39742 13.994 7.36324 14.0282C7.33395 14.0575 7.41207 14.3016 7.55856 14.4286C7.28024 14.2821 6.98727 14.1942 6.9775 14.2577C6.95797 14.3407 7.41696 14.5409 7.45114 14.619C7.45602 14.6776 7.11422 14.6678 7.12399 14.7264C7.12887 14.7801 8.0859 15.2635 8.13473 14.8729ZM7.54879 13.7596C7.57809 13.3397 6.8066 12.8856 6.77731 12.9149C6.74801 12.9442 6.82614 13.1883 6.97262 13.3153C6.68942 13.1688 6.39645 13.0858 6.39156 13.1493C6.36715 13.2323 6.83102 13.4325 6.8652 13.5106C6.87008 13.5643 6.52828 13.5594 6.53317 13.6131C6.54293 13.6668 7.49508 14.1502 7.54391 13.7596H7.54879ZM6.96285 12.5584C6.99703 12.1385 6.23043 11.6795 6.19625 11.7137C6.16696 11.743 6.24508 11.9872 6.39156 12.1141C6.10836 11.9676 5.81539 11.8797 5.81051 11.9432C5.7861 12.0262 6.24508 12.2264 6.28414 12.3045C6.28903 12.3631 5.94723 12.3534 5.95211 12.412C5.95699 12.4608 6.91403 12.9491 6.96285 12.5584Z" fill="#008F00"/>
<path fill-rule="evenodd" clip-rule="evenodd" d="M7.16332 12.4999C7.5393 12.2753 7.46606 11.4159 7.42211 11.4111C7.37817 11.4013 7.21704 11.6064 7.1975 11.7968C7.14868 11.4941 7.05102 11.2157 7.00219 11.2499C6.9143 11.2841 7.01684 11.7529 6.9729 11.831C6.92895 11.8652 6.72875 11.6015 6.68969 11.6357C6.64575 11.6747 6.80688 12.6952 7.16332 12.4999ZM7.70043 13.5595C8.135 13.4618 8.3645 12.6318 8.33032 12.6122C8.29125 12.5927 8.06665 12.7343 7.98364 12.9052C8.04711 12.6073 8.04711 12.3144 7.98364 12.3241C7.89575 12.329 7.8225 12.8027 7.75903 12.8613C7.70532 12.8857 7.61254 12.5683 7.55883 12.5927C7.50512 12.6122 7.30004 13.6279 7.70532 13.5595H7.70043ZM8.34985 14.6386C8.74047 14.4433 8.75024 13.5839 8.70629 13.5741C8.66235 13.5644 8.48657 13.7548 8.4475 13.9404C8.42797 13.6376 8.35961 13.3544 8.30102 13.3788C8.21313 13.4032 8.26684 13.8818 8.21801 13.955C8.16918 13.9843 8.00317 13.7011 7.95434 13.7353C7.90551 13.7695 7.97387 14.8046 8.34497 14.6386H8.34985ZM9.04321 16.0546C9.45336 15.8984 9.5559 15.039 9.51196 15.0292C9.4729 15.0097 9.2727 15.1806 9.21899 15.3613C9.23364 15.0585 9.18969 14.7704 9.1311 14.79C9.03832 14.8095 9.04809 15.288 8.9895 15.3564C8.94067 15.3857 8.79907 15.0878 8.75024 15.1122C8.70141 15.1464 8.65258 16.1767 9.04321 16.0497V16.0546Z" fill="#008F00"/>
<path fill-rule="evenodd" clip-rule="evenodd" d="M9.94815 17.5213C9.84416 17.6993 9.51529 17.7154 9.20965 17.5523C8.90402 17.3893 8.74578 17.1133 8.84976 16.9353C8.95374 16.7574 9.28501 16.7425 9.58825 16.9043C9.8915 17.0661 10.0521 17.3433 9.94815 17.5213Z" fill="#FF1900" stroke="black" stroke-width="0.0356568"/>
<path fill-rule="evenodd" clip-rule="evenodd" d="M17.8375 11.56L17.889 11.4272L18.0276 11.4709L18.079 11.3381L18.2176 11.3817L18.1669 11.5127L18.3094 11.5576L18.2573 11.6922L18.1147 11.6473L17.9864 11.9784L17.8478 11.9348L17.9761 11.6037L17.8375 11.56ZM17.5398 12.7297L17.6784 12.7734L16.1892 16.6173L16.0506 16.5736L17.5398 12.7297Z" fill="#FFFF00" stroke="black" stroke-width="0.0122436"/>
<path fill-rule="evenodd" clip-rule="evenodd" d="M16.0051 16.4858L16.2862 16.5743L15.8753 17.6349L15.5942 17.5463L16.0051 16.4858ZM17.6582 12.024L18.08 12.1568C18.3591 12.2447 17.726 12.8638 17.726 12.8638L17.4469 12.7759C17.4469 12.7759 17.3771 11.9354 17.6582 12.024ZM18.0458 12.0327C18.0241 12.0888 17.9453 12.1144 17.8681 12.0901C17.7909 12.0657 17.7449 12.0009 17.7659 11.9467C17.787 11.8924 17.8665 11.865 17.9437 11.8893C18.0209 11.9136 18.0668 11.9785 18.0451 12.0346L18.0458 12.0327Z" fill="#FFFF00" stroke="black" stroke-width="0.0122436"/>
<path fill-rule="evenodd" clip-rule="evenodd" d="M16.2339 17.0406C16.3517 17.2106 16.2158 17.4972 15.924 17.6819C15.6321 17.8666 15.3029 17.8743 15.1851 17.7044C15.0673 17.5345 15.2055 17.2464 15.4951 17.0631C15.7847 16.8799 16.1162 16.8707 16.2339 17.0406Z" fill="#FF1900" stroke="black" stroke-width="0.0356595"/>
</g>
<rect x="0.5" y="0.5" width="24" height="24" rx="12" stroke="#EAEAEA"/>
<defs>
<clipPath id="clip0_1267_63873">
<rect width="25" height="25" rx="12.5" fill="white"/>
</clipPath>
</defs>
</svg>
