<svg width="25" height="25" viewBox="0 0 25 25" fill="none" xmlns="http://www.w3.org/2000/svg">
<g clip-path="url(#clip0_1217_53223)">
<mask id="mask0_1217_53223" style="mask-type:luminance" maskUnits="userSpaceOnUse" x="0" y="0" width="25" height="25">
<path d="M0.00195312 0H24.9995V25H0.00195312V0Z" fill="white"/>
</mask>
<g mask="url(#mask0_1217_53223)">
<path fill-rule="evenodd" clip-rule="evenodd" d="M0.00195312 0H24.9995V25H0.00195312V0Z" fill="#000099"/>
<path fill-rule="evenodd" clip-rule="evenodd" d="M5.19531 0L23.9087 25.0146V0.0146484L5.19531 0Z" fill="#FFCC00"/>
<path fill-rule="evenodd" clip-rule="evenodd" d="M19.2356 23.5107L18.2139 22.5195L17.1665 23.5059L17.562 21.8848L16.5293 20.8838H17.811L18.2065 19.2627L18.5984 20.8887H19.8801L18.8547 21.8994L19.2356 23.5107ZM22.2129 24.0186L20.9312 24.0137L20.5393 22.3877L20.1438 24.0088H18.8621L19.8948 25.0098L19.4993 26.6309L20.5466 25.6445L21.572 26.6357L21.1875 25.0244L22.2129 24.0186ZM16.5146 18.7842L17.54 17.7734L16.2583 17.7686L15.8665 16.1475L15.4709 17.7686L14.1892 17.7637L15.2219 18.7647L14.8264 20.3906L15.8738 19.3994L16.8992 20.3955L16.5146 18.7842ZM14.1599 15.6348L15.1853 14.6289L13.9036 14.624L13.5117 12.998L13.1125 14.6191H11.8345L12.8672 15.6201L12.4717 17.2412L13.519 16.2549L14.5408 17.2461L14.1599 15.6348ZM11.8271 12.5293L12.8525 11.5186H11.5708L11.1826 9.8877L10.7871 11.5088H9.50537L10.5381 12.5049L10.1426 14.1309L11.1899 13.1397L12.2153 14.1357L11.8308 12.5244L11.8271 12.5293ZM9.46875 9.38965L10.4941 8.38379L9.2124 8.37891L8.82056 6.75293L8.42139 8.37402H7.14331L8.17969 9.375L7.78418 10.9961L8.83154 10.0098L9.85327 11.001L9.47241 9.38965H9.46875ZM7.13965 6.26953L8.16138 5.25879H6.87964L6.49146 3.62793L6.09229 5.25391H4.81055L5.85059 6.25L5.45142 7.87109L6.49878 6.88477L7.51685 7.88086L7.13965 6.26953ZM4.7959 3.14453L5.81763 2.13379H4.53589L4.14771 0.50293L3.74854 2.12891H2.4668L3.50684 3.125L3.104 4.75098L4.15503 3.75977L5.1731 4.75586L4.7959 3.14453ZM2.45215 0.0195315L3.47021 -0.991211H2.18848L1.79663 -2.61719L1.40479 -0.996094H0.123047L1.15942 2.38419e-07L0.763916 1.62109L1.81128 0.634766L2.82935 1.63086L2.45215 0.0195315Z" fill="white"/>
</g>
</g>
<rect x="0.5" y="0.5" width="24" height="24" rx="12" stroke="#EAEAEA"/>
<defs>
<clipPath id="clip0_1217_53223">
<rect width="25" height="25" rx="12.5" fill="white"/>
</clipPath>
</defs>
</svg>
