<svg width="756" height="293" viewBox="0 0 756 293" fill="none" xmlns="http://www.w3.org/2000/svg">
<path d="M211.306 232.525H180.417V285H146.721V232.525H12.2852V201.285L134.787 25.0796H180.417V201.285H211.306V232.525ZM50.3695 201.285H146.721V62.4618L50.3695 201.285Z" fill="#4752C3"/>
<path d="M246.612 155.245C246.612 74.733 288.306 20.0995 353.722 20.0995C418.779 20.0995 460.473 74.733 460.473 155.245C460.473 236.117 420.577 289.673 353.722 289.673C286.509 289.673 246.612 236.117 246.612 155.245ZM281.477 155.245C281.477 219.224 308.075 258.043 353.722 258.043C399.37 258.043 425.609 219.224 425.609 155.245C425.609 90.5479 399.37 51.7294 353.722 51.7294C308.075 51.7294 281.477 90.5479 281.477 155.245Z" fill="#7B86FA"/>
<path d="M690.306 232.525H659.417V285H625.721V232.525H491.285V201.285L613.787 25.0796H659.417V201.285H690.306V232.525ZM529.369 201.285H625.721V62.4618L529.369 201.285Z" fill="#4752C3"/>
</svg>
