<svg width="121" height="120" viewBox="0 0 121 120" fill="none" xmlns="http://www.w3.org/2000/svg">
<path d="M108.154 53.5998L63.1536 8.59983C62.8054 8.25116 62.3918 7.97457 61.9365 7.78585C61.4813 7.59713 60.9933 7.5 60.5005 7.5C60.0077 7.5 59.5197 7.59713 59.0645 7.78585C58.6092 7.97457 58.1957 8.25116 57.8474 8.59983L12.8474 53.5998C12.3223 54.1243 11.9647 54.7927 11.8198 55.5205C11.6748 56.2484 11.7491 57.0028 12.0332 57.6884C12.3172 58.374 12.7984 58.9599 13.4156 59.3719C14.0328 59.7839 14.7584 60.0035 15.5005 60.0029H34.2505V71.2529C34.2505 72.2475 34.6456 73.2013 35.3489 73.9046C36.0521 74.6079 37.006 75.0029 38.0005 75.0029H83.0005C83.9951 75.0029 84.9489 74.6079 85.6522 73.9046C86.3554 73.2013 86.7505 72.2475 86.7505 71.2529V60.0029H105.501C106.243 60.0035 106.968 59.7839 107.585 59.3719C108.203 58.9599 108.684 58.374 108.968 57.6884C109.252 57.0028 109.326 56.2484 109.181 55.5205C109.036 54.7927 108.679 54.1243 108.154 53.5998ZM83.0005 52.5029C82.006 52.5029 81.0521 52.898 80.3489 53.6013C79.6456 54.3046 79.2505 55.2584 79.2505 56.2529V67.5029H41.7505V56.2529C41.7505 55.2584 41.3554 54.3046 40.6522 53.6013C39.9489 52.898 38.9951 52.5029 38.0005 52.5029H24.5521L60.5005 16.5545L96.449 52.5029H83.0005ZM86.7505 101.253C86.7505 102.248 86.3554 103.201 85.6522 103.905C84.9489 104.608 83.9951 105.003 83.0005 105.003H38.0005C37.006 105.003 36.0521 104.608 35.3489 103.905C34.6456 103.201 34.2505 102.248 34.2505 101.253C34.2505 100.258 34.6456 99.3046 35.3489 98.6013C36.0521 97.898 37.006 97.5029 38.0005 97.5029H83.0005C83.9951 97.5029 84.9489 97.898 85.6522 98.6013C86.3554 99.3046 86.7505 100.258 86.7505 101.253ZM86.7505 86.2529C86.7505 87.2475 86.3554 88.2013 85.6522 88.9046C84.9489 89.6079 83.9951 90.0029 83.0005 90.0029H38.0005C37.006 90.0029 36.0521 89.6079 35.3489 88.9046C34.6456 88.2013 34.2505 87.2475 34.2505 86.2529C34.2505 85.2584 34.6456 84.3046 35.3489 83.6013C36.0521 82.898 37.006 82.5029 38.0005 82.5029H83.0005C83.9951 82.5029 84.9489 82.898 85.6522 83.6013C86.3554 84.3046 86.7505 85.2584 86.7505 86.2529Z" fill="#20C87A"/>
</svg>
