<svg width="120" height="120" viewBox="0 0 120 120" fill="none" xmlns="http://www.w3.org/2000/svg">
<path d="M111.862 15.6348C110.469 14.2416 108.816 13.1364 106.996 12.3824C105.175 11.6283 103.225 11.2402 101.254 11.2402C99.2844 11.2402 97.3336 11.6283 95.5135 12.3824C93.6933 13.1364 92.0396 14.2416 90.6467 15.6348C89.2534 17.0278 88.1482 18.6815 87.3942 20.5016C86.6402 22.3217 86.2521 24.2725 86.2521 26.2427C86.2521 28.2128 86.6402 30.1636 87.3942 31.9837C88.1482 33.8038 89.2534 35.4575 90.6467 36.8505C90.7826 36.9864 90.9279 37.1177 91.0686 37.2489L78.5857 60.4333C74.78 59.5052 70.7625 60.0935 67.3826 62.0739L57.9232 52.6145C59.7843 49.4691 60.4329 45.7525 59.7473 42.1626C59.0617 38.5728 57.0891 35.3568 54.1999 33.1185C51.3108 30.8803 47.7038 29.7738 44.0566 30.007C40.4093 30.2402 36.9726 31.7969 34.392 34.3848C32.9988 35.7778 31.8936 37.4315 31.1395 39.2516C30.3855 41.0717 29.9974 43.0225 29.9974 44.9927C29.9974 46.9628 30.3855 48.9136 31.1395 50.7337C31.8936 52.5538 32.9988 54.2075 34.392 55.6005C34.5279 55.7364 34.6686 55.8677 34.8092 55.9989L22.3264 79.188C19.8207 78.5713 17.1984 78.6114 14.7128 79.3044C12.2272 79.9975 9.96237 81.32 8.13731 83.1442C6.03987 85.2421 4.6116 87.9149 4.03309 90.8245C3.45459 93.7341 3.75184 96.75 4.88726 99.4907C6.02267 102.231 7.94526 104.574 10.4119 106.222C12.8786 107.87 15.7786 108.75 18.7451 108.75C21.7117 108.75 24.6117 107.87 27.0783 106.222C29.545 104.574 31.4676 102.231 32.603 99.4907C33.7384 96.75 34.0357 93.7341 33.4572 90.8245C32.8787 87.9149 31.4504 85.2421 29.3529 83.1442C29.217 83.0083 29.0717 82.877 28.9311 82.7458L41.4139 59.5614C42.5876 59.8489 43.7914 59.9952 44.9998 59.9973C47.6779 60.0006 50.308 59.2868 52.617 57.9302L62.0764 67.3895C60.6523 69.8064 59.9345 72.5743 60.0045 75.3787C60.0745 78.1831 60.9295 80.9116 62.4725 83.2545C64.0154 85.5973 66.1844 87.4605 68.7331 88.6325C71.2818 89.8045 74.1081 90.2383 76.891 89.8846C79.6739 89.5309 82.3018 88.4039 84.4763 86.6317C86.6508 84.8594 88.2848 82.5129 89.1926 79.8585C90.1005 77.2042 90.2458 74.3485 89.6121 71.6158C88.9784 68.883 87.591 66.3828 85.6076 64.3989C85.4717 64.263 85.3311 64.1317 85.1904 64.0005L97.6732 40.8161C98.844 41.1015 100.045 41.2463 101.25 41.2473C104.216 41.2469 107.115 40.3671 109.581 38.7191C112.048 37.0712 113.97 34.729 115.105 31.9888C116.241 29.2486 116.538 26.2333 115.96 23.3241C115.382 20.4148 113.954 17.7423 111.858 15.6442L111.862 15.6348ZM24.0467 99.0583C22.6394 100.465 20.7309 101.255 18.7411 101.255C16.7513 101.254 14.8432 100.463 13.4365 99.0559C12.0298 97.6486 11.2398 95.7402 11.2403 93.7504C11.2407 91.7606 12.0316 89.8525 13.4389 88.4458C14.1357 87.7493 14.9629 87.1968 15.8732 86.82C16.7836 86.4431 17.7592 86.2493 18.7444 86.2495C19.7297 86.2497 20.7052 86.444 21.6154 86.8212C22.5256 87.1985 23.3525 87.7513 24.049 88.4481C24.7455 89.145 25.298 89.9721 25.6748 90.8825C26.0517 91.7928 26.2455 92.7684 26.2453 93.7537C26.2451 94.7389 26.0508 95.7145 25.6736 96.6247C25.2963 97.5348 24.7435 98.3618 24.0467 99.0583ZM39.6936 50.3083C38.9969 49.6118 38.4443 48.785 38.0673 47.8749C37.6903 46.9648 37.4963 45.9894 37.4963 45.0044C37.4963 44.0193 37.6903 43.0439 38.0673 42.1339C38.4443 41.2238 38.9969 40.3969 39.6936 39.7005C40.7425 38.6517 42.0789 37.9376 43.5337 37.6484C44.9885 37.3591 46.4964 37.5077 47.8668 38.0754C49.2371 38.6432 50.4084 39.6044 51.2324 40.8378C52.0564 42.0711 52.4963 43.5211 52.4963 45.0044C52.4963 46.4877 52.0564 47.9376 51.2324 49.171C50.4084 50.4043 49.2371 51.3656 47.8668 51.9333C46.4964 52.501 44.9885 52.6496 43.5337 52.3604C42.0789 52.0711 40.7425 51.357 39.6936 50.3083ZM80.3061 80.3083C78.8994 81.715 76.9915 82.5052 75.0022 82.5052C73.0128 82.5052 71.1049 81.715 69.6982 80.3083C68.2916 78.9016 67.5013 76.9937 67.5013 75.0044C67.5013 73.015 68.2916 71.1072 69.6982 69.7005C71.1049 68.2938 73.0128 67.5035 75.0022 67.5035C76.9915 67.5035 78.8994 68.2938 80.3061 69.7005C81.7127 71.1072 82.503 73.015 82.503 75.0044C82.503 76.9937 81.7127 78.9016 80.3061 80.3083ZM106.556 31.5583C105.148 32.9643 103.238 33.7533 101.248 33.7515C99.2576 33.7498 97.3496 32.9575 95.9436 31.5489C94.5375 30.1404 93.7486 28.2309 93.7503 26.2407C93.7521 24.2505 94.5444 22.3425 95.9529 20.9364C96.6498 20.2399 97.477 19.6874 98.3873 19.3106C99.2976 18.9338 100.273 18.7399 101.258 18.7401C102.244 18.7404 103.219 18.9346 104.129 19.3119C105.04 19.6891 105.867 20.2419 106.563 20.9388C107.26 21.6356 107.812 22.4628 108.189 23.3731C108.566 24.2834 108.76 25.2591 108.759 26.2443C108.759 27.2296 108.565 28.2051 108.188 29.1153C107.81 30.0254 107.258 30.8524 106.561 31.5489L106.556 31.5583Z" fill="#20C87A"/>
</svg>
