<svg width="242" height="66" viewBox="0 0 242 66" fill="none" xmlns="http://www.w3.org/2000/svg">
<rect x="0.5" y="0.179688" width="241" height="65" rx="22" fill="#20C87A"/>
<path d="M68.8306 32.1919C68.7928 27.677 72.5331 25.4763 72.7072 25.378C70.5872 22.2925 67.3012 21.869 66.1428 21.8387C63.3793 21.5514 60.7065 23.4874 59.2983 23.4874C57.8673 23.4874 55.7018 21.869 53.3623 21.9144C50.3564 21.9597 47.5474 23.6992 46.0104 26.3914C42.8304 31.8894 45.2003 39.9661 48.2516 44.4128C49.7734 46.5908 51.5527 49.0184 53.8847 48.9352C56.1637 48.8444 57.0193 47.4832 59.7677 47.4832C62.4934 47.4832 63.2959 48.9352 65.6734 48.8823C68.1189 48.8444 69.6635 46.6967 71.1323 44.5036C72.8965 42.008 73.6006 39.5501 73.6309 39.4291C73.5704 39.3913 68.8761 37.599 68.8306 32.1919ZM64.3408 18.912C65.5673 17.3769 66.4077 15.2972 66.173 13.1797C64.4014 13.2553 62.1753 14.4048 60.9033 15.9022C59.7753 17.2256 58.7606 19.3885 59.0257 21.4228C61.0094 21.5665 63.0612 20.417 64.3408 18.912Z" fill="black"/>
<path d="M101.857 48.6108H98.6696L96.9206 43.1355H90.8559L89.1902 48.6108H86.0859L92.0976 29.9616H95.8076L101.857 48.6108ZM96.3982 40.8365L94.8157 35.9663C94.6492 35.4671 94.3312 34.295 93.8769 32.4497H93.8239C93.6422 33.2438 93.3393 34.416 92.938 35.9663L91.3859 40.8365H96.3982ZM117.288 41.7213C117.288 44.0053 116.667 45.8127 115.425 47.1437C114.312 48.3235 112.926 48.9133 111.276 48.9133C109.489 48.9133 108.21 48.278 107.43 47.0075V54.0634H104.439V39.5812C104.439 38.1443 104.402 36.6696 104.326 35.1646H106.96L107.127 37.2973H107.179C108.179 35.6941 109.694 34.8848 111.722 34.8848C113.313 34.8848 114.637 35.5126 115.698 36.7679C116.757 38.0233 117.288 39.6795 117.288 41.7213ZM114.244 41.8348C114.244 40.5265 113.948 39.4451 113.358 38.5981C112.714 37.7132 111.844 37.2746 110.753 37.2746C110.019 37.2746 109.345 37.5242 108.747 38.0082C108.149 38.4997 107.755 39.1426 107.574 39.929C107.491 40.224 107.445 40.534 107.437 40.8365V43.0826C107.437 44.0582 107.74 44.8824 108.339 45.5631C108.936 46.2362 109.717 46.5764 110.677 46.5764C111.806 46.5764 112.684 46.1379 113.313 45.2758C113.926 44.3985 114.244 43.2565 114.244 41.8348ZM132.779 41.7213C132.779 44.0053 132.158 45.8127 130.916 47.1437C129.803 48.3235 128.418 48.9133 126.767 48.9133C124.98 48.9133 123.7 48.278 122.921 47.0075V54.0634H119.93V39.5812C119.93 38.1443 119.892 36.6696 119.816 35.1646H122.451L122.618 37.2973H122.671C123.67 35.6941 125.184 34.8848 127.214 34.8848C128.804 34.8848 130.129 35.5126 131.188 36.7679C132.242 38.0233 132.779 39.6795 132.779 41.7213ZM129.727 41.8348C129.727 40.5265 129.433 39.4451 128.842 38.5981C128.198 37.7132 127.327 37.2746 126.237 37.2746C125.503 37.2746 124.828 37.5242 124.223 38.0082C123.625 38.4997 123.231 39.1426 123.05 39.929C122.958 40.2996 122.906 40.6021 122.906 40.8365V43.0826C122.906 44.0582 123.209 44.8824 123.806 45.5631C124.405 46.2362 125.184 46.5764 126.154 46.5764C127.282 46.5764 128.16 46.1379 128.788 45.2758C129.417 44.3985 129.727 43.2565 129.727 41.8348ZM150.095 43.3851C150.095 44.9733 149.542 46.2664 148.437 47.2571C147.225 48.3461 145.522 48.8906 143.348 48.8906C141.342 48.8906 139.73 48.505 138.51 47.726L139.199 45.2379C140.509 46.0169 141.955 46.4025 143.522 46.4025C144.651 46.4025 145.529 46.1454 146.157 45.6387C146.786 45.132 147.104 44.4514 147.104 43.6044C147.104 42.8482 146.839 42.2129 146.324 41.6911C145.809 41.1768 144.953 40.6928 143.75 40.2543C140.479 39.0367 138.843 37.2519 138.843 34.9151C138.843 33.3875 139.419 32.1321 140.577 31.1565C141.728 30.181 143.258 29.6895 145.166 29.6895C146.862 29.6895 148.277 29.9844 149.406 30.5742L148.656 33.0094C147.596 32.4346 146.407 32.1548 145.067 32.1548C144.015 32.1548 143.182 32.4119 142.591 32.9261C142.091 33.3875 141.842 33.9471 141.842 34.6126C141.842 35.3461 142.13 35.9587 142.705 36.4352C143.205 36.8738 144.105 37.3578 145.415 37.8721C147.02 38.5224 148.202 39.2711 148.959 40.1408C149.716 41.0105 150.095 42.0919 150.095 43.3851ZM160.013 37.4107H156.712V43.9372C156.712 45.6009 157.295 46.4252 158.461 46.4252C158.998 46.4252 159.437 46.3799 159.793 46.2891L159.877 48.5579C159.286 48.7772 158.514 48.8906 157.553 48.8906C156.371 48.8906 155.447 48.5276 154.781 47.8092C154.115 47.0907 153.782 45.8807 153.782 44.1868V37.4107H151.821V35.1722H153.782V32.7069L156.72 31.822V35.1722H160.02L160.013 37.4107ZM174.86 41.7818C174.86 43.8464 174.27 45.548 173.089 46.8715C171.855 48.2402 170.212 48.9209 168.16 48.9209C166.184 48.9209 164.609 48.263 163.435 46.9622C162.262 45.6539 161.679 43.9977 161.679 42.0088C161.679 39.9215 162.285 38.2199 163.496 36.8889C164.708 35.5579 166.335 34.9 168.387 34.9C170.363 34.9 171.953 35.5579 173.149 36.8662C174.285 38.1292 174.86 39.7703 174.86 41.7818ZM171.757 41.8499C171.757 40.6173 171.491 39.5585 170.953 38.6812C170.326 37.6149 169.432 37.078 168.266 37.078C167.069 37.078 166.146 37.6149 165.525 38.6812C164.988 39.566 164.722 40.6399 164.722 41.9104C164.722 43.1431 164.988 44.2019 165.525 45.0867C166.169 46.1529 167.077 46.6899 168.243 46.6899C169.387 46.6899 170.28 46.1454 170.931 45.064C171.484 44.1489 171.757 43.0826 171.757 41.8499ZM184.59 37.7964C184.279 37.7435 183.962 37.7132 183.643 37.7132C182.591 37.7132 181.781 38.1065 181.206 38.9006C180.706 39.6038 180.456 40.4887 180.456 41.555V48.6108H177.465V39.3997C177.465 37.9855 177.442 36.5788 177.382 35.1646H179.987L180.092 37.7359H180.175C180.494 36.8511 180.986 36.1402 181.675 35.6033C182.295 35.1344 183.06 34.8848 183.84 34.8848C184.121 34.8848 184.362 34.9076 184.59 34.9378V37.7964ZM197.969 41.2525C197.976 41.7063 197.938 42.16 197.863 42.6062H188.883C188.913 43.9372 189.353 44.9505 190.185 45.6539C190.942 46.2815 191.919 46.5916 193.123 46.5916C194.455 46.5916 195.667 46.3799 196.757 45.9564L197.227 48.0285C195.954 48.5805 194.448 48.8604 192.714 48.8604C190.624 48.8604 188.988 48.2478 187.793 47.0227C186.604 45.7975 186.006 44.1489 186.006 42.0843C186.006 40.0576 186.558 38.3712 187.672 37.0251C188.83 35.5881 190.405 34.8697 192.381 34.8697C194.319 34.8697 195.788 35.5881 196.788 37.0251C197.567 38.167 197.969 39.5736 197.969 41.2525ZM195.114 40.4811C195.137 39.5963 194.94 38.8325 194.531 38.1821C194.016 37.3502 193.214 36.9343 192.146 36.9343C191.17 36.9343 190.375 37.3427 189.761 38.1518C189.261 38.7947 188.966 39.5736 188.875 40.4736L195.114 40.4811Z" fill="black"/>
<path d="M89.9921 23.3739C89.1593 23.3739 88.44 23.3361 87.8418 23.268V14.2459C88.6823 14.1174 89.5303 14.0493 90.3783 14.0569C93.8081 14.0569 95.3905 15.7433 95.3905 18.4885C95.3829 21.6571 93.5204 23.3739 89.9921 23.3739ZM90.4993 15.2139C90.0376 15.2139 89.6438 15.2442 89.3183 15.3122V22.1639C89.4924 22.1941 89.8331 22.2016 90.3101 22.2016C92.5588 22.2016 93.8384 20.9236 93.8384 18.5339C93.8308 16.3937 92.6724 15.2139 90.4993 15.2139ZM100.312 23.4419C98.3812 23.4419 97.1243 21.9975 97.1243 20.0388C97.1243 17.9969 98.4039 16.545 100.418 16.545C102.326 16.545 103.606 17.9213 103.606 19.9329C103.606 21.9975 102.288 23.4419 100.312 23.4419ZM100.365 17.6188C99.3049 17.6188 98.6235 18.6095 98.6235 20.001C98.6235 21.3622 99.3201 22.3529 100.35 22.3529C101.387 22.3529 102.076 21.2941 102.076 19.9707C102.084 18.6246 101.402 17.6188 100.365 17.6188ZM114.629 16.681L112.562 23.2906H111.215L110.359 20.4245C110.147 19.7211 109.966 19.0103 109.829 18.2919H109.799C109.693 19.0103 109.488 19.7363 109.269 20.4245L108.36 23.2906H106.998L105.051 16.681H106.566L107.315 19.8195C107.49 20.5681 107.641 21.2715 107.762 21.9446H107.793C107.899 21.3849 108.08 20.6967 108.338 19.8346L109.277 16.681H110.473L111.374 19.7665C111.593 20.5152 111.767 21.2488 111.904 21.9446H111.941C112.04 21.2639 112.184 20.5455 112.389 19.7665L113.191 16.681H114.629ZM122.254 23.2906H120.785V19.4943C120.785 18.3221 120.338 17.7398 119.452 17.7398C118.582 17.7398 117.984 18.4885 117.984 19.3581V23.2906H116.515V18.5716C116.515 17.9894 116.5 17.3617 116.462 16.681H117.757L117.824 17.702H117.862C118.256 16.9987 119.059 16.545 119.96 16.545C121.345 16.545 122.261 17.6037 122.261 19.3355L122.254 23.2906ZM126.304 23.2906H124.836V13.6484H126.304V23.2906ZM131.673 23.4419C129.742 23.4419 128.485 21.9975 128.485 20.0388C128.485 17.9969 129.765 16.545 131.779 16.545C133.687 16.545 134.967 17.9213 134.967 19.9329C134.967 21.9975 133.642 23.4419 131.673 23.4419ZM131.726 17.6188C130.665 17.6188 129.984 18.6095 129.984 20.001C129.984 21.3622 130.681 22.3529 131.71 22.3529C132.748 22.3529 133.437 21.2941 133.437 19.9707C133.437 18.6246 132.763 17.6188 131.726 17.6188ZM140.766 23.2906L140.66 22.5268H140.622C140.176 23.1394 139.517 23.4343 138.684 23.4343C137.495 23.4343 136.655 22.6025 136.655 21.4908C136.655 19.8573 138.07 19.0179 140.523 19.0179V18.8969C140.523 18.0271 140.062 17.5885 139.153 17.5885C138.502 17.5885 137.927 17.755 137.427 18.0801L137.131 17.1121C137.745 16.734 138.509 16.5374 139.403 16.5374C141.129 16.5374 142.007 17.4449 142.007 19.2674V21.7026C142.007 22.3681 142.038 22.8898 142.106 23.2831L140.766 23.2906ZM140.562 20.001C138.926 20.001 138.109 20.3942 138.109 21.332C138.109 22.0277 138.532 22.3681 139.115 22.3681C139.865 22.3681 140.562 21.8008 140.562 21.0219V20.001ZM149.132 23.2906L149.064 22.2319H149.026C148.602 23.0336 147.891 23.4419 146.899 23.4419C145.301 23.4419 144.12 22.0429 144.12 20.069C144.12 18.0045 145.347 16.545 147.02 16.545C147.906 16.545 148.534 16.8399 148.882 17.4449H148.913V13.6484H150.381V21.5059C150.381 22.1411 150.397 22.7461 150.434 23.2831H149.132V23.2906ZM148.92 19.4035C148.92 18.4809 148.307 17.6869 147.368 17.6869C146.278 17.6869 145.611 18.6549 145.611 20.0085C145.611 21.3396 146.3 22.2546 147.338 22.2546C148.261 22.2546 148.92 21.453 148.92 20.5001V19.4035ZM159.725 23.4419C157.794 23.4419 156.537 21.9975 156.537 20.0388C156.537 17.9969 157.816 16.545 159.831 16.545C161.739 16.545 163.018 17.9213 163.018 19.9329C163.018 21.9975 161.701 23.4419 159.725 23.4419ZM159.778 17.6188C158.718 17.6188 158.036 18.6095 158.036 20.001C158.036 21.3622 158.733 22.3529 159.762 22.3529C160.8 22.3529 161.489 21.2941 161.489 19.9707C161.496 18.6246 160.815 17.6188 159.778 17.6188ZM170.931 23.2906H169.461V19.4943C169.461 18.3221 169.015 17.7398 168.129 17.7398C167.258 17.7398 166.66 18.4885 166.66 19.3581V23.2906H165.191V18.5716C165.191 17.9894 165.176 17.3617 165.138 16.681H166.433L166.501 17.702H166.539C166.933 16.9987 167.736 16.545 168.636 16.545C170.022 16.545 170.938 17.6037 170.938 19.3355V23.2906H170.931ZM180.819 17.7851H179.198V20.9916C179.198 21.8084 179.478 22.2168 180.054 22.2168C180.311 22.2168 180.531 22.1866 180.705 22.1487L180.743 23.2604C180.456 23.3663 180.077 23.4268 179.6 23.4268C178.441 23.4268 177.744 22.7916 177.744 21.1126V17.7776H176.776V16.6735H177.744V15.4634L179.191 15.0249V16.6735H180.811L180.819 17.7851ZM188.61 23.2906H187.14V19.5245C187.14 18.3448 186.694 17.7474 185.808 17.7474C185.043 17.7474 184.34 18.2616 184.34 19.3128V23.2982H182.87V13.6484H184.34V17.6188H184.37C184.832 16.9004 185.505 16.545 186.361 16.545C187.762 16.545 188.617 17.6339 188.617 19.3581L188.61 23.2906ZM196.582 20.3413H192.168C192.198 21.5891 193.024 22.3 194.251 22.3C194.901 22.3 195.507 22.1941 196.037 21.9899L196.264 23.0108C195.636 23.2831 194.901 23.4192 194.046 23.4192C191.979 23.4192 190.753 22.1109 190.753 20.0917C190.753 18.065 192.009 16.545 193.879 16.545C195.567 16.545 196.628 17.7927 196.628 19.6834C196.642 19.8951 196.628 20.122 196.582 20.3413ZM195.234 19.2901C195.234 18.2691 194.72 17.5507 193.781 17.5507C192.933 17.5507 192.267 18.2843 192.176 19.2901H195.234Z" fill="black"/>
</svg>
