<svg width="242" height="66" viewBox="0 0 242 66" fill="none" xmlns="http://www.w3.org/2000/svg">
<rect x="0.5" y="0.179688" width="241" height="65" rx="22" fill="#20C87A"/>
<path d="M93.0643 17.954C93.0643 19.0775 92.7831 20.0605 92.0802 20.7626C91.2366 21.6051 90.2525 22.0264 88.9872 22.0264C87.7219 22.0264 86.7377 21.6051 85.8942 20.7626C85.0507 19.92 84.6289 18.9371 84.6289 17.6732C84.6289 16.4094 85.0507 15.4265 85.8942 14.5839C86.7377 13.7414 87.7219 13.3201 88.9872 13.3201C89.5496 13.3201 90.1119 13.4605 90.6742 13.7414C91.2366 14.0222 91.6584 14.3031 91.9395 14.7243L91.2366 15.4264C90.6742 14.7243 89.9713 14.4435 88.9872 14.4435C88.1436 14.4435 87.3001 14.7243 86.7377 15.4264C86.0348 15.9881 85.7536 16.8307 85.7536 17.8136C85.7536 18.7966 86.0348 19.6392 86.7377 20.2009C87.4407 20.7626 88.1436 21.1838 88.9872 21.1838C89.9713 21.1838 90.6742 20.903 91.3772 20.2009C91.7989 19.7796 92.0802 19.2179 92.0802 18.5158H88.9872V17.5328H93.0643C93.0643 17.5328 93.0643 17.6732 93.0643 17.954Z" fill="black" stroke="black" stroke-width="0.199005" stroke-miterlimit="10"/>
<path d="M99.532 14.4435H95.7361V17.1115H99.2508V18.0945H95.7361V20.7626H99.532V21.7455H94.6113V13.3201H99.532V14.4435Z" fill="black" stroke="black" stroke-width="0.199005" stroke-miterlimit="10"/>
<path d="M104.171 21.7455H103.046V14.3031H100.656V13.3201H106.561V14.3031H104.171V21.7455Z" fill="black" stroke="black" stroke-width="0.199005" stroke-miterlimit="10"/>
<path d="M110.639 21.7455V13.3201H111.763V21.7455H110.639Z" fill="black" stroke="black" stroke-width="0.199005" stroke-miterlimit="10"/>
<path d="M116.544 21.7455H115.42V14.3031H113.029V13.3201H118.793V14.3031H116.403V21.7455H116.544Z" fill="black" stroke="black" stroke-width="0.199005" stroke-miterlimit="10"/>
<path d="M129.899 20.7626C129.055 21.6051 128.071 22.0264 126.806 22.0264C125.54 22.0264 124.557 21.6051 123.713 20.7626C122.869 19.92 122.447 18.9371 122.447 17.6732C122.447 16.4094 122.869 15.4265 123.713 14.5839C124.557 13.7414 125.54 13.3201 126.806 13.3201C128.071 13.3201 129.055 13.7414 129.899 14.5839C130.742 15.4265 131.164 16.4094 131.164 17.6732C131.164 18.7966 130.742 19.92 129.899 20.7626ZM124.557 20.0605C125.119 20.6222 125.962 21.0434 126.806 21.0434C127.65 21.0434 128.493 20.7626 129.055 20.0605C129.618 19.4988 130.039 18.6562 130.039 17.6732C130.039 16.6902 129.758 15.8477 129.055 15.286C128.493 14.7243 127.65 14.3031 126.806 14.3031C125.962 14.3031 125.119 14.5839 124.557 15.286C123.994 15.8477 123.572 16.6902 123.572 17.6732C123.572 18.5158 123.854 19.3584 124.557 20.0605Z" fill="black" stroke="black" stroke-width="0.199005" stroke-miterlimit="10"/>
<path d="M132.711 21.7455V13.3201H133.976L138.053 19.92V18.2349V13.3201H139.178V21.7455H138.053L133.695 14.8648V16.5498V21.7455H132.711Z" fill="black" stroke="black" stroke-width="0.199005" stroke-miterlimit="10"/>
<path d="M122.166 34.1028C118.792 34.1028 116.121 36.6305 116.121 40.1411C116.121 43.5113 118.792 46.1793 122.166 46.1793C125.54 46.1793 128.212 43.6517 128.212 40.1411C128.212 36.6305 125.54 34.1028 122.166 34.1028ZM122.166 43.6517C120.338 43.6517 118.792 42.1071 118.792 40.0007C118.792 37.8943 120.338 36.3497 122.166 36.3497C123.994 36.3497 125.54 37.7539 125.54 40.0007C125.54 42.2475 123.994 43.6517 122.166 43.6517ZM109.091 34.1028C105.717 34.1028 103.046 36.6305 103.046 40.1411C103.046 43.5113 105.717 46.1793 109.091 46.1793C112.466 46.1793 115.137 43.6517 115.137 40.1411C115.137 36.6305 112.466 34.1028 109.091 34.1028ZM109.091 43.6517C107.264 43.6517 105.717 42.1071 105.717 40.0007C105.717 37.8943 107.264 36.3497 109.091 36.3497C110.919 36.3497 112.466 37.7539 112.466 40.0007C112.466 42.2475 110.919 43.6517 109.091 43.6517ZM93.486 35.9284V38.456H99.5313C99.3907 39.8603 98.8283 40.9836 98.1254 41.6858C97.2819 42.5283 95.8759 43.5113 93.486 43.5113C89.6901 43.5113 86.8782 40.5623 86.8782 36.771C86.8782 32.9795 89.8306 30.0306 93.486 30.0306C95.4542 30.0306 97.0007 30.8731 98.1254 31.8561L99.9531 30.0306C98.4065 28.6263 96.4383 27.5029 93.6265 27.5029C88.5653 27.5029 84.207 31.7157 84.207 36.771C84.207 41.8262 88.5653 46.0389 93.6265 46.0389C96.4383 46.0389 98.4065 45.1964 100.094 43.3709C101.781 41.6858 102.343 39.2985 102.343 37.4731C102.343 36.9114 102.343 36.3497 102.202 35.9284H93.486ZM157.314 37.8943C156.751 36.4901 155.345 34.1028 152.253 34.1028C149.16 34.1028 146.629 36.4901 146.629 40.1411C146.629 43.5113 149.16 46.1793 152.533 46.1793C155.205 46.1793 156.892 44.4943 157.454 43.5113L155.486 42.1071C154.783 43.09 153.939 43.7921 152.533 43.7921C151.128 43.7921 150.284 43.2305 149.581 41.9667L157.595 38.5964L157.314 37.8943ZM149.16 39.8603C149.16 37.6135 150.987 36.3497 152.253 36.3497C153.236 36.3497 154.221 36.9114 154.502 37.6135L149.16 39.8603ZM142.551 45.6176H145.222V28.0646H142.551V45.6176ZM138.334 35.3667C137.631 34.6645 136.507 33.9624 135.1 33.9624C132.148 33.9624 129.336 36.6305 129.336 40.0007C129.336 43.3709 132.008 45.8985 135.1 45.8985C136.507 45.8985 137.631 45.1964 138.193 44.4943H138.334V45.3368C138.334 47.5836 137.069 48.8474 135.1 48.8474C133.554 48.8474 132.429 47.724 132.148 46.741L129.898 47.724C130.601 49.2687 132.289 51.2346 135.241 51.2346C138.334 51.2346 140.865 49.4091 140.865 45.056V34.3837H138.334V35.3667ZM135.241 43.6517C133.413 43.6517 131.867 42.1071 131.867 40.0007C131.867 37.8943 133.413 36.3497 135.241 36.3497C137.069 36.3497 138.475 37.8943 138.475 40.0007C138.475 42.1071 137.069 43.6517 135.241 43.6517ZM169.545 28.0646H163.218V45.6176H165.889V39.0177H169.545C172.497 39.0177 175.309 36.9114 175.309 33.5412C175.309 30.171 172.497 28.0646 169.545 28.0646ZM169.685 36.6305H165.889V30.5923H169.685C171.653 30.5923 172.778 32.2774 172.778 33.5412C172.638 34.9454 171.513 36.6305 169.685 36.6305ZM185.853 34.1028C183.884 34.1028 181.916 34.9454 181.213 36.771L183.604 37.7539C184.166 36.771 185.009 36.4901 185.994 36.4901C187.4 36.4901 188.665 37.3327 188.805 38.7369V38.8773C188.384 38.5964 187.259 38.1752 186.134 38.1752C183.604 38.1752 181.073 39.5794 181.073 42.1071C181.073 44.4943 183.182 46.0389 185.431 46.0389C187.259 46.0389 188.102 45.1964 188.805 44.3539H188.946V45.7581H191.476V39.0177C191.196 35.788 188.805 34.1028 185.853 34.1028ZM185.572 43.6517C184.729 43.6517 183.463 43.2305 183.463 42.1071C183.463 40.7028 185.009 40.2815 186.275 40.2815C187.4 40.2815 187.962 40.5624 188.665 40.8432C188.384 42.5284 186.978 43.6517 185.572 43.6517ZM200.333 34.3837L197.382 41.9667H197.241L194.148 34.3837H191.336L195.976 45.056L193.304 50.9538H195.976L203.146 34.3837H200.333ZM176.715 45.6176H179.386V28.0646H176.715V45.6176Z" fill="black"/>
<path d="M40.3435 49.1284C39.7811 48.8476 39.5 48.1455 39.5 47.4433C39.5 47.3029 39.5 47.022 39.5 46.8816C39.5 36.4903 39.5 26.0988 39.5 15.8478C39.5 15.2861 39.6406 14.8649 39.7811 14.3032C39.9218 14.0223 40.2029 13.7415 40.4842 13.4607C46.5295 19.4989 52.4342 25.5371 58.3389 31.5754C52.2936 37.1923 46.3889 43.0902 40.3435 49.1284Z" fill="black"/>
<path d="M64.2434 25.3966C62.5563 27.0817 60.7286 28.7667 59.0416 30.5923C53.418 24.8349 47.6539 19.0775 42.0303 13.3201C42.0303 13.3201 42.0303 13.1797 42.1708 13.1797C49.4815 17.252 56.7922 21.3243 64.2434 25.3966Z" fill="black"/>
<path d="M42.0303 49.128C47.6539 43.511 53.418 37.8941 59.0416 32.2771C60.5881 33.8217 62.2752 35.3664 64.1028 37.0515C56.7922 41.1238 49.4815 45.1961 42.1708 49.128H42.0303Z" fill="black"/>
<path d="M65.0875 36.4905C63.2598 34.8055 61.5728 33.1204 59.7451 31.4353C61.5728 29.6098 63.4005 27.7843 65.2281 25.9587C65.7904 26.2396 66.3528 26.5204 66.9152 26.9417C68.321 27.7843 69.8676 28.4864 71.2734 29.3289C71.6952 29.4693 71.9764 29.7502 72.2575 30.1714C72.8199 30.8735 72.8199 31.5757 72.2575 32.2778C71.9764 32.5587 71.6952 32.8395 71.2734 32.98C69.3052 34.2438 67.1964 35.3672 65.0875 36.4905Z" fill="black"/>
</svg>
