<svg width="25" height="25" viewBox="0 0 25 25" fill="none" xmlns="http://www.w3.org/2000/svg">
<path d="M16.6465 12.3406C16.6385 10.8658 17.3055 9.75264 18.6558 8.93285C17.9003 7.85185 16.759 7.2571 15.252 7.14056C13.8254 7.02804 12.2662 7.97241 11.6956 7.97241C11.0928 7.97241 9.71041 7.18074 8.62539 7.18074C6.38302 7.21691 4 8.96902 4 12.5335C4 13.5864 4.19289 14.6741 4.57868 15.7966C5.09306 17.2714 6.94964 20.8881 8.8866 20.8279C9.89929 20.8038 10.6146 20.1085 11.9327 20.1085C13.2106 20.1085 13.8737 20.8279 15.0029 20.8279C16.9559 20.7997 18.6357 17.5125 19.126 16.0337C16.5058 14.8 16.6465 12.417 16.6465 12.3406ZM14.372 5.74209C15.469 4.44007 15.3686 3.25458 15.3364 2.82861C14.368 2.88487 13.2468 3.48766 12.6078 4.2311C11.9046 5.02678 11.4906 6.01134 11.5791 7.12047C12.6279 7.20084 13.5843 6.66235 14.372 5.74209Z" fill="#1E2432"/>
</svg>
