<svg width="30" height="30" viewBox="0 0 30 30" fill="none" xmlns="http://www.w3.org/2000/svg">
<mask id="mask0_1240_303739" style="mask-type:alpha" maskUnits="userSpaceOnUse" x="0" y="0" width="30" height="30">
<rect width="30" height="30" fill="#D9D9D9"/>
</mask>
<g mask="url(#mask0_1240_303739)">
<path d="M21.7532 19.4584C21.7532 21.3484 21.1037 22.9529 19.8045 24.2719C18.5051 25.5906 16.9161 26.25 15.0373 26.25C13.1629 26.25 11.5715 25.5913 10.2629 24.2738C8.95418 22.9563 8.2998 21.3511 8.2998 19.4584V8.44875C8.2998 7.14354 8.75022 6.03406 9.65105 5.12031C10.5521 4.20677 11.6522 3.75 12.9514 3.75C14.2507 3.75 15.3548 4.20677 16.2636 5.12031C17.1723 6.03406 17.6267 7.14354 17.6267 8.44875V18.8816C17.6267 19.6026 17.3792 20.2198 16.8842 20.7331C16.389 21.2465 15.7763 21.5031 15.0461 21.5031C14.3361 21.5031 13.722 21.2476 13.2039 20.7366C12.6855 20.2253 12.4264 19.607 12.4264 18.8816V8.49688H13.4842V18.8816C13.4842 19.3147 13.6349 19.6836 13.9364 19.9884C14.238 20.2932 14.6032 20.4456 15.032 20.4456C15.4653 20.4456 15.8298 20.2932 16.1254 19.9884C16.4213 19.6836 16.5692 19.3147 16.5692 18.8816V8.42469C16.5675 7.42365 16.2192 6.57052 15.5242 5.86531C14.8292 5.16031 13.9738 4.80781 12.9579 4.80781C11.9498 4.80781 11.0977 5.1626 10.4017 5.87219C9.70564 6.58198 9.35762 7.44083 9.35762 8.44875V19.4584C9.35595 21.0561 9.90762 22.4113 11.0126 23.5238C12.1178 24.636 13.4631 25.1922 15.0486 25.1922C16.6252 25.1922 17.9624 24.6333 19.0601 23.5156C20.158 22.3979 20.7032 21.0455 20.6957 19.4584V8.49688H21.7532V19.4584Z" fill="black"/>
</g>
</svg>
