<svg width="26" height="25" viewBox="0 0 26 25" fill="none" xmlns="http://www.w3.org/2000/svg">
<path d="M11.3566 0.935642C11.762 -0.311966 13.527 -0.311969 13.9324 0.935639L15.9889 7.26469C16.1701 7.82264 16.6901 8.2004 17.2767 8.2004H23.9315C25.2433 8.2004 25.7887 9.87904 24.7275 10.6501L19.3436 14.5617C18.869 14.9065 18.6704 15.5177 18.8517 16.0757L20.9082 22.4047C21.3135 23.6523 19.8856 24.6898 18.8243 23.9187L13.4405 20.0072C12.9659 19.6623 12.3232 19.6623 11.8486 20.0072L6.46476 23.9187C5.40348 24.6898 3.97554 23.6523 4.38091 22.4047L6.43734 16.0757C6.61863 15.5177 6.42003 14.9065 5.94541 14.5617L0.561603 10.6501C-0.499676 9.87905 0.045747 8.2004 1.35756 8.2004H8.01232C8.59898 8.2004 9.11892 7.82264 9.30021 7.26469L11.3566 0.935642Z" fill="#C4C3DB"/>
</svg>
