<svg width="23" height="22" viewBox="0 0 23 22" fill="none" xmlns="http://www.w3.org/2000/svg">
<mask id="mask0_1740_59536" style="mask-type:alpha" maskUnits="userSpaceOnUse" x="0" y="0" width="23" height="22">
<rect x="0.25" width="22" height="22" fill="#D9D9D9"/>
</mask>
<g mask="url(#mask0_1740_59536)">
<path d="M18.0703 18.7913C16.3428 18.7913 14.6073 18.3897 12.8638 17.5864C11.1205 16.7831 9.51724 15.6499 8.05408 14.1869C6.59689 12.7238 5.46664 11.1219 4.66333 9.3813C3.86003 7.64086 3.45837 5.9069 3.45837 4.17945C3.45837 3.90445 3.55004 3.67375 3.73337 3.48736C3.91671 3.30113 4.14587 3.20801 4.42087 3.20801H7.41058C7.64204 3.20801 7.84623 3.28356 8.02314 3.43465C8.20006 3.5856 8.31258 3.77214 8.36071 3.99428L8.88619 6.69134C8.92255 6.94159 8.91491 7.15663 8.86327 7.33645C8.81148 7.51627 8.71859 7.66728 8.5846 7.78951L6.46756 9.8504C6.80826 10.4743 7.19753 11.0646 7.63539 11.6212C8.0731 12.1776 8.54702 12.709 9.05714 13.2155C9.56009 13.7186 10.0948 14.1858 10.6613 14.6171C11.2278 15.0484 11.8395 15.4497 12.4965 15.8211L14.5535 13.7462C14.6969 13.597 14.8706 13.4923 15.0746 13.4323C15.2784 13.3724 15.4902 13.3577 15.7101 13.3883L18.2554 13.9067C18.4869 13.9678 18.6758 14.0859 18.8222 14.2609C18.9685 14.436 19.0417 14.6346 19.0417 14.8568V17.8288C19.0417 18.1038 18.9486 18.333 18.7624 18.5163C18.576 18.6997 18.3453 18.7913 18.0703 18.7913Z" fill="black"/>
</g>
</svg>
