<svg width="32" height="34" viewBox="0 0 32 34" fill="none" xmlns="http://www.w3.org/2000/svg">
<path fill-rule="evenodd" clip-rule="evenodd" d="M29.479 24.6591C29.4753 24.6429 29.478 24.626 29.4869 24.6121C31.0778 22.1259 32 19.1706 32 16C32 7.16344 24.8366 0 16 0C7.16344 0 0 7.16344 0 16C0 24.8366 7.16344 32 16 32C17.9217 32 19.7642 31.6612 21.4712 31.0401C21.8017 30.9199 22.1724 31.0494 22.5086 31.1524L29.9611 33.435C30.6972 33.6605 31.4012 33.0046 31.2285 32.2544L29.479 24.6591Z" fill="#F4FFFA"/>
<circle cx="11.5" cy="16.5" r="1.5" fill="#4DA172"/>
<circle cx="16.5" cy="16.5" r="1.5" fill="#4DA172"/>
<circle cx="21.5" cy="16.5" r="1.5" fill="#4DA172"/>
</svg>
