<svg width="30" height="30" viewBox="0 0 30 30" fill="none" xmlns="http://www.w3.org/2000/svg">
<mask id="mask0_1240_303743" style="mask-type:alpha" maskUnits="userSpaceOnUse" x="0" y="0" width="30" height="30">
<rect width="30" height="30" fill="#D9D9D9"/>
</mask>
<g mask="url(#mask0_1240_303743)">
<path d="M15 16.0272C14.3342 16.0272 13.7823 15.7996 13.3444 15.3444C12.9065 14.8892 12.6875 14.3273 12.6875 13.6588V6.05781C12.6875 5.41489 12.9096 4.86958 13.3538 4.42188C13.7977 3.97396 14.346 3.75 14.9987 3.75C15.6515 3.75 16.2003 3.97396 16.6453 4.42188C17.0901 4.86958 17.3125 5.41489 17.3125 6.05781V13.6588C17.3125 14.3273 17.0935 14.8892 16.6556 15.3444C16.2177 15.7996 15.6658 16.0272 15 16.0272ZM14.4713 25.625V21.1019C12.5065 20.9427 10.8533 20.154 9.51188 18.7356C8.17063 17.3173 7.5 15.625 7.5 13.6588H8.55781C8.55781 15.4456 9.18521 16.9594 10.44 18.2C11.695 19.4406 13.2128 20.0609 14.9934 20.0609C16.7741 20.0609 18.2941 19.4406 19.5534 18.2C20.8126 16.9594 21.4422 15.4456 21.4422 13.6588H22.5C22.5 15.625 21.8294 17.3173 20.4881 18.7356C19.1467 20.154 17.4935 20.9427 15.5288 21.1019V25.625H14.4713ZM15 14.9697C15.3573 14.9697 15.6557 14.844 15.8953 14.5925C16.1349 14.3412 16.2547 14.0278 16.2547 13.6522V6.05781C16.2547 5.70364 16.1345 5.40677 15.8941 5.16719C15.6536 4.9276 15.3556 4.80781 15 4.80781C14.6444 4.80781 14.3464 4.9276 14.1059 5.16719C13.8655 5.40677 13.7453 5.70364 13.7453 6.05781V13.6588C13.7453 14.03 13.8651 14.3412 14.1047 14.5925C14.3443 14.844 14.6427 14.9697 15 14.9697Z" fill="black"/>
</g>
</svg>
