<svg width="20" height="21" viewBox="0 0 20 21" fill="none" xmlns="http://www.w3.org/2000/svg">
<path d="M18.7303 7.3317C18.7303 7.3403 18.7303 7.34811 18.7249 7.3567L16.953 15.4715C16.8984 15.7573 16.7459 16.0151 16.5218 16.2005C16.2976 16.3858 16.0158 16.4872 15.7249 16.4872H4.27408C3.98331 16.4871 3.70167 16.3856 3.47766 16.2002C3.25364 16.0148 3.10125 15.7572 3.04673 15.4715L1.27486 7.3567C1.27486 7.34811 1.27095 7.3403 1.26939 7.3317C1.2209 7.06303 1.2617 6.78587 1.38556 6.54257C1.50942 6.29927 1.70953 6.10321 1.95531 5.98435C2.20109 5.86549 2.47902 5.83037 2.74665 5.88434C3.01427 5.93832 3.25686 6.07843 3.43736 6.28327L6.06783 9.11842L8.8647 2.84577C8.86483 2.84316 8.86483 2.84056 8.8647 2.83795C8.96471 2.62104 9.12478 2.43732 9.32596 2.30854C9.52713 2.17977 9.761 2.11133 9.99986 2.11133C10.2387 2.11133 10.4726 2.17977 10.6738 2.30854C10.8749 2.43732 11.035 2.62104 11.135 2.83795C11.1349 2.84056 11.1349 2.84316 11.135 2.84577L13.9319 9.11842L16.5624 6.28327C16.7432 6.07995 16.9855 5.94121 17.2524 5.88812C17.5193 5.83502 17.7962 5.87047 18.0411 5.98908C18.286 6.1077 18.4856 6.30299 18.6094 6.54531C18.7332 6.78763 18.7746 7.06374 18.7272 7.3317H18.7303Z" fill="white"/>
</svg>
