<svg width="24" height="24" viewBox="0 0 24 24" fill="none" xmlns="http://www.w3.org/2000/svg">
<g clip-path="url(#clip0_4097_140218)">
<path d="M12 24C17.2584 24 20.1816 24 22.0908 22.0908C24 20.1816 24 17.2602 24 12C24 6.73982 24 3.81838 22.0908 1.90919C20.1816 0 17.2584 0 12 0C6.74158 0 3.81838 0 1.90919 1.90919C0 3.81838 0 6.74158 0 12C0 17.2584 0 20.1816 1.90919 22.0908C3.81838 24 6.74158 24 12 24Z" fill="black"/>
<path d="M16.5081 9.62732C15.6016 9.62732 14.9288 10.3271 14.9288 11.1905C14.9288 11.8955 15.4245 12.4456 16.052 12.6084L14.7656 14.579H15.9672L17.0608 12.745H17.8794V14.579H18.8826V9.62732H16.5081ZM16.6461 11.9073C16.2335 11.9073 15.9781 11.5835 15.9781 11.2145C15.9781 10.8454 16.2122 10.4938 16.6461 10.4938H17.8807V11.9073H16.6461Z" fill="white"/>
<path d="M11.0126 9.62732L10.6797 10.5438L12.0458 10.536L11.2367 13.5032C11.0061 14.3683 11.9078 15.022 12.6772 14.5132L14.4271 13.326L13.9119 12.5688L12.1641 13.7795L13.3422 9.62732H11.0126Z" fill="white"/>
<path d="M12.8973 8.99063C13.2806 8.99063 13.5914 8.71062 13.5914 8.36524C13.5914 8.01985 13.2806 7.73987 12.8973 7.73987C12.5139 7.73987 12.2031 8.01985 12.2031 8.36524C12.2031 8.71062 12.5139 8.99063 12.8973 8.99063Z" fill="white"/>
<path d="M9.35817 13.6649V8.47656H5.50889V11.2457C5.50889 12.5487 5.13158 13.3542 4.9092 13.6627H4.45312V15.9258H5.42925V14.588H9.07879V15.9279H10.0545V13.6649H9.35817ZM6.47937 11.1887V9.39699H8.35723V13.6619H5.93321C6.15297 13.3024 6.47937 12.3877 6.47937 11.1887Z" fill="white"/>
</g>
<defs>
<clipPath id="clip0_4097_140218">
<rect width="24" height="24" fill="white"/>
</clipPath>
</defs>
</svg>
