<svg width="24" height="24" viewBox="0 0 24 24" fill="none" xmlns="http://www.w3.org/2000/svg">
<mask id="mask0_1740_59551" style="mask-type:alpha" maskUnits="userSpaceOnUse" x="0" y="0" width="24" height="24">
<rect width="24" height="24" fill="#D9D9D9"/>
</mask>
<g mask="url(#mask0_1740_59551)">
<path d="M4.84601 19.1539H5.84276L17.16 7.8404L16.1633 6.84366L4.84601 18.1572V19.1539ZM3.99976 20.0002V17.8092L17.5408 4.24191C17.6244 4.17524 17.7194 4.1189 17.8258 4.0729C17.9319 4.0269 18.0428 4.00391 18.1583 4.00391C18.2713 4.00391 18.3792 4.02316 18.482 4.06166C18.5848 4.10016 18.6827 4.16082 18.7755 4.24366L19.762 5.23216C19.8475 5.31632 19.9085 5.41257 19.945 5.52091C19.9815 5.62907 19.9998 5.73732 19.9998 5.84566C19.9998 5.95982 19.9782 6.07066 19.935 6.17816C19.892 6.28566 19.8343 6.38124 19.762 6.46491L6.19076 20.0002H3.99976ZM16.6668 7.34991L16.1633 6.84366L17.16 7.8404L16.6668 7.34991Z" fill="black"/>
</g>
</svg>
