<svg width="20" height="20" viewBox="0 0 20 20" fill="none" xmlns="http://www.w3.org/2000/svg">
<path d="M14.8438 15.0254C14.8985 15.0866 14.9407 15.158 14.9678 15.2355C14.995 15.3129 15.0066 15.395 15.0021 15.477C14.9975 15.559 14.9768 15.6393 14.9412 15.7133C14.9056 15.7873 14.8558 15.8535 14.7945 15.9082C13.935 16.6779 12.8791 17.1947 11.7439 17.4012C10.6087 17.6077 9.43854 17.496 8.36295 17.0784C7.28737 16.6607 6.34838 15.9535 5.65002 15.035C4.95165 14.1166 4.52117 13.0227 4.40625 11.8746H3.125C2.95924 11.8746 2.80027 11.8088 2.68306 11.6916C2.56585 11.5744 2.5 11.4154 2.5 11.2496C2.5 11.0839 2.56585 10.9249 2.68306 10.8077C2.80027 10.6905 2.95924 10.6246 3.125 10.6246H4.375V9.37463H3.125C2.95924 9.37463 2.80027 9.30878 2.68306 9.19157C2.56585 9.07436 2.5 8.91539 2.5 8.74963C2.5 8.58387 2.56585 8.42489 2.68306 8.30768C2.80027 8.19047 2.95924 8.12463 3.125 8.12463H4.40625C4.52148 6.97698 4.95204 5.88361 5.65026 4.96555C6.34849 4.04749 7.28714 3.34054 8.36232 2.92298C9.43749 2.50541 10.6072 2.39351 11.7421 2.59967C12.8769 2.80582 13.9326 3.32199 14.7922 4.09103C14.9158 4.20168 14.9904 4.35689 14.9995 4.52252C15.0087 4.68815 14.9517 4.85064 14.841 4.97424C14.7304 5.09783 14.5752 5.17241 14.4095 5.18157C14.2439 5.19072 14.0814 5.13371 13.9578 5.02306C13.2781 4.41563 12.4452 4.0056 11.5492 3.83731C10.6533 3.66902 9.72838 3.74888 8.87454 4.06824C8.0207 4.38761 7.27042 4.93433 6.70483 5.64928C6.13925 6.36423 5.77989 7.2202 5.66563 8.12463H10.625C10.7908 8.12463 10.9497 8.19047 11.0669 8.30768C11.1842 8.42489 11.25 8.58387 11.25 8.74963C11.25 8.91539 11.1842 9.07436 11.0669 9.19157C10.9497 9.30878 10.7908 9.37463 10.625 9.37463H5.625V10.6246H9.375C9.54076 10.6246 9.69973 10.6905 9.81694 10.8077C9.93415 10.9249 10 11.0839 10 11.2496C10 11.4154 9.93415 11.5744 9.81694 11.6916C9.69973 11.8088 9.54076 11.8746 9.375 11.8746H5.66563C5.77977 12.7791 6.13904 13.6352 6.70458 14.3502C7.27011 15.0653 8.02038 15.6121 8.87424 15.9316C9.7281 16.251 10.6531 16.3309 11.5491 16.1627C12.4451 15.9944 13.278 15.5844 13.9578 14.977C14.019 14.9217 14.0906 14.8791 14.1683 14.8516C14.2461 14.8241 14.3285 14.8122 14.4109 14.8167C14.4932 14.8212 14.5739 14.842 14.6482 14.8778C14.7225 14.9136 14.7889 14.9638 14.8438 15.0254Z" fill="white"/>
</svg>
