<svg width="24" height="25" viewBox="0 0 24 25" fill="none" xmlns="http://www.w3.org/2000/svg">
<path fill-rule="evenodd" clip-rule="evenodd" d="M22 21.7249C22 22.3345 21.5057 22.8287 20.8962 22.8287H3.10383C2.49406 22.8287 2 22.3345 2 21.7249V3.93244C2 3.32275 2.49406 2.82861 3.10383 2.82861H20.8962C21.5057 2.82861 22 3.32275 22 3.93244V21.7249ZM15.7996 15.0836V22.8287H12.6826V15.0836H10.0762V12.0652H12.6826V9.83923C12.6826 7.25594 14.2603 5.8493 16.5648 5.8493C17.6686 5.8493 18.6173 5.93149 18.8939 5.96829V8.6679L17.2955 8.6686C16.0423 8.6686 15.7996 9.26415 15.7996 10.1381V12.0652H18.7886L18.3994 15.0836H15.7996Z" fill="#365899"/>
</svg>
