<svg width="33" height="33" viewBox="0 0 33 33" fill="none" xmlns="http://www.w3.org/2000/svg">
<mask id="mask0_1914_1301" style="mask-type:alpha" maskUnits="userSpaceOnUse" x="0" y="0" width="33" height="33">
<rect x="0.5" y="0.466797" width="32" height="32" fill="#D9D9D9"/>
</mask>
<g mask="url(#mask0_1914_1301)">
<path d="M17.1988 25.9169C19.4629 23.8567 21.3244 22.0884 22.7859 20.6106C24.2459 19.1344 25.3926 17.8369 26.2345 16.7162L26.2346 16.7162C27.0778 15.5938 27.6404 14.6112 27.9515 13.7646L27.9516 13.7645C28.2677 12.9049 28.4232 12.0462 28.4232 11.185C28.4232 9.5229 27.871 8.16811 26.7715 7.06866C25.6713 5.96843 24.3207 5.41699 22.6688 5.41699C21.6096 5.41699 20.6259 5.67483 19.7055 6.19334L17.1988 25.9169ZM17.1988 25.9169C17.1987 25.9171 17.1985 25.9172 17.1984 25.9173L16.5065 26.5438L15.815 25.9176C15.8147 25.9174 15.8145 25.9171 15.8142 25.9169C13.553 23.8567 11.6921 22.0883 10.2288 20.6103C8.7676 19.1341 7.62032 17.8368 6.77848 16.7162L6.77847 16.7162C5.93527 15.5938 5.37261 14.6112 5.06148 13.7646L5.06142 13.7645C4.74531 12.9049 4.58984 12.0462 4.58984 11.185C4.58984 9.5229 5.14205 8.16811 6.24151 7.06866C7.34173 5.96843 8.69233 5.41699 10.3442 5.41699C11.43 5.41699 12.436 5.68278 13.375 6.2169L13.3751 6.21696C14.3172 6.75263 15.1574 7.5369 15.8905 8.59247L16.4906 9.45658L17.1118 8.60751C17.9165 7.5077 18.7837 6.71295 19.7053 6.19344L17.1988 25.9169Z" stroke="white" stroke-width="1.5"/>
</g>
</svg>
