<svg width="23" height="22" viewBox="0 0 23 22" fill="none" xmlns="http://www.w3.org/2000/svg">
<mask id="mask0_1740_59518" style="mask-type:alpha" maskUnits="userSpaceOnUse" x="0" y="0" width="23" height="22">
<rect x="0.083252" width="22" height="22" fill="#D9D9D9"/>
</mask>
<g mask="url(#mask0_1740_59518)">
<path d="M11.0877 18.6237L10.265 17.8786C8.70638 16.4586 7.41984 15.2362 6.40539 14.2115C5.39095 13.1867 4.58497 12.2766 3.98746 11.4812C3.38979 10.6857 2.9724 9.96535 2.73529 9.32017C2.49803 8.67499 2.37939 8.02454 2.37939 7.36882C2.37939 6.09679 2.80824 5.03193 3.66594 4.17424C4.52363 3.31654 5.58536 2.8877 6.85112 2.8877C7.68667 2.8877 8.46621 3.09349 9.18977 3.50507C9.91332 3.9165 10.546 4.51226 11.0877 5.29234C11.675 4.48965 12.3237 3.88816 13.0338 3.48788C13.7441 3.08776 14.5076 2.8877 15.3243 2.8877C16.5901 2.8877 17.6518 3.31654 18.5095 4.17424C19.3672 5.03193 19.7961 6.09679 19.7961 7.36882C19.7961 8.02454 19.6774 8.67499 19.4402 9.32017C19.2031 9.96535 18.7857 10.6857 18.188 11.4812C17.5905 12.2766 16.785 13.1867 15.7714 14.2115C14.7581 15.2362 13.4711 16.4586 11.9104 17.8786L11.0877 18.6237Z" fill="black"/>
</g>
</svg>
