<svg width="100" height="30" viewBox="0 0 100 30" fill="none" xmlns="http://www.w3.org/2000/svg">
<g clip-path="url(#clip0_1267_68191)">
<path d="M97.5788 0.407715H2.04086C1.13917 0.407715 0.408203 1.13782 0.408203 2.03845V27.3148C0.408203 28.2155 1.13917 28.9456 2.04086 28.9456H97.5788C98.4805 28.9456 99.2115 28.2155 99.2115 27.3148V2.03845C99.2115 1.13782 98.4805 0.407715 97.5788 0.407715Z" stroke="white" stroke-width="0.995025"/>
<path d="M23.594 13.9907C23.5751 11.7333 25.4452 10.6329 25.5323 10.5838C24.4723 9.04102 22.8293 8.82926 22.2501 8.81414C20.8683 8.67047 19.532 9.63848 18.8278 9.63848C18.1123 9.63848 17.0296 8.82926 15.8598 8.85197C14.3569 8.87464 12.9524 9.74435 12.1839 11.0905C10.5939 13.8395 11.7789 17.8778 13.3045 20.1012C14.0654 21.1902 14.9551 22.404 16.1211 22.3624C17.2605 22.317 17.6883 21.6364 19.0625 21.6364C20.4254 21.6364 20.8267 22.3624 22.0154 22.3359C23.2382 22.317 24.0105 21.2431 24.7449 20.1466C25.627 18.8988 25.979 17.6698 25.9942 17.6093C25.9639 17.5904 23.6167 16.6943 23.594 13.9907ZM21.3491 7.3508C21.9624 6.58321 22.3826 5.54337 22.2652 4.48462C21.3794 4.52241 20.2664 5.09716 19.6304 5.84588C19.0663 6.50759 18.559 7.58901 18.6916 8.60618C19.6834 8.67801 20.7093 8.10326 21.3491 7.3508Z" fill="white"/>
<path d="M40.1073 22.1997H38.5135L37.639 19.462H34.6067L33.7738 22.1997H32.2217L35.2275 12.8751H37.0825L40.1073 22.1997ZM37.3778 18.3125L36.5866 15.8774C36.5033 15.6279 36.3443 15.0418 36.1171 14.1191H36.0907C35.9998 14.5162 35.8484 15.1023 35.6477 15.8774L34.8717 18.3125H37.3778ZM47.8227 18.755C47.8227 19.8969 47.5121 20.8006 46.8913 21.4661C46.3346 22.056 45.6419 22.3509 44.8166 22.3509C43.9232 22.3509 43.2836 22.0333 42.8938 21.3981V24.926H41.3983V17.6849C41.3983 16.9664 41.3795 16.2291 41.3415 15.4766H42.6587L42.7423 16.5429H42.7685C43.2685 15.7413 44.0256 15.3367 45.0399 15.3367C45.835 15.3367 46.4974 15.6506 47.0276 16.2782C47.5574 16.906 47.8227 17.734 47.8227 18.755ZM46.3007 18.8117C46.3007 18.1575 46.1529 17.6168 45.8578 17.1933C45.5358 16.7509 45.1007 16.5316 44.5554 16.5316C44.1885 16.5316 43.8513 16.6564 43.5521 16.8984C43.2534 17.1442 43.0562 17.4656 42.9656 17.8588C42.924 18.0063 42.9011 18.1613 42.8974 18.3125V19.4356C42.8974 19.9234 43.0489 20.3355 43.348 20.6758C43.6468 21.0124 44.037 21.1825 44.5174 21.1825C45.0815 21.1825 45.5207 20.9632 45.835 20.5322C46.1415 20.0935 46.3007 19.5225 46.3007 18.8117ZM55.5681 18.755C55.5681 19.8969 55.2578 20.8006 54.6366 21.4661C54.0803 22.056 53.3876 22.3509 52.5623 22.3509C51.6689 22.3509 51.0289 22.0333 50.6391 21.3981V24.926H49.1436V17.6849C49.1436 16.9664 49.1248 16.2291 49.0868 15.4766H50.4044L50.4876 16.5429H50.5142C51.0138 15.7413 51.7709 15.3367 52.7856 15.3367C53.5807 15.3367 54.2431 15.6506 54.7729 16.2782C55.2995 16.906 55.5681 17.734 55.5681 18.755ZM54.0423 18.8117C54.0423 18.1575 53.895 17.6168 53.5995 17.1933C53.2778 16.7509 52.8423 16.5316 52.2974 16.5316C51.9301 16.5316 51.5929 16.6564 51.2901 16.8984C50.9913 17.1442 50.7942 17.4656 50.7036 17.8588C50.6578 18.0441 50.6317 18.1953 50.6317 18.3125V19.4356C50.6317 19.9234 50.7832 20.3355 51.0819 20.6758C51.3811 21.0124 51.7709 21.1825 52.2558 21.1825C52.8195 21.1825 53.2587 20.9632 53.5729 20.5322C53.8872 20.0935 54.0423 19.5225 54.0423 18.8117ZM64.226 19.5868C64.226 20.3809 63.9497 21.0275 63.397 21.5228C62.7913 22.0673 61.9395 22.3396 60.8529 22.3396C59.8497 22.3396 59.0436 22.1468 58.4338 21.7573L58.7783 20.5133C59.4334 20.9027 60.1562 21.0956 60.9399 21.0956C61.504 21.0956 61.9431 20.967 62.2574 20.7136C62.5717 20.4603 62.7305 20.12 62.7305 19.6965C62.7305 19.3184 62.5982 19.0008 62.3407 18.7398C62.0831 18.4827 61.6554 18.2407 61.0538 18.0214C59.4183 17.4126 58.6003 16.5202 58.6003 15.3519C58.6003 14.588 58.888 13.9604 59.4672 13.4726C60.0427 12.9848 60.8076 12.739 61.7615 12.739C62.6097 12.739 63.3174 12.8865 63.8815 13.1814L63.5068 14.399C62.9766 14.1116 62.3823 13.9717 61.7121 13.9717C61.186 13.9717 60.7697 14.1002 60.4742 14.3574C60.2244 14.588 60.0995 14.8679 60.0995 15.2006C60.0995 15.5674 60.2436 15.8737 60.5313 16.1119C60.7811 16.3312 61.2313 16.5732 61.8864 16.8303C62.6889 17.1555 63.2795 17.5298 63.6583 17.9647C64.0366 18.3995 64.226 18.9403 64.226 19.5868ZM69.1852 16.5997H67.5346V19.8629C67.5346 20.6948 67.826 21.1069 68.4093 21.1069C68.6778 21.1069 68.8974 21.0842 69.0754 21.0388L69.117 22.1732C68.8219 22.2829 68.4358 22.3396 67.955 22.3396C67.3644 22.3396 66.9023 22.1581 66.5693 21.7989C66.2362 21.4396 66.0697 20.8346 66.0697 19.9877V16.5997H65.0893V15.4804H66.0697V14.2477L67.5387 13.8053V15.4804H69.1889L69.1852 16.5997ZM76.6089 18.7852C76.6089 19.8175 76.3138 20.6683 75.7231 21.33C75.106 22.0144 74.2848 22.3547 73.2587 22.3547C72.2705 22.3547 71.4832 22.0258 70.8962 21.3754C70.3097 20.7212 70.0183 19.8931 70.0183 18.8987C70.0183 17.855 70.3211 17.0042 70.9268 16.3387C71.5325 15.6732 72.3464 15.3443 73.3721 15.3443C74.3603 15.3443 75.1554 15.6732 75.7534 16.3274C76.3211 16.9589 76.6089 17.7794 76.6089 18.7852ZM75.057 18.8193C75.057 18.2029 74.9244 17.6735 74.6554 17.2349C74.3415 16.7017 73.8946 16.4333 73.3117 16.4333C72.7134 16.4333 72.2517 16.7017 71.9411 17.2349C71.6725 17.6773 71.5399 18.2142 71.5399 18.8495C71.5399 19.4658 71.6725 19.9952 71.9411 20.4376C72.2632 20.9708 72.7174 21.2393 73.3003 21.2393C73.8721 21.2393 74.3187 20.967 74.6444 20.4263C74.9207 19.9688 75.057 19.4356 75.057 18.8193ZM81.4738 16.7925C81.3183 16.766 81.1595 16.7509 81.0003 16.7509C80.4742 16.7509 80.0693 16.9475 79.7815 17.3446C79.5317 17.6962 79.4068 18.1386 79.4068 18.6718V22.1997H77.9113V17.5941C77.9113 16.887 77.8999 16.1837 77.8697 15.4766H79.1721L79.2248 16.7622H79.2664C79.4256 16.3198 79.6717 15.9644 80.0162 15.6959C80.3264 15.4615 80.7089 15.3367 81.0987 15.3367C81.2391 15.3367 81.3599 15.3481 81.4738 15.3632V16.7925ZM88.1632 18.5205C88.1668 18.7474 88.1476 18.9743 88.1101 19.1974H83.6203C83.6354 19.8629 83.855 20.3695 84.2713 20.7212C84.6497 21.0351 85.1383 21.1901 85.7403 21.1901C86.4064 21.1901 87.0121 21.0842 87.5574 20.8725L87.7921 21.9085C87.1558 22.1846 86.4027 22.3245 85.5358 22.3245C84.4909 22.3245 83.673 22.0182 83.075 21.4056C82.4807 20.7931 82.1815 19.9688 82.1815 18.9365C82.1815 17.9231 82.4578 17.0799 83.0146 16.4068C83.5938 15.6884 84.3811 15.3292 85.3693 15.3292C86.3383 15.3292 87.0725 15.6884 87.5725 16.4068C87.9623 16.9778 88.1632 17.6811 88.1632 18.5205ZM86.7358 18.1348C86.7472 17.6925 86.6489 17.3105 86.4444 16.9853C86.1868 16.5694 85.7856 16.3614 85.2517 16.3614C84.7636 16.3614 84.366 16.5656 84.0591 16.9702C83.8093 17.2916 83.6619 17.6811 83.6162 18.1311L86.7358 18.1348Z" fill="white"/>
<path d="M34.1748 9.58172C33.7583 9.58172 33.3987 9.56281 33.0996 9.52877V5.01775C33.5199 4.95345 33.9439 4.91941 34.3679 4.9232C36.0828 4.9232 36.874 5.76642 36.874 7.13901C36.8702 8.72335 35.9389 9.58172 34.1748 9.58172ZM34.4284 5.50175C34.1975 5.50175 34.0006 5.51687 33.8379 5.55087V8.97672C33.9249 8.99185 34.0953 8.9956 34.3338 8.9956C35.4581 8.9956 36.0979 8.35659 36.0979 7.16171C36.0941 6.09162 35.5149 5.50175 34.4284 5.50175ZM39.3347 9.61573C38.3693 9.61573 37.7409 8.89351 37.7409 7.91418C37.7409 6.89321 38.3807 6.16725 39.3877 6.16725C40.3417 6.16725 40.9816 6.85542 40.9816 7.86122C40.9816 8.89351 40.3228 9.61573 39.3347 9.61573ZM39.3612 6.70417C38.8312 6.70417 38.4905 7.19951 38.4905 7.89526C38.4905 8.57589 38.8388 9.07122 39.3536 9.07122C39.8723 9.07122 40.2168 8.54185 40.2168 7.88013C40.2205 7.20709 39.8798 6.70417 39.3612 6.70417ZM46.4934 6.23529L45.4599 9.5401H44.7861L44.3583 8.10701C44.2522 7.75534 44.1616 7.39992 44.0934 7.04071H44.0783C44.0252 7.39992 43.9228 7.76292 43.813 8.10701L43.3587 9.5401H42.6775L41.7044 6.23529H42.4616L42.8363 7.80451C42.9236 8.17884 42.9991 8.53051 43.0599 8.86705H43.075C43.1281 8.58722 43.2187 8.24314 43.3477 7.81209L43.8171 6.23529H44.415L44.8656 7.77805C44.9754 8.15239 45.0624 8.51918 45.1305 8.86705H45.1493C45.1987 8.52672 45.2705 8.16751 45.373 7.77805L45.7742 6.23529H46.4934ZM50.3056 9.5401H49.5714V7.64192C49.5714 7.05584 49.3477 6.76467 48.9048 6.76467C48.4697 6.76467 48.1705 7.13901 48.1705 7.57384V9.5401H47.4363V7.18059C47.4363 6.88946 47.4285 6.57563 47.4097 6.23529H48.0571L48.091 6.74575H48.1097C48.3069 6.39413 48.7081 6.16725 49.1587 6.16725C49.8514 6.16725 50.3093 6.69663 50.3093 7.56251L50.3056 9.5401ZM52.331 9.5401H51.5967V4.71899H52.331V9.5401ZM55.015 9.61573C54.0497 9.61573 53.4212 8.89351 53.4212 7.91418C53.4212 6.89321 54.0612 6.16725 55.0681 6.16725C56.022 6.16725 56.662 6.85542 56.662 7.86122C56.662 8.89351 55.9995 9.61573 55.015 9.61573ZM55.0416 6.70417C54.5114 6.70417 54.171 7.19951 54.171 7.89526C54.171 8.57589 54.5191 9.07122 55.0338 9.07122C55.5526 9.07122 55.8971 8.54185 55.8971 7.88013C55.8971 7.20709 55.5603 6.70417 55.0416 6.70417ZM59.5616 9.5401L59.5085 9.15818H59.4897C59.2665 9.46447 58.9371 9.61193 58.5208 9.61193C57.9261 9.61193 57.5061 9.19601 57.5061 8.64018C57.5061 7.82342 58.2138 7.40371 59.4403 7.40371V7.34321C59.4403 6.90834 59.2097 6.68905 58.7554 6.68905C58.4297 6.68905 58.142 6.77225 57.8922 6.93484L57.7444 6.45084C58.0514 6.26175 58.4334 6.16346 58.8803 6.16346C59.7432 6.16346 60.1824 6.61721 60.1824 7.52847V8.74605C60.1824 9.07881 60.1975 9.33968 60.2318 9.53631L59.5616 9.5401ZM59.4595 7.89526C58.6416 7.89526 58.233 8.09188 58.233 8.56076C58.233 8.90864 58.4448 9.07881 58.7363 9.07881C59.1114 9.07881 59.4595 8.79518 59.4595 8.40572V7.89526ZM63.7448 9.5401L63.711 9.01072H63.6918C63.4799 9.41156 63.124 9.61573 62.6281 9.61573C61.8293 9.61573 61.2387 8.91622 61.2387 7.9293C61.2387 6.897 61.8522 6.16725 62.6885 6.16725C63.1318 6.16725 63.4457 6.31471 63.6199 6.61721H63.635V4.71899H64.3693V8.64772C64.3693 8.96535 64.3771 9.26785 64.3959 9.53631H63.7448V9.5401ZM63.6387 7.59655C63.6387 7.13521 63.3322 6.73821 62.8628 6.73821C62.3175 6.73821 61.9844 7.22221 61.9844 7.89905C61.9844 8.56455 62.3289 9.0221 62.8477 9.0221C63.3093 9.0221 63.6387 8.62126 63.6387 8.14484V7.59655ZM69.0412 9.61573C68.0759 9.61573 67.4473 8.89351 67.4473 7.91418C67.4473 6.89321 68.0869 6.16725 69.0942 6.16725C70.0481 6.16725 70.6877 6.85542 70.6877 7.86122C70.6877 8.89351 70.0293 9.61573 69.0412 9.61573ZM69.0677 6.70417C68.5375 6.70417 68.1967 7.19951 68.1967 7.89526C68.1967 8.57589 68.5452 9.07122 69.0599 9.07122C69.5787 9.07122 69.9232 8.54185 69.9232 7.88013C69.9269 7.20709 69.5861 6.70417 69.0677 6.70417ZM74.644 9.5401H73.9093V7.64192C73.9093 7.05584 73.6861 6.76467 73.2432 6.76467C72.8077 6.76467 72.5089 7.13901 72.5089 7.57384V9.5401H71.7742V7.18059C71.7742 6.88946 71.7669 6.57563 71.7477 6.23529H72.395L72.4293 6.74575H72.4481C72.6452 6.39413 73.0465 6.16725 73.4967 6.16725C74.1897 6.16725 74.6477 6.69663 74.6477 7.56251V9.5401H74.644ZM79.5881 6.78734H78.7779V8.39059C78.7779 8.79897 78.9179 9.00318 79.2057 9.00318C79.3342 9.00318 79.444 8.98806 79.5314 8.96914L79.5501 9.52498C79.4065 9.57793 79.2171 9.60818 78.9787 9.60818C78.3991 9.60818 78.051 9.29056 78.051 8.4511V6.78359H77.5665V6.2315H78.051V5.6265L78.7742 5.40721V6.2315H79.5844L79.5881 6.78734ZM83.4836 9.5401H82.7489V7.65705C82.7489 7.06717 82.5256 6.76846 82.0828 6.76846C81.7003 6.76846 81.3485 7.02559 81.3485 7.55117V9.54389H80.6138V4.71899H81.3485V6.70417H81.3636C81.5946 6.34496 81.9314 6.16725 82.3591 6.16725C83.0595 6.16725 83.4873 6.71171 83.4873 7.57384L83.4836 9.5401ZM87.4697 8.06543H85.2628C85.2779 8.68935 85.6905 9.04476 86.304 9.04476C86.6293 9.04476 86.9322 8.99185 87.1971 8.88972L87.311 9.40018C86.9967 9.53631 86.6293 9.60439 86.2016 9.60439C85.1681 9.60439 84.555 8.95022 84.555 7.94063C84.555 6.92725 85.1832 6.16725 86.1183 6.16725C86.9624 6.16725 87.4926 6.79113 87.4926 7.73647C87.4999 7.84234 87.4926 7.95576 87.4697 8.06543ZM86.7958 7.53984C86.7958 7.02934 86.5387 6.67013 86.0693 6.67013C85.6452 6.67013 85.3122 7.03692 85.2665 7.53984H86.7958Z" fill="white"/>
</g>
<defs>
<clipPath id="clip0_1267_68191">
<rect width="100" height="29.3532" fill="white"/>
</clipPath>
</defs>
</svg>
