<svg width="131" height="36" viewBox="0 0 131 36" fill="none" xmlns="http://www.w3.org/2000/svg">
<rect width="130.364" height="35.0642" rx="11.9004" fill="#E0FBA2"/>
<path d="M32.6348 18.1446C32.6143 15.7024 34.6375 14.512 34.7317 14.4588C33.585 12.7897 31.8075 12.5606 31.1808 12.5443C29.686 12.3889 28.2402 13.4361 27.4785 13.4361C26.7044 13.4361 25.533 12.5606 24.2675 12.5852C22.6415 12.6097 21.1221 13.5506 20.2907 15.007C18.5705 17.981 19.8525 22.3499 21.503 24.7553C22.3262 25.9334 23.2887 27.2466 24.5501 27.2016C25.7829 27.1525 26.2457 26.4161 27.7324 26.4161C29.2068 26.4161 29.6409 27.2016 30.9269 27.1729C32.2498 27.1525 33.0853 25.9907 33.8798 24.8044C34.8341 23.4544 35.215 22.1249 35.2314 22.0595C35.1986 22.039 32.6594 21.0695 32.6348 18.1446ZM30.2061 10.9612C30.8696 10.1307 31.3242 9.00577 31.1972 7.86035C30.2389 7.90124 29.0347 8.52304 28.3467 9.33304C27.7365 10.0489 27.1876 11.2189 27.331 12.3193C28.404 12.397 29.5139 11.7752 30.2061 10.9612Z" fill="#12144A"/>
<path d="M41.8632 13.0322V8.48842H43.7781C44.2628 8.48842 44.689 8.58362 45.0569 8.77403C45.429 8.96444 45.7168 9.23057 45.9202 9.57244C46.1279 9.91431 46.2318 10.3103 46.2318 10.7603C46.2318 11.2104 46.1279 11.6063 45.9202 11.9482C45.7168 12.2901 45.429 12.5562 45.0569 12.7466C44.689 12.937 44.2628 13.0322 43.7781 13.0322H41.8632ZM42.5123 12.4675H43.7392C44.1156 12.4675 44.4402 12.3961 44.7128 12.2533C44.9898 12.1105 45.204 11.9114 45.3555 11.6561C45.5069 11.3965 45.5826 11.0979 45.5826 10.7603C45.5826 10.4185 45.5069 10.1199 45.3555 9.86454C45.204 9.60923 44.9898 9.41016 44.7128 9.26736C44.4402 9.12455 44.1156 9.05315 43.7392 9.05315H42.5123V12.4675ZM48.6086 13.0712C48.2624 13.0712 47.9552 12.9954 47.6869 12.844C47.4186 12.6925 47.2065 12.4848 47.0508 12.2208C46.895 11.9525 46.8171 11.6496 46.8171 11.3121C46.8171 10.9702 46.895 10.6673 47.0508 10.4033C47.2065 10.1393 47.4186 9.93378 47.6869 9.78665C47.9552 9.63519 48.2624 9.55946 48.6086 9.55946C48.9505 9.55946 49.2556 9.63519 49.5239 9.78665C49.7965 9.93378 50.0086 10.1393 50.16 10.4033C50.3158 10.663 50.3937 10.9659 50.3937 11.3121C50.3937 11.6539 50.3158 11.9569 50.16 12.2208C50.0086 12.4848 49.7965 12.6925 49.5239 12.844C49.2556 12.9954 48.9505 13.0712 48.6086 13.0712ZM48.6086 12.5259C48.8293 12.5259 49.0262 12.4762 49.1993 12.3766C49.3768 12.2771 49.5152 12.1364 49.6148 11.9547C49.7143 11.7686 49.7641 11.5544 49.7641 11.3121C49.7641 11.0654 49.7143 10.8534 49.6148 10.6759C49.5152 10.4942 49.3768 10.3535 49.1993 10.254C49.0262 10.1545 48.8293 10.1047 48.6086 10.1047C48.3879 10.1047 48.191 10.1545 48.0179 10.254C47.8448 10.3535 47.7064 10.4942 47.6025 10.6759C47.4986 10.8534 47.4467 11.0654 47.4467 11.3121C47.4467 11.5544 47.4986 11.7686 47.6025 11.9547C47.7064 12.1364 47.8448 12.2771 48.0179 12.3766C48.191 12.4762 48.3879 12.5259 48.6086 12.5259ZM51.8874 13.0322L50.6087 9.59192H51.1994L52.3353 12.7077H52.0562L53.2376 9.59192H53.7634L54.9188 12.7077H54.6462L55.8081 9.59192H56.3663L55.0811 13.0322H54.4839L53.3999 10.1891H53.5816L52.4846 13.0322H51.8874ZM56.9987 13.0322V9.59192H57.5958V10.5202L57.4985 10.2735C57.611 10.0485 57.7841 9.8732 58.0178 9.7477C58.2514 9.62221 58.5241 9.55946 58.8356 9.55946C59.1169 9.55946 59.3636 9.61355 59.5756 9.72174C59.792 9.82992 59.9608 9.99437 60.0819 10.2151C60.2031 10.4358 60.2637 10.7149 60.2637 11.0524V13.0322H59.6406V11.1238C59.6406 10.7906 59.5583 10.5396 59.3939 10.3709C59.2338 10.2021 59.0066 10.1177 58.7123 10.1177C58.4916 10.1177 58.299 10.161 58.1346 10.2475C57.9702 10.3341 57.8425 10.4617 57.7516 10.6305C57.6651 10.7993 57.6218 11.0092 57.6218 11.2601V13.0322H56.9987ZM61.4169 13.0322V8.21579H62.0401V13.0322H61.4169ZM64.7034 13.0712C64.3572 13.0712 64.05 12.9954 63.7817 12.844C63.5134 12.6925 63.3013 12.4848 63.1455 12.2208C62.9897 11.9525 62.9118 11.6496 62.9118 11.3121C62.9118 10.9702 62.9897 10.6673 63.1455 10.4033C63.3013 10.1393 63.5134 9.93378 63.7817 9.78665C64.05 9.63519 64.3572 9.55946 64.7034 9.55946C65.0453 9.55946 65.3503 9.63519 65.6186 9.78665C65.8913 9.93378 66.1033 10.1393 66.2548 10.4033C66.4106 10.663 66.4885 10.9659 66.4885 11.3121C66.4885 11.6539 66.4106 11.9569 66.2548 12.2208C66.1033 12.4848 65.8913 12.6925 65.6186 12.844C65.3503 12.9954 65.0453 13.0712 64.7034 13.0712ZM64.7034 12.5259C64.9241 12.5259 65.121 12.4762 65.2941 12.3766C65.4715 12.2771 65.61 12.1364 65.7095 11.9547C65.8091 11.7686 65.8588 11.5544 65.8588 11.3121C65.8588 11.0654 65.8091 10.8534 65.7095 10.6759C65.61 10.4942 65.4715 10.3535 65.2941 10.254C65.121 10.1545 64.9241 10.1047 64.7034 10.1047C64.4827 10.1047 64.2858 10.1545 64.1127 10.254C63.9396 10.3535 63.8011 10.4942 63.6973 10.6759C63.5934 10.8534 63.5415 11.0654 63.5415 11.3121C63.5415 11.5544 63.5934 11.7686 63.6973 11.9547C63.8011 12.1364 63.9396 12.2771 64.1127 12.3766C64.2858 12.4762 64.4827 12.5259 64.7034 12.5259ZM69.4542 13.0322V12.3052L69.4217 12.1689V10.9291C69.4217 10.6651 69.3438 10.4617 69.188 10.3189C69.0366 10.1718 68.8072 10.0982 68.5 10.0982C68.2966 10.0982 68.0975 10.1328 67.9028 10.2021C67.708 10.267 67.5436 10.3557 67.4094 10.4682L67.1498 10.0009C67.3272 9.85805 67.5393 9.74987 67.7859 9.6763C68.0369 9.59841 68.2987 9.55946 68.5714 9.55946C69.0431 9.55946 69.4066 9.67414 69.6619 9.90349C69.9172 10.1328 70.0449 10.4834 70.0449 10.9551V13.0322H69.4542ZM68.3247 13.0712C68.0694 13.0712 67.8444 13.0279 67.6496 12.9414C67.4592 12.8548 67.3121 12.7358 67.2082 12.5843C67.1044 12.4285 67.0524 12.2533 67.0524 12.0586C67.0524 11.8725 67.0957 11.7037 67.1823 11.5522C67.2731 11.4008 67.4181 11.2796 67.6172 11.1887C67.8206 11.0979 68.0932 11.0524 68.435 11.0524H69.5256V11.5003H68.461C68.1494 11.5003 67.9396 11.5522 67.8314 11.6561C67.7232 11.76 67.6691 11.8855 67.6691 12.0326C67.6691 12.2014 67.7362 12.3377 67.8703 12.4415C68.0045 12.5411 68.1905 12.5908 68.4286 12.5908C68.6622 12.5908 68.8656 12.5389 69.0387 12.435C69.2162 12.3312 69.3438 12.1797 69.4217 11.9807L69.545 12.4091C69.4628 12.6125 69.3178 12.7747 69.1101 12.8959C68.9024 13.0128 68.6406 13.0712 68.3247 13.0712ZM72.6196 13.0712C72.2864 13.0712 71.9878 12.9976 71.7238 12.8505C71.4642 12.7033 71.2586 12.4978 71.1072 12.2338C70.9557 11.9698 70.88 11.6626 70.88 11.3121C70.88 10.9615 70.9557 10.6565 71.1072 10.3968C71.2586 10.1328 71.4642 9.92729 71.7238 9.78016C71.9878 9.63303 72.2864 9.55946 72.6196 9.55946C72.9095 9.55946 73.1714 9.62437 73.405 9.75419C73.6387 9.88402 73.8248 10.0788 73.9633 10.3384C74.1061 10.598 74.1775 10.9226 74.1775 11.3121C74.1775 11.7015 74.1082 12.0261 73.9698 12.2857C73.8356 12.5454 73.6517 12.7423 73.418 12.8764C73.1843 13.0063 72.9182 13.0712 72.6196 13.0712ZM72.6715 12.5259C72.8879 12.5259 73.0826 12.4762 73.2557 12.3766C73.4332 12.2771 73.5716 12.1364 73.6712 11.9547C73.775 11.7686 73.827 11.5544 73.827 11.3121C73.827 11.0654 73.775 10.8534 73.6712 10.6759C73.5716 10.4942 73.4332 10.3535 73.2557 10.254C73.0826 10.1545 72.8879 10.1047 72.6715 10.1047C72.4508 10.1047 72.2539 10.1545 72.0808 10.254C71.9077 10.3535 71.7693 10.4942 71.6654 10.6759C71.5616 10.8534 71.5096 11.0654 71.5096 11.3121C71.5096 11.5544 71.5616 11.7686 71.6654 11.9547C71.7693 12.1364 71.9077 12.2771 72.0808 12.3766C72.2539 12.4762 72.4508 12.5259 72.6715 12.5259ZM73.8464 13.0322V12.104L73.8854 11.3056L73.8205 10.5072V8.21579H74.4436V13.0322H73.8464ZM78.8394 13.0712C78.4932 13.0712 78.186 12.9954 77.9177 12.844C77.6494 12.6925 77.4373 12.4848 77.2815 12.2208C77.1257 11.9525 77.0478 11.6496 77.0478 11.3121C77.0478 10.9702 77.1257 10.6673 77.2815 10.4033C77.4373 10.1393 77.6494 9.93378 77.9177 9.78665C78.186 9.63519 78.4932 9.55946 78.8394 9.55946C79.1813 9.55946 79.4864 9.63519 79.7547 9.78665C80.0273 9.93378 80.2393 10.1393 80.3908 10.4033C80.5466 10.663 80.6245 10.9659 80.6245 11.3121C80.6245 11.6539 80.5466 11.9569 80.3908 12.2208C80.2393 12.4848 80.0273 12.6925 79.7547 12.844C79.4864 12.9954 79.1813 13.0712 78.8394 13.0712ZM78.8394 12.5259C79.0601 12.5259 79.257 12.4762 79.4301 12.3766C79.6075 12.2771 79.746 12.1364 79.8455 11.9547C79.9451 11.7686 79.9948 11.5544 79.9948 11.3121C79.9948 11.0654 79.9451 10.8534 79.8455 10.6759C79.746 10.4942 79.6075 10.3535 79.4301 10.254C79.257 10.1545 79.0601 10.1047 78.8394 10.1047C78.6187 10.1047 78.4218 10.1545 78.2487 10.254C78.0756 10.3535 77.9371 10.4942 77.8333 10.6759C77.7294 10.8534 77.6775 11.0654 77.6775 11.3121C77.6775 11.5544 77.7294 11.7686 77.8333 11.9547C77.9371 12.1364 78.0756 12.2771 78.2487 12.3766C78.4218 12.4762 78.6187 12.5259 78.8394 12.5259ZM81.4863 13.0322V9.59192H82.0835V10.5202L81.9861 10.2735C82.0986 10.0485 82.2717 9.8732 82.5054 9.7477C82.7391 9.62221 83.0117 9.55946 83.3233 9.55946C83.6046 9.55946 83.8512 9.61355 84.0633 9.72174C84.2796 9.82992 84.4484 9.99437 84.5696 10.2151C84.6907 10.4358 84.7513 10.7149 84.7513 11.0524V13.0322H84.1282V11.1238C84.1282 10.7906 84.0459 10.5396 83.8815 10.3709C83.7214 10.2021 83.4942 10.1177 83.1999 10.1177C82.9792 10.1177 82.7867 10.161 82.6222 10.2475C82.4578 10.3341 82.3301 10.4617 82.2392 10.6305C82.1527 10.7993 82.1094 11.0092 82.1094 11.2601V13.0322H81.4863ZM88.8292 13.0712C88.483 13.0712 88.2147 12.9781 88.0243 12.7921C87.8339 12.606 87.7387 12.3398 87.7387 11.9936V8.83894H88.3618V11.9677C88.3618 12.1538 88.4073 12.2966 88.4981 12.3961C88.5933 12.4956 88.7275 12.5454 88.9006 12.5454C89.0953 12.5454 89.2576 12.4913 89.3874 12.3831L89.5822 12.831C89.487 12.9132 89.3723 12.9738 89.2381 13.0128C89.1083 13.0517 88.972 13.0712 88.8292 13.0712ZM87.1545 10.1047V9.59192H89.3485V10.1047H87.1545ZM90.3355 13.0322V8.21579H90.9587V10.5202L90.8354 10.2735C90.9479 10.0485 91.121 9.8732 91.3547 9.7477C91.5883 9.62221 91.861 9.55946 92.1725 9.55946C92.4538 9.55946 92.7005 9.61355 92.9125 9.72174C93.1289 9.82992 93.2977 9.99437 93.4188 10.2151C93.54 10.4358 93.6006 10.7149 93.6006 11.0524V13.0322H92.9774V11.1238C92.9774 10.7906 92.8952 10.5396 92.7308 10.3709C92.5707 10.2021 92.3435 10.1177 92.0492 10.1177C91.8285 10.1177 91.6359 10.161 91.4715 10.2475C91.3071 10.3341 91.1794 10.4617 91.0885 10.6305C91.002 10.7993 90.9587 11.0092 90.9587 11.2601V13.0322H90.3355ZM96.2857 13.0712C95.9179 13.0712 95.5934 12.9954 95.3121 12.844C95.0351 12.6925 94.8187 12.4848 94.663 12.2208C94.5115 11.9569 94.4358 11.6539 94.4358 11.3121C94.4358 10.9702 94.5093 10.6673 94.6565 10.4033C94.8079 10.1393 95.0135 9.93378 95.2731 9.78665C95.5371 9.63519 95.8335 9.55946 96.1624 9.55946C96.4956 9.55946 96.7899 9.63303 97.0452 9.78016C97.3005 9.92729 97.4996 10.135 97.6424 10.4033C97.7895 10.6673 97.8631 10.9767 97.8631 11.3315C97.8631 11.3575 97.8609 11.3878 97.8566 11.4224C97.8566 11.457 97.8544 11.4895 97.8501 11.5198H94.9226V11.0719H97.5256L97.2724 11.2277C97.2767 11.007 97.2313 10.8101 97.1361 10.637C97.0409 10.4639 96.9089 10.3297 96.7401 10.2345C96.5757 10.135 96.3831 10.0852 96.1624 10.0852C95.946 10.0852 95.7535 10.135 95.5847 10.2345C95.4159 10.3297 95.2839 10.4661 95.1887 10.6435C95.0935 10.8166 95.0459 11.0156 95.0459 11.2407V11.3445C95.0459 11.5739 95.0979 11.7794 95.2017 11.9612C95.3099 12.1386 95.4592 12.2771 95.6496 12.3766C95.84 12.4762 96.0586 12.5259 96.3052 12.5259C96.5086 12.5259 96.6925 12.4913 96.857 12.4221C97.0257 12.3528 97.1729 12.249 97.2984 12.1105L97.6424 12.5129C97.4866 12.6947 97.2919 12.8332 97.0582 12.9284C96.8288 13.0236 96.5714 13.0712 96.2857 13.0712Z" fill="#12144A"/>
<path d="M46.7947 25.0322L50.1701 17.4592H51.901L55.2873 25.0322H53.4481L50.6785 18.3463H51.3709L48.5906 25.0322H46.7947ZM48.4824 23.4094L48.9476 22.0788H52.8423L53.3183 23.4094H48.4824ZM59.3943 25.1188C58.9038 25.1188 58.4747 25.0106 58.1069 24.7942C57.739 24.5778 57.4505 24.2497 57.2414 23.8097C57.0394 23.3626 56.9384 22.8 56.9384 22.122C56.9384 21.4368 57.0358 20.8743 57.2306 20.4343C57.4253 19.9944 57.7066 19.6662 58.0744 19.4498C58.4422 19.2335 58.8822 19.1253 59.3943 19.1253C59.9424 19.1253 60.4329 19.2515 60.8656 19.5039C61.3056 19.7491 61.6517 20.0953 61.9042 20.5425C62.1638 20.9897 62.2936 21.5162 62.2936 22.122C62.2936 22.7351 62.1638 23.2652 61.9042 23.7124C61.6517 24.1595 61.3056 24.5057 60.8656 24.7509C60.4329 24.9962 59.9424 25.1188 59.3943 25.1188ZM55.954 27.131V19.2118H57.5659V20.4019L57.5335 22.1328L57.6417 23.853V27.131H55.954ZM59.1022 23.734C59.3834 23.734 59.6323 23.6691 59.8486 23.5393C60.0722 23.4094 60.2489 23.2255 60.3788 22.9875C60.5158 22.7423 60.5843 22.4538 60.5843 22.122C60.5843 21.783 60.5158 21.4945 60.3788 21.2565C60.2489 21.0185 60.0722 20.8346 59.8486 20.7048C59.6323 20.575 59.3834 20.5101 59.1022 20.5101C58.8209 20.5101 58.5684 20.575 58.3449 20.7048C58.1213 20.8346 57.9446 21.0185 57.8148 21.2565C57.6849 21.4945 57.62 21.783 57.62 22.122C57.62 22.4538 57.6849 22.7423 57.8148 22.9875C57.9446 23.2255 58.1213 23.4094 58.3449 23.5393C58.5684 23.6691 58.8209 23.734 59.1022 23.734ZM66.8637 25.1188C66.3733 25.1188 65.9442 25.0106 65.5763 24.7942C65.2085 24.5778 64.92 24.2497 64.7108 23.8097C64.5089 23.3626 64.4079 22.8 64.4079 22.122C64.4079 21.4368 64.5053 20.8743 64.7 20.4343C64.8948 19.9944 65.176 19.6662 65.5439 19.4498C65.9117 19.2335 66.3517 19.1253 66.8637 19.1253C67.4119 19.1253 67.9023 19.2515 68.3351 19.5039C68.775 19.7491 69.1212 20.0953 69.3737 20.5425C69.6333 20.9897 69.7631 21.5162 69.7631 22.122C69.7631 22.7351 69.6333 23.2652 69.3737 23.7124C69.1212 24.1595 68.775 24.5057 68.3351 24.7509C67.9023 24.9962 67.4119 25.1188 66.8637 25.1188ZM63.4234 27.131V19.2118H65.0354V20.4019L65.0029 22.1328L65.1111 23.853V27.131H63.4234ZM66.5716 23.734C66.8529 23.734 67.1018 23.6691 67.3181 23.5393C67.5417 23.4094 67.7184 23.2255 67.8482 22.9875C67.9853 22.7423 68.0538 22.4538 68.0538 22.122C68.0538 21.783 67.9853 21.4945 67.8482 21.2565C67.7184 21.0185 67.5417 20.8346 67.3181 20.7048C67.1018 20.575 66.8529 20.5101 66.5716 20.5101C66.2904 20.5101 66.0379 20.575 65.8143 20.7048C65.5908 20.8346 65.4141 21.0185 65.2842 21.2565C65.1544 21.4945 65.0895 21.783 65.0895 22.122C65.0895 22.4538 65.1544 22.7423 65.2842 22.9875C65.4141 23.2255 65.5908 23.4094 65.8143 23.5393C66.0379 23.6691 66.2904 23.734 66.5716 23.734ZM76.564 25.162C75.9582 25.162 75.3776 25.0827 74.8223 24.924C74.2669 24.7582 73.8197 24.5454 73.4807 24.2857L74.0758 22.9659C74.4003 23.1967 74.7826 23.3878 75.2225 23.5393C75.6697 23.6835 76.1205 23.7556 76.5749 23.7556C76.9211 23.7556 77.1987 23.7232 77.4079 23.6583C77.6243 23.5861 77.7829 23.4888 77.8839 23.3662C77.9849 23.2436 78.0354 23.1029 78.0354 22.9442C78.0354 22.7423 77.956 22.5836 77.7974 22.4682C77.6387 22.3456 77.4295 22.2482 77.1699 22.1761C76.9102 22.0968 76.6217 22.0247 76.3044 21.9597C75.9943 21.8876 75.6805 21.8011 75.3632 21.7001C75.053 21.5991 74.7682 21.4693 74.5085 21.3106C74.2489 21.152 74.0361 20.9428 73.8702 20.6832C73.7115 20.4235 73.6322 20.0917 73.6322 19.6878C73.6322 19.2551 73.7476 18.862 73.9784 18.5086C74.2164 18.148 74.5698 17.8631 75.0386 17.6539C75.5146 17.4376 76.1097 17.3294 76.8237 17.3294C77.2997 17.3294 77.7685 17.3871 78.2301 17.5025C78.6917 17.6107 79.0992 17.7766 79.4526 18.0001L78.9117 19.3308C78.5583 19.1289 78.2049 18.981 77.8515 18.8873C77.498 18.7863 77.1519 18.7358 76.8129 18.7358C76.4739 18.7358 76.1962 18.7755 75.9798 18.8548C75.7635 18.9341 75.6084 19.0387 75.5146 19.1686C75.4209 19.2912 75.374 19.4354 75.374 19.6013C75.374 19.796 75.4533 19.9547 75.612 20.0773C75.7707 20.1927 75.9798 20.2865 76.2395 20.3586C76.4991 20.4307 76.784 20.5028 77.0942 20.575C77.4115 20.6471 77.7252 20.73 78.0354 20.8238C78.3527 20.9176 78.6412 21.0438 78.9009 21.2024C79.1605 21.3611 79.3697 21.5703 79.5283 21.8299C79.6942 22.0896 79.7772 22.4177 79.7772 22.8144C79.7772 23.2399 79.6582 23.6294 79.4202 23.9828C79.1821 24.3362 78.8251 24.6211 78.3491 24.8375C77.8803 25.0539 77.2853 25.162 76.564 25.162ZM83.2358 25.1188C82.5506 25.1188 82.0169 24.9457 81.6347 24.5995C81.2524 24.2461 81.0613 23.7232 81.0613 23.0308V17.9244H82.749V23.0092C82.749 23.2544 82.8139 23.4455 82.9437 23.5825C83.0735 23.7124 83.2502 23.7773 83.4738 23.7773C83.7407 23.7773 83.9679 23.7051 84.1554 23.5609L84.6098 24.7509C84.4367 24.8736 84.2275 24.9673 83.9823 25.0322C83.7443 25.0899 83.4955 25.1188 83.2358 25.1188ZM80.1633 20.5101V19.2118H84.1987V20.5101H80.1633ZM88.1471 25.1188C87.5269 25.1188 86.9751 24.989 86.4919 24.7293C86.0159 24.4697 85.6372 24.1163 85.3559 23.6691C85.0819 23.2147 84.9448 22.699 84.9448 22.122C84.9448 21.5378 85.0819 21.0221 85.3559 20.575C85.6372 20.1206 86.0159 19.7672 86.4919 19.5147C86.9751 19.2551 87.5269 19.1253 88.1471 19.1253C88.7602 19.1253 89.3083 19.2551 89.7915 19.5147C90.2748 19.7672 90.6534 20.117 90.9275 20.5641C91.2016 21.0113 91.3386 21.5306 91.3386 22.122C91.3386 22.699 91.2016 23.2147 90.9275 23.6691C90.6534 24.1163 90.2748 24.4697 89.7915 24.7293C89.3083 24.989 88.7602 25.1188 88.1471 25.1188ZM88.1471 23.734C88.4284 23.734 88.6808 23.6691 88.9044 23.5393C89.128 23.4094 89.3047 23.2255 89.4345 22.9875C89.5644 22.7423 89.6293 22.4538 89.6293 22.122C89.6293 21.783 89.5644 21.4945 89.4345 21.2565C89.3047 21.0185 89.128 20.8346 88.9044 20.7048C88.6808 20.575 88.4284 20.5101 88.1471 20.5101C87.8658 20.5101 87.6134 20.575 87.3898 20.7048C87.1662 20.8346 86.9859 21.0185 86.8489 21.2565C86.7191 21.4945 86.6542 21.783 86.6542 22.122C86.6542 22.4538 86.7191 22.7423 86.8489 22.9875C86.9859 23.2255 87.1662 23.4094 87.3898 23.5393C87.6134 23.6691 87.8658 23.734 88.1471 23.734ZM92.4667 25.0322V19.2118H94.0787V20.8563L93.8515 20.3802C94.0246 19.9691 94.3022 19.659 94.6845 19.4498C95.0668 19.2335 95.532 19.1253 96.0801 19.1253V20.6832C96.008 20.6759 95.9431 20.6723 95.8854 20.6723C95.8277 20.6651 95.7664 20.6615 95.7014 20.6615C95.2399 20.6615 94.8648 20.7949 94.5763 21.0618C94.295 21.3215 94.1544 21.729 94.1544 22.2843V25.0322H92.4667ZM99.9299 25.1188C99.2664 25.1188 98.6822 24.989 98.1773 24.7293C97.6796 24.4697 97.2938 24.1163 97.0197 23.6691C96.7456 23.2147 96.6086 22.699 96.6086 22.122C96.6086 21.5378 96.742 21.0221 97.0089 20.575C97.283 20.1206 97.6544 19.7672 98.1232 19.5147C98.592 19.2551 99.1221 19.1253 99.7135 19.1253C100.283 19.1253 100.795 19.2479 101.25 19.4931C101.711 19.7311 102.076 20.0773 102.342 20.5317C102.609 20.9789 102.743 21.5162 102.743 22.1437C102.743 22.2086 102.739 22.2843 102.732 22.3709C102.725 22.4502 102.718 22.5259 102.71 22.598H97.9826V21.6136H101.823L101.174 21.9057C101.174 21.6027 101.113 21.3395 100.99 21.1159C100.868 20.8923 100.698 20.7192 100.482 20.5966C100.265 20.4668 100.013 20.4019 99.7244 20.4019C99.4359 20.4019 99.1798 20.4668 98.9562 20.5966C98.7399 20.7192 98.5704 20.8959 98.4478 21.1267C98.3252 21.3503 98.2638 21.6172 98.2638 21.9273V22.1869C98.2638 22.5043 98.3324 22.7856 98.4694 23.0308C98.6136 23.2688 98.812 23.4527 99.0644 23.5825C99.3241 23.7051 99.627 23.7665 99.9732 23.7665C100.283 23.7665 100.554 23.7196 100.785 23.6258C101.023 23.532 101.239 23.3914 101.434 23.2039L102.332 24.1776C102.065 24.4805 101.729 24.7149 101.326 24.8808C100.922 25.0394 100.456 25.1188 99.9299 25.1188Z" fill="#12144A"/>
</svg>
