<svg width="131" height="36" viewBox="0 0 131 36" fill="none" xmlns="http://www.w3.org/2000/svg">
<rect width="130.364" height="35.0642" rx="11.9004" fill="#E0FBA2"/>
<path d="M19.9299 28.031C19.6257 27.8791 19.4736 27.4993 19.4736 27.1195C19.4736 27.0435 19.4736 26.8916 19.4736 26.8157C19.4736 21.1947 19.4736 15.5736 19.4736 10.0286C19.4736 9.72474 19.5497 9.49689 19.6257 9.19305C19.7018 9.0411 19.8539 8.8892 20.006 8.7373C23.2761 12.0035 26.4701 15.2698 29.6642 18.5361C26.3941 21.5744 23.2 24.7648 19.9299 28.031Z" fill="#12144A"/>
<path d="M32.8575 15.1944C31.9449 16.1059 30.9563 17.0174 30.0437 18.0049C27.0018 14.8906 23.8838 11.7762 20.8418 8.66189C20.8418 8.66189 20.8418 8.58594 20.9178 8.58594C24.8724 10.7887 28.8269 12.9916 32.8575 15.1944Z" fill="#12144A"/>
<path d="M20.8418 28.0311C23.8838 24.9928 27.0018 21.9544 30.0437 18.916C30.8803 19.7516 31.7929 20.5871 32.7815 21.4986C28.8269 23.7015 24.8724 25.9043 20.9178 28.0311H20.8418Z" fill="#12144A"/>
<path d="M33.3146 21.195C32.326 20.2835 31.4134 19.372 30.4248 18.4605C31.4134 17.473 32.4021 16.4855 33.3907 15.498C33.6949 15.6499 33.9991 15.8019 34.3033 16.0297C35.0638 16.4855 35.9003 16.8653 36.6608 17.3211C36.889 17.397 37.0411 17.549 37.1931 17.7768C37.4973 18.1566 37.4973 18.5364 37.1931 18.9162C37.0411 19.0681 36.889 19.2201 36.6608 19.296C35.5961 19.9797 34.4554 20.5874 33.3146 21.195Z" fill="#12144A"/>
<path d="M46.1039 13.0842C45.7533 13.0842 45.431 13.0279 45.1367 12.9154C44.8424 12.7985 44.5871 12.6363 44.3707 12.4285C44.1544 12.2165 43.9856 11.9698 43.8644 11.6886C43.7433 11.4073 43.6827 11.0979 43.6827 10.7603C43.6827 10.4228 43.7433 10.1134 43.8644 9.83209C43.9856 9.5508 44.1544 9.3063 44.3707 9.09859C44.5914 8.88654 44.8489 8.72426 45.1432 8.61175C45.4374 8.49491 45.762 8.43649 46.1169 8.43649C46.476 8.43649 46.8049 8.49491 47.1035 8.61175C47.4021 8.72859 47.6553 8.90385 47.863 9.13753L47.4605 9.53999C47.2744 9.35823 47.0711 9.22625 46.8504 9.14403C46.634 9.05748 46.3981 9.0142 46.1428 9.0142C45.8832 9.0142 45.6408 9.05748 45.4158 9.14403C45.1951 9.23057 45.0025 9.35174 44.8381 9.50753C44.678 9.66332 44.5525 9.8494 44.4616 10.0658C44.3751 10.2778 44.3318 10.5093 44.3318 10.7603C44.3318 11.007 44.3751 11.2385 44.4616 11.4549C44.5525 11.6669 44.678 11.853 44.8381 12.0131C45.0025 12.1689 45.1951 12.2901 45.4158 12.3766C45.6365 12.4632 45.8767 12.5064 46.1363 12.5064C46.3787 12.5064 46.6102 12.4697 46.8309 12.3961C47.0559 12.3182 47.2636 12.1905 47.454 12.0131L47.824 12.5064C47.599 12.6969 47.335 12.8418 47.0321 12.9414C46.7335 13.0366 46.4241 13.0842 46.1039 13.0842ZM47.824 12.5064L47.2009 12.4221V10.7344H47.824V12.5064ZM49.0668 13.0322V8.48842H52.2735V9.05315H49.7159V12.4675H52.3643V13.0322H49.0668ZM49.6575 11.0005V10.4487H51.9943V11.0005H49.6575ZM54.3177 13.0322V9.05315H52.7598V8.48842H56.5182V9.05315H54.9603V13.0322H54.3177ZM58.9684 13.0322V8.48842H59.6175V13.0322H58.9684ZM61.8801 13.0322V9.05315H60.3222V8.48842H64.0806V9.05315H62.5227V13.0322H61.8801ZM68.582 13.0842C68.2358 13.0842 67.9134 13.0257 67.6148 12.9089C67.3206 12.7921 67.0653 12.6298 66.8489 12.4221C66.6325 12.21 66.4637 11.9634 66.3426 11.6821C66.2214 11.4008 66.1608 11.0935 66.1608 10.7603C66.1608 10.4271 66.2214 10.1199 66.3426 9.83858C66.4637 9.5573 66.6325 9.3128 66.8489 9.10508C67.0653 8.89303 67.3206 8.72859 67.6148 8.61175C67.9091 8.49491 68.2315 8.43649 68.582 8.43649C68.9282 8.43649 69.2463 8.49491 69.5362 8.61175C69.8305 8.72426 70.0858 8.88654 70.3022 9.09859C70.5229 9.3063 70.6916 9.5508 70.8085 9.83209C70.9297 10.1134 70.9902 10.4228 70.9902 10.7603C70.9902 11.0979 70.9297 11.4073 70.8085 11.6886C70.6916 11.9698 70.5229 12.2165 70.3022 12.4285C70.0858 12.6363 69.8305 12.7985 69.5362 12.9154C69.2463 13.0279 68.9282 13.0842 68.582 13.0842ZM68.582 12.5064C68.833 12.5064 69.0645 12.4632 69.2766 12.3766C69.4929 12.2901 69.679 12.1689 69.8348 12.0131C69.9949 11.853 70.1183 11.6669 70.2048 11.4549C70.2957 11.2428 70.3411 11.0113 70.3411 10.7603C70.3411 10.5093 70.2957 10.2778 70.2048 10.0658C70.1183 9.85373 69.9949 9.66981 69.8348 9.51402C69.679 9.35391 69.4929 9.23057 69.2766 9.14403C69.0645 9.05748 68.833 9.0142 68.582 9.0142C68.3267 9.0142 68.0909 9.05748 67.8745 9.14403C67.6624 9.23057 67.4764 9.35391 67.3162 9.51402C67.1561 9.66981 67.0306 9.85373 66.9398 10.0658C66.8532 10.2778 66.8099 10.5093 66.8099 10.7603C66.8099 11.0113 66.8532 11.2428 66.9398 11.4549C67.0306 11.6669 67.1561 11.853 67.3162 12.0131C67.4764 12.1689 67.6624 12.2901 67.8745 12.3766C68.0909 12.4632 68.3267 12.5064 68.582 12.5064ZM71.9824 13.0322V8.48842H72.5146L75.52 12.2208H75.2409V8.48842H75.89V13.0322H75.3578L72.3524 9.29981H72.6315V13.0322H71.9824Z" fill="#12144A"/>
<path d="M48.005 25.162C47.4063 25.162 46.8546 25.0683 46.3497 24.8808C45.8521 24.686 45.4157 24.412 45.0407 24.0586C44.6728 23.7051 44.3843 23.2904 44.1752 22.8144C43.9732 22.3384 43.8723 21.8155 43.8723 21.2457C43.8723 20.6759 43.9732 20.153 44.1752 19.677C44.3843 19.201 44.6764 18.7863 45.0515 18.4329C45.4265 18.0795 45.8665 17.809 46.3713 17.6215C46.8762 17.4268 47.4316 17.3294 48.0374 17.3294C48.7082 17.3294 49.3104 17.4412 49.8441 17.6648C50.385 17.8884 50.8394 18.2129 51.2073 18.6384L50.0821 19.677C49.8081 19.3885 49.5087 19.1758 49.1842 19.0387C48.8596 18.8945 48.5062 18.8224 48.124 18.8224C47.7561 18.8224 47.4208 18.8801 47.1178 18.9955C46.8149 19.1109 46.5517 19.2767 46.3281 19.4931C46.1117 19.7095 45.9422 19.9655 45.8196 20.2612C45.7042 20.5569 45.6465 20.8851 45.6465 21.2457C45.6465 21.5991 45.7042 21.9237 45.8196 22.2194C45.9422 22.5151 46.1117 22.7747 46.3281 22.9983C46.5517 23.2147 46.8113 23.3806 47.107 23.496C47.4099 23.6114 47.7417 23.6691 48.1023 23.6691C48.4485 23.6691 48.7839 23.615 49.1085 23.5068C49.4402 23.3914 49.7612 23.2003 50.0713 22.9334L51.0666 24.1992C50.6555 24.5093 50.1759 24.7473 49.6277 24.9132C49.0868 25.0791 48.5459 25.162 48.005 25.162ZM51.0666 24.1992L49.4655 23.972V21.1267H51.0666V24.1992ZM55.3452 25.1188C54.7249 25.1188 54.1732 24.989 53.69 24.7293C53.2139 24.4697 52.8353 24.1163 52.554 23.6691C52.2799 23.2147 52.1429 22.699 52.1429 22.122C52.1429 21.5378 52.2799 21.0221 52.554 20.575C52.8353 20.1206 53.2139 19.7672 53.69 19.5147C54.1732 19.2551 54.7249 19.1253 55.3452 19.1253C55.9583 19.1253 56.5064 19.2551 56.9896 19.5147C57.4729 19.7672 57.8515 20.117 58.1256 20.5641C58.3996 21.0113 58.5367 21.5306 58.5367 22.122C58.5367 22.699 58.3996 23.2147 58.1256 23.6691C57.8515 24.1163 57.4729 24.4697 56.9896 24.7293C56.5064 24.989 55.9583 25.1188 55.3452 25.1188ZM55.3452 23.734C55.6265 23.734 55.8789 23.6691 56.1025 23.5393C56.3261 23.4094 56.5028 23.2255 56.6326 22.9875C56.7624 22.7423 56.8273 22.4538 56.8273 22.122C56.8273 21.783 56.7624 21.4945 56.6326 21.2565C56.5028 21.0185 56.3261 20.8346 56.1025 20.7048C55.8789 20.575 55.6265 20.5101 55.3452 20.5101C55.0639 20.5101 54.8115 20.575 54.5879 20.7048C54.3643 20.8346 54.184 21.0185 54.047 21.2565C53.9171 21.4945 53.8522 21.783 53.8522 22.122C53.8522 22.4538 53.9171 22.7423 54.047 22.9875C54.184 23.2255 54.3643 23.4094 54.5879 23.5393C54.8115 23.6691 55.0639 23.734 55.3452 23.734ZM62.4343 25.1188C61.8141 25.1188 61.2623 24.989 60.7791 24.7293C60.3031 24.4697 59.9244 24.1163 59.6431 23.6691C59.3691 23.2147 59.232 22.699 59.232 22.122C59.232 21.5378 59.3691 21.0221 59.6431 20.575C59.9244 20.1206 60.3031 19.7672 60.7791 19.5147C61.2623 19.2551 61.8141 19.1253 62.4343 19.1253C63.0474 19.1253 63.5955 19.2551 64.0788 19.5147C64.562 19.7672 64.9406 20.117 65.2147 20.5641C65.4888 21.0113 65.6258 21.5306 65.6258 22.122C65.6258 22.699 65.4888 23.2147 65.2147 23.6691C64.9406 24.1163 64.562 24.4697 64.0788 24.7293C63.5955 24.989 63.0474 25.1188 62.4343 25.1188ZM62.4343 23.734C62.7156 23.734 62.968 23.6691 63.1916 23.5393C63.4152 23.4094 63.5919 23.2255 63.7217 22.9875C63.8516 22.7423 63.9165 22.4538 63.9165 22.122C63.9165 21.783 63.8516 21.4945 63.7217 21.2565C63.5919 21.0185 63.4152 20.8346 63.1916 20.7048C62.968 20.575 62.7156 20.5101 62.4343 20.5101C62.153 20.5101 61.9006 20.575 61.677 20.7048C61.4534 20.8346 61.2731 21.0185 61.1361 21.2565C61.0063 21.4945 60.9414 21.783 60.9414 22.122C60.9414 22.4538 61.0063 22.7423 61.1361 22.9875C61.2731 23.2255 61.4534 23.4094 61.677 23.5393C61.9006 23.6691 62.153 23.734 62.4343 23.734ZM69.491 27.2176C68.9429 27.2176 68.4128 27.1491 67.9007 27.012C67.3958 26.8822 66.9739 26.6839 66.6349 26.417L67.3057 25.2053C67.5509 25.4073 67.861 25.5659 68.2361 25.6813C68.6183 25.804 68.9934 25.8653 69.3612 25.8653C69.9598 25.8653 70.3926 25.7318 70.6594 25.465C70.9335 25.1981 71.0705 24.8014 71.0705 24.2749V23.3986L71.1787 21.9381L71.1571 20.4668V19.2118H72.7582V24.0586C72.7582 25.1404 72.4769 25.9374 71.9144 26.4495C71.3518 26.9615 70.544 27.2176 69.491 27.2176ZM69.2314 24.7509C68.6904 24.7509 68.2 24.6355 67.76 24.4047C67.3273 24.1667 66.9775 23.8386 66.7106 23.4203C66.451 22.9947 66.3212 22.5007 66.3212 21.9381C66.3212 21.3683 66.451 20.8743 66.7106 20.456C66.9775 20.0304 67.3273 19.7023 67.76 19.4715C68.2 19.2407 68.6904 19.1253 69.2314 19.1253C69.7218 19.1253 70.1545 19.2263 70.5296 19.4282C70.9046 19.6229 71.1967 19.9295 71.4059 20.3478C71.6151 20.7589 71.7196 21.289 71.7196 21.9381C71.7196 22.58 71.6151 23.1101 71.4059 23.5284C71.1967 23.9395 70.9046 24.2461 70.5296 24.448C70.1545 24.65 69.7218 24.7509 69.2314 24.7509ZM69.5667 23.3662C69.8624 23.3662 70.1257 23.3085 70.3565 23.1931C70.5873 23.0705 70.7676 22.901 70.8974 22.6846C71.0272 22.4682 71.0922 22.2194 71.0922 21.9381C71.0922 21.6496 71.0272 21.4008 70.8974 21.1916C70.7676 20.9753 70.5873 20.8094 70.3565 20.694C70.1257 20.5714 69.8624 20.5101 69.5667 20.5101C69.271 20.5101 69.0078 20.5714 68.777 20.694C68.5462 20.8094 68.3623 20.9753 68.2252 21.1916C68.0954 21.4008 68.0305 21.6496 68.0305 21.9381C68.0305 22.2194 68.0954 22.4682 68.2252 22.6846C68.3623 22.901 68.5462 23.0705 68.777 23.1931C69.0078 23.3085 69.271 23.3662 69.5667 23.3662ZM74.329 25.0322V17.0048H76.0167V25.0322H74.329ZM80.4716 25.1188C79.8081 25.1188 79.2239 24.989 78.719 24.7293C78.2214 24.4697 77.8355 24.1163 77.5614 23.6691C77.2874 23.2147 77.1503 22.699 77.1503 22.122C77.1503 21.5378 77.2837 21.0221 77.5506 20.575C77.8247 20.1206 78.1961 19.7672 78.6649 19.5147C79.1337 19.2551 79.6638 19.1253 80.2553 19.1253C80.825 19.1253 81.3371 19.2479 81.7915 19.4931C82.2531 19.7311 82.6173 20.0773 82.8842 20.5317C83.151 20.9789 83.2845 21.5162 83.2845 22.1437C83.2845 22.2086 83.2809 22.2843 83.2736 22.3709C83.2664 22.4502 83.2592 22.5259 83.252 22.598H78.5243V21.6136H82.3649L81.7158 21.9057C81.7158 21.6027 81.6545 21.3395 81.5318 21.1159C81.4092 20.8923 81.2397 20.7192 81.0234 20.5966C80.807 20.4668 80.5546 20.4019 80.2661 20.4019C79.9776 20.4019 79.7215 20.4668 79.498 20.5966C79.2816 20.7192 79.1121 20.8959 78.9895 21.1267C78.8669 21.3503 78.8056 21.6172 78.8056 21.9273V22.1869C78.8056 22.5043 78.8741 22.7856 79.0111 23.0308C79.1554 23.2688 79.3537 23.4527 79.6061 23.5825C79.8658 23.7051 80.1687 23.7665 80.5149 23.7665C80.825 23.7665 81.0955 23.7196 81.3263 23.6258C81.5643 23.532 81.7807 23.3914 81.9754 23.2039L82.8734 24.1776C82.6065 24.4805 82.2711 24.7149 81.8672 24.8808C81.4633 25.0394 80.9981 25.1188 80.4716 25.1188ZM87.5909 25.0322V17.4592H90.869C91.5469 17.4592 92.1311 17.571 92.6216 17.7946C93.112 18.011 93.4907 18.3247 93.7575 18.7358C94.0244 19.1469 94.1578 19.6374 94.1578 20.2071C94.1578 20.7697 94.0244 21.2565 93.7575 21.6676C93.4907 22.0788 93.112 22.3961 92.6216 22.6197C92.1311 22.8361 91.5469 22.9442 90.869 22.9442H88.5646L89.3435 22.1545V25.0322H87.5909ZM89.3435 22.3492L88.5646 21.5162H90.7716C91.3125 21.5162 91.7164 21.4008 91.9833 21.17C92.2501 20.9392 92.3836 20.6182 92.3836 20.2071C92.3836 19.7888 92.2501 19.4643 91.9833 19.2335C91.7164 19.0027 91.3125 18.8873 90.7716 18.8873H88.5646L89.3435 18.0542V22.3492ZM95.3957 25.0322V17.0048H97.0834V25.0322H95.3957ZM102.22 25.0322V23.8963L102.112 23.6474V21.6136C102.112 21.2529 102 20.9716 101.776 20.7697C101.56 20.5678 101.225 20.4668 100.77 20.4668C100.46 20.4668 100.154 20.5173 99.8506 20.6182C99.5549 20.712 99.3024 20.8418 99.0933 21.0077L98.4874 19.8285C98.8048 19.6049 99.187 19.4318 99.6342 19.3092C100.081 19.1866 100.536 19.1253 100.997 19.1253C101.884 19.1253 102.573 19.3344 103.064 19.7528C103.554 20.1711 103.799 20.8238 103.799 21.7109V25.0322H102.22ZM100.446 25.1188C99.9912 25.1188 99.6018 25.043 99.2772 24.8916C98.9526 24.7329 98.7038 24.5201 98.5307 24.2533C98.3576 23.9864 98.2711 23.6871 98.2711 23.3553C98.2711 23.0092 98.354 22.7062 98.5199 22.4466C98.693 22.1869 98.9635 21.985 99.3313 21.8407C99.6991 21.6893 100.179 21.6136 100.77 21.6136H102.317V22.598H100.954C100.557 22.598 100.283 22.663 100.132 22.7928C99.9876 22.9226 99.9155 23.0849 99.9155 23.2796C99.9155 23.496 99.9984 23.6691 100.164 23.7989C100.337 23.9215 100.572 23.9828 100.868 23.9828C101.149 23.9828 101.401 23.9179 101.625 23.7881C101.848 23.6511 102.011 23.4527 102.112 23.1931L102.371 23.972C102.249 24.347 102.025 24.6319 101.701 24.8267C101.376 25.0214 100.958 25.1188 100.446 25.1188ZM105.957 27.2176C105.654 27.2176 105.355 27.1707 105.059 27.0769C104.763 26.9832 104.522 26.8534 104.334 26.6875L104.951 25.4866C105.081 25.602 105.228 25.6922 105.394 25.7571C105.567 25.822 105.737 25.8544 105.903 25.8544C106.141 25.8544 106.328 25.7967 106.465 25.6813C106.61 25.5732 106.739 25.3892 106.855 25.1296L107.158 24.4156L107.288 24.2317L109.376 19.2118H110.998L108.369 25.3892C108.182 25.858 107.965 26.2259 107.72 26.4927C107.482 26.7596 107.215 26.9471 106.92 27.0553C106.631 27.1635 106.31 27.2176 105.957 27.2176ZM106.952 25.2594L104.356 19.2118H106.097L108.11 24.0802L106.952 25.2594Z" fill="#12144A"/>
</svg>
