<svg width="100" height="30" viewBox="0 0 100 30" fill="none" xmlns="http://www.w3.org/2000/svg">
<g clip-path="url(#clip0_1267_68177)">
<path d="M97.5788 0.407715H2.04086C1.13917 0.407715 0.408203 1.13782 0.408203 2.03845V27.3148C0.408203 28.2155 1.13917 28.9456 2.04086 28.9456H97.5788C98.4805 28.9456 99.2115 28.2155 99.2115 27.3148V2.03845C99.2115 1.13782 98.4805 0.407715 97.5788 0.407715Z" stroke="white" stroke-width="0.995025"/>
<path d="M35.7616 7.68711C35.7616 8.24881 35.621 8.74032 35.2696 9.09137C34.8478 9.51263 34.3557 9.72328 33.7231 9.72328C33.0904 9.72328 32.5984 9.51263 32.1766 9.09137C31.7548 8.67007 31.5439 8.17861 31.5439 7.5467C31.5439 6.91479 31.7548 6.42333 32.1766 6.00203C32.5984 5.58077 33.0904 5.37012 33.7231 5.37012C34.0043 5.37012 34.2855 5.44032 34.5666 5.58077C34.8478 5.72117 35.0587 5.86162 35.1993 6.07223L34.8478 6.42329C34.5666 6.07223 34.2151 5.93182 33.7231 5.93182C33.3013 5.93182 32.8795 6.07223 32.5984 6.42329C32.2469 6.70414 32.1063 7.12544 32.1063 7.6169C32.1063 8.10841 32.2469 8.52967 32.5984 8.81052C32.9498 9.09137 33.3013 9.30198 33.7231 9.30198C34.2151 9.30198 34.5666 9.16158 34.9181 8.81052C35.129 8.59987 35.2696 8.31902 35.2696 7.96796H33.7231V7.4765H35.7616C35.7616 7.4765 35.7616 7.5467 35.7616 7.68711Z" fill="white" stroke="white" stroke-width="0.0995025" stroke-miterlimit="10"/>
<path d="M38.9955 5.93182H37.0975V7.26585H38.8549V7.75735H37.0975V9.09137H38.9955V9.58284H36.5352V5.37012H38.9955V5.93182Z" fill="white" stroke="white" stroke-width="0.0995025" stroke-miterlimit="10"/>
<path d="M41.3152 9.58284H40.7526V5.86162H39.5576V5.37012H42.5099V5.86162H41.3152V9.58284Z" fill="white" stroke="white" stroke-width="0.0995025" stroke-miterlimit="10"/>
<path d="M44.5488 9.58284V5.37012H45.1109V9.58284H44.5488Z" fill="white" stroke="white" stroke-width="0.0995025" stroke-miterlimit="10"/>
<path d="M47.5013 9.58284H46.9392V5.86162H45.7441V5.37012H48.6262V5.86162H47.4311V9.58284H47.5013Z" fill="white" stroke="white" stroke-width="0.0995025" stroke-miterlimit="10"/>
<path d="M54.1788 9.09137C53.7572 9.51263 53.265 9.72328 52.6323 9.72328C51.9997 9.72328 51.5078 9.51263 51.0858 9.09137C50.6641 8.67007 50.4531 8.17861 50.4531 7.5467C50.4531 6.91479 50.6641 6.42333 51.0858 6.00203C51.5078 5.58077 51.9997 5.37012 52.6323 5.37012C53.265 5.37012 53.7572 5.58077 54.1788 6.00203C54.6005 6.42333 54.8115 6.91479 54.8115 7.5467C54.8115 8.10841 54.6005 8.67007 54.1788 9.09137ZM51.5078 8.74032C51.789 9.02117 52.2107 9.23178 52.6323 9.23178C53.0543 9.23178 53.476 9.09137 53.7572 8.74032C54.0384 8.45946 54.249 8.0382 54.249 7.5467C54.249 7.0552 54.1086 6.63394 53.7572 6.35308C53.476 6.07223 53.0543 5.86162 52.6323 5.86162C52.2107 5.86162 51.789 6.00203 51.5078 6.35308C51.2266 6.63394 51.0156 7.0552 51.0156 7.5467C51.0156 7.96796 51.1564 8.38926 51.5078 8.74032Z" fill="white" stroke="white" stroke-width="0.0995025" stroke-miterlimit="10"/>
<path d="M55.585 9.58284V5.37012H56.2176L58.256 8.67007V7.82755V5.37012H58.8184V9.58284H58.256L56.0768 6.14247V6.98499V9.58284H55.585Z" fill="white" stroke="white" stroke-width="0.0995025" stroke-miterlimit="10"/>
<path d="M50.3126 15.7614C48.6256 15.7614 47.2901 17.0252 47.2901 18.7805C47.2901 20.4656 48.6256 21.7996 50.3126 21.7996C51.9995 21.7996 53.3354 20.5358 53.3354 18.7805C53.3354 17.0252 51.9995 15.7614 50.3126 15.7614ZM50.3126 20.5358C49.3987 20.5358 48.6256 19.7635 48.6256 18.7103C48.6256 17.6571 49.3987 16.8848 50.3126 16.8848C51.2264 16.8848 51.9995 17.5869 51.9995 18.7103C51.9995 19.8337 51.2264 20.5358 50.3126 20.5358ZM43.775 15.7614C42.0881 15.7614 40.7525 17.0252 40.7525 18.7805C40.7525 20.4656 42.0881 21.7996 43.775 21.7996C45.4624 21.7996 46.7979 20.5358 46.7979 18.7805C46.7979 17.0252 45.4624 15.7614 43.775 15.7614ZM43.775 20.5358C42.8615 20.5358 42.0881 19.7635 42.0881 18.7103C42.0881 17.6571 42.8615 16.8848 43.775 16.8848C44.6889 16.8848 45.4624 17.5869 45.4624 18.7103C45.4624 19.8337 44.6889 20.5358 43.775 20.5358ZM35.9725 16.6741V17.938H38.9951C38.9248 18.6401 38.6437 19.2018 38.2922 19.5528C37.8704 19.9741 37.1675 20.4656 35.9725 20.4656C34.0745 20.4656 32.6686 18.9911 32.6686 17.0954C32.6686 15.1997 34.1448 13.7252 35.9725 13.7252C36.9566 13.7252 37.7298 14.1465 38.2922 14.638L39.206 13.7252C38.4328 13.0231 37.4486 12.4614 36.0428 12.4614C33.5122 12.4614 31.333 14.5678 31.333 17.0954C31.333 19.623 33.5122 21.7294 36.0428 21.7294C37.4486 21.7294 38.4328 21.3082 39.2763 20.3954C40.1199 19.5528 40.401 18.3592 40.401 17.4465C40.401 17.1656 40.401 16.8848 40.3307 16.6741H35.9725ZM67.8864 17.6571C67.6052 16.955 66.9019 15.7614 65.3558 15.7614C63.8093 15.7614 62.544 16.955 62.544 18.7805C62.544 20.4656 63.8093 21.7996 65.4962 21.7996C66.8317 21.7996 67.6754 20.9571 67.9566 20.4656L66.9726 19.7635C66.6211 20.255 66.1991 20.606 65.4962 20.606C64.7934 20.606 64.3713 20.3252 64.0199 19.6933L68.0268 18.0082L67.8864 17.6571ZM63.8093 18.6401C63.8093 17.5167 64.7232 16.8848 65.3558 16.8848C65.8477 16.8848 66.3399 17.1656 66.4803 17.5167L63.8093 18.6401ZM60.5052 21.5188H61.8407V12.7423H60.5052V21.5188ZM58.3966 16.3933C58.0448 16.0422 57.4828 15.6912 56.7795 15.6912C55.3036 15.6912 53.8975 17.0252 53.8975 18.7103C53.8975 20.3954 55.2334 21.6592 56.7795 21.6592C57.4828 21.6592 58.0448 21.3082 58.326 20.9571H58.3966V21.3784C58.3966 22.5017 57.764 23.1336 56.7795 23.1336C56.0064 23.1336 55.444 22.572 55.3036 22.0805L54.1787 22.572C54.5301 23.3443 55.3738 24.3273 56.8501 24.3273C58.3966 24.3273 59.6619 23.4145 59.6619 21.238V15.9018H58.3966V16.3933ZM56.8501 20.5358C55.9362 20.5358 55.1628 19.7635 55.1628 18.7103C55.1628 17.6571 55.9362 16.8848 56.8501 16.8848C57.764 16.8848 58.4668 17.6571 58.4668 18.7103C58.4668 19.7635 57.764 20.5358 56.8501 20.5358ZM74.0019 12.7423H70.8387V21.5188H72.1742V18.2188H74.0019C75.4779 18.2188 76.884 17.1656 76.884 15.4806C76.884 13.7954 75.4779 12.7423 74.0019 12.7423ZM74.0722 17.0252H72.1742V14.0061H74.0722C75.0562 14.0061 75.6187 14.8487 75.6187 15.4806C75.5485 16.1827 74.986 17.0252 74.0722 17.0252ZM82.1562 15.7614C81.1717 15.7614 80.1877 16.1827 79.8362 17.0954L81.0313 17.5869C81.3126 17.0954 81.7342 16.955 82.2264 16.955C82.9293 16.955 83.5619 17.3763 83.6321 18.0784V18.1486C83.4215 18.0082 82.8591 17.7976 82.2966 17.7976C81.0313 17.7976 79.766 18.4997 79.766 19.7635C79.766 20.9571 80.8203 21.7294 81.9452 21.7294C82.8591 21.7294 83.2807 21.3082 83.6321 20.8869H83.7024V21.589H84.9677V18.2188C84.8273 16.6039 83.6322 15.7614 82.1562 15.7614ZM82.0154 20.5358C81.5938 20.5358 80.9611 20.3252 80.9611 19.7635C80.9611 19.0614 81.7342 18.8507 82.3668 18.8507C82.9293 18.8507 83.2105 18.9912 83.5619 19.1316C83.4215 19.9741 82.7183 20.5358 82.0154 20.5358ZM89.3962 15.9018L87.9203 19.6933H87.8501L86.3036 15.9018H84.8975L87.2175 21.238L85.8815 24.1869H87.2175L90.8024 15.9018H89.3962ZM77.5868 21.5188H78.9224V12.7423H77.5868V21.5188Z" fill="white"/>
<path d="M9.40125 23.2743C9.12006 23.1339 8.97949 22.7828 8.97949 22.4318C8.97949 22.3615 8.97949 22.2211 8.97949 22.1509C8.97949 16.9552 8.97949 11.7595 8.97949 6.63401C8.97949 6.35315 9.04978 6.14254 9.12006 5.86169C9.19039 5.72124 9.33096 5.58084 9.47157 5.44043C12.4942 8.45953 15.4466 11.4786 18.399 14.4978C15.3763 17.3062 12.4239 20.2552 9.40125 23.2743Z" fill="white"/>
<path d="M21.3517 11.4083C20.5081 12.2508 19.5943 13.0933 18.7508 14.0061C15.939 11.1274 13.0569 8.2487 10.2451 5.37001C10.2451 5.37001 10.2451 5.2998 10.3154 5.2998C13.9707 7.33594 17.6261 9.37212 21.3517 11.4083Z" fill="white"/>
<path d="M10.2451 23.2741C13.0569 20.4656 15.939 17.6571 18.7508 14.8486C19.524 15.6209 20.3676 16.3933 21.2814 17.2358C17.6261 19.272 13.9707 21.3081 10.3154 23.2741H10.2451Z" fill="white"/>
<path d="M21.7737 16.9551C20.8599 16.1126 20.0164 15.27 19.1025 14.4275C20.0164 13.5147 20.9302 12.602 21.844 11.6892C22.1252 11.8296 22.4064 11.9701 22.6876 12.1807C23.3905 12.602 24.1638 12.953 24.8667 13.3743C25.0776 13.4445 25.2182 13.5849 25.3587 13.7955C25.6399 14.1466 25.6399 14.4977 25.3587 14.8488C25.2182 14.9892 25.0776 15.1296 24.8667 15.1998C23.8826 15.8317 22.8282 16.3934 21.7737 16.9551Z" fill="white"/>
</g>
<defs>
<clipPath id="clip0_1267_68177">
<rect width="100" height="29.3532" fill="white"/>
</clipPath>
</defs>
</svg>
