<svg width="27" height="27" viewBox="0 0 27 27" fill="none" xmlns="http://www.w3.org/2000/svg">
<path d="M8.75047 10.9349C8.75047 10.6448 8.86574 10.3667 9.07087 10.1615C9.27592 9.95642 9.55417 9.84122 9.84419 9.84122H16.4065C16.6966 9.84122 16.9747 9.95642 17.1799 10.1615C17.385 10.3667 17.5003 10.6448 17.5003 10.9349C17.5003 11.225 17.385 11.5032 17.1799 11.7083C16.9747 11.9135 16.6966 12.0287 16.4065 12.0287H9.84419C9.55417 12.0287 9.27592 11.9135 9.07087 11.7083C8.86574 11.5032 8.75047 11.225 8.75047 10.9349ZM9.84419 14.2162C9.55417 14.2162 9.27592 14.3315 9.07087 14.5366C8.86574 14.7416 8.75047 15.0199 8.75047 15.31C8.75047 15.6 8.86574 15.8783 9.07087 16.0833C9.27592 16.2884 9.55417 16.4037 9.84419 16.4037H14.2191C14.5091 16.4037 14.7874 16.2884 14.9925 16.0833C15.1975 15.8783 15.3128 15.6 15.3128 15.31C15.3128 15.0199 15.1975 14.7416 14.9925 14.5366C14.7874 14.3315 14.5091 14.2162 14.2191 14.2162H9.84419ZM0.00074433 13.1225C0.00134433 10.2329 0.95542 7.42427 2.71499 5.13227C4.47464 2.84027 6.94147 1.19304 9.73274 0.44612C12.524 -0.30088 15.4838 -0.105731 18.1529 1.00112C20.822 2.10804 23.0512 4.06479 24.4948 6.56799C25.9383 9.07112 26.5155 11.9807 26.1367 14.8454C25.758 17.71 24.4445 20.3696 22.4 22.4116C20.3556 24.4535 17.6944 25.7637 14.8294 26.1389C11.9644 26.5141 9.05557 25.9332 6.55432 24.4865L1.44007 26.1928C1.25114 26.2559 1.04857 26.2661 0.85417 26.2225C0.659845 26.1788 0.481044 26.083 0.337194 25.9452C0.193344 25.8074 0.089844 25.633 0.037869 25.4407C-0.014106 25.2483 -0.0125307 25.0455 0.0422942 24.854L1.59974 19.4049C0.547644 17.4783 -0.00225567 15.3176 0.00074433 13.1225ZM13.1254 2.18499C11.1943 2.18484 9.29752 2.69604 7.62802 3.66654C5.95852 4.63712 4.57567 6.03242 3.62017 7.71062C2.66467 9.38882 2.17049 11.2901 2.18797 13.2212C2.20537 15.1522 2.73374 17.0443 3.71939 18.7049C3.79522 18.8333 3.84404 18.9757 3.86287 19.1235C3.88169 19.2713 3.87007 19.4214 3.82874 19.5647L2.71537 23.4584L6.34214 22.2509C6.49612 22.1995 6.65969 22.183 6.82087 22.2027C6.98204 22.2224 7.13684 22.2777 7.27394 22.3646C8.70735 23.2718 10.3321 23.8331 12.0196 24.0041C13.7073 24.1753 15.4116 23.9515 16.9978 23.3504C18.5841 22.7495 20.0088 21.7877 21.1594 20.5412C22.3099 19.2947 23.1548 17.7977 23.6272 16.1685C24.0997 14.5394 24.1867 12.8225 23.8814 11.1539C23.5761 9.48527 22.8868 7.91057 21.8682 6.55419C20.8495 5.19774 19.5293 4.09689 18.0119 3.33864C16.4946 2.58032 14.8216 2.18537 13.1254 2.18499Z" fill="white"/>
</svg>
