<svg width="28" height="24" viewBox="0 0 28 24" fill="none" xmlns="http://www.w3.org/2000/svg">
<path d="M12.9769 3.42607C12.4625 2.81033 11.8474 2.29606 11.1471 1.8962C10.1184 1.31175 8.93917 1 7.73827 1C4.09036 1 1.12893 3.8674 1.00451 7.55117C0.940945 9.41322 1.54832 11.3535 2.89697 13.3349C3.04499 13.5519 3.53748 14.0748 4.35002 14.8532C5.12916 15.5996 6.1234 16.5075 7.18993 17.4608C9.3217 19.3662 11.7188 21.4315 13.2097 22.7068C13.667 23.0978 14.3318 23.0977 14.789 22.7067C16.28 21.4314 18.6773 19.3657 20.8091 17.4603C21.8757 16.5069 22.87 15.599 23.6491 14.8527C24.462 14.074 24.9545 13.551 25.1021 13.3345C26.4517 11.3535 27.0581 9.41275 26.9956 7.55104C26.8705 3.86706 23.9084 1 20.261 1C19.0606 1 17.8817 1.31168 16.8527 1.89627C16.1528 2.296 15.5375 2.8102 15.0221 3.42607C15.0219 3.42634 15.0216 3.42661 15.0214 3.42695L14.7792 3.71719L13.999 4.65216L13.2193 3.71685L12.9769 3.42607ZM12.9769 3.42607C12.9771 3.42621 12.9769 3.426 12.9769 3.42607Z" stroke="white" stroke-width="2"/>
</svg>
