<svg width="30" height="27" viewBox="0 0 30 27" fill="none" xmlns="http://www.w3.org/2000/svg">
<path d="M22.6396 1H22.9281C25.5121 1 26.8041 1 27.6068 1.80273C28.4095 2.60545 28.4095 3.89744 28.4095 6.48143V6.76997" stroke="white" stroke-width="2" stroke-linecap="round"/>
<path d="M22.6396 25.5219H22.9281C25.5121 25.5219 26.8041 25.5219 27.6068 24.7192C28.4095 23.9165 28.4095 22.6245 28.4095 20.0405V19.752" stroke="white" stroke-width="2" stroke-linecap="round"/>
<path d="M6.76989 1H6.48141C3.89744 1 2.60545 1 1.80272 1.80273C1 2.60545 1 3.89744 1 6.48143V6.76997" stroke="white" stroke-width="2" stroke-linecap="round"/>
<path d="M6.76989 25.5219H6.48141C3.89744 25.5219 2.60545 25.5219 1.80272 24.7192C1 23.9165 1 22.6245 1 20.0405V19.752" stroke="white" stroke-width="2" stroke-linecap="round"/>
<path d="M7.98242 18.8465C8.64065 17.8965 9.60157 17.0879 10.7847 16.5187C11.9679 15.9495 13.3202 15.6455 14.704 15.6455C16.0879 15.6455 17.4402 15.9495 18.6234 16.5187C19.8065 17.0879 20.7674 17.8965 21.4257 18.8465" stroke="white" stroke-width="2" stroke-linecap="round"/>
<path d="M14.7045 12.3194C16.5746 12.3194 18.0906 10.8034 18.0906 8.93326C18.0906 7.06314 16.5746 5.54712 14.7045 5.54712C12.8344 5.54712 11.3184 7.06314 11.3184 8.93326C11.3184 10.8034 12.8344 12.3194 14.7045 12.3194Z" stroke="white" stroke-width="2" stroke-linecap="round"/>
</svg>
