<svg width="151" height="108" viewBox="0 0 151 108" fill="none" xmlns="http://www.w3.org/2000/svg">
<rect x="2.61816" y="69.7246" width="9.60114" height="23.5664" rx="4.80057" fill="url(#paint0_linear_1267_68269)"/>
<rect x="25.3115" y="63.6147" width="9.60114" height="29.6762" rx="4.80057" fill="url(#paint1_linear_1267_68269)"/>
<rect x="48.0049" y="55.7593" width="9.60114" height="37.5317" rx="4.80057" fill="url(#paint2_linear_1267_68269)"/>
<rect x="70.6992" y="45.2852" width="9.60114" height="48.0057" rx="4.80057" fill="url(#paint3_linear_1267_68269)"/>
<rect x="93.3926" y="31.3203" width="9.60114" height="61.971" rx="4.80057" fill="url(#paint4_linear_1267_68269)"/>
<rect x="116.086" y="19.1006" width="9.60114" height="74.1906" rx="4.80057" fill="url(#paint5_linear_1267_68269)"/>
<rect x="138.779" y="5.13525" width="9.60114" height="88.1559" rx="4.80057" fill="url(#paint6_linear_1267_68269)"/>
<path d="M3.13865 100.904L0.2604 100.91V100.364L1.61781 99.2198C1.90037 98.9798 2.09521 98.7784 2.20232 98.6159C2.31128 98.4516 2.36576 98.2706 2.36576 98.073C2.36576 97.8384 2.30482 97.6574 2.18293 97.53C2.06289 97.4007 1.89298 97.3361 1.67321 97.3361C1.44605 97.3361 1.26599 97.4118 1.13302 97.5632C1.00005 97.7128 0.932639 97.9206 0.930792 98.1865H0.210536C0.212383 97.7322 0.346277 97.3693 0.612218 97.0979C0.880005 96.8245 1.23367 96.6879 1.67321 96.6879C2.11644 96.6879 2.46641 96.8079 2.72312 97.048C2.97983 97.2862 3.10818 97.615 3.10818 98.0342C3.10818 98.3131 3.03246 98.5716 2.88102 98.8098C2.73143 99.0462 2.49135 99.3057 2.16077 99.5883L1.41281 100.228H3.13865V100.904ZM3.79242 99.9678C3.65391 99.6464 3.58466 99.2725 3.58466 98.8459C3.58466 98.4192 3.65668 98.0425 3.80074 97.7156C3.94479 97.3887 4.14978 97.1348 4.41572 96.9538C4.68166 96.7728 4.98916 96.6823 5.3382 96.6823C5.68725 96.6823 5.99475 96.7728 6.26069 96.9538C6.52847 97.1348 6.73439 97.3887 6.87844 97.7156C7.02434 98.0425 7.09729 98.4192 7.09729 98.8459C7.09729 99.2725 7.02711 99.6464 6.88676 99.9678C6.74824 100.289 6.54602 100.539 6.28008 100.719C6.01414 100.896 5.70018 100.984 5.3382 100.984C4.97623 100.984 4.66227 100.896 4.39633 100.719C4.13224 100.539 3.93094 100.289 3.79242 99.9678ZM4.29937 98.8459C4.29937 99.3223 4.38987 99.6908 4.57086 99.9512C4.75369 100.212 5.00947 100.342 5.3382 100.342C5.66878 100.342 5.92549 100.212 6.10832 99.9539C6.29116 99.6935 6.38258 99.3242 6.38258 98.8459C6.38258 98.3583 6.29116 97.9834 6.10832 97.7212C5.92549 97.4571 5.66878 97.325 5.3382 97.325C5.00947 97.325 4.75369 97.4571 4.57086 97.7212C4.38987 97.9834 4.29937 98.3583 4.29937 98.8459ZM10.4797 100.904L7.60147 100.91V100.364L8.95888 99.2198C9.24144 98.9798 9.43628 98.7784 9.54339 98.6159C9.65235 98.4516 9.70683 98.2706 9.70683 98.073C9.70683 97.8384 9.64589 97.6574 9.524 97.53C9.40396 97.4007 9.23405 97.3361 9.01428 97.3361C8.78712 97.3361 8.60706 97.4118 8.47409 97.5632C8.34112 97.7128 8.27371 97.9206 8.27186 98.1865H7.55161C7.55345 97.7322 7.68735 97.3693 7.95329 97.0979C8.22108 96.8245 8.57474 96.6879 9.01428 96.6879C9.45751 96.6879 9.80749 96.8079 10.0642 97.048C10.3209 97.2862 10.4493 97.615 10.4493 98.0342C10.4493 98.3131 10.3735 98.5716 10.2221 98.8098C10.0725 99.0462 9.83242 99.3057 9.50184 99.5883L8.75388 100.228H10.4797V100.904ZM12.1889 98.8569H11.6848V98.386L12.7513 97.4026H11.0282V96.7627H13.6599V97.3416L12.6488 98.2724C12.9812 98.3371 13.2527 98.4857 13.4632 98.7184C13.6738 98.9493 13.7791 99.2411 13.7791 99.5938C13.7791 99.8025 13.7393 99.9946 13.6599 100.17C13.5824 100.344 13.4762 100.49 13.3414 100.61C13.2065 100.729 13.0468 100.821 12.8621 100.888C12.6793 100.952 12.4835 100.984 12.2748 100.984C12.0015 100.984 11.7568 100.932 11.5407 100.827C11.3265 100.719 11.1547 100.56 11.0255 100.347C10.898 100.133 10.8343 99.8801 10.8343 99.5883H11.549C11.549 99.8228 11.6155 100.007 11.7485 100.14C11.8815 100.271 12.0606 100.336 12.2859 100.336C12.5131 100.336 12.6959 100.268 12.8344 100.131C12.9729 99.9946 13.0422 99.8117 13.0422 99.5827C13.0422 99.363 12.9692 99.1875 12.8233 99.0564C12.6793 98.9234 12.4678 98.8569 12.1889 98.8569Z" fill="white"/>
<path d="M25.832 100.904L22.9538 100.91V100.364L24.3112 99.2198C24.5937 98.9798 24.7886 98.7784 24.8957 98.6159C25.0046 98.4516 25.0591 98.2706 25.0591 98.073C25.0591 97.8384 24.9982 97.6574 24.8763 97.53C24.7562 97.4007 24.5863 97.3361 24.3666 97.3361C24.1394 97.3361 23.9593 97.4118 23.8264 97.5632C23.6934 97.7128 23.626 97.9206 23.6242 98.1865H22.9039C22.9057 97.7322 23.0396 97.3693 23.3056 97.0979C23.5734 96.8245 23.927 96.6879 24.3666 96.6879C24.8098 96.6879 25.1598 96.8079 25.4165 97.048C25.6732 97.2862 25.8015 97.615 25.8015 98.0342C25.8015 98.3131 25.7258 98.5716 25.5744 98.8098C25.4248 99.0462 25.1847 99.3057 24.8541 99.5883L24.1062 100.228H25.832V100.904ZM26.4858 99.9678C26.3473 99.6464 26.278 99.2725 26.278 98.8459C26.278 98.4192 26.35 98.0425 26.4941 97.7156C26.6381 97.3887 26.8431 97.1348 27.1091 96.9538C27.375 96.7728 27.6825 96.6823 28.0316 96.6823C28.3806 96.6823 28.6881 96.7728 28.954 96.9538C29.2218 97.1348 29.4278 97.3887 29.5718 97.7156C29.7177 98.0425 29.7907 98.4192 29.7907 98.8459C29.7907 99.2725 29.7205 99.6464 29.5801 99.9678C29.4416 100.289 29.2394 100.539 28.9734 100.719C28.7075 100.896 28.3935 100.984 28.0316 100.984C27.6696 100.984 27.3556 100.896 27.0897 100.719C26.8256 100.539 26.6243 100.289 26.4858 99.9678ZM26.9927 98.8459C26.9927 99.3223 27.0832 99.6908 27.2642 99.9512C27.447 100.212 27.7028 100.342 28.0316 100.342C28.3621 100.342 28.6188 100.212 28.8017 99.9539C28.9845 99.6935 29.0759 99.3242 29.0759 98.8459C29.0759 98.3583 28.9845 97.9834 28.8017 97.7212C28.6188 97.4571 28.3621 97.325 28.0316 97.325C27.7028 97.325 27.447 97.4571 27.2642 97.7212C27.0832 97.9834 26.9927 98.3583 26.9927 98.8459ZM33.1731 100.904L30.2948 100.91V100.364L31.6522 99.2198C31.9348 98.9798 32.1296 98.7784 32.2368 98.6159C32.3457 98.4516 32.4002 98.2706 32.4002 98.073C32.4002 97.8384 32.3392 97.6574 32.2174 97.53C32.0973 97.4007 31.9274 97.3361 31.7076 97.3361C31.4805 97.3361 31.3004 97.4118 31.1674 97.5632C31.0345 97.7128 30.9671 97.9206 30.9652 98.1865H30.245C30.2468 97.7322 30.3807 97.3693 30.6466 97.0979C30.9144 96.8245 31.2681 96.6879 31.7076 96.6879C32.1509 96.6879 32.5008 96.8079 32.7576 97.048C33.0143 97.2862 33.1426 97.615 33.1426 98.0342C33.1426 98.3131 33.0669 98.5716 32.9155 98.8098C32.7659 99.0462 32.5258 99.3057 32.1952 99.5883L31.4472 100.228H33.1731V100.904ZM34.8823 98.8569H34.3781V98.386L35.4447 97.4026H33.7216V96.7627H36.3533V97.3416L35.3422 98.2724C35.6746 98.3371 35.9461 98.4857 36.1566 98.7184C36.3671 98.9493 36.4724 99.2411 36.4724 99.5938C36.4724 99.8025 36.4327 99.9946 36.3533 100.17C36.2757 100.344 36.1695 100.49 36.0347 100.61C35.8999 100.729 35.7401 100.821 35.5555 100.888C35.3726 100.952 35.1769 100.984 34.9682 100.984C34.6949 100.984 34.4502 100.932 34.2341 100.827C34.0198 100.719 33.8481 100.56 33.7188 100.347C33.5914 100.133 33.5277 99.8801 33.5277 99.5883H34.2424C34.2424 99.8228 34.3089 100.007 34.4418 100.14C34.5748 100.271 34.754 100.336 34.9793 100.336C35.2064 100.336 35.3893 100.268 35.5278 100.131C35.6663 99.9946 35.7355 99.8117 35.7355 99.5827C35.7355 99.363 35.6626 99.1875 35.5167 99.0564C35.3726 98.9234 35.1612 98.8569 34.8823 98.8569Z" fill="white"/>
<path d="M48.5254 100.904L45.6471 100.91V100.364L47.0045 99.2198C47.2871 98.9798 47.4819 98.7784 47.589 98.6159C47.698 98.4516 47.7525 98.2706 47.7525 98.073C47.7525 97.8384 47.6915 97.6574 47.5696 97.53C47.4496 97.4007 47.2797 97.3361 47.0599 97.3361C46.8328 97.3361 46.6527 97.4118 46.5197 97.5632C46.3868 97.7128 46.3194 97.9206 46.3175 98.1865H45.5973C45.5991 97.7322 45.733 97.3693 45.9989 97.0979C46.2667 96.8245 46.6204 96.6879 47.0599 96.6879C47.5032 96.6879 47.8531 96.8079 48.1098 97.048C48.3665 97.2862 48.4949 97.615 48.4949 98.0342C48.4949 98.3131 48.4192 98.5716 48.2677 98.8098C48.1182 99.0462 47.8781 99.3057 47.5475 99.5883L46.7995 100.228H48.5254V100.904ZM49.1791 99.9678C49.0406 99.6464 48.9714 99.2725 48.9714 98.8459C48.9714 98.4192 49.0434 98.0425 49.1875 97.7156C49.3315 97.3887 49.5365 97.1348 49.8024 96.9538C50.0684 96.7728 50.3759 96.6823 50.7249 96.6823C51.074 96.6823 51.3815 96.7728 51.6474 96.9538C51.9152 97.1348 52.1211 97.3887 52.2652 97.7156C52.4111 98.0425 52.484 98.4192 52.484 98.8459C52.484 99.2725 52.4138 99.6464 52.2735 99.9678C52.135 100.289 51.9327 100.539 51.6668 100.719C51.4009 100.896 51.0869 100.984 50.7249 100.984C50.3629 100.984 50.049 100.896 49.7831 100.719C49.519 100.539 49.3177 100.289 49.1791 99.9678ZM49.6861 98.8459C49.6861 99.3223 49.7766 99.6908 49.9576 99.9512C50.1404 100.212 50.3962 100.342 50.7249 100.342C51.0555 100.342 51.3122 100.212 51.495 99.9539C51.6779 99.6935 51.7693 99.3242 51.7693 98.8459C51.7693 98.3583 51.6779 97.9834 51.495 97.7212C51.3122 97.4571 51.0555 97.325 50.7249 97.325C50.3962 97.325 50.1404 97.4571 49.9576 97.7212C49.7766 97.9834 49.6861 98.3583 49.6861 98.8459ZM55.8664 100.904L52.9882 100.91V100.364L54.3456 99.2198C54.6282 98.9798 54.823 98.7784 54.9301 98.6159C55.0391 98.4516 55.0936 98.2706 55.0936 98.073C55.0936 97.8384 55.0326 97.6574 54.9107 97.53C54.7907 97.4007 54.6208 97.3361 54.401 97.3361C54.1738 97.3361 53.9938 97.4118 53.8608 97.5632C53.7278 97.7128 53.6604 97.9206 53.6586 98.1865H52.9383C52.9402 97.7322 53.0741 97.3693 53.34 97.0979C53.6078 96.8245 53.9615 96.6879 54.401 96.6879C54.8442 96.6879 55.1942 96.8079 55.4509 97.048C55.7076 97.2862 55.836 97.615 55.836 98.0342C55.836 98.3131 55.7603 98.5716 55.6088 98.8098C55.4592 99.0462 55.2191 99.3057 54.8886 99.5883L54.1406 100.228H55.8664V100.904ZM57.5757 98.8569H57.0715V98.386L58.138 97.4026H56.4149V96.7627H59.0466V97.3416L58.0355 98.2724C58.3679 98.3371 58.6394 98.4857 58.85 98.7184C59.0605 98.9493 59.1658 99.2411 59.1658 99.5938C59.1658 99.8025 59.1261 99.9946 59.0466 100.17C58.9691 100.344 58.8629 100.49 58.7281 100.61C58.5933 100.729 58.4335 100.821 58.2488 100.888C58.066 100.952 57.8702 100.984 57.6615 100.984C57.3882 100.984 57.1435 100.932 56.9274 100.827C56.7132 100.719 56.5415 100.56 56.4122 100.347C56.2847 100.133 56.221 99.8801 56.221 99.5883H56.9357C56.9357 99.8228 57.0022 100.007 57.1352 100.14C57.2682 100.271 57.4473 100.336 57.6726 100.336C57.8998 100.336 58.0826 100.268 58.2211 100.131C58.3596 99.9946 58.4289 99.8117 58.4289 99.5827C58.4289 99.363 58.3559 99.1875 58.21 99.0564C58.066 98.9234 57.8545 98.8569 57.5757 98.8569Z" fill="white"/>
<path d="M71.2197 100.904L68.3415 100.91V100.364L69.6989 99.2198C69.9814 98.9798 70.1763 98.7784 70.2834 98.6159C70.3923 98.4516 70.4468 98.2706 70.4468 98.073C70.4468 97.8384 70.3859 97.6574 70.264 97.53C70.1439 97.4007 69.974 97.3361 69.7543 97.3361C69.5271 97.3361 69.347 97.4118 69.2141 97.5632C69.0811 97.7128 69.0137 97.9206 69.0118 98.1865H68.2916C68.2934 97.7322 68.4273 97.3693 68.6933 97.0979C68.9611 96.8245 69.3147 96.6879 69.7543 96.6879C70.1975 96.6879 70.5475 96.8079 70.8042 97.048C71.0609 97.2862 71.1892 97.615 71.1892 98.0342C71.1892 98.3131 71.1135 98.5716 70.9621 98.8098C70.8125 99.0462 70.5724 99.3057 70.2418 99.5883L69.4939 100.228H71.2197V100.904ZM71.8735 99.9678C71.735 99.6464 71.6657 99.2725 71.6657 98.8459C71.6657 98.4192 71.7377 98.0425 71.8818 97.7156C72.0258 97.3887 72.2308 97.1348 72.4968 96.9538C72.7627 96.7728 73.0702 96.6823 73.4193 96.6823C73.7683 96.6823 74.0758 96.7728 74.3417 96.9538C74.6095 97.1348 74.8154 97.3887 74.9595 97.7156C75.1054 98.0425 75.1783 98.4192 75.1783 98.8459C75.1783 99.2725 75.1082 99.6464 74.9678 99.9678C74.8293 100.289 74.6271 100.539 74.3611 100.719C74.0952 100.896 73.7812 100.984 73.4193 100.984C73.0573 100.984 72.7433 100.896 72.4774 100.719C72.2133 100.539 72.012 100.289 71.8735 99.9678ZM72.3804 98.8459C72.3804 99.3223 72.4709 99.6908 72.6519 99.9512C72.8347 100.212 73.0905 100.342 73.4193 100.342C73.7498 100.342 74.0065 100.212 74.1894 99.9539C74.3722 99.6935 74.4636 99.3242 74.4636 98.8459C74.4636 98.3583 74.3722 97.9834 74.1894 97.7212C74.0065 97.4571 73.7498 97.325 73.4193 97.325C73.0905 97.325 72.8347 97.4571 72.6519 97.7212C72.4709 97.9834 72.3804 98.3583 72.3804 98.8459ZM78.5608 100.904L75.6825 100.91V100.364L77.0399 99.2198C77.3225 98.9798 77.5173 98.7784 77.6244 98.6159C77.7334 98.4516 77.7879 98.2706 77.7879 98.073C77.7879 97.8384 77.7269 97.6574 77.6051 97.53C77.485 97.4007 77.3151 97.3361 77.0953 97.3361C76.8682 97.3361 76.6881 97.4118 76.5551 97.5632C76.4222 97.7128 76.3548 97.9206 76.3529 98.1865H75.6327C75.6345 97.7322 75.7684 97.3693 76.0343 97.0979C76.3021 96.8245 76.6558 96.6879 77.0953 96.6879C77.5386 96.6879 77.8885 96.8079 78.1452 97.048C78.402 97.2862 78.5303 97.615 78.5303 98.0342C78.5303 98.3131 78.4546 98.5716 78.3031 98.8098C78.1536 99.0462 77.9135 99.3057 77.5829 99.5883L76.8349 100.228H78.5608V100.904ZM80.27 98.8569H79.7658V98.386L80.8324 97.4026H79.1093V96.7627H81.741V97.3416L80.7299 98.2724C81.0623 98.3371 81.3338 98.4857 81.5443 98.7184C81.7548 98.9493 81.8601 99.2411 81.8601 99.5938C81.8601 99.8025 81.8204 99.9946 81.741 100.17C81.6634 100.344 81.5572 100.49 81.4224 100.61C81.2876 100.729 81.1278 100.821 80.9432 100.888C80.7603 100.952 80.5646 100.984 80.3559 100.984C80.0826 100.984 79.8378 100.932 79.6218 100.827C79.4075 100.719 79.2358 100.56 79.1065 100.347C78.9791 100.133 78.9154 99.8801 78.9154 99.5883H79.6301C79.6301 99.8228 79.6966 100.007 79.8295 100.14C79.9625 100.271 80.1416 100.336 80.367 100.336C80.5941 100.336 80.777 100.268 80.9155 100.131C81.054 99.9946 81.1232 99.8117 81.1232 99.5827C81.1232 99.363 81.0503 99.1875 80.9044 99.0564C80.7603 98.9234 80.5489 98.8569 80.27 98.8569Z" fill="white"/>
<path d="M93.04 100.904L90.1618 100.91V100.364L91.5192 99.2198C91.8017 98.9798 91.9966 98.7784 92.1037 98.6159C92.2127 98.4516 92.2671 98.2706 92.2671 98.073C92.2671 97.8384 92.2062 97.6574 92.0843 97.53C91.9643 97.4007 91.7943 97.3361 91.5746 97.3361C91.3474 97.3361 91.1674 97.4118 91.0344 97.5632C90.9014 97.7128 90.834 97.9206 90.8322 98.1865H90.1119C90.1138 97.7322 90.2476 97.3693 90.5136 97.0979C90.7814 96.8245 91.135 96.6879 91.5746 96.6879C92.0178 96.6879 92.3678 96.8079 92.6245 97.048C92.8812 97.2862 93.0095 97.615 93.0095 98.0342C93.0095 98.3131 92.9338 98.5716 92.7824 98.8098C92.6328 99.0462 92.3927 99.3057 92.0621 99.5883L91.3142 100.228H93.04V100.904ZM93.6938 99.9678C93.5553 99.6464 93.486 99.2725 93.486 98.8459C93.486 98.4192 93.5581 98.0425 93.7021 97.7156C93.8462 97.3887 94.0511 97.1348 94.3171 96.9538C94.583 96.7728 94.8905 96.6823 95.2396 96.6823C95.5886 96.6823 95.8961 96.7728 96.1621 96.9538C96.4298 97.1348 96.6358 97.3887 96.7798 97.7156C96.9257 98.0425 96.9987 98.4192 96.9987 98.8459C96.9987 99.2725 96.9285 99.6464 96.7881 99.9678C96.6496 100.289 96.4474 100.539 96.1814 100.719C95.9155 100.896 95.6015 100.984 95.2396 100.984C94.8776 100.984 94.5636 100.896 94.2977 100.719C94.0336 100.539 93.8323 100.289 93.6938 99.9678ZM94.2007 98.8459C94.2007 99.3223 94.2912 99.6908 94.4722 99.9512C94.6551 100.212 94.9108 100.342 95.2396 100.342C95.5702 100.342 95.8269 100.212 96.0097 99.9539C96.1925 99.6935 96.2839 99.3242 96.2839 98.8459C96.2839 98.3583 96.1925 97.9834 96.0097 97.7212C95.8269 97.4571 95.5702 97.325 95.2396 97.325C94.9108 97.325 94.6551 97.4571 94.4722 97.7212C94.2912 97.9834 94.2007 98.3583 94.2007 98.8459ZM100.381 100.904L97.5028 100.91V100.364L98.8602 99.2198C99.1428 98.9798 99.3376 98.7784 99.4448 98.6159C99.5537 98.4516 99.6082 98.2706 99.6082 98.073C99.6082 97.8384 99.5473 97.6574 99.4254 97.53C99.3053 97.4007 99.1354 97.3361 98.9156 97.3361C98.6885 97.3361 98.5084 97.4118 98.3755 97.5632C98.2425 97.7128 98.1751 97.9206 98.1732 98.1865H97.453C97.4548 97.7322 97.5887 97.3693 97.8547 97.0979C98.1224 96.8245 98.4761 96.6879 98.9156 96.6879C99.3589 96.6879 99.7089 96.8079 99.9656 97.048C100.222 97.2862 100.351 97.615 100.351 98.0342C100.351 98.3131 100.275 98.5716 100.123 98.8098C99.9739 99.0462 99.7338 99.3057 99.4032 99.5883L98.6552 100.228H100.381V100.904ZM102.09 98.8569H101.586V98.386L102.653 97.4026H100.93V96.7627H103.561V97.3416L102.55 98.2724C102.883 98.3371 103.154 98.4857 103.365 98.7184C103.575 98.9493 103.68 99.2411 103.68 99.5938C103.68 99.8025 103.641 99.9946 103.561 100.17C103.484 100.344 103.378 100.49 103.243 100.61C103.108 100.729 102.948 100.821 102.763 100.888C102.581 100.952 102.385 100.984 102.176 100.984C101.903 100.984 101.658 100.932 101.442 100.827C101.228 100.719 101.056 100.56 100.927 100.347C100.799 100.133 100.736 99.8801 100.736 99.5883H101.45C101.45 99.8228 101.517 100.007 101.65 100.14C101.783 100.271 101.962 100.336 102.187 100.336C102.414 100.336 102.597 100.268 102.736 100.131C102.874 99.9946 102.944 99.8117 102.944 99.5827C102.944 99.363 102.871 99.1875 102.725 99.0564C102.581 98.9234 102.369 98.8569 102.09 98.8569Z" fill="white"/>
<path d="M116.606 100.904L113.728 100.91V100.364L115.086 99.2198C115.368 98.9798 115.563 98.7784 115.67 98.6159C115.779 98.4516 115.834 98.2706 115.834 98.073C115.834 97.8384 115.773 97.6574 115.651 97.53C115.531 97.4007 115.361 97.3361 115.141 97.3361C114.914 97.3361 114.734 97.4118 114.601 97.5632C114.468 97.7128 114.4 97.9206 114.399 98.1865H113.678C113.68 97.7322 113.814 97.3693 114.08 97.0979C114.348 96.8245 114.701 96.6879 115.141 96.6879C115.584 96.6879 115.934 96.8079 116.191 97.048C116.448 97.2862 116.576 97.615 116.576 98.0342C116.576 98.3131 116.5 98.5716 116.349 98.8098C116.199 99.0462 115.959 99.3057 115.629 99.5883L114.881 100.228H116.606V100.904ZM117.26 99.9678C117.122 99.6464 117.052 99.2725 117.052 98.8459C117.052 98.4192 117.124 98.0425 117.269 97.7156C117.413 97.3887 117.618 97.1348 117.883 96.9538C118.149 96.7728 118.457 96.6823 118.806 96.6823C119.155 96.6823 119.463 96.7728 119.728 96.9538C119.996 97.1348 120.202 97.3887 120.346 97.7156C120.492 98.0425 120.565 98.4192 120.565 98.8459C120.565 99.2725 120.495 99.6464 120.355 99.9678C120.216 100.289 120.014 100.539 119.748 100.719C119.482 100.896 119.168 100.984 118.806 100.984C118.444 100.984 118.13 100.896 117.864 100.719C117.6 100.539 117.399 100.289 117.26 99.9678ZM117.767 98.8459C117.767 99.3223 117.858 99.6908 118.039 99.9512C118.221 100.212 118.477 100.342 118.806 100.342C119.137 100.342 119.393 100.212 119.576 99.9539C119.759 99.6935 119.85 99.3242 119.85 98.8459C119.85 98.3583 119.759 97.9834 119.576 97.7212C119.393 97.4571 119.137 97.325 118.806 97.325C118.477 97.325 118.221 97.4571 118.039 97.7212C117.858 97.9834 117.767 98.3583 117.767 98.8459ZM123.947 100.904L121.069 100.91V100.364L122.427 99.2198C122.709 98.9798 122.904 98.7784 123.011 98.6159C123.12 98.4516 123.175 98.2706 123.175 98.073C123.175 97.8384 123.114 97.6574 122.992 97.53C122.872 97.4007 122.702 97.3361 122.482 97.3361C122.255 97.3361 122.075 97.4118 121.942 97.5632C121.809 97.7128 121.741 97.9206 121.74 98.1865H121.019C121.021 97.7322 121.155 97.3693 121.421 97.0979C121.689 96.8245 122.043 96.6879 122.482 96.6879C122.925 96.6879 123.275 96.8079 123.532 97.048C123.789 97.2862 123.917 97.615 123.917 98.0342C123.917 98.3131 123.841 98.5716 123.69 98.8098C123.54 99.0462 123.3 99.3057 122.97 99.5883L122.222 100.228H123.947V100.904ZM125.657 98.8569H125.153V98.386L126.219 97.4026H124.496V96.7627H127.128V97.3416L126.117 98.2724C126.449 98.3371 126.72 98.4857 126.931 98.7184C127.142 98.9493 127.247 99.2411 127.247 99.5938C127.247 99.8025 127.207 99.9946 127.128 100.17C127.05 100.344 126.944 100.49 126.809 100.61C126.674 100.729 126.515 100.821 126.33 100.888C126.147 100.952 125.951 100.984 125.743 100.984C125.469 100.984 125.225 100.932 125.008 100.827C124.794 100.719 124.623 100.56 124.493 100.347C124.366 100.133 124.302 99.8801 124.302 99.5883H125.017C125.017 99.8228 125.083 100.007 125.216 100.14C125.349 100.271 125.528 100.336 125.754 100.336C125.981 100.336 126.164 100.268 126.302 100.131C126.441 99.9946 126.51 99.8117 126.51 99.5827C126.51 99.363 126.437 99.1875 126.291 99.0564C126.147 98.9234 125.936 98.8569 125.657 98.8569Z" fill="white"/>
<path d="M139.301 100.904L136.423 100.91V100.364L137.78 99.2198C138.062 98.9798 138.257 98.7784 138.364 98.6159C138.473 98.4516 138.528 98.2706 138.528 98.073C138.528 97.8384 138.467 97.6574 138.345 97.53C138.225 97.4007 138.055 97.3361 137.835 97.3361C137.608 97.3361 137.428 97.4118 137.295 97.5632C137.162 97.7128 137.095 97.9206 137.093 98.1865H136.373C136.374 97.7322 136.508 97.3693 136.774 97.0979C137.042 96.8245 137.396 96.6879 137.835 96.6879C138.279 96.6879 138.629 96.8079 138.885 97.048C139.142 97.2862 139.27 97.615 139.27 98.0342C139.27 98.3131 139.195 98.5716 139.043 98.8098C138.894 99.0462 138.653 99.3057 138.323 99.5883L137.575 100.228H139.301V100.904ZM139.955 99.9678C139.816 99.6464 139.747 99.2725 139.747 98.8459C139.747 98.4192 139.819 98.0425 139.963 97.7156C140.107 97.3887 140.312 97.1348 140.578 96.9538C140.844 96.7728 141.151 96.6823 141.5 96.6823C141.849 96.6823 142.157 96.7728 142.423 96.9538C142.691 97.1348 142.897 97.3887 143.041 97.7156C143.186 98.0425 143.259 98.4192 143.259 98.8459C143.259 99.2725 143.189 99.6464 143.049 99.9678C142.91 100.289 142.708 100.539 142.442 100.719C142.176 100.896 141.862 100.984 141.5 100.984C141.138 100.984 140.824 100.896 140.558 100.719C140.294 100.539 140.093 100.289 139.955 99.9678ZM140.461 98.8459C140.461 99.3223 140.552 99.6908 140.733 99.9512C140.916 100.212 141.172 100.342 141.5 100.342C141.831 100.342 142.088 100.212 142.27 99.9539C142.453 99.6935 142.545 99.3242 142.545 98.8459C142.545 98.3583 142.453 97.9834 142.27 97.7212C142.088 97.4571 141.831 97.325 141.5 97.325C141.172 97.325 140.916 97.4571 140.733 97.7212C140.552 97.9834 140.461 98.3583 140.461 98.8459ZM146.642 100.904L143.764 100.91V100.364L145.121 99.2198C145.404 98.9798 145.598 98.7784 145.706 98.6159C145.814 98.4516 145.869 98.2706 145.869 98.073C145.869 97.8384 145.808 97.6574 145.686 97.53C145.566 97.4007 145.396 97.3361 145.176 97.3361C144.949 97.3361 144.769 97.4118 144.636 97.5632C144.503 97.7128 144.436 97.9206 144.434 98.1865H143.714C143.716 97.7322 143.849 97.3693 144.115 97.0979C144.383 96.8245 144.737 96.6879 145.176 96.6879C145.62 96.6879 145.97 96.8079 146.226 97.048C146.483 97.2862 146.611 97.615 146.611 98.0342C146.611 98.3131 146.536 98.5716 146.384 98.8098C146.235 99.0462 145.995 99.3057 145.664 99.5883L144.916 100.228H146.642V100.904ZM150.232 100.12H149.728V100.91H149.041V100.12H146.935V99.4858L148.814 96.7627H149.728V99.4858H150.232V100.12ZM147.708 99.4858H149.041V97.5466L147.708 99.4858Z" fill="white"/>
<defs>
<linearGradient id="paint0_linear_1267_68269" x1="7.41873" y1="69.7246" x2="7.41873" y2="93.291" gradientUnits="userSpaceOnUse">
<stop stop-color="white"/>
<stop offset="1" stop-color="white" stop-opacity="0"/>
</linearGradient>
<linearGradient id="paint1_linear_1267_68269" x1="30.1121" y1="63.6147" x2="30.1121" y2="93.291" gradientUnits="userSpaceOnUse">
<stop stop-color="white"/>
<stop offset="1" stop-color="white" stop-opacity="0"/>
</linearGradient>
<linearGradient id="paint2_linear_1267_68269" x1="52.8055" y1="55.7593" x2="52.8055" y2="93.291" gradientUnits="userSpaceOnUse">
<stop stop-color="white"/>
<stop offset="1" stop-color="white" stop-opacity="0"/>
</linearGradient>
<linearGradient id="paint3_linear_1267_68269" x1="75.4998" y1="45.2852" x2="75.4998" y2="93.2909" gradientUnits="userSpaceOnUse">
<stop stop-color="white"/>
<stop offset="1" stop-color="white" stop-opacity="0"/>
</linearGradient>
<linearGradient id="paint4_linear_1267_68269" x1="98.1931" y1="31.3203" x2="98.1931" y2="93.2913" gradientUnits="userSpaceOnUse">
<stop stop-color="white"/>
<stop offset="1" stop-color="white" stop-opacity="0"/>
</linearGradient>
<linearGradient id="paint5_linear_1267_68269" x1="120.887" y1="19.1006" x2="120.887" y2="93.2912" gradientUnits="userSpaceOnUse">
<stop stop-color="white"/>
<stop offset="1" stop-color="white" stop-opacity="0"/>
</linearGradient>
<linearGradient id="paint6_linear_1267_68269" x1="143.58" y1="5.13525" x2="143.58" y2="93.2912" gradientUnits="userSpaceOnUse">
<stop stop-color="white"/>
<stop offset="1" stop-color="white" stop-opacity="0"/>
</linearGradient>
</defs>
</svg>
