<svg width="25" height="25" viewBox="0 0 25 25" fill="none" xmlns="http://www.w3.org/2000/svg">
<path d="M3.52388 16.9173L6.88721 14.3453C6.6949 13.7612 6.59091 13.1363 6.59091 12.4864C6.59091 11.8364 6.6949 11.2115 6.88721 10.6274L3.52388 8.05542C2.86791 9.38907 2.5 10.8927 2.5 12.4864C2.5 14.08 2.86791 15.5836 3.52388 16.9173Z" fill="#FBBC05"/>
<path d="M6.88725 10.6273C7.66325 8.2704 9.8773 6.57724 12.5 6.57724C13.9091 6.57724 15.1819 7.07724 16.1819 7.89542L19.091 4.98633C17.3182 3.44087 15.0455 2.48633 12.5 2.48633C8.54828 2.48633 5.1505 4.74842 3.52393 8.05539L6.88725 10.6273Z" fill="#EA4335"/>
<path d="M12.5001 22.4862C8.54719 22.4862 5.14863 20.2229 3.52258 16.9144L6.88454 14.3369C7.65807 16.6982 9.87423 18.3953 12.5001 18.3953C13.7849 18.3953 14.9234 18.0927 15.825 17.5237L19.018 19.9957C17.2701 21.6209 14.9392 22.4862 12.5001 22.4862Z" fill="#34A853"/>
<path d="M12.5 10.6682H21.8182C21.9545 11.2591 22.0455 11.8955 22.0455 12.4864C22.0455 15.7457 20.8531 18.2896 19.0179 19.9959L15.825 17.5239C16.869 16.865 17.5953 15.849 17.8636 14.5318H12.5V10.6682Z" fill="#4285F4"/>
</svg>
