<svg width="57" height="57" viewBox="0 0 57 57" fill="none" xmlns="http://www.w3.org/2000/svg">
<path d="M56.5427 28.4667C56.5427 44.0231 43.9233 56.5428 28.4666 56.5428C13.01 56.5428 0.390602 44.0231 0.39061 28.4667C0.390618 12.9105 13.0101 0.390625 28.4666 0.390625C43.9234 0.390625 56.5427 12.9105 56.5427 28.4667Z" fill="#1DA867" stroke="black" stroke-width="0.781251"/>
<path d="M19.1837 17.7373L30.8163 17.7373L40 39.2373L31.7347 39.2373L30.1735 35.5516L19.8265 35.5516L18.2653 39.2373L9.99999 39.2373L19.1837 17.7373ZM25 23.4809L22.2143 30.023L27.7857 30.023L25 23.4809Z" fill="#171717"/>
<path d="M40.3438 25.6594C40.6482 25.8462 41.0111 25.9239 41.4179 25.9092C42.1099 25.9011 43.0982 25.6148 44.3614 25.0832C45.2593 24.7053 46.1748 24.1981 47.1078 23.5633L49.2561 28.6678C48.1914 29.3687 46.9956 29.9989 45.6679 30.5577C42.3269 31.9637 39.7633 32.4839 37.9496 32.1742C36.0696 31.8461 34.6464 30.5857 33.6917 28.3173L31.5787 23.2965L31.4817 23.066L31.2513 23.163L27.5273 24.7303L25.3734 19.6124L29.0974 18.0452L29.3278 17.9482L29.2308 17.7177L28.136 15.1162L33.907 11.1573L35.549 15.0587L35.6459 15.2892L35.8764 15.1922L42.4249 12.4362L44.5788 17.554L38.0302 20.31L37.7998 20.407L37.8968 20.6374L39.6577 24.8215C39.8111 25.1859 40.0375 25.4715 40.3438 25.6594Z" fill="#171717" stroke="#FFF59F" stroke-width="0.5"/>
</svg>
