<svg width="155" height="105" viewBox="0 0 155 105" fill="none" xmlns="http://www.w3.org/2000/svg">
<path d="M99.7196 76.5025L97.7716 68.0095C97.2606 65.7815 97.2547 63.4675 97.7547 61.2375L100.465 49.1395C102.881 38.3535 97.4067 27.5775 87.9217 22.8355C88.0027 22.6105 88.0947 22.3915 88.1487 22.1525C88.8397 19.0675 86.8986 16.0065 83.8146 15.3155C80.7296 14.6245 77.6687 16.5645 76.9777 19.6495C76.9237 19.8885 76.9147 20.1265 76.8917 20.3645C66.2897 20.6065 56.7407 28.0165 54.3247 38.8025L51.6147 50.9005C51.1147 53.1305 50.1217 55.2215 48.7097 57.0185L43.3237 63.8685C41.0277 66.7895 42.5647 71.1075 46.1907 71.9195L93.6917 82.5615C97.3177 83.3735 100.551 80.1245 99.7196 76.5025Z" fill="#20C87A"/>
<path d="M63.8467 79.1259C62.2837 78.7759 60.8798 80.1319 61.1488 81.7109C61.6908 84.8989 64.1007 87.5989 67.4517 88.3499C70.8027 89.1009 74.1337 87.6869 75.9847 85.0349C76.9017 83.7219 76.2107 81.8959 74.6477 81.5459L63.8467 79.1259Z" fill="#20C87A"/>
<path d="M27.3687 62.2758C26.8847 62.2758 26.4097 62.0418 26.1207 61.6088C21.3617 54.4818 19.6637 45.9298 21.3387 37.5268C23.0137 29.1238 27.8607 21.8758 34.9867 17.1178C35.6757 16.6578 36.6057 16.8438 37.0667 17.5328C37.5267 18.2218 37.3407 19.1538 36.6527 19.6138C30.1927 23.9268 25.7987 30.4968 24.2807 38.1138C22.7627 45.7308 24.3017 53.4838 28.6147 59.9438C29.0747 60.6328 28.8887 61.5638 28.2007 62.0238C27.9447 62.1938 27.6547 62.2758 27.3687 62.2758Z" fill="#20C87A"/>
<path d="M33.7268 58.0309C33.2428 58.0309 32.7678 57.7969 32.4788 57.3639C28.8548 51.9359 27.5608 45.4219 28.8368 39.0209C30.1118 32.6209 33.8048 27.0999 39.2318 23.4759C39.9198 23.0149 40.8518 23.2009 41.3118 23.8909C41.7718 24.5799 41.5858 25.5119 40.8978 25.9719C36.1358 29.1509 32.8978 33.9939 31.7778 39.6079C30.6588 45.2229 31.7938 50.9369 34.9718 55.6989C35.4318 56.3879 35.2458 57.3189 34.5578 57.7789C34.3028 57.9489 34.0128 58.0309 33.7268 58.0309Z" fill="#20C87A"/>
<path d="M40.0846 53.7863C39.6006 53.7863 39.1256 53.5523 38.8366 53.1193C36.3456 49.3903 35.4566 44.9133 36.3336 40.5153C37.2096 36.1173 39.7466 32.3243 43.4766 29.8333C44.1646 29.3723 45.0956 29.5583 45.5566 30.2483C46.0166 30.9373 45.8306 31.8693 45.1426 32.3293C42.0786 34.3743 39.9966 37.4903 39.2766 41.1023C38.5556 44.7143 39.2866 48.3913 41.3316 51.4543C41.7916 52.1433 41.6056 53.0743 40.9176 53.5343C40.6606 53.7043 40.3716 53.7863 40.0846 53.7863Z" fill="#20C87A"/>
<path d="M113.849 83.3862C113.306 83.3862 112.783 83.0902 112.516 82.5752C112.136 81.8392 112.425 80.9332 113.161 80.5532C120.063 76.9902 125.164 70.9522 127.525 63.5532C129.885 56.1532 129.222 48.2772 125.659 41.3752C125.279 40.6392 125.568 39.7342 126.304 39.3542C127.04 38.9762 127.945 39.2622 128.325 39.9992C132.256 47.6122 132.987 56.3012 130.383 64.4642C127.779 72.6282 122.151 79.2882 114.538 83.2192C114.317 83.3322 114.08 83.3862 113.849 83.3862Z" fill="#20C87A"/>
<path d="M110.343 76.595C109.8 76.595 109.276 76.299 109.009 75.783C108.629 75.047 108.918 74.141 109.654 73.762C114.742 71.135 118.502 66.685 120.242 61.231C121.981 55.776 121.493 49.97 118.866 44.883C118.486 44.147 118.775 43.242 119.511 42.862C120.247 42.484 121.152 42.77 121.532 43.507C124.526 49.306 125.083 55.924 123.099 62.142C121.116 68.36 116.829 73.433 111.031 76.428C110.81 76.541 110.575 76.595 110.343 76.595Z" fill="#20C87A"/>
<path d="M106.836 69.8018C106.293 69.8018 105.769 69.5058 105.502 68.9908C105.122 68.2548 105.411 67.3488 106.147 66.9698C109.42 65.2808 111.839 62.4168 112.958 58.9078C114.077 55.3978 113.764 51.6638 112.073 48.3908C111.693 47.6548 111.982 46.7488 112.718 46.3698C113.455 45.9918 114.359 46.2778 114.739 47.0148C118.986 55.2408 115.749 65.3878 107.523 69.6358C107.303 69.7478 107.068 69.8018 106.836 69.8018Z" fill="#20C87A"/>
</svg>
