<svg width="28" height="26" viewBox="0 0 28 26" fill="none" xmlns="http://www.w3.org/2000/svg">
<path d="M27.6001 21.0113L16.6689 2.02758C16.3957 1.56249 16.0057 1.17686 15.5376 0.908908C15.0695 0.64096 14.5395 0.5 14.0001 0.5C13.4607 0.5 12.9307 0.64096 12.4626 0.908908C11.9945 1.17686 11.6045 1.56249 11.3314 2.02758L0.40012 21.0113C0.13729 21.4612 -0.0012207 21.9728 -0.0012207 22.4938C-0.0012207 23.0148 0.13729 23.5265 0.40012 23.9763C0.669783 24.4442 1.05908 24.832 1.52807 25.0997C1.99706 25.3675 2.52885 25.5057 3.06887 25.5001H24.9314C25.471 25.5052 26.0022 25.3669 26.4707 25.0991C26.9393 24.8314 27.3282 24.4439 27.5976 23.9763C27.8608 23.5267 27.9998 23.0152 28.0002 22.4942C28.0007 21.9732 27.8626 21.4614 27.6001 21.0113ZM13.0001 10.5001C13.0001 10.2349 13.1055 9.98051 13.293 9.79298C13.4805 9.60544 13.7349 9.50008 14.0001 9.50008C14.2653 9.50008 14.5197 9.60544 14.7072 9.79298C14.8948 9.98051 15.0001 10.2349 15.0001 10.5001V15.5001C15.0001 15.7653 14.8948 16.0197 14.7072 16.2072C14.5197 16.3947 14.2653 16.5001 14.0001 16.5001C13.7349 16.5001 13.4805 16.3947 13.293 16.2072C13.1055 16.0197 13.0001 15.7653 13.0001 15.5001V10.5001ZM14.0001 21.5001C13.7034 21.5001 13.4134 21.4121 13.1668 21.2473C12.9201 21.0825 12.7278 20.8482 12.6143 20.5741C12.5008 20.3 12.4711 19.9984 12.5289 19.7074C12.5868 19.4165 12.7297 19.1492 12.9395 18.9394C13.1492 18.7296 13.4165 18.5868 13.7075 18.5289C13.9985 18.471 14.3001 18.5007 14.5741 18.6143C14.8482 18.7278 15.0825 18.9201 15.2473 19.1667C15.4121 19.4134 15.5001 19.7034 15.5001 20.0001C15.5001 20.3979 15.3421 20.7794 15.0608 21.0607C14.7795 21.342 14.3979 21.5001 14.0001 21.5001Z" fill="black"/>
</svg>
