<svg width="165" height="143" viewBox="0 0 165 143" fill="none" xmlns="http://www.w3.org/2000/svg">
<path d="M152.92 113.346H21.8901C15.7321 113.346 10.6941 108.308 10.6941 102.15V19.6335C10.6941 13.4755 15.7321 8.4375 21.8901 8.4375H152.921C159.079 8.4375 164.117 13.4755 164.117 19.6335V102.15C164.116 108.308 159.078 113.346 152.92 113.346Z" fill="#20C87A"/>
<path d="M7.12003 7.23466C6.86403 7.23466 6.60803 7.13666 6.41303 6.94166L4.62003 5.14866C4.22903 4.75766 4.22903 4.12566 4.62003 3.73466C5.01103 3.34366 5.64303 3.34366 6.03403 3.73466L7.82703 5.52766C8.21803 5.91866 8.21803 6.55066 7.82703 6.94166C7.63203 7.13766 7.37603 7.23466 7.12003 7.23466Z" fill="#20C87A"/>
<path d="M4.41806 13.5098H1.88306C1.33006 13.5098 0.883057 13.0618 0.883057 12.5098C0.883057 11.9578 1.33006 11.5098 1.88306 11.5098H4.41806C4.97106 11.5098 5.41806 11.9578 5.41806 12.5098C5.41806 13.0618 4.97106 13.5098 4.41806 13.5098Z" fill="#20C87A"/>
<path d="M13.4841 4.52979C12.9641 4.52979 12.5251 4.12779 12.4881 3.60079L12.3071 1.07178C12.2671 0.520783 12.6821 0.0427825 13.2331 0.00278253C13.7951 -0.0382175 14.2621 0.378793 14.3011 0.928793L14.4821 3.45778C14.5221 4.00878 14.1071 4.48678 13.5561 4.52678C13.5321 4.52878 13.5081 4.52979 13.4841 4.52979Z" fill="#20C87A"/>
<path d="M86.104 102L45.883 142.221V102H86.104Z" fill="#20C87A"/>
<path d="M109.625 84.94L107.677 76.447C107.166 74.219 107.16 71.905 107.66 69.675L110.37 57.577C112.786 46.791 107.312 36.015 97.8271 31.273C97.9081 31.048 98.0001 30.829 98.0541 30.59C98.7451 27.505 96.804 24.444 93.72 23.753C90.635 23.062 87.5741 25.002 86.8831 28.087C86.8291 28.326 86.8201 28.564 86.7971 28.802C76.1951 29.044 66.6461 36.454 64.2301 47.24L61.5201 59.338C61.0201 61.568 60.027 63.659 58.615 65.456L53.2291 72.306C50.9331 75.227 52.47 79.545 56.096 80.357L103.597 90.999C107.223 91.811 110.456 88.562 109.625 84.94Z" fill="white"/>
<path d="M73.752 87.5634C72.189 87.2134 70.785 88.5694 71.054 90.1484C71.596 93.3364 74.006 96.0364 77.357 96.7874C80.708 97.5384 84.039 96.1244 85.89 93.4724C86.807 92.1594 86.116 90.3334 84.553 89.9834L73.752 87.5634Z" fill="white"/>
<path d="M37.2741 70.7133C36.7901 70.7133 36.3151 70.4793 36.0261 70.0463C31.2671 62.9193 29.5691 54.3673 31.2441 45.9643C32.9191 37.5613 37.7661 30.3133 44.8921 25.5553C45.5811 25.0953 46.5111 25.2813 46.9721 25.9703C47.4321 26.6593 47.2461 27.5913 46.5581 28.0513C40.0981 32.3643 35.7041 38.9343 34.1861 46.5513C32.6681 54.1683 34.2071 61.9213 38.5201 68.3813C38.9801 69.0703 38.7941 70.0013 38.1061 70.4613C37.8501 70.6313 37.5601 70.7133 37.2741 70.7133Z" fill="white"/>
<path d="M43.6321 66.4684C43.1481 66.4684 42.6731 66.2344 42.3841 65.8014C38.7601 60.3734 37.4661 53.8594 38.7421 47.4584C40.0171 41.0584 43.7101 35.5374 49.1371 31.9134C49.8251 31.4524 50.7571 31.6384 51.2171 32.3284C51.6771 33.0174 51.4911 33.9494 50.8031 34.4094C46.0411 37.5884 42.8031 42.4314 41.6831 48.0454C40.5641 53.6604 41.6991 59.3744 44.8771 64.1364C45.3371 64.8254 45.1511 65.7564 44.4631 66.2164C44.2081 66.3864 43.9181 66.4684 43.6321 66.4684Z" fill="white"/>
<path d="M49.9901 62.2238C49.5061 62.2238 49.0311 61.9898 48.7421 61.5568C46.2511 57.8278 45.3621 53.3508 46.2391 48.9528C47.1151 44.5548 49.6521 40.7618 53.3821 38.2708C54.0701 37.8098 55.0011 37.9958 55.4621 38.6858C55.9221 39.3748 55.7361 40.3068 55.0481 40.7668C51.9841 42.8118 49.9021 45.9278 49.1821 49.5398C48.4611 53.1518 49.1921 56.8288 51.2371 59.8918C51.6971 60.5808 51.5111 61.5118 50.8231 61.9718C50.5661 62.1418 50.2771 62.2238 49.9901 62.2238Z" fill="white"/>
<path d="M123.755 91.8256C123.212 91.8256 122.688 91.5296 122.421 91.0146C122.041 90.2786 122.33 89.3726 123.066 88.9926C129.968 85.4296 135.069 79.3916 137.43 71.9926C139.79 64.5926 139.127 56.7166 135.564 49.8146C135.184 49.0786 135.473 48.1736 136.209 47.7936C136.945 47.4156 137.85 47.7016 138.23 48.4386C142.161 56.0516 142.892 64.7406 140.288 72.9036C137.684 81.0676 132.056 87.7276 124.443 91.6586C124.222 91.7716 123.986 91.8256 123.755 91.8256Z" fill="white"/>
<path d="M120.248 85.0344C119.705 85.0344 119.181 84.7385 118.914 84.2225C118.534 83.4865 118.823 82.5804 119.559 82.2014C124.647 79.5744 128.407 75.1244 130.147 69.6704C131.886 64.2154 131.398 58.4094 128.771 53.3224C128.391 52.5864 128.68 51.6814 129.416 51.3014C130.152 50.9234 131.057 51.2094 131.437 51.9464C134.431 57.7454 134.988 64.3635 133.004 70.5815C131.021 76.7995 126.734 81.8724 120.936 84.8674C120.715 84.9804 120.48 85.0344 120.248 85.0344Z" fill="white"/>
<path d="M116.741 78.2412C116.198 78.2412 115.674 77.9453 115.407 77.4303C115.027 76.6943 115.316 75.7882 116.052 75.4092C119.325 73.7202 121.744 70.8562 122.863 67.3472C123.982 63.8372 123.669 60.1032 121.978 56.8302C121.598 56.0942 121.887 55.1883 122.623 54.8093C123.36 54.4313 124.264 54.7172 124.644 55.4542C128.891 63.6802 125.654 73.8272 117.428 78.0752C117.208 78.1872 116.973 78.2412 116.741 78.2412Z" fill="white"/>
</svg>
