<svg width="27" height="28" viewBox="0 0 27 28" fill="none" xmlns="http://www.w3.org/2000/svg">
<path d="M9.93634 6.07875C9.70148 5.8445 9.41139 5.67318 9.09285 5.5806C8.77432 5.48802 8.43759 5.47716 8.11376 5.54903C7.78992 5.62089 7.4894 5.77317 7.23992 5.99181C6.99045 6.21044 6.80007 6.48839 6.68634 6.8L0.125094 24.8475C0.0173084 25.1451 -0.0175076 25.4642 0.0235683 25.7781C0.0646442 26.0919 0.180413 26.3914 0.361158 26.6512C0.541902 26.9111 0.782346 27.1238 1.06231 27.2715C1.34227 27.4191 1.65357 27.4975 1.97009 27.5C2.20314 27.4984 2.43411 27.4561 2.65259 27.375L20.6988 20.8125C21.0106 20.6989 21.2886 20.5086 21.5074 20.2592C21.7262 20.0098 21.8786 19.7093 21.9506 19.3855C22.0226 19.0616 22.0118 18.7248 21.9193 18.4062C21.8268 18.0876 21.6556 17.7975 21.4213 17.5625L9.93634 6.07875ZM4.14259 19.6413L6.54259 13.0425L14.4576 20.9575L7.85759 23.3575L4.14259 19.6413ZM16.0001 8.5C16.0189 7.82396 16.1826 7.15983 16.4801 6.5525C17.1426 5.22875 18.3926 4.5 20.0001 4.5C20.8376 4.5 21.3751 4.21375 21.7063 3.59875C21.8808 3.25468 21.9808 2.87777 22.0001 2.4925C22.0011 2.22728 22.1074 1.97332 22.2956 1.78649C22.4839 1.59966 22.7386 1.49526 23.0038 1.49625C23.2691 1.49724 23.523 1.60356 23.7099 1.79179C23.8967 1.98003 24.0011 2.23478 24.0001 2.5C24.0001 4.1075 22.9351 6.5 20.0001 6.5C19.1626 6.5 18.6251 6.78625 18.2938 7.40125C18.1194 7.74532 18.0193 8.12223 18.0001 8.5075C17.9996 8.63882 17.9732 8.76876 17.9225 8.8899C17.8718 9.01103 17.7978 9.121 17.7045 9.21351C17.6113 9.30602 17.5008 9.37926 17.3793 9.42906C17.2578 9.47886 17.1277 9.50424 16.9963 9.50375C16.865 9.50326 16.7351 9.4769 16.6139 9.42619C16.4928 9.37548 16.3828 9.30141 16.2903 9.20821C16.1978 9.115 16.1246 9.00448 16.0748 8.88297C16.025 8.76145 15.9996 8.63132 16.0001 8.5ZM13.0001 4.5V1.5C13.0001 1.23478 13.1055 0.98043 13.293 0.792893C13.4805 0.605357 13.7349 0.5 14.0001 0.5C14.2653 0.5 14.5197 0.605357 14.7072 0.792893C14.8947 0.98043 15.0001 1.23478 15.0001 1.5V4.5C15.0001 4.76522 14.8947 5.01957 14.7072 5.20711C14.5197 5.39464 14.2653 5.5 14.0001 5.5C13.7349 5.5 13.4805 5.39464 13.293 5.20711C13.1055 5.01957 13.0001 4.76522 13.0001 4.5ZM25.7076 14.7925C25.8004 14.8854 25.874 14.9957 25.9242 15.1171C25.9745 15.2384 26.0003 15.3685 26.0002 15.4998C26.0002 15.6312 25.9742 15.7612 25.9239 15.8825C25.8736 16.0038 25.7999 16.114 25.707 16.2069C25.6141 16.2997 25.5038 16.3733 25.3824 16.4235C25.2611 16.4737 25.131 16.4995 24.9997 16.4995C24.8683 16.4994 24.7383 16.4735 24.617 16.4232C24.4956 16.3729 24.3854 16.2992 24.2926 16.2062L22.2926 14.2063C22.105 14.0186 21.9995 13.7641 21.9995 13.4987C21.9995 13.2334 22.105 12.9789 22.2926 12.7913C22.4802 12.6036 22.7347 12.4982 23.0001 12.4982C23.2655 12.4982 23.52 12.6036 23.7076 12.7913L25.7076 14.7925ZM26.3163 9.44875L23.3163 10.4487C23.0647 10.5326 22.7901 10.5131 22.5528 10.3945C22.3156 10.2759 22.1352 10.0679 22.0513 9.81625C21.9675 9.56463 21.987 9.28999 22.1056 9.05276C22.2242 8.81552 22.4322 8.63513 22.6838 8.55125L25.6838 7.55125C25.9355 7.46738 26.2101 7.48689 26.4473 7.60551C26.6846 7.72413 26.865 7.93213 26.9488 8.18375C27.0327 8.43537 27.0132 8.71001 26.8946 8.94724C26.776 9.18448 26.568 9.36487 26.3163 9.44875Z" fill="black"/>
</svg>
