<svg width="22" height="26" viewBox="0 0 22 26" fill="none" xmlns="http://www.w3.org/2000/svg">
<g clip-path="url(#clip0_4296_58182)">
<path d="M18.0088 13.7111C17.9977 11.6627 18.9212 10.1167 20.7906 8.9781C19.7446 7.4767 18.1646 6.65065 16.0782 6.4888C14.1031 6.33255 11.9444 7.64415 11.1544 7.64415C10.3198 7.64415 8.40595 6.54465 6.90375 6.54465C3.79924 6.59485 0.5 9.02835 0.5 13.979C0.5 15.4413 0.767055 16.9521 1.30116 18.5111C2.01331 20.5595 4.58371 25.5827 7.2654 25.4989C8.66745 25.4655 9.65775 24.4999 11.4826 24.4999C13.2519 24.4999 14.1698 25.4989 15.7332 25.4989C18.4372 25.4599 20.7628 20.8944 21.4415 18.8404C17.814 17.1269 18.0088 13.8171 18.0088 13.7111ZM14.8597 4.54649C16.3786 2.73813 16.2396 1.09162 16.1951 0.5C14.8542 0.578139 13.3019 1.41535 12.4173 2.4479C11.4437 3.55301 10.8706 4.92044 10.993 6.4609C12.4451 6.57255 13.7693 5.82465 14.8597 4.54649Z" fill="black"/>
</g>
<defs>
<clipPath id="clip0_4296_58182">
<rect width="21" height="25" fill="white" transform="translate(0.5 0.5)"/>
</clipPath>
</defs>
</svg>
