<svg width="26" height="26" viewBox="0 0 26 26" fill="none" xmlns="http://www.w3.org/2000/svg">
<path d="M23.9389 13.2439C23.9389 12.3446 23.8645 11.6884 23.7033 11.0078H13.2246V15.0668H19.3754C19.2514 16.0755 18.5817 17.5946 17.0936 18.6154L17.0727 18.7513L20.3859 21.2666L20.6155 21.2891C22.7236 19.3811 23.9389 16.5737 23.9389 13.2439Z" fill="#4285F4"/>
<path d="M13.2241 23.9384C16.2375 23.9384 18.7672 22.9662 20.615 21.2891L17.0931 18.6154C16.1507 19.2595 14.8858 19.7091 13.2241 19.7091C10.2728 19.7091 7.76784 17.8013 6.87491 15.1641L6.74402 15.1749L3.29896 17.7878L3.25391 17.9105C5.0892 21.4835 8.85906 23.9384 13.2241 23.9384Z" fill="#34A853"/>
<path d="M6.87494 15.1614C6.63933 14.4808 6.50297 13.7516 6.50297 12.9981C6.50297 12.2446 6.63933 11.5155 6.86254 10.8349L6.8563 10.6899L3.36805 8.03516L3.25393 8.08836C2.49752 9.57104 2.06348 11.236 2.06348 12.9981C2.06348 14.7603 2.49752 16.4252 3.25393 17.9078L6.87494 15.1614Z" fill="#FBBC05"/>
<path d="M13.2242 6.29164C15.3199 6.29164 16.7336 7.17879 17.5397 7.92016L20.6894 4.90625C18.755 3.1441 16.2376 2.0625 13.2242 2.0625C8.85905 2.0625 5.08921 4.51734 3.25391 8.09023L6.86253 10.8368C7.76787 8.19965 10.2728 6.29164 13.2242 6.29164Z" fill="#EB4335"/>
</svg>
