<svg width="45" height="45" viewBox="0 0 45 45" fill="none" xmlns="http://www.w3.org/2000/svg">
<rect width="45" height="45" rx="22.5" fill="#6FE1A1"/>
<path d="M25.3882 11.3688C25.4147 11.2697 25.4604 11.1767 25.5227 11.0953C25.5851 11.0138 25.6629 10.9455 25.7518 10.8941C25.8406 10.8427 25.9386 10.8094 26.0403 10.796C26.142 10.7825 26.2454 10.7893 26.3445 10.8158C28.2299 11.3077 29.9502 12.2932 31.328 13.6711C32.7058 15.0489 33.6914 16.7691 34.1832 18.6546C34.2098 18.7537 34.2165 18.857 34.2031 18.9588C34.1897 19.0605 34.1563 19.1585 34.105 19.2473C34.0536 19.3361 33.9853 19.414 33.9038 19.4763C33.8224 19.5387 33.7294 19.5844 33.6303 19.6109C33.5645 19.6284 33.4967 19.6371 33.4286 19.6369C33.2567 19.637 33.0894 19.5803 32.953 19.4756C32.8165 19.3709 32.7185 19.2241 32.674 19.0579C32.2518 17.4384 31.4053 15.9607 30.2219 14.7772C29.0384 13.5938 27.5607 12.7473 25.9412 12.325C25.842 12.2986 25.7491 12.2529 25.6676 12.1905C25.5862 12.1282 25.5178 12.0503 25.4665 11.9615C25.4151 11.8727 25.3818 11.7747 25.3684 11.6729C25.3549 11.5712 25.3617 11.4679 25.3882 11.3688ZM24.9003 16.4884C26.7934 16.9932 28.0059 18.2057 28.5107 20.0987C28.5552 20.2649 28.6532 20.4117 28.7897 20.5164C28.9261 20.6211 29.0933 20.6778 29.2653 20.6777C29.3334 20.6779 29.4012 20.6692 29.467 20.6517C29.5661 20.6253 29.6591 20.5795 29.7405 20.5172C29.822 20.4548 29.8903 20.377 29.9417 20.2882C29.993 20.1994 30.0264 20.1013 30.0398 19.9996C30.0532 19.8979 30.0465 19.7945 30.0199 19.6954C29.3694 17.2612 27.7379 15.6297 25.3037 14.9792C25.2046 14.9527 25.1012 14.946 24.9995 14.9594C24.8979 14.9729 24.7998 15.0062 24.711 15.0576C24.6222 15.1089 24.5444 15.1773 24.482 15.2587C24.4196 15.3401 24.3739 15.433 24.3474 15.5321C24.3209 15.6312 24.3142 15.7345 24.3277 15.8362C24.3411 15.9379 24.3745 16.036 24.4258 16.1248C24.4772 16.2135 24.5455 16.2914 24.6269 16.3538C24.7083 16.4161 24.8012 16.4619 24.9003 16.4884ZM35.2358 29.1084C35.0129 30.8092 34.1782 32.3706 32.8879 33.5007C31.5975 34.6309 29.9398 35.2525 28.2245 35.2493C18.0374 35.2493 9.74977 26.9617 9.74977 16.7746C9.74648 15.0599 10.3675 13.4026 11.4969 12.1124C12.6263 10.8221 14.1867 9.98708 15.8868 9.7633C16.2781 9.71575 16.6743 9.79644 17.0159 9.99327C17.3575 10.1901 17.626 10.4924 17.7811 10.8549L20.5263 16.9828C20.6475 17.2602 20.6976 17.5634 20.6722 17.8651C20.6467 18.1668 20.5465 18.4573 20.3805 18.7105C20.3638 18.7363 20.3456 18.7611 20.3259 18.7847L17.5846 22.0451C17.568 22.0789 17.5593 22.1161 17.5593 22.1537C17.5593 22.1914 17.568 22.2286 17.5846 22.2624C18.5812 24.3024 20.7201 26.4257 22.7888 27.421C22.8233 27.4367 22.861 27.4442 22.899 27.4429C22.9369 27.4415 22.974 27.4313 23.0073 27.4132L26.2196 24.681C26.2425 24.661 26.2669 24.6428 26.2925 24.6264C26.5445 24.4583 26.8345 24.3558 27.1362 24.328C27.4379 24.3003 27.7418 24.3483 28.0202 24.4676L34.1663 27.2219C34.5239 27.3804 34.821 27.6498 35.0136 27.9903C35.2063 28.3307 35.2841 28.7242 35.2358 29.1123V29.1084ZM33.6888 28.9159C33.6932 28.8615 33.6804 28.8071 33.6521 28.7604C33.6239 28.7137 33.5816 28.677 33.5314 28.6557L27.384 25.9014C27.3504 25.8884 27.3144 25.8829 27.2785 25.8851C27.2426 25.8874 27.2076 25.8973 27.1759 25.9144L23.9649 28.6466C23.9415 28.6661 23.9168 28.6843 23.892 28.7012C23.6301 28.8759 23.3274 28.9796 23.0134 29.0024C22.6994 29.0252 22.3849 28.9663 22.1005 28.8313C19.7118 27.6773 17.3309 25.3185 16.1769 22.9519C16.0412 22.6692 15.9807 22.3562 16.0015 22.0432C16.0222 21.7303 16.1234 21.428 16.2953 21.1656C16.312 21.1395 16.3307 21.1147 16.3512 21.0914L19.0899 17.8271C19.1056 17.7931 19.1137 17.756 19.1137 17.7185C19.1137 17.681 19.1056 17.6439 19.0899 17.6099L16.3512 11.4807C16.3331 11.4315 16.3006 11.3888 16.2579 11.3584C16.2152 11.328 16.1643 11.3112 16.1118 11.3102H16.0819C14.7587 11.4863 13.5448 12.1379 12.6668 13.1434C11.7889 14.149 11.3069 15.4397 11.311 16.7746C11.311 26.1004 18.8987 33.6881 28.2245 33.6881C29.5596 33.6921 30.8505 33.21 31.856 32.3318C32.8616 31.4536 33.5131 30.2393 33.6888 28.9159Z" fill="black"/>
</svg>
