<svg width="39" height="39" viewBox="0 0 39 39" fill="none" xmlns="http://www.w3.org/2000/svg">
<path d="M38.4255 19.5C38.4255 29.9343 29.9612 38.3318 19.5937 38.3318C9.22637 38.3318 0.761993 29.9343 0.761998 19.5C0.762004 9.06588 9.22639 0.668258 19.5937 0.668258C29.9612 0.668258 38.4255 9.06588 38.4255 19.5Z" fill="#1DA867" stroke="black" stroke-width="0.524017"/>
<path d="M13.367 12.3008L21.1695 12.3008L27.3293 26.7217L21.7854 26.7217L20.7383 24.2496L13.7981 24.2496L12.751 26.7217L7.20708 26.7217L13.367 12.3008ZM17.2682 16.1532L15.3997 20.5413L19.1367 20.5413L17.2682 16.1532Z" fill="#171717"/>
<path d="M27.5603 17.616C27.7645 17.7412 28.0079 17.7933 28.2808 17.7835C28.7449 17.778 29.4078 17.586 30.2551 17.2295C30.8574 16.976 31.4714 16.6358 32.0972 16.21L33.5382 19.6338C32.824 20.1039 32.022 20.5266 31.1314 20.9014C28.8905 21.8445 27.171 22.1934 25.9545 21.9857C24.6935 21.7656 23.7389 20.9202 23.0985 19.3987L21.6812 16.031L21.6162 15.8765L21.4616 15.9415L18.9638 16.9927L17.5191 13.56L20.0169 12.5088L20.1715 12.4437L20.1064 12.2892L19.3721 10.5442L23.2429 7.88882L24.3442 10.5056L24.4093 10.6602L24.5638 10.5951L28.9562 8.74659L30.4009 12.1793L26.0085 14.0279L25.854 14.093L25.919 14.2475L27.1001 17.0539C27.203 17.2984 27.3549 17.4899 27.5603 17.616Z" fill="#171717" stroke="#FFF59F" stroke-width="0.335371"/>
</svg>
