<svg width="98" height="148" viewBox="0 0 98 148" fill="none" xmlns="http://www.w3.org/2000/svg">
<path d="M6.47166 138.068C4.66808 138.401 2.51767 139.043 2.07297 140.822C1.44636 143.331 4.70162 144.896 7.24988 145.338C34.1437 150.001 61.6881 145.604 88.627 141.208C92.2438 140.618 96.6673 139.26 97.2177 135.637C97.8154 131.701 93.26 129.088 89.3937 128.141C77.1656 125.145 63.8739 127.47 51.6696 129.724C36.6038 132.505 21.5375 135.287 6.47166 138.068Z" fill="#6B4436"/>
<path d="M31.9732 147.575C23.71 147.575 15.4442 146.991 7.21089 145.563C5.51297 145.268 3.18705 144.398 2.22002 142.912C1.78589 142.246 1.6614 141.523 1.85021 140.765C2.33855 138.812 4.698 138.161 6.43037 137.841L51.6284 129.497C62.8753 127.42 76.8721 124.836 89.4489 127.918C93.8513 128.996 98.0309 131.811 97.4447 135.67C96.9972 138.617 94.0433 140.556 88.6643 141.434C70.0666 144.469 51.027 147.575 31.9732 147.575ZM6.51352 138.293C4.9061 138.59 2.71939 139.181 2.29582 140.877C2.13871 141.506 2.24253 142.106 2.60454 142.662C3.49117 144.023 5.68203 144.832 7.28853 145.111C34.4346 149.817 61.9647 145.324 88.5903 140.981C93.7498 140.139 96.5764 138.329 96.9903 135.601C97.6101 131.52 92.4726 129.131 89.3391 128.364C76.8574 125.306 62.9143 127.881 51.7115 129.949L6.51352 138.293Z" fill="#6B4436"/>
<path d="M51.4957 117.602C51.7264 121.271 51.7061 124.951 51.6859 128.628C51.674 130.778 51.6597 132.95 51.1673 135.044C50.8085 136.568 50.1947 138.098 50.4143 139.649C51.8384 140.114 53.5543 139.075 53.8028 137.597C54.4138 137.84 54.4469 139.132 55.0639 138.904C55.4213 138.772 55.3588 138.254 55.2416 137.891C53.3673 132.083 55.0799 125.795 56.7926 119.936L58.1795 113.234L50.7014 109.973L51.1351 118.135" fill="#B09084"/>
<path d="M51.1345 140.456C50.8161 140.456 50.501 140.408 50.2006 140.31C49.9506 140.228 49.7687 140.012 49.7315 139.751C49.5427 138.42 49.8895 137.154 50.2244 135.932C50.3195 135.585 50.4146 135.238 50.4964 134.892C50.9732 132.864 50.9847 130.711 50.9962 128.63C51.0141 125.396 51.032 122.062 50.8708 118.778C50.6333 118.679 50.4615 118.451 50.4468 118.178L50.0131 110.015C50.0007 109.776 50.1123 109.548 50.309 109.412C50.5056 109.276 50.7583 109.251 50.9769 109.346L58.4549 112.609C58.7535 112.739 58.9203 113.061 58.8542 113.38L57.4668 120.082C57.4631 120.101 57.4585 120.119 57.4535 120.136C55.9251 125.366 54.0223 131.874 55.8975 137.686C56.2494 138.774 55.7964 139.374 55.3021 139.556C54.6158 139.81 54.1918 139.368 53.9515 138.984C53.6832 139.361 53.329 139.69 52.9068 139.946C52.3505 140.283 51.7363 140.456 51.1345 140.456ZM51.0578 139.077C51.4285 139.088 51.8291 138.988 52.1929 138.767C52.6992 138.461 53.0382 137.995 53.1232 137.489C53.1577 137.284 53.2835 137.106 53.4645 137.003C53.6455 136.901 53.8624 136.886 54.0567 136.963C54.1421 136.997 54.2207 137.039 54.2928 137.086C52.7975 131.173 54.6291 124.886 56.1231 119.776L57.3914 113.648L51.4487 111.055L51.7634 116.972C51.9968 117.07 52.1668 117.294 52.1838 117.564C52.4153 121.257 52.3946 125.009 52.3749 128.637C52.3634 130.795 52.351 133.026 51.8383 135.207C51.7528 135.569 51.6541 135.932 51.5544 136.295C51.2898 137.26 51.0376 138.179 51.0578 139.077Z" fill="#B09084"/>
<path d="M52.4325 135.509C51.9694 135.69 51.465 135.871 50.9868 135.752C50.6385 137.044 50.2283 138.34 50.4144 139.653C51.8385 140.118 53.5543 139.079 53.8028 137.602C54.4138 137.845 54.4469 139.136 55.0639 138.908C55.4213 138.777 55.3588 138.258 55.2417 137.896C54.9127 136.876 54.6996 135.841 54.5723 134.797L54.0087 134.892C53.4831 135.097 52.958 135.303 52.4325 135.509Z" fill="#22211F"/>
<path d="M51.1346 140.452C50.8162 140.452 50.5011 140.404 50.2006 140.305C49.9503 140.224 49.7688 140.007 49.7316 139.747C49.5432 138.415 49.8896 137.15 50.2245 135.926L50.3214 135.571C50.4188 135.208 50.7868 134.991 51.1529 135.082C51.4194 135.149 51.7924 135.018 52.1806 134.866L53.7563 134.248C53.8009 134.23 53.8468 134.218 53.8941 134.21L54.4583 134.115C54.6407 134.084 54.8332 134.13 54.9848 134.243C55.1354 134.355 55.2337 134.524 55.2567 134.712C55.3858 135.775 55.5953 136.747 55.898 137.682C56.2499 138.771 55.797 139.371 55.3026 139.553C54.6163 139.806 54.1923 139.365 53.952 138.98C53.6837 139.358 53.3296 139.687 52.9074 139.943C52.3506 140.279 51.7364 140.452 51.1346 140.452ZM51.0578 139.072C51.4286 139.084 51.8292 138.984 52.193 138.763C52.6993 138.457 53.0383 137.991 53.1233 137.485C53.1577 137.28 53.2836 137.102 53.4646 136.999C53.6456 136.897 53.8624 136.882 54.0568 136.959C54.1431 136.993 54.2212 137.035 54.2934 137.083C54.1748 136.613 54.0761 136.132 53.9961 135.634L52.685 136.149C52.6846 136.149 52.6841 136.149 52.6841 136.149C52.3088 136.296 51.9155 136.435 51.5058 136.47C51.2591 137.369 51.039 138.231 51.0578 139.072Z" fill="#22211F"/>
<path d="M43.2562 113.59C43.6734 121.448 42.5676 129.384 40.0184 136.828C41.5629 136.523 42.9099 135.363 43.4418 133.881C43.5333 134.851 43.8057 136.042 44.752 136.273C45.6915 130.204 46.9975 124.192 48.6606 118.28" fill="#B09084"/>
<path d="M40.0184 137.515C39.8218 137.515 39.6316 137.43 39.4993 137.279C39.3371 137.094 39.2866 136.836 39.3665 136.602C41.8707 129.289 42.9778 121.342 42.568 113.623C42.5478 113.243 42.8395 112.919 43.2199 112.899C43.5952 112.886 43.9242 113.171 43.9444 113.551C44.3376 120.959 43.3646 128.571 41.1265 135.662C41.8854 135.2 42.4922 134.484 42.7931 133.645C42.902 133.341 43.208 133.156 43.5282 133.194C43.8484 133.235 44.0978 133.492 44.1281 133.814C44.1575 134.124 44.2081 134.463 44.2949 134.763C45.216 129.158 46.4596 123.556 47.9972 118.09C48.1005 117.724 48.4823 117.512 48.847 117.614C49.2136 117.717 49.4268 118.097 49.3239 118.464C47.6728 124.332 46.364 130.359 45.4328 136.376C45.403 136.567 45.295 136.736 45.1347 136.844C44.9734 136.951 44.7754 136.987 44.5889 136.94C43.9628 136.787 43.4905 136.369 43.1767 135.69C42.4063 136.606 41.3309 137.269 40.1525 137.502C40.1075 137.51 40.0625 137.515 40.0184 137.515Z" fill="#B09084"/>
<path d="M45.5693 130.968C44.3877 131.23 42.15 131.289 42.2409 131.243L41.5689 131.514C41.1311 133.307 40.6156 135.079 40.0179 136.825C41.5624 136.519 42.9094 135.359 43.4413 133.877C43.5328 134.847 43.8052 136.039 44.7515 136.27C45.0272 134.49 45.3382 132.715 45.6763 130.945L45.5693 130.968Z" fill="#22211F"/>
<path d="M40.0184 137.512C39.8218 137.512 39.6316 137.428 39.4993 137.276C39.3371 137.091 39.2866 136.833 39.3665 136.6C39.9458 134.907 40.4617 133.14 40.8995 131.348C40.9519 131.133 41.1053 130.956 41.3111 130.873L41.9837 130.602C42.1151 130.549 42.2533 130.54 42.3801 130.566C42.7697 130.567 44.4736 130.503 45.42 130.293C45.4223 130.292 45.425 130.292 45.4278 130.291L45.5348 130.269C45.7604 130.221 45.9947 130.29 46.1591 130.452C46.3231 130.613 46.3962 130.846 46.353 131.072C46.0034 132.899 45.6938 134.682 45.4324 136.373C45.4025 136.563 45.2945 136.733 45.1342 136.84C44.973 136.947 44.775 136.983 44.5885 136.937C43.9623 136.784 43.49 136.365 43.1763 135.686C42.4059 136.602 41.3304 137.265 40.1521 137.498C40.1075 137.507 40.0625 137.512 40.0184 137.512ZM42.1532 132.02C41.845 133.251 41.5009 134.469 41.126 135.66C41.8854 135.198 42.4922 134.481 42.7931 133.642C42.902 133.338 43.208 133.153 43.5282 133.191C43.8484 133.232 44.0978 133.489 44.1281 133.811C44.1575 134.121 44.2085 134.461 44.2954 134.761C44.4557 133.791 44.6302 132.797 44.8168 131.787C44.3252 131.847 43.8369 131.884 43.5194 131.904C42.9925 131.936 42.6135 131.959 42.3365 131.946L42.1532 132.02Z" fill="#22211F"/>
<path d="M23.0132 121.129C23.2438 124.798 23.2236 128.478 23.2034 132.155C23.1914 134.305 23.1772 136.477 22.6847 138.571C22.3259 140.095 21.7122 141.624 21.9318 143.175C23.3559 143.64 25.0717 142.601 25.3203 141.124C25.9313 141.367 25.9643 142.658 26.5813 142.431C26.9387 142.299 26.8762 141.781 26.7591 141.418C24.8848 135.61 26.5974 129.321 28.31 123.463" fill="#B09084"/>
<path d="M22.6517 143.982C22.3338 143.982 22.0187 143.934 21.7183 143.836C21.4683 143.754 21.2864 143.538 21.2492 143.277C21.0604 141.946 21.4072 140.68 21.7421 139.458C21.8372 139.111 21.9323 138.764 22.0141 138.418C22.4909 136.39 22.5024 134.237 22.5139 132.156C22.5337 128.551 22.5543 124.824 22.3256 121.177C22.3017 120.798 22.5902 120.47 22.9701 120.446C23.3606 120.425 23.6771 120.712 23.701 121.091C23.9325 124.784 23.9119 128.535 23.8921 132.164C23.8806 134.322 23.8682 136.553 23.3555 138.734C23.2701 139.096 23.1713 139.459 23.0716 139.822C22.8075 140.787 22.5553 141.706 22.5755 142.603C22.9536 142.616 23.3477 142.514 23.7102 142.294C24.2164 141.987 24.5555 141.521 24.6405 141.015C24.6749 140.81 24.8008 140.632 24.9818 140.529C25.1637 140.427 25.3805 140.413 25.5744 140.489C25.6598 140.523 25.7379 140.565 25.8096 140.612C24.312 134.689 26.1532 128.391 27.6486 123.276C27.7552 122.911 28.1383 122.702 28.503 122.808C28.8683 122.914 29.0777 123.297 28.9707 123.662C27.4423 128.892 25.5395 135.401 27.4147 141.212C27.7666 142.301 27.3137 142.9 26.8194 143.083C26.1317 143.337 25.709 142.894 25.4687 142.51C25.2005 142.887 24.8463 143.217 24.4236 143.473C23.8677 143.809 23.254 143.982 22.6517 143.982Z" fill="#B09084"/>
<path d="M23.9499 139.033C23.4869 139.215 22.9824 139.395 22.5042 139.276C22.156 140.568 21.7458 141.864 21.9318 143.177C23.3559 143.641 25.0718 142.603 25.3203 141.125C25.9313 141.368 25.9644 142.66 26.5813 142.432C26.9387 142.3 26.8763 141.782 26.7591 141.419C26.4302 140.4 26.217 139.365 26.0898 138.32L25.5261 138.415C25.0006 138.621 24.4755 138.827 23.9499 139.033Z" fill="#22211F"/>
<path d="M22.6516 143.975C22.3337 143.975 22.0185 143.927 21.7181 143.829C21.4677 143.747 21.2862 143.53 21.249 143.27C21.0607 141.938 21.4071 140.673 21.742 139.449L21.8389 139.094C21.9363 138.732 22.3047 138.514 22.6704 138.605C22.9401 138.672 23.3103 138.542 23.6976 138.389L25.2738 137.771C25.3183 137.754 25.3643 137.741 25.4116 137.733L25.9757 137.638C26.159 137.607 26.3511 137.653 26.5022 137.766C26.6529 137.879 26.7512 138.048 26.7742 138.235C26.9033 139.298 27.1127 140.27 27.4155 141.206C27.7674 142.294 27.3144 142.894 26.8201 143.076C26.1324 143.33 25.7097 142.888 25.4695 142.504C25.2012 142.881 24.847 143.21 24.4244 143.466C23.8676 143.802 23.2538 143.975 22.6516 143.975ZM22.5753 142.596C22.9534 142.609 23.3475 142.507 23.71 142.287C24.2163 141.98 24.5553 141.514 24.6403 141.008C24.6747 140.803 24.8006 140.625 24.9816 140.522C25.1635 140.42 25.3804 140.405 25.5742 140.482C25.6597 140.516 25.7382 140.558 25.8104 140.606C25.6918 140.136 25.5931 139.655 25.5131 139.158L24.2016 139.672C23.8262 139.819 23.433 139.958 23.0223 139.993C22.7765 140.893 22.5565 141.754 22.5753 142.596Z" fill="#22211F"/>
<path d="M14.7739 117.109C15.1911 124.967 14.0853 132.903 11.5361 140.348C13.0806 140.042 14.4276 138.882 14.9595 137.4C15.051 138.37 15.3234 139.562 16.2697 139.793C17.2092 133.724 18.5152 127.711 20.1783 121.799" fill="#B09084"/>
<path d="M11.5363 141.042C11.3393 141.042 11.1495 140.958 11.0172 140.807C10.8551 140.621 10.8045 140.363 10.8845 140.129C13.3886 132.816 14.4958 124.87 14.086 117.151C14.0658 116.771 14.3575 116.446 14.7379 116.426C15.1136 116.415 15.4421 116.698 15.4623 117.078C15.8556 124.486 14.8826 132.099 12.6444 139.19C13.4033 138.728 14.0102 138.012 14.3111 137.173C14.42 136.869 14.7255 136.683 15.0461 136.722C15.3663 136.763 15.6158 137.019 15.6461 137.341C15.6755 137.652 15.726 137.991 15.8128 138.291C16.7339 132.685 17.9775 127.084 19.5151 121.618C19.6185 121.252 20.0011 121.039 20.365 121.141C20.7316 121.245 20.9447 121.625 20.8418 121.992C19.1908 127.86 17.8819 133.887 16.9508 139.904C16.9209 140.095 16.8129 140.264 16.6526 140.372C16.4914 140.478 16.2934 140.514 16.1069 140.468C15.4807 140.315 15.0084 139.897 14.6947 139.218C13.9243 140.134 12.8484 140.796 11.6705 141.029C11.6255 141.038 11.5804 141.042 11.5363 141.042Z" fill="#B09084"/>
<path d="M17.0872 134.495C15.9056 134.757 13.6679 134.816 13.7589 134.77L13.0868 135.041C12.649 136.833 12.1336 138.606 11.5359 140.352C13.0804 140.046 14.4273 138.887 14.9593 137.405C15.0507 138.374 15.3231 139.566 16.2695 139.797C16.5451 138.017 16.8561 136.242 17.1942 134.473L17.0872 134.495Z" fill="#22211F"/>
<path d="M11.5363 141.039C11.3393 141.039 11.1495 140.954 11.0172 140.803C10.8551 140.618 10.8045 140.359 10.8845 140.126C11.4638 138.434 11.9797 136.668 12.4175 134.876C12.4698 134.66 12.6233 134.483 12.8291 134.4L13.5016 134.129C13.6321 134.077 13.769 134.067 13.8981 134.093C14.2821 134.105 15.9906 134.03 16.9379 133.82C16.9407 133.82 16.9434 133.819 16.9457 133.819L17.0527 133.796C17.2788 133.748 17.5121 133.817 17.6771 133.979C17.8411 134.141 17.9141 134.373 17.8709 134.6C17.5213 136.427 17.2117 138.21 16.9503 139.9C16.9204 140.091 16.8125 140.26 16.6522 140.368C16.4909 140.475 16.2934 140.509 16.1059 140.464C15.4802 140.311 15.008 139.892 14.6942 139.214C13.9238 140.13 12.8479 140.792 11.67 141.025C11.6255 141.035 11.5804 141.039 11.5363 141.039ZM13.6711 135.547C13.3629 136.779 13.0188 137.997 12.6439 139.187C13.4029 138.725 14.0102 138.009 14.3111 137.17C14.42 136.866 14.7255 136.68 15.0461 136.719C15.3663 136.76 15.6158 137.016 15.6461 137.339C15.6755 137.649 15.7265 137.989 15.8133 138.289C15.9736 137.319 16.1482 136.325 16.3347 135.314C15.8432 135.375 15.3548 135.411 15.0374 135.431C14.5109 135.464 14.1338 135.486 13.8544 135.474L13.6711 135.547Z" fill="#22211F"/>
<path d="M10.8507 96.1694C9.96959 97.1571 9.06458 98.1866 8.67409 99.4514C8.28361 100.716 8.55786 102.288 9.66225 103.017C8.86842 104.436 8.23813 106.063 8.53995 107.661C8.84177 109.259 10.3936 110.701 11.9836 110.36C11.0037 111.956 10.6086 114.054 11.4989 115.702C12.3892 117.349 14.83 118.123 16.2486 116.9C16.1755 118.911 17.4228 120.908 19.2627 121.724C21.1026 122.541 23.4197 122.125 24.8622 120.721C25.8228 122.531 27.8166 123.744 29.8655 123.766C31.9144 123.787 33.933 122.616 34.9317 120.827C36.4275 121.715 38.0799 122.456 39.8197 122.476C41.5594 122.495 43.396 121.649 44.1352 120.074C45.3636 120.618 46.6472 121.172 47.9891 121.116C49.3309 121.059 50.7413 120.188 50.943 118.861C50.6517 119.275 51.5218 119.463 51.9711 119.231C53.4352 118.473 54.8993 117.715 56.3634 116.957C56.3634 116.957 61.854 111.555 59.71 110.33C57.5661 109.105 65.0698 108.493 64.151 102.827C63.2327 97.1604 59.7105 91.4946 57.4135 90.2694C55.1166 89.0442 42.7492 87.8126 42.7492 87.8126C42.7051 87.565 42.6605 87.3169 42.6164 87.0693C42.0643 87.5034 41.2438 87.1975 40.6879 86.7679C40.1325 86.3379 39.6125 85.7743 38.916 85.6828C37.7809 85.534 36.9572 86.6627 36.1371 87.4616C35.9612 87.633 35.7434 87.8043 35.4995 87.7781C35.1132 87.7368 34.9634 87.2714 34.7493 86.9471C34.2256 86.1528 33.0463 86.0981 32.1634 86.4519C31.2804 86.8061 30.5477 87.4598 29.6808 87.8516C29.6937 86.8235 29.1337 85.8069 28.2572 85.2689C27.3811 84.731 26.2207 84.691 25.3101 85.1674L19.1313 85.3695" fill="#E6E5E5"/>
<path d="M29.9196 124.224C29.8999 124.224 29.8801 124.223 29.8604 124.223C27.8505 124.202 25.8646 123.098 24.7496 121.426C23.1688 122.655 20.9164 122.959 19.0766 122.142C17.3125 121.36 16.057 119.605 15.825 117.702C15.2498 117.954 14.5841 118.022 13.8868 117.895C12.7061 117.677 11.6362 116.92 11.0946 115.918C10.1955 114.253 10.5102 112.324 11.1989 110.849C10.7197 110.795 10.2429 110.618 9.80322 110.326C8.9244 109.742 8.28309 108.777 8.0883 107.745C7.82921 106.376 8.14252 104.904 9.07279 103.138C8.03731 102.191 7.8508 100.556 8.23485 99.3144C8.66163 97.9312 9.64243 96.8323 10.5075 95.8621C10.6765 95.6733 10.9664 95.6567 11.1561 95.8253C11.3454 95.9939 11.3619 96.2847 11.1929 96.474C10.3903 97.3735 9.48027 98.3934 9.1123 99.585C8.79164 100.624 8.9639 102.004 9.91485 102.632C10.1161 102.764 10.1804 103.03 10.0628 103.24C9.09806 104.964 8.75764 106.341 8.99055 107.574C9.13848 108.356 9.64473 109.117 10.3113 109.56C10.6669 109.797 11.2287 110.049 11.8866 109.909C12.0676 109.868 12.2513 109.942 12.3579 110.092C12.464 110.242 12.4705 110.441 12.3744 110.598C11.5751 111.901 11.0307 113.868 11.9027 115.481C12.3147 116.245 13.1389 116.823 14.0526 116.991C14.789 117.125 15.4616 116.969 15.9481 116.55C16.0868 116.431 16.283 116.405 16.447 116.484C16.6115 116.563 16.7139 116.732 16.707 116.915C16.6404 118.752 17.7677 120.557 19.4487 121.302C21.1301 122.048 23.224 121.673 24.5415 120.391C24.6449 120.29 24.7905 120.244 24.9334 120.266C25.0763 120.289 25.1998 120.377 25.2678 120.505C26.1466 122.161 27.9957 123.286 29.87 123.305C29.8866 123.305 29.9031 123.306 29.9201 123.306C31.7774 123.306 33.6247 122.224 34.5297 120.602C34.5899 120.494 34.6918 120.415 34.8113 120.382C34.9307 120.351 35.0584 120.368 35.1655 120.431C36.9589 121.496 38.4396 122 39.8242 122.015C41.2612 122.023 43.0161 121.376 43.7189 119.878C43.8241 119.652 44.092 119.551 44.3207 119.653C45.4389 120.148 46.7087 120.708 47.9697 120.656C48.9859 120.612 50.1192 120.009 50.427 119.052C50.4192 118.898 50.466 118.739 50.5671 118.595C50.6902 118.421 50.9163 118.354 51.1143 118.433C51.292 118.504 51.4046 118.677 51.4023 118.865C51.5149 118.878 51.6637 118.871 51.7602 118.821L56.0904 116.58C57.6055 115.078 59.8965 112.309 59.7408 111.109C59.7178 110.932 59.6402 110.817 59.4821 110.727C59.331 110.64 58.8707 110.378 58.8633 109.894C58.8551 109.325 59.4256 108.976 60.2888 108.449C61.8498 107.494 64.2088 106.053 63.6975 102.899C62.8366 97.5876 59.4376 91.8681 57.1971 90.6737C55.444 89.7388 46.9499 88.6919 42.7032 88.2688C42.4992 88.2485 42.3329 88.0947 42.2966 87.893L42.2649 87.7138C41.6135 87.8273 40.9042 87.5149 40.4067 87.1299C40.2854 87.0367 40.1669 86.937 40.0475 86.8373C39.6501 86.5051 39.2743 86.1914 38.8558 86.1367C38.1433 86.0499 37.5318 86.6797 36.8854 87.3532C36.7416 87.503 36.5992 87.6509 36.4573 87.7892C36.3172 87.9256 35.9464 88.2844 35.4494 88.2334C34.9165 88.1764 34.6698 87.7336 34.4892 87.4102C34.4488 87.3371 34.4084 87.2645 34.3652 87.1984C33.9802 86.6145 33.0316 86.5979 32.3333 86.8768C31.9038 87.0491 31.5064 87.3036 31.0851 87.5728C30.7015 87.8181 30.3051 88.0721 29.8686 88.2692C29.7262 88.3345 29.559 88.3211 29.4281 88.2352C29.2967 88.1489 29.2186 88.0019 29.2204 87.8447C29.2315 86.9733 28.7588 86.1151 28.0159 85.6594C27.2735 85.2032 26.2946 85.1697 25.5223 85.573C25.4608 85.6052 25.3932 85.6227 25.3243 85.625L19.1455 85.8271C18.89 85.8491 18.6792 85.6369 18.6714 85.3833C18.6626 85.1293 18.8616 84.917 19.1151 84.9092L25.1934 84.7098C26.2312 84.2105 27.5147 84.273 28.4964 84.8752C29.2999 85.3686 29.8714 86.2065 30.0662 87.1253C30.2394 87.022 30.4126 86.9113 30.5904 86.7978C31.0282 86.5176 31.4811 86.2277 31.9915 86.0232C33.0527 85.5969 34.4727 85.6897 35.1324 86.6921C35.188 86.7762 35.2399 86.8685 35.2918 86.9618C35.3557 87.0757 35.4875 87.3123 35.5477 87.3187C35.5477 87.3187 35.6198 87.3215 35.816 87.1304C35.951 86.9985 36.0861 86.858 36.223 86.7155C36.9631 85.9447 37.807 85.0695 38.9752 85.2253C39.6583 85.3144 40.1779 85.7485 40.6364 86.1317C40.7467 86.224 40.8569 86.3163 40.969 86.4027C41.3939 86.7316 42.0022 86.9664 42.3325 86.7064C42.4593 86.6067 42.6292 86.5809 42.7799 86.6384C42.9306 86.6958 43.0399 86.8276 43.0689 86.9866L43.1406 87.3895C45.206 87.6031 55.473 88.7125 57.6299 89.8624C60.1542 91.2093 63.6736 97.0074 64.6053 102.752C65.2154 106.515 62.4319 108.217 60.7684 109.233C60.4198 109.445 59.9994 109.702 59.8349 109.864C59.8602 109.882 59.8942 109.904 59.9388 109.93C60.3458 110.162 60.5925 110.529 60.6527 110.991C60.92 113.051 57.1204 116.857 56.6863 117.284C56.6536 117.316 56.6164 117.343 56.5755 117.364L52.1833 119.637C51.8938 119.787 51.4827 119.833 51.1299 119.751C50.5446 120.879 49.2014 121.522 48.0088 121.573C46.6875 121.63 45.4495 121.149 44.3364 120.664C43.4819 122.042 41.7555 122.935 39.8807 122.935C39.8586 122.935 39.8366 122.934 39.815 122.934C37.982 122.914 36.2965 122.133 35.0883 121.449C33.9596 123.129 31.9447 124.223 29.9196 124.224Z" fill="#E6E5E5"/>
<path d="M19.5136 88.2746L18.2608 86.5L10.8508 96.1657C9.96966 97.1534 9.06465 98.1829 8.67416 99.4476C8.28368 100.712 8.55794 102.284 9.66232 103.013C9.51853 103.271 9.38347 103.537 9.25484 103.807C19.1364 98.8233 19.5136 88.2746 19.5136 88.2746Z" fill="#F0F0F0"/>
<path d="M9.25481 104.268C9.1372 104.268 9.02143 104.223 8.93369 104.137C8.79312 103.999 8.75544 103.788 8.84043 103.611C8.91623 103.451 8.99434 103.294 9.07519 103.138C8.03834 102.193 7.85181 100.557 8.23586 99.3144C8.66264 97.9312 9.64346 96.8323 10.5085 95.8621L17.8965 86.2231C17.9851 86.1073 18.1298 86.0443 18.2704 86.043C18.4165 86.0462 18.5525 86.1183 18.637 86.2378L19.8898 88.0124C19.9477 88.0946 19.9766 88.1934 19.9734 88.2935C19.9697 88.4015 19.4713 99.172 9.46245 104.218C9.3963 104.252 9.3251 104.268 9.25481 104.268ZM18.2456 87.2774L11.2155 96.4473C10.3909 97.3735 9.48082 98.3929 9.11285 99.585C8.79219 100.624 8.96447 102.004 9.91541 102.632C9.99305 102.683 10.0505 102.754 10.0845 102.834C18.0251 98.182 18.9522 89.6428 19.045 88.4098L18.2456 87.2774Z" fill="#F0F0F0"/>
<path d="M21.2029 86.4039C20.5859 89.847 17.8815 93.208 15.3029 94.8618C6.52388 100.493 3.96 99.5104 3.35866 98.8434C2.57493 97.9737 3.41791 94.978 3.87041 93.8984C4.32292 92.8189 6.58589 84.8001 8.32378 82.3718L10.1728 78.4766L16.6044 78.7063L20.7389 80.5438L21.428 86.6689L21.2029 86.4039Z" fill="#B09084"/>
<path d="M4.94579 100.063C3.82303 100.063 3.1955 99.6981 2.84636 99.3099C1.54673 97.8674 3.21755 93.6787 3.23455 93.6369C3.33607 93.3952 3.57587 92.6501 3.85381 91.7873C4.79602 88.8587 6.36761 83.9749 7.72696 82.0284L9.55076 78.187C9.66836 77.9384 9.90403 77.7772 10.198 77.7942L16.6296 78.0239C16.7173 78.0271 16.8041 78.0473 16.885 78.0827L21.0196 79.9203C21.2428 80.02 21.3967 80.2304 21.4243 80.4729L22.1134 86.598C22.1469 86.8957 21.9843 87.1815 21.7114 87.3037C20.7894 90.8245 18.0133 93.9479 15.675 95.4478C10.0575 99.0508 6.81507 100.063 4.94579 100.063ZM10.6009 79.1871L8.9462 82.673C8.92829 82.7097 8.90761 82.7451 8.88372 82.7786C7.64151 84.5142 6.03042 89.5202 5.16492 92.2095C4.84242 93.2119 4.62927 93.8739 4.50478 94.1702C3.90297 95.6058 3.47895 97.9538 3.86944 98.3879C3.88781 98.4072 5.68863 100.217 14.9298 94.2874C17.1937 92.8352 19.9101 89.7127 20.5239 86.2879C20.5441 86.1768 20.5905 86.0743 20.6566 85.9884L20.0975 81.0196L16.4458 79.3966L10.6009 79.1871Z" fill="#B09084"/>
<path d="M5.53831 97.2967C5.48181 97.2967 5.42484 97.2866 5.36925 97.2645C5.13312 97.1712 5.01781 96.9043 5.11107 96.6682C5.27507 96.2548 5.62652 95.9281 6.05146 95.7949C6.29402 95.7182 6.55128 95.8537 6.62708 96.0958C6.70288 96.3375 6.56827 96.5956 6.32617 96.6714C6.16538 96.7215 6.02756 96.8506 5.96555 97.0068C5.89388 97.1869 5.72115 97.2967 5.53831 97.2967Z" fill="#22211F"/>
<path d="M6.80707 83.7566C6.65042 83.22 6.64307 83.9642 6.50433 83.9808C5.00946 84.1567 3.47646 83.4589 2.50713 82.3072C1.53781 81.1555 1.11196 79.6004 1.1997 78.0982C1.23875 77.433 1.37795 76.7605 1.72066 76.189C1.83 76.0066 1.97792 75.8233 2.18603 75.7792C2.46856 75.7195 2.73959 75.9455 2.8696 76.2032C2.99961 76.4609 3.03819 76.7554 3.15258 77.0205C3.35012 77.4767 3.78288 77.8231 4.27122 77.9149C4.67227 77.9907 5.08848 77.9034 5.49275 77.9609C5.89702 78.0178 6.32976 78.3073 6.31598 78.7152L9.09945 79.6983" fill="#B09084"/>
<path d="M6.03857 84.6944C4.53084 84.6944 3.01484 83.9782 1.98029 82.7484C0.944813 81.5177 0.409615 79.8073 0.512519 78.0552C0.564431 77.1658 0.766562 76.4386 1.12994 75.8322C1.37434 75.4242 1.68213 75.1789 2.0446 75.1022C2.59725 74.9842 3.19262 75.3085 3.48571 75.8901C3.58632 76.089 3.64237 76.2838 3.69152 76.4556C3.71954 76.5534 3.7462 76.6518 3.78617 76.7445C3.89321 76.9926 4.13439 77.1851 4.39992 77.2352C4.54095 77.2618 4.71506 77.2572 4.90203 77.2522C5.10876 77.2471 5.3435 77.2412 5.5902 77.2756C6.12355 77.3509 6.67391 77.6799 6.89993 78.187L9.33014 79.0452C9.68892 79.1715 9.87726 79.5657 9.75047 79.924C9.6246 80.2828 9.22952 80.4712 8.87165 80.3444L6.08772 79.3613C5.81944 79.2671 5.6389 79.0185 5.62833 78.7383C5.59066 78.7043 5.50245 78.6547 5.39817 78.64C5.26449 78.6212 5.10462 78.6258 4.93786 78.6299C4.69944 78.6368 4.42978 78.6432 4.14449 78.589C3.43151 78.4549 2.80948 77.9574 2.52098 77.2912C2.45759 77.1442 2.41165 76.9908 2.36709 76.8364C2.34044 76.745 2.31564 76.6563 2.2867 76.5828C2.05608 76.9876 1.92561 77.4961 1.88794 78.1356C1.80571 79.5395 2.22422 80.897 3.03459 81.8604C3.79902 82.7686 4.94889 83.3148 6.04868 83.3148H6.05005C6.19109 83.0208 6.41068 82.8715 6.70607 82.8701C6.70745 82.8701 6.70837 82.8701 6.70974 82.8701C6.96517 82.8701 7.30237 82.9905 7.46867 83.5601C7.56836 83.9001 7.39332 84.2556 7.07404 84.3893C6.96838 84.5226 6.81402 84.6351 6.58433 84.6622C6.40332 84.6833 6.22049 84.6944 6.03857 84.6944Z" fill="#B09084"/>
<path d="M20.9237 86.0133C20.8773 85.9214 20.7216 86.0354 20.7592 86.1314C20.7969 86.2274 26.4695 86.0184 28.9709 84.9342C29.6338 84.6471 30.2953 84.3255 30.831 83.8399C31.3666 83.3548 31.7677 82.6804 31.7806 81.9582C31.7829 81.8273 31.7691 81.6876 31.6868 81.5857C31.4898 81.3422 31.1048 81.4878 30.8209 81.6201C29.7298 82.1277 28.4128 82.1227 27.3258 81.6072C26.7571 81.3376 26.2398 80.9333 25.6228 80.8061C25.0059 80.6788 24.2263 80.9797 24.1418 81.604L21.045 81.4635" fill="#B09084"/>
<path d="M21.2954 86.8394C20.8829 86.8394 20.5995 86.8179 20.5007 86.777C20.328 86.7053 20.186 86.562 20.118 86.3879C19.9627 85.9919 20.1534 85.5417 20.5531 85.3634C20.8324 85.2389 21.136 85.2862 21.3492 85.4668C22.7752 85.4328 26.7962 85.1305 28.6963 84.3073C29.3854 84.0087 29.933 83.7284 30.3676 83.3347C30.7149 83.02 30.951 82.6488 31.0452 82.28C29.7777 82.8455 28.2824 82.8294 27.0301 82.2349C26.8275 82.1385 26.6309 82.0278 26.4347 81.9161C26.103 81.7273 25.7906 81.5491 25.4833 81.4857C25.294 81.448 25.0519 81.4912 24.9109 81.5909C24.8319 81.6465 24.8259 81.6878 24.8241 81.7016C24.7763 82.0549 24.4827 82.3172 24.1097 82.297L21.0129 82.1564C20.633 82.1394 20.3385 81.8173 20.356 81.437C20.373 81.0575 20.6872 80.7488 21.0754 80.78L23.6907 80.8986C23.7991 80.7341 23.942 80.5871 24.1138 80.4658C24.565 80.1465 25.1948 80.0197 25.7612 80.1364C26.2817 80.2435 26.725 80.4957 27.116 80.7185C27.2823 80.8131 27.4486 80.9087 27.6204 80.99C28.5148 81.4149 29.6302 81.419 30.5293 81.0005C31.2841 80.6486 31.8537 80.7024 32.2217 81.1577C32.4776 81.4746 32.4711 81.8513 32.4688 81.9749C32.4537 82.8253 32.0246 83.6921 31.2928 84.356C30.6855 84.9072 29.9491 85.266 29.2443 85.5715C27.2253 86.4471 23.0705 86.8394 21.2954 86.8394Z" fill="#B09084"/>
<path d="M6.35132 81.0269C5.32595 81.0269 4.30426 80.7775 3.39374 80.2956C3.16956 80.1771 3.08364 79.8991 3.20263 79.6745C3.32161 79.4508 3.59862 79.3639 3.82372 79.4834C4.86839 80.036 6.08625 80.2304 7.25265 80.0314C7.5067 79.9887 7.74098 80.1564 7.78279 80.4063C7.82597 80.6567 7.65783 80.8942 7.40792 80.9364C7.05786 80.9971 6.70413 81.0269 6.35132 81.0269Z" fill="#22211F"/>
<path d="M25.4273 83.569C25.3198 83.569 25.2118 83.5608 25.1048 83.5442C24.9591 83.5222 24.8121 83.4841 24.6665 83.445C24.4331 83.3825 24.231 83.3288 24.0794 83.371C23.835 83.4395 23.5819 83.2966 23.5134 83.0522C23.4454 82.8078 23.5878 82.5542 23.8322 82.4863C24.225 82.3755 24.5857 82.4729 24.9031 82.557C25.0166 82.5873 25.1296 82.6186 25.243 82.636C25.6124 82.6911 26.0125 82.5699 26.2868 82.3167C26.4719 82.1454 26.7636 82.1564 26.9359 82.3434C27.1077 82.5294 27.0962 82.8202 26.9093 82.9925C26.5078 83.3637 25.9712 83.569 25.4273 83.569Z" fill="#22211F"/>
<path d="M11.9785 89.3731C11.9358 90.4595 12.3846 91.3508 12.9809 91.3641C13.5777 91.3774 14.0959 90.5073 14.1386 89.4208C14.1813 88.3344 13.7325 87.4432 13.1357 87.4298C12.5394 87.417 12.0212 88.2866 11.9785 89.3731Z" fill="#E6E5E5"/>
<path d="M12.995 91.8252C12.9867 91.8252 12.9785 91.8252 12.9702 91.8252C12.6629 91.8183 12.3743 91.681 12.1364 91.4279C11.716 90.9804 11.4854 90.2068 11.519 89.3569C11.5722 87.9911 12.2595 86.9727 13.1218 86.9727C13.1301 86.9727 13.1374 86.9727 13.1457 86.9727C13.453 86.9795 13.7415 87.1164 13.9795 87.3696C14.3998 87.8166 14.6309 88.5906 14.5974 89.441C14.5441 90.8068 13.8564 91.8252 12.995 91.8252ZM13.1227 87.891C12.8719 87.891 12.4731 88.4859 12.4373 89.3932C12.4373 89.3932 12.4373 89.3932 12.4373 89.3937C12.4093 90.1108 12.6183 90.5982 12.8062 90.7985C12.8521 90.8467 12.921 90.9051 12.9909 90.9065C12.9922 90.9065 12.9936 90.9065 12.9945 90.9065C13.2454 90.9065 13.6441 90.3115 13.68 89.4042C13.708 88.6862 13.4985 88.1988 13.3106 87.9989C13.2651 87.9507 13.1962 87.8924 13.1264 87.891C13.125 87.891 13.1241 87.891 13.1227 87.891Z" fill="#E6E5E5"/>
<path d="M12.634 87.6445C12.883 88.0093 13.0328 88.5799 13.0075 89.2239C12.9776 89.9851 12.7116 90.6324 12.3515 90.9517C12.1025 90.587 11.9527 90.0164 11.978 89.3723C12.0083 88.6111 12.2738 87.9638 12.634 87.6445Z" fill="#22211F"/>
<path d="M12.3515 91.4137C12.3327 91.4137 12.3138 91.4123 12.295 91.41C12.1641 91.394 12.046 91.3223 11.972 91.213C11.6555 90.749 11.491 90.0723 11.5195 89.3561C11.5535 88.4901 11.8563 87.7225 12.3299 87.3031C12.4287 87.2153 12.5601 87.1749 12.691 87.191C12.8219 87.207 12.9395 87.2787 13.0139 87.388C13.33 87.8511 13.4949 88.5273 13.4669 89.2445C13.4329 90.1109 13.1297 90.8785 12.6561 91.2979C12.572 91.3728 12.4631 91.4137 12.3515 91.4137ZM12.532 88.7488C12.482 88.9348 12.447 89.1498 12.4374 89.3924C12.431 89.5481 12.4369 89.7015 12.4535 89.8472C12.5045 89.6584 12.5398 89.4434 12.549 89.2082C12.5545 89.0515 12.549 88.8967 12.532 88.7488Z" fill="#22211F"/>
<path d="M9.59054 81.7847C10.1216 81.5205 10.5024 81.0345 10.864 80.5645C10.6577 81.5279 11.6992 82.414 12.6827 82.3589C13.6663 82.3038 14.4946 81.5908 15.0739 80.7942C14.9485 81.5646 14.9016 82.4843 15.4988 82.9869C15.9522 83.3682 16.6413 83.3494 17.1784 83.0981C17.7154 82.8468 18.1348 82.4048 18.5405 81.973C18.2768 82.8743 18.2212 83.9029 18.7155 84.7014C19.2098 85.4998 20.3941 85.8976 21.1342 85.3192C21.3065 85.1846 21.4484 85.0059 21.646 84.9118C21.8472 84.8153 22.0796 84.8194 22.3011 84.7919C23.0926 84.6945 23.8125 84.1464 24.1171 83.4091C24.3288 82.8969 24.3389 82.2886 24.0743 81.8012C23.8097 81.3142 23.2506 80.9816 22.7012 81.0515C23.4114 80.519 23.9549 79.7266 24.0592 78.845C24.163 77.9634 23.7725 77.0088 23.0076 76.5581C22.2427 76.1075 21.1333 76.2797 20.6312 77.012C21.1025 75.4041 20.0514 73.5128 18.4371 73.0635C16.8228 72.6142 14.9462 73.6911 14.5189 75.3113C14.3531 74.863 14.1013 74.4463 13.7779 74.0944C13.0411 73.2918 11.8558 72.8531 10.8203 73.1903C9.78441 73.5275 9.06178 74.7495 9.44216 75.7703C8.78339 75.1313 7.65282 75.4528 6.94856 76.0409C6.62147 76.3137 6.31827 76.6702 6.29301 77.0956C6.26728 77.521 6.65134 77.9772 7.06571 77.8784C6.49652 77.8316 5.97971 78.3778 5.97925 78.9488C5.97879 80.0592 7.06985 80.2264 7.894 80.31C7.82188 81.3758 8.25417 82.4489 9.59054 81.7847Z" fill="#E6E5E5"/>
<path d="M20.3037 86.0541C20.1805 86.0541 20.0551 86.0431 19.9288 86.0201C19.2696 85.9025 18.6701 85.5006 18.3255 84.9442C17.986 84.3957 17.8744 83.7889 17.8817 83.2142C17.7242 83.3276 17.5556 83.4301 17.3741 83.5151C16.6088 83.8725 15.757 83.804 15.2039 83.3391C14.7909 82.9913 14.6141 82.5163 14.558 82.0266C13.9787 82.5081 13.3461 82.7828 12.7094 82.8182C12.0217 82.8595 11.3069 82.543 10.8429 82.0004C10.7377 81.8773 10.6495 81.7478 10.5797 81.6141C10.3546 81.8396 10.0968 82.0464 9.79593 82.1966C8.98097 82.6018 8.44441 82.4451 8.13799 82.2407C7.71581 81.9595 7.46727 81.417 7.43098 80.7192C6.65047 80.6034 5.51898 80.2685 5.5199 78.9501C5.5199 78.5279 5.70687 78.113 6.03258 77.8112C5.89109 77.5898 5.81804 77.3266 5.83366 77.0698C5.8626 76.5833 6.1387 76.1193 6.65368 75.6897C7.26881 75.1766 8.13706 74.8582 8.88725 74.9965C8.91252 74.7075 8.99338 74.4163 9.12936 74.1347C9.44358 73.4842 10.022 72.9683 10.6775 72.7547C11.8232 72.3821 13.2065 72.7946 14.1156 73.7846C14.2507 73.9316 14.3752 74.0901 14.4882 74.2569C14.8061 73.758 15.2586 73.3266 15.803 73.0138C16.6676 72.5176 17.6727 72.3766 18.5589 72.6214C19.4464 72.8686 20.2325 73.5099 20.7167 74.3809C21.0029 74.8964 21.1655 75.46 21.1963 76.0168C21.8385 75.7637 22.6121 75.7931 23.2397 76.1629C24.1327 76.6894 24.6454 77.7892 24.514 78.8995C24.4345 79.573 24.1313 80.229 23.6554 80.7844C23.994 80.9576 24.288 81.2342 24.4773 81.5819C24.7942 82.1658 24.8177 82.9137 24.5407 83.5844C24.1718 84.4761 23.3145 85.1289 22.3567 85.2474C22.2988 85.2548 22.2414 85.2594 22.1835 85.2649C22.0494 85.2764 21.923 85.2879 21.8436 85.326C21.7769 85.3572 21.6998 85.4293 21.618 85.5051C21.5523 85.5662 21.4866 85.6264 21.4168 85.6811C21.1044 85.9269 20.7185 86.0541 20.3037 86.0541ZM18.541 81.5144C18.6191 81.5144 18.6976 81.5341 18.7688 81.575C18.953 81.6802 19.0417 81.8989 18.982 82.1024C18.8221 82.6496 18.626 83.6837 19.1065 84.4605C19.3123 84.7931 19.689 85.0444 20.0896 85.1156C20.2982 85.1528 20.5986 85.1555 20.8513 84.958C20.9009 84.9194 20.9473 84.8753 20.9941 84.8326C21.1173 84.7191 21.256 84.59 21.448 84.4982C21.6768 84.3888 21.9033 84.3686 22.1036 84.3511C22.1509 84.3466 22.1987 84.3424 22.2455 84.3374C22.8698 84.2597 23.4519 83.8169 23.6926 83.2353C23.8621 82.8241 23.8543 82.3597 23.6706 82.022C23.485 81.6807 23.1005 81.4597 22.7591 81.5089C22.5542 81.5318 22.3535 81.4193 22.2754 81.2254C22.1968 81.0325 22.2588 80.8106 22.4256 80.6852C23.0903 80.1872 23.5194 79.4976 23.6021 78.7934C23.6899 78.051 23.349 77.2949 22.7734 76.9558C22.1959 76.6168 21.3557 76.7688 21.0093 77.2737C20.8816 77.4589 20.6381 77.5264 20.4332 77.429C20.2293 77.3321 20.1259 77.1014 20.1893 76.8851C20.3795 76.2359 20.2789 75.4862 19.9132 74.8284C19.548 74.1705 18.9645 73.6895 18.3131 73.5085C17.6612 73.3266 16.9133 73.4382 16.2601 73.8122C15.6073 74.1866 15.1346 74.7769 14.9618 75.4306C14.9108 75.6245 14.7399 75.7628 14.5396 75.7724C14.3421 75.7816 14.1556 75.6603 14.0867 75.4724C13.942 75.0801 13.7178 74.7117 13.4385 74.4071C12.7792 73.6891 11.7626 73.3693 10.9614 73.6298C10.5392 73.7672 10.1639 74.1057 9.95581 74.5357C9.77895 74.9023 9.74863 75.2845 9.87083 75.613C9.94571 75.8142 9.87127 76.0407 9.69119 76.1579C9.51203 76.2755 9.27499 76.2534 9.12017 76.1032C8.68375 75.6796 7.80493 75.9259 7.24079 76.3967C6.92794 76.6577 6.76256 76.9035 6.74924 77.1263C6.74372 77.2168 6.79747 77.3339 6.87419 77.3987C6.88016 77.4037 6.89303 77.4138 6.90773 77.4226C6.97158 77.418 7.03635 77.4184 7.10113 77.4239C7.32623 77.4428 7.50448 77.6224 7.52148 77.8475C7.53847 78.0726 7.38963 78.277 7.16958 78.3289C7.07633 78.3515 6.98261 78.3584 6.88844 78.3528C6.78461 78.3809 6.70283 78.4438 6.65551 78.487C6.52045 78.6115 6.43639 78.7897 6.43639 78.9528C6.43593 79.5151 6.81447 79.7434 7.93769 79.8569C8.18393 79.8822 8.36631 80.0972 8.34977 80.3443C8.31394 80.8809 8.43291 81.3361 8.64561 81.4781C8.84407 81.6095 9.19367 81.4712 9.38478 81.3757H9.38524C9.83223 81.1538 10.1864 80.693 10.4988 80.2869C10.6297 80.1164 10.8613 80.0595 11.0561 80.15C11.2508 80.24 11.3574 80.4532 11.3124 80.6631C11.2417 80.9948 11.424 81.27 11.5393 81.4051C11.8127 81.7248 12.2643 81.9177 12.6566 81.903C13.6034 81.8497 14.3444 81.0178 14.7018 80.5267C14.8268 80.354 15.0551 80.2919 15.2503 80.3728C15.4465 80.455 15.5609 80.6608 15.5269 80.8708C15.3753 81.796 15.4598 82.3569 15.7938 82.6376C16.1122 82.9059 16.6212 82.8549 16.9832 82.6845C17.4467 82.4681 17.8326 82.0579 18.2052 81.6609C18.2957 81.5645 18.4174 81.5144 18.541 81.5144Z" fill="#E6E5E5"/>
<path d="M19.7929 102.425C20.0029 102.293 20.2969 102.18 20.4788 102.349C20.5854 102.448 20.6056 102.609 20.6024 102.754C20.579 103.861 19.6198 104.739 18.6017 105.173C19.2582 105.161 19.9647 105.247 20.4572 105.682C20.9492 106.116 21.077 107 20.5597 107.404C20.1113 107.755 19.4424 107.587 18.9702 107.27C18.4745 106.936 18.0789 106.456 17.8474 105.905C18.0348 106.885 18.1501 108.031 17.4666 108.758C17.2148 109.026 16.8124 109.208 16.4784 109.055C16.1325 108.897 16.013 108.46 16.0222 108.08C16.0411 107.288 16.4279 106.558 16.8046 105.861C16.2211 106.566 15.5844 107.307 14.7061 107.562C14.4869 107.626 14.2361 107.652 14.0436 107.531C13.7 107.313 13.7579 106.787 13.949 106.428C14.3744 105.629 15.2707 105.106 16.1747 105.129C15.7346 105.001 15.2987 104.814 14.9721 104.492C14.6454 104.171 14.4451 103.694 14.5462 103.247C14.6473 102.8 15.103 102.433 15.5536 102.517C15.9896 102.599 16.2675 103.034 16.4067 103.455C16.5464 103.876 16.607 104.334 16.8565 104.701C16.7173 103.805 16.5946 102.819 17.0752 102.05C17.1928 101.862 17.3811 101.679 17.6012 101.706C17.9122 101.743 18.0174 102.139 18.0252 102.453C18.0422 103.123 17.9218 103.752 17.7969 104.405C18.1286 104.217 18.3647 103.678 18.6343 103.387C18.9771 103.019 19.3671 102.694 19.7929 102.425Z" fill="#4BB574"/>
<path d="M16.7378 109.565C16.5876 109.565 16.435 109.535 16.2871 109.467C15.8176 109.253 15.547 108.729 15.5627 108.064C15.5663 107.924 15.5792 107.787 15.6008 107.652C15.366 107.797 15.112 107.917 14.8341 107.998C14.4229 108.119 14.0747 108.09 13.7977 107.914C13.2266 107.552 13.2372 106.781 13.5432 106.207C13.8275 105.673 14.2883 105.243 14.8285 104.973C14.7651 104.923 14.7054 104.87 14.6494 104.814C14.1808 104.353 13.969 103.712 14.0976 103.141C14.2589 102.428 14.9641 101.938 15.6375 102.06C15.9201 102.113 16.176 102.264 16.3877 102.495C16.4521 102.256 16.5481 102.022 16.6854 101.801C16.9349 101.403 17.29 101.2 17.6552 101.244C18.149 101.303 18.467 101.76 18.4844 102.436C18.4881 102.586 18.4853 102.736 18.4775 102.884C18.8041 102.559 19.1629 102.273 19.5479 102.031C20.0284 101.728 20.4819 101.719 20.7915 102.007C20.9771 102.179 21.0685 102.432 21.0616 102.758C21.0432 103.633 20.5682 104.351 19.9471 104.875C20.2333 104.969 20.5135 105.113 20.7607 105.331C21.1392 105.666 21.3648 106.193 21.3497 106.706C21.3372 107.14 21.1567 107.514 20.8425 107.76C20.1745 108.283 19.2787 108.024 18.7132 107.645C18.6204 107.582 18.5308 107.515 18.444 107.444C18.4068 108.041 18.2322 108.608 17.8008 109.067C17.5399 109.346 17.1457 109.565 16.7378 109.565ZM16.8049 105.397C16.8935 105.397 16.9831 105.422 17.0617 105.475C17.2578 105.607 17.3208 105.867 17.2082 106.075C16.8751 106.69 16.498 107.386 16.481 108.086C16.4745 108.349 16.5536 108.579 16.6684 108.632C16.7782 108.683 16.9845 108.595 17.1315 108.439C17.6685 107.868 17.5665 106.879 17.3956 105.986C17.3515 105.756 17.4889 105.529 17.7135 105.46C17.94 105.391 18.1789 105.505 18.2703 105.721C18.467 106.189 18.8064 106.601 19.2259 106.883C19.5497 107.1 20.0151 107.242 20.276 107.038C20.3987 106.942 20.4281 106.79 20.4313 106.681C20.4387 106.439 20.3261 106.174 20.1525 106.02C19.8332 105.739 19.3485 105.615 18.6094 105.627C18.6071 105.627 18.6043 105.627 18.6016 105.627C18.3847 105.627 18.1973 105.476 18.1523 105.263C18.1059 105.048 18.2193 104.831 18.421 104.745C19.1992 104.413 20.1148 103.692 20.1424 102.751C20.1125 102.765 20.0771 102.783 20.0376 102.808C19.648 103.054 19.2888 103.353 18.9704 103.695C18.8937 103.779 18.8078 103.906 18.7178 104.041C18.5336 104.317 18.3241 104.629 18.0236 104.8C17.8674 104.889 17.6749 104.879 17.5289 104.775C17.3832 104.67 17.3111 104.491 17.3451 104.315C17.4673 103.676 17.5812 103.079 17.5652 102.46C17.5624 102.347 17.544 102.26 17.5247 102.204C17.5086 102.224 17.4866 102.252 17.4636 102.289C17.081 102.902 17.1724 103.744 17.3097 104.625C17.3428 104.838 17.2238 105.045 17.0244 105.124C16.8931 105.175 16.7493 105.163 16.6326 105.098C16.634 105.129 16.6326 105.161 16.6275 105.193C16.5926 105.421 16.3974 105.586 16.1622 105.583C15.4359 105.564 14.699 105.989 14.3531 106.638C14.2286 106.872 14.2364 107.105 14.2878 107.137C14.3126 107.153 14.4018 107.167 14.5763 107.116C15.35 106.891 15.96 106.155 16.4497 105.563C16.5412 105.454 16.6721 105.397 16.8049 105.397ZM15.4212 102.96C15.2429 102.96 15.0412 103.135 14.9939 103.344C14.9351 103.603 15.0532 103.923 15.2939 104.16C15.5199 104.383 15.8401 104.549 16.3018 104.682C16.3096 104.685 16.3165 104.687 16.3243 104.69C16.2049 104.441 16.1351 104.182 16.0717 103.947C16.04 103.829 16.0078 103.71 15.9697 103.595C15.8783 103.318 15.6982 103.008 15.4676 102.964C15.4524 102.961 15.4368 102.96 15.4212 102.96Z" fill="#4BB574"/>
<path d="M29.8656 123.761C31.9145 123.783 33.9331 122.612 34.9318 120.822C36.4276 121.711 38.08 122.452 39.8197 122.471C41.5595 122.491 43.3961 121.645 44.1353 120.07C45.3637 120.613 46.6473 121.168 47.9892 121.111C49.2557 121.058 50.5815 120.279 50.8967 119.075C50.9844 119.329 51.6119 119.413 51.9716 119.227C53.4357 118.469 54.8998 117.711 56.3639 116.953C56.3639 116.953 61.8546 111.551 59.7106 110.326C57.5666 109.101 65.0704 108.488 64.1516 102.822C63.7289 100.216 62.7532 97.6157 61.6015 95.4414C52.1765 104.542 32.604 119.336 11.0194 113.254C10.9574 114.102 11.0938 114.947 11.4999 115.697C12.3902 117.345 14.831 118.119 16.2496 116.896C16.1766 118.907 17.4238 120.904 19.2637 121.72C21.1036 122.536 23.4207 122.121 24.8632 120.717C25.8229 122.527 27.8167 123.74 29.8656 123.761Z" fill="#F0F0F0"/>
<path d="M29.9197 124.221C29.8999 124.221 29.8802 124.22 29.8604 124.22C27.8505 124.199 25.8646 123.095 24.7496 121.423C23.1689 122.652 20.9165 122.956 19.0766 122.139C17.3125 121.357 16.057 119.602 15.825 117.699C15.2498 117.951 14.5842 118.019 13.8868 117.892C12.7062 117.674 11.6362 116.917 11.0946 115.915C10.6674 115.123 10.4877 114.217 10.5608 113.22C10.5704 113.082 10.6421 112.956 10.7551 112.877C10.8681 112.798 11.0101 112.775 11.1438 112.811C32.5658 118.847 51.7524 104.312 61.2825 95.1099C61.3859 95.0097 61.5287 94.9624 61.6739 94.9868C61.8168 95.0093 61.9399 95.0975 62.0079 95.2257C63.2882 97.643 64.2107 100.314 64.6053 102.748C65.2154 106.512 62.4319 108.213 60.7685 109.229C60.4198 109.442 59.9994 109.699 59.835 109.861C59.8602 109.879 59.8942 109.901 59.9388 109.926C60.3458 110.159 60.5925 110.526 60.6527 110.988C60.92 113.048 57.1204 116.853 56.6863 117.28C56.6537 117.312 56.6164 117.34 56.5756 117.361L52.1833 119.634C51.8865 119.788 51.4772 119.827 51.1285 119.744C50.5391 120.884 49.1908 121.52 48.0088 121.57C46.6903 121.63 45.4499 121.146 44.3368 120.66C43.4819 122.039 41.7555 122.931 39.8807 122.931C39.8587 122.931 39.8366 122.931 39.815 122.931C37.982 122.911 36.2965 122.129 35.0883 121.445C33.9596 123.126 31.9447 124.221 29.9197 124.221ZM24.8626 120.257C24.8865 120.257 24.9104 120.259 24.9339 120.263C25.0767 120.285 25.2003 120.373 25.2683 120.502C26.1471 122.157 27.9962 123.282 29.8705 123.302C29.887 123.302 29.9036 123.302 29.9206 123.302C31.7779 123.302 33.6251 122.221 34.5301 120.599C34.5903 120.491 34.6923 120.411 34.8117 120.379C34.9312 120.348 35.0589 120.365 35.1659 120.428C36.9594 121.493 38.4401 121.996 39.8247 122.012C41.2617 122.019 43.0165 121.373 43.7194 119.874C43.8246 119.648 44.0924 119.546 44.3212 119.649C45.4398 120.144 46.7096 120.704 47.9702 120.652C48.9698 120.61 50.1794 120.002 50.4523 118.959C50.5037 118.763 50.6769 118.624 50.8791 118.617C51.0477 118.602 51.2048 118.697 51.2893 118.837C51.3872 118.873 51.6256 118.888 51.7602 118.818L56.0904 116.577C57.6055 115.075 59.8965 112.306 59.7408 111.106C59.7178 110.929 59.6402 110.814 59.4821 110.724C59.331 110.637 58.8707 110.375 58.8633 109.891C58.8551 109.322 59.4256 108.973 60.2888 108.446C61.8499 107.491 64.2088 106.05 63.6975 102.896C63.3475 100.738 62.5638 98.3817 61.4745 96.1991C53.2964 103.991 38.5825 115.155 21.448 115.156C18.1991 115.156 14.8635 114.755 11.4681 113.853C11.4956 114.449 11.6408 114.994 11.9027 115.479C12.3148 116.242 13.1389 116.82 14.0526 116.989C14.789 117.123 15.4616 116.967 15.9481 116.548C16.0868 116.429 16.283 116.402 16.447 116.481C16.6115 116.56 16.7139 116.729 16.707 116.912C16.6404 118.75 17.7678 120.554 19.4487 121.3C21.1301 122.046 23.224 121.67 24.5415 120.388C24.6284 120.304 24.7437 120.257 24.8626 120.257Z" fill="#F0F0F0"/>
<path d="M55.49 54.3944C55.3963 53.3612 55.3026 52.3285 55.2089 51.2953C55.1758 50.9297 55.1533 50.5249 55.3784 50.2346C55.5328 50.0352 55.7781 49.9291 56.0188 49.8533C56.503 49.7012 57.0152 49.6397 57.5215 49.6728C57.7094 49.6852 57.9239 49.7279 58.0149 49.8924C58.0953 50.0375 58.0461 50.2171 57.9947 50.3747C57.8968 50.6775 57.7985 50.9797 57.7006 51.2825C57.3432 52.3864 56.9808 53.5399 57.1572 54.6866" fill="#22211F"/>
<path d="M57.1568 55.1492C56.934 55.1492 56.7383 54.9866 56.7034 54.7596C56.5068 53.4816 56.9092 52.2399 57.2643 51.1438L57.5583 50.236C57.5698 50.2002 57.579 50.1698 57.5859 50.1446C57.5624 50.1404 57.5317 50.1368 57.4921 50.134C57.047 50.1051 56.5844 50.1602 56.1572 50.2948C56.0203 50.3375 55.8287 50.4073 55.7423 50.5185C55.6252 50.6701 55.6408 50.9664 55.6674 51.2563L55.9486 54.3554C55.9716 54.6085 55.7855 54.8318 55.5328 54.8547C55.277 54.8805 55.0564 54.6917 55.0335 54.439L54.7523 51.3399C54.7206 50.9903 54.6673 50.4055 55.0165 49.9553C55.2609 49.6397 55.6279 49.4973 55.8824 49.4178C56.425 49.2474 56.9877 49.1803 57.5523 49.2166C57.9736 49.2442 58.2648 49.3967 58.4174 49.6705C58.6002 50.0022 58.4872 50.3513 58.433 50.519L58.139 51.4263C57.8156 52.425 57.449 53.557 57.6125 54.6191C57.6511 54.8699 57.4793 55.1046 57.2285 55.1432C57.2036 55.1474 57.1798 55.1492 57.1568 55.1492Z" fill="#22211F"/>
<path d="M56.0592 63.2522C55.9999 63.2522 55.9398 63.2411 55.8819 63.2168C55.6476 63.119 55.5373 62.8497 55.6352 62.6155C55.7082 62.44 55.6972 62.2043 55.6765 61.936C55.5699 60.544 55.3802 59.1424 55.1133 57.7693C55.1083 57.745 55.1032 57.7238 55.0977 57.7068C54.924 57.6512 54.7936 57.4946 54.7798 57.3021C54.7614 57.049 54.9516 56.8289 55.2047 56.811C55.5176 56.7839 55.8966 56.9814 56.0156 57.5943C56.2894 59.0014 56.4832 60.4384 56.593 61.8657C56.6224 62.2392 56.6358 62.6053 56.4837 62.9696C56.4093 63.1465 56.2384 63.2522 56.0592 63.2522Z" fill="#22211F"/>
<path d="M52.899 88.623C52.6551 88.623 52.4516 88.431 52.4405 88.1848C52.1709 82.3027 52.4061 76.3581 53.1397 70.5146C53.171 70.2633 53.3943 70.0878 53.6529 70.1163C53.9046 70.1475 54.0829 70.3772 54.0512 70.6295C53.324 76.4206 53.0906 82.3132 53.358 88.1425C53.3694 88.3961 53.1737 88.6111 52.9202 88.6226C52.9133 88.623 52.9059 88.623 52.899 88.623Z" fill="#22211F"/>
<path d="M44.6182 88.4001C44.6012 88.4001 44.5837 88.3992 44.5662 88.3969C44.314 88.3689 44.133 88.1405 44.1615 87.8893C44.6926 83.2076 44.7449 78.4129 44.7955 73.7757L44.8336 70.2981C44.8364 70.0441 45.0302 69.8406 45.2981 69.8438C45.5521 69.8465 45.7551 70.0547 45.7524 70.3082L45.7143 73.7858C45.6637 78.4464 45.6104 83.265 45.0739 87.9926C45.0477 88.2269 44.8488 88.4001 44.6182 88.4001Z" fill="#22211F"/>
<path d="M76.2487 90.1115C77.8276 98.8983 79.752 107.829 80.0484 116.752L88.6524 119.053C88.2155 118.926 89.1049 116.426 89.1081 115.971C89.2307 97.9414 88.7369 81.9481 88.193 63.926L87.8484 60.8251L80.4981 58.1836L61.4332 59.7915L59.9402 68.9794L59.5387 92.4154C60.6008 99.8759 60.9311 107.44 60.5232 114.965C60.5007 115.383 60.3008 115.948 59.8901 115.865L69.5847 115.772C69.763 114.993 69.9417 114.215 70.1135 113.435C71.692 106.274 72.1082 99.0375 72.5735 91.7194L73.6072 83.3354L76.2487 90.1115Z" fill="#388886"/>
<path d="M88.6527 119.74C88.5939 119.74 88.5337 119.732 88.474 119.717L79.87 117.416C79.5769 117.337 79.3692 117.076 79.3596 116.773C79.1138 109.362 77.7168 101.836 76.3652 94.5588C76.1011 93.1351 75.8374 91.7142 75.5824 90.2975L73.9571 86.128L73.2574 91.802L73.2101 92.5705C72.7718 99.4844 72.3184 106.633 70.7873 113.581C70.6274 114.304 70.4629 115.025 70.298 115.746L70.2571 115.924C70.1864 116.235 69.9112 116.456 69.5924 116.46L60.1169 116.55C59.9989 116.567 59.8767 116.563 59.7545 116.539C59.4085 116.469 59.171 116.149 59.205 115.798C59.2349 115.48 59.4797 115.229 59.7875 115.182C59.8091 115.118 59.8303 115.028 59.8353 114.926C60.2405 107.457 59.9116 99.9153 58.8568 92.5108C58.8517 92.4745 58.8495 92.4382 58.8499 92.4019L59.251 68.9655C59.2514 68.9324 59.2546 68.8989 59.2601 68.8667L60.7532 59.6788C60.8037 59.3664 61.0605 59.1294 61.3752 59.1023L80.4401 57.4944C80.5388 57.4866 80.6385 57.4995 80.7309 57.533L88.0812 60.1745C88.3288 60.2632 88.5043 60.4855 88.5332 60.7465L88.8778 63.8474C88.8796 63.8657 88.881 63.8841 88.8814 63.903L88.9076 64.7648C89.4502 82.7156 89.9183 98.2188 89.7965 115.974C89.7947 116.2 89.7139 116.52 89.5586 117.111C89.4525 117.518 89.2425 118.316 89.2209 118.662C89.3316 118.825 89.3725 119.033 89.3156 119.237C89.231 119.54 88.954 119.74 88.6527 119.74ZM88.8451 118.389C88.8451 118.389 88.8461 118.39 88.847 118.39C88.8461 118.389 88.8451 118.389 88.8451 118.389ZM80.7175 116.216L87.9029 118.137C87.9718 117.729 88.0945 117.263 88.2259 116.762C88.3035 116.465 88.4096 116.06 88.4188 115.95C88.5396 98.2353 88.0715 82.7441 87.5299 64.8066L87.5046 63.9723L87.2102 61.3262L80.4061 58.8808L62.0266 60.4308L60.6278 69.0385L60.2281 92.3698C61.2893 99.8455 61.6196 107.46 61.2107 115C61.2084 115.038 61.2043 115.094 61.196 115.161L69.0342 115.086C69.1716 114.486 69.308 113.886 69.4408 113.284C70.9494 106.44 71.3794 99.6604 71.8347 92.4833L71.8857 91.6733L72.9234 83.249C72.962 82.9357 73.2083 82.6885 73.5216 82.6495C73.8317 82.6109 74.1344 82.7887 74.2493 83.0827L76.8908 89.8587C76.9069 89.9005 76.9193 89.9437 76.9271 89.9869C77.1848 91.4234 77.4522 92.8636 77.7205 94.307C79.0499 101.469 80.4235 108.869 80.7175 116.216Z" fill="#388886"/>
<path d="M59.5388 92.418C59.9541 95.3356 60.2536 98.2693 60.4447 101.21C63.5323 99.9521 67.8332 98.0534 72.3233 95.6113C72.4097 94.3172 72.491 93.0208 72.5737 91.722L73.6073 83.3381L76.2488 90.1142C76.4229 91.083 76.6016 92.0542 76.7813 93.0263C81.2548 90.2552 85.5787 86.9806 88.7471 83.299C88.5882 76.9824 88.3943 70.5945 88.1931 63.9287L88.024 62.4062L59.8645 73.4175L59.5388 92.418Z" fill="#317876"/>
<path d="M60.4451 101.897C60.3179 101.897 60.1906 101.861 60.0795 101.792C59.8916 101.674 59.7717 101.473 59.7574 101.252C59.5659 98.3056 59.2631 95.3651 58.8566 92.5127C58.8515 92.4764 58.8492 92.4401 58.8497 92.4038L59.1754 73.4033C59.1804 73.1239 59.3536 72.875 59.6136 72.773L87.7731 61.7617C87.9725 61.6841 88.1971 61.7039 88.3804 61.8137C88.5633 61.9248 88.685 62.1146 88.7089 62.3273L88.878 63.8497C88.8798 63.8681 88.8812 63.8869 88.8816 63.9053L88.9106 64.8461C89.1031 71.2294 89.285 77.2585 89.4366 83.2789C89.4407 83.4498 89.3815 83.6161 89.2698 83.7461C86.3927 87.0895 82.3132 90.4082 77.1446 93.6102C76.9507 93.7305 76.7114 93.7471 76.5028 93.6547C76.2947 93.5624 76.1459 93.3736 76.1045 93.1494C75.9281 92.198 75.7535 91.2475 75.5831 90.2998L73.9578 86.1303L73.2581 91.8043L73.2195 92.436C73.1515 93.5109 73.0831 94.5841 73.0119 95.6559C72.9958 95.8915 72.8607 96.1024 72.6536 96.2149C68.0293 98.7306 63.6039 100.666 60.7061 101.846C60.6211 101.88 60.5329 101.897 60.4451 101.897ZM60.2288 92.3726C60.5921 94.9342 60.8733 97.5646 61.0667 100.207C63.8304 99.0549 67.6586 97.3418 71.6613 95.1845C71.7237 94.24 71.7835 93.2955 71.8432 92.3487L71.8859 91.6761L72.9237 83.2513C72.9623 82.938 73.2085 82.6908 73.5218 82.6518C73.8319 82.6132 74.1346 82.791 74.2495 83.085L76.891 89.8611C76.9071 89.9029 76.9195 89.946 76.9273 89.9892C77.0412 90.6255 77.1575 91.2622 77.2751 91.8998C81.8171 89.0057 85.4385 86.0311 88.0515 83.0459C87.9018 77.1175 87.7226 71.1743 87.5329 64.8875L87.5053 63.9742L87.4378 63.3719L60.5453 73.8879L60.2288 92.3726Z" fill="#317876"/>
<path d="M82.3357 46.0134L83.2545 60.5992L89.2266 58.7616L90.1454 49.8034L87.2742 42.4531L82.3357 46.0134Z" fill="#3B8F5C"/>
<path d="M83.2544 61.2863C83.1161 61.2863 82.9788 61.2444 82.8625 61.164C82.6889 61.0437 82.58 60.8507 82.5662 60.6403L81.6475 46.0546C81.6328 45.818 81.7402 45.5906 81.9323 45.4523L86.8708 41.892C87.0435 41.7675 87.2649 41.7294 87.4689 41.79C87.6729 41.8502 87.8382 42.0018 87.9159 42.2003L90.7871 49.5506C90.8271 49.6525 90.8418 49.7628 90.8307 49.8717L89.912 58.8303C89.8839 59.1055 89.6933 59.3375 89.4291 59.4184L83.457 61.2559C83.3909 61.2766 83.3219 61.2863 83.2544 61.2863ZM83.0472 46.3477L83.887 59.6811L88.5875 58.235L89.4425 49.8969L86.9553 43.5302L83.0472 46.3477Z" fill="#3B8F5C"/>
<path d="M62.0075 60.9449C61.8996 61.0322 60.967 61.3171 60.8591 61.4043C60.9225 56.5692 60.5347 51.9224 61.109 47.1213C60.1015 48.7356 58.8492 50.1965 57.4081 51.4392C56.8738 51.8999 56.3097 52.335 55.8595 52.8789C55.3881 53.4485 55.0574 54.1188 54.6715 54.75C53.3232 56.9546 51.2472 58.7063 48.8464 59.6632L45.2392 62.7825L43.7462 60.8301L41.7942 60.0262C44.2731 55.0293 50.7685 51.8659 53.7375 47.1443C55.3472 44.5841 56.2853 41.6669 57.6309 38.9583C58.976 36.2497 60.8797 33.6252 63.6614 32.4386C65.1691 31.7954 67.2832 31.6333 68.4009 30.4338L77.4359 29.0938C80.7279 30.9695 84.5179 31.1992 88.4227 34.4149C89.9387 35.6635 94.5271 45.1004 95.1248 48.55C95.5484 50.9963 95.9669 53.5492 95.2489 55.9256C93.4669 61.8233 82.8489 64.197 81.0412 70.0864C80.7807 70.9345 80.6594 71.8303 80.2841 72.6342C79.9088 73.4382 79.1921 74.1677 78.3064 74.2168C78.4419 72.2447 78.5774 70.2725 78.713 68.3008C78.7245 68.1326 78.7304 67.9457 78.6225 67.8161C78.5301 67.7054 78.379 67.6673 78.2384 67.6356C77.4873 67.4656 76.7362 67.2961 75.9851 67.1261C76.6108 65.9386 78.4309 66.1788 79.5027 65.3708C80.0255 64.9766 80.3254 64.3624 80.625 63.7799C82.01 61.0828 86.0646 58.5768 88.1292 56.3561C88.6492 55.797 89.6668 55.2236 89.8762 54.4895C90.1597 53.4963 87.3781 50.638 86.9687 49.6898C85.9636 47.3625 84.5601 46.853 83.5394 44.5326C83.6133 49.2883 83.7893 54.0421 84.0658 58.7899" fill="#4BB574"/>
<path d="M78.3059 74.9043C78.1221 74.9043 77.9453 74.8308 77.8157 74.6995C77.6765 74.5589 77.6048 74.365 77.6186 74.1684L78.0224 68.2918L75.832 67.7966C75.623 67.7493 75.448 67.6073 75.3584 67.413C75.2688 67.2182 75.2743 66.9926 75.3745 66.8034C75.8798 65.8446 76.8648 65.5805 77.7339 65.3471C78.2549 65.207 78.7474 65.0751 79.0869 64.8193C79.4613 64.5372 79.7089 64.0534 79.9712 63.5412L80.0112 63.4636C80.7613 62.0027 82.168 60.6558 83.679 59.3593C83.5071 59.2431 83.39 59.0511 83.3771 58.8283C83.1001 54.0869 82.9233 49.2798 82.8493 44.542C82.8442 44.214 83.0707 43.9278 83.3914 43.858C83.7107 43.7882 84.0368 43.9531 84.1691 44.2535C84.6359 45.3147 85.1885 45.9625 85.7729 46.6479C86.4027 47.3862 87.0537 48.1497 87.6003 49.4148C87.712 49.6735 88.1879 50.2918 88.6083 50.8371C89.9818 52.6205 90.7973 53.769 90.5382 54.6767C90.3379 55.3787 89.726 55.8854 89.1862 56.3324C88.973 56.5088 88.7713 56.6756 88.6335 56.824C87.8553 57.6605 86.8391 58.5086 85.7628 59.4062C83.9403 60.9263 82.0564 62.4979 81.2368 64.0929L81.1978 64.1692C80.8909 64.7683 80.5431 65.4468 79.917 65.919C79.3634 66.3362 78.6872 66.5176 78.0909 66.6775C77.937 66.7188 77.7946 66.7579 77.6632 66.7974L78.3895 66.9614C78.57 67.0023 78.9054 67.0786 79.1507 67.3726C79.4424 67.7231 79.4135 68.1443 79.3992 68.3465L79.0689 73.155C79.3257 72.923 79.5292 72.6179 79.6583 72.3414C79.8729 71.882 79.9978 71.3707 80.1301 70.8291C80.2078 70.5116 80.2859 70.1942 80.3814 69.8822C81.3563 66.7064 84.6111 64.5386 87.7593 62.4424C90.7132 60.4748 93.7677 58.4406 94.5882 55.7246C95.2741 53.4548 94.8335 50.9106 94.4449 48.6656C93.8789 45.3997 89.329 36.0529 87.9835 34.9448C85.6654 33.0356 83.3836 32.2193 81.1776 31.43C79.8279 30.9467 78.5489 30.4892 77.3035 29.8079L68.7257 31.0804C67.8556 31.8931 66.6529 32.234 65.4869 32.5638C64.9223 32.7237 64.389 32.8748 63.9305 33.0705C61.7038 34.0205 59.8447 36.046 58.2469 39.2627C57.7503 40.2623 57.2991 41.3176 56.8623 42.3374C56.1208 44.0712 55.3541 45.8646 54.3195 47.5088C52.8853 49.7897 50.6664 51.715 48.5201 53.577C46.3444 55.4646 44.1003 57.4111 42.7644 59.6786L44.008 60.1909C44.1205 60.2373 44.2188 60.3126 44.2928 60.4095L45.3411 61.7804L48.3943 59.1393C48.4526 59.0892 48.5187 59.0493 48.59 59.0203C50.8575 58.1162 52.8086 56.4711 54.0825 54.3878C54.1877 54.2155 54.2887 54.04 54.3903 53.8645C54.6664 53.3858 54.9517 52.8911 55.3274 52.4372C55.7276 51.9535 56.1929 51.5616 56.6422 51.1821L56.9569 50.9152C58.3493 49.7139 59.5493 48.3141 60.5232 46.7545C60.6941 46.4807 61.0331 46.3622 61.3368 46.4692C61.6414 46.5762 61.8306 46.8808 61.792 47.201C61.4071 50.4186 61.4594 53.5159 61.5155 56.7941C61.5352 57.9706 61.5559 59.1779 61.5541 60.3944C61.5894 60.3806 61.6193 60.3686 61.6395 60.3595C61.9321 60.1762 62.3212 60.2359 62.5431 60.5111C62.7816 60.8074 62.7347 61.2415 62.4384 61.4799C62.301 61.5902 62.132 61.654 61.6643 61.8212C61.5182 61.8736 61.3028 61.9508 61.2238 61.9857C61.0235 62.1111 60.7708 62.1258 60.5563 62.0215C60.3165 61.9049 60.1649 61.66 60.1685 61.3931C60.1887 59.8555 60.1626 58.311 60.1373 56.8171C60.0969 54.4461 60.0555 52.0146 60.2016 49.5586C59.4914 50.4223 58.7077 51.2253 57.8573 51.9585C57.7498 52.0518 57.6405 52.1436 57.5316 52.2355C57.1094 52.5911 56.7111 52.9274 56.3896 53.316C56.0882 53.6808 55.8438 54.1043 55.5847 54.5532C55.4777 54.7388 55.3702 54.9248 55.2585 55.1072C53.8514 57.4092 51.7065 59.2339 49.2101 60.257L45.6898 63.3019C45.546 63.4259 45.3558 63.4843 45.1684 63.4659C44.9796 63.4466 44.8068 63.3496 44.6915 63.199L43.3115 61.394L41.5309 60.6608C41.354 60.5882 41.2158 60.4454 41.1482 60.2667C41.0807 60.0875 41.0913 59.889 41.1762 59.7177C42.5645 56.9195 45.133 54.6914 47.6174 52.536C49.6874 50.7402 51.8278 48.8829 53.1536 46.7752C54.1298 45.2224 54.8749 43.4804 55.5957 41.7953C56.04 40.7576 56.4989 39.684 57.0125 38.6494C58.7628 35.1258 60.8489 32.8863 63.3898 31.8021C63.9296 31.572 64.5305 31.4015 65.1112 31.2375C66.177 30.9357 67.2795 30.6233 67.8955 29.9618C68.0026 29.8474 68.1441 29.7725 68.2989 29.75L77.3333 28.41C77.4854 28.387 77.6416 28.4164 77.7753 28.4931C78.9826 29.1808 80.2739 29.643 81.6415 30.1322C83.8517 30.9228 86.3558 31.8191 88.8595 33.8813C90.5951 35.3105 95.2024 44.9651 95.8024 48.4304C96.2172 50.8261 96.6876 53.5411 95.9071 56.1229C94.9438 59.3125 91.6798 61.4868 88.5233 63.5895C85.5767 65.5515 82.5296 67.5811 81.699 70.287C81.6117 70.5727 81.5405 70.8649 81.4693 71.1566C81.3264 71.7391 81.1794 72.3418 80.9074 72.9243C80.482 73.8353 79.5853 74.834 78.3435 74.9039C78.3316 74.9039 78.3187 74.9043 78.3059 74.9043ZM84.2757 47.0072C84.3639 50.821 84.5183 54.6639 84.7369 58.4667C84.7847 58.4268 84.8325 58.3873 84.8798 58.3473C85.9217 57.4781 86.9053 56.6577 87.6242 55.885C87.8236 55.6704 88.0698 55.4669 88.3078 55.2698C88.674 54.9666 89.1301 54.589 89.2133 54.2982C89.2179 53.8861 88.0689 52.394 87.5167 51.6774C86.8956 50.8716 86.507 50.3571 86.3356 49.9606C85.8712 48.8856 85.3144 48.2328 84.725 47.5414C84.5757 47.3673 84.4255 47.1909 84.2757 47.0072Z" fill="#4BB574"/>
<path d="M83.4015 45.2838C83.0372 45.1041 82.966 44.6245 82.944 44.2193C82.7147 40.0237 82.78 35.8115 83.1387 31.6246C81.8442 31.2998 80.5661 30.9589 79.4581 30.4531C78.6068 34.3842 78.4116 39.5239 78.2604 43.5045C78.2526 43.7057 78.2347 43.929 78.0868 44.065C77.988 44.1555 77.8507 44.1881 77.7197 44.2166C74.2527 44.9787 70.747 45.5677 67.2212 45.9811C67.003 46.0068 66.7577 46.0243 66.5872 45.8851C66.4145 45.7441 66.3851 45.4955 66.369 45.2732C66.041 40.7266 66.4921 36.0173 66.7163 31.4643L66.7131 31.4551C65.7102 31.8295 64.5751 32.0454 63.6609 32.4354C63.1854 32.6385 62.7375 32.8861 62.3121 33.1659C61.6014 37.8921 61.8146 39.4196 61.3184 44.1743C61.3184 44.1743 60.8609 53.7265 60.9325 61.2757L83.8545 58.8097L83.4015 45.2838Z" fill="#388886"/>
<path d="M60.9325 61.9664C60.7644 61.9664 60.6013 61.9048 60.4745 61.7923C60.3293 61.6632 60.2453 61.478 60.2434 61.2837C60.1722 53.8006 60.6256 44.2383 60.6302 44.1423C60.8365 42.1522 60.9187 40.7713 60.9978 39.4358C61.1066 37.6001 61.2095 35.8663 61.6308 33.0645C61.6602 32.8711 61.77 32.6988 61.9335 32.5913C62.4118 32.2762 62.9019 32.0111 63.3907 31.8025C63.931 31.5719 64.5314 31.401 65.1125 31.2356C65.5701 31.1056 66.0433 30.9706 66.4719 30.8107C66.646 30.7459 66.8399 30.7537 67.008 30.8332C67.1761 30.9127 67.3052 31.0574 67.3654 31.2333C67.3934 31.316 67.4091 31.412 67.4045 31.4993C67.3553 32.5049 67.2947 33.5184 67.2336 34.5359C67.0223 38.0705 66.8036 41.7254 67.0562 45.2251C67.0585 45.2564 67.0608 45.2835 67.0636 45.3064C67.0866 45.3046 67.1123 45.3018 67.1412 45.2982C70.6303 44.8888 74.1383 44.2994 77.5686 43.546C77.5699 43.5263 77.5709 43.5042 77.5718 43.4799C77.7271 39.389 77.9205 34.2984 78.7846 30.3086C78.8287 30.1046 78.9628 29.9319 79.1493 29.8386C79.3349 29.7454 79.5541 29.7412 79.7443 29.8276C80.8055 30.3123 82.0348 30.6384 83.3069 30.9577C83.6349 31.0399 83.8545 31.3482 83.8255 31.6849C83.4709 35.8254 83.4056 40.0303 83.6321 44.1832C83.6537 44.5742 83.7166 44.6688 83.7286 44.6835C83.9564 44.796 84.0814 45.0083 84.0901 45.2623L84.5431 58.7887C84.555 59.1494 84.2867 59.4581 83.928 59.4967L61.006 61.9627C60.9817 61.965 60.9573 61.9664 60.9325 61.9664ZM62.9474 33.5804C62.5739 36.1351 62.4807 37.7076 62.3736 39.5176C62.2932 40.8682 62.211 42.2648 62.0038 44.2471C62.002 44.3017 61.5807 53.1961 61.6161 60.5105L83.1438 58.1943L82.723 45.628C82.3068 45.187 82.2709 44.5369 82.2548 44.2585C82.0353 40.2361 82.0858 36.1659 82.4032 32.1503C81.5828 31.938 80.7494 31.7028 79.9675 31.4102C79.2665 35.1543 79.091 39.7712 78.9481 43.5318C78.9394 43.7606 78.921 44.2351 78.5526 44.5746C78.3137 44.7937 78.0339 44.8553 77.8672 44.892C74.3914 45.656 70.8361 46.2532 67.3011 46.6681C67.0595 46.6961 66.5583 46.7544 66.1503 46.4209C65.7359 46.0828 65.6992 45.5715 65.6808 45.3257C65.4217 41.7356 65.6427 38.0342 65.8568 34.4551C65.8976 33.7756 65.9381 33.0976 65.9753 32.4227C65.8122 32.4705 65.65 32.5169 65.4888 32.5628C64.9242 32.7236 64.3904 32.8757 63.9305 33.0718C63.6044 33.2101 63.2745 33.381 62.9474 33.5804Z" fill="#388886"/>
<path d="M75.33 69.9048C70.793 66.3826 63.7487 51.9627 61.166 47.9141C61.0401 51.3885 61.2749 66.0147 61.3185 70.5939L75.33 69.9048Z" fill="#317876"/>
<path d="M61.3185 71.28C61.143 71.28 60.9739 71.2134 60.8458 71.0922C60.7093 70.964 60.6312 70.7853 60.6294 70.5978C60.6193 69.5637 60.6 68.0174 60.577 66.2028C60.4985 59.9868 60.3795 50.5931 60.4773 47.8868C60.4879 47.5854 60.6942 47.3258 60.9845 47.2468C61.2758 47.1678 61.5845 47.2868 61.7466 47.5413C62.4458 48.6379 63.468 50.4833 64.6509 52.6199C67.7909 58.2907 72.536 66.8611 75.7522 69.3584C75.9801 69.5353 76.0733 69.8348 75.9869 70.11C75.9001 70.3851 75.6516 70.5772 75.3631 70.591L61.3516 71.28C61.341 71.2796 61.3295 71.28 61.3185 71.28ZM61.8201 50.3716C61.8054 54.356 61.8927 61.2671 61.9552 66.1849C61.9736 67.6201 61.9892 68.888 62.0002 69.8674L73.6615 69.2941C70.4053 65.8564 66.4371 58.6894 63.4459 53.2869C62.8556 52.2216 62.3062 51.2298 61.8201 50.3716Z" fill="#317876"/>
<path d="M47.8368 61.9296C48.36 61.3296 49.2003 61.1316 49.9881 61.0191C50.8931 60.8895 51.8445 60.8344 52.6958 61.1674C53.2613 61.3884 53.7492 61.7683 54.2885 62.0472C55.0773 62.4547 55.9786 62.6416 56.8643 62.5801C58.418 62.4726 59.8481 61.6305 61.4013 61.5148C63.6574 61.3466 65.9204 62.9416 66.5208 65.1228L68.6689 72.8894H49.8338L47.8368 61.9296Z" fill="#E84A27"/>
<path d="M68.6689 73.5772H49.8337C49.5007 73.5772 49.2154 73.3388 49.1557 73.0117L47.1587 62.0519C47.121 61.8461 47.1793 61.6339 47.3172 61.4754C47.9957 60.6985 48.9985 60.4633 49.8912 60.3356C50.8219 60.2028 51.9139 60.1202 52.9466 60.524C53.3486 60.6815 53.6963 60.8947 54.0326 61.101C54.2209 61.2163 54.4088 61.3325 54.605 61.434C55.2766 61.7813 56.0654 61.943 56.817 61.8916C57.5153 61.8433 58.2048 61.6224 58.9353 61.389C59.7029 61.1437 60.4963 60.8896 61.3503 60.8258C63.9298 60.6365 66.4973 62.4396 67.185 64.9383L69.3327 72.7043C69.3901 72.9115 69.3474 73.1339 69.2169 73.3052C69.0869 73.4766 68.8844 73.5772 68.6689 73.5772ZM50.4084 72.199H67.7634L65.8569 65.3049C65.3461 63.4498 63.3748 62.0593 61.4527 62.2003C60.7613 62.2517 60.0782 62.47 59.3551 62.7015C58.5792 62.9496 57.7767 63.2064 56.9125 63.2661C55.8931 63.3368 54.8783 63.126 53.9729 62.6583C53.7473 62.5412 53.53 62.4089 53.3132 62.2761C53.0155 62.0932 52.7334 61.9205 52.4458 61.8084C51.7099 61.5204 50.8407 61.593 50.0869 61.7005C49.5567 61.7763 48.9825 61.8939 48.5833 62.1787L50.4084 72.199Z" fill="#E84A27"/>
<path d="M48.291 64.4219L49.8337 72.8876H68.6688L67.1142 67.266C59.7217 68.5192 51.6919 65.7913 48.291 64.4219Z" fill="#D44424"/>
<path d="M68.6687 73.5825H49.8335C49.5004 73.5825 49.2151 73.344 49.1554 73.017L47.6132 64.5512C47.5682 64.3045 47.661 64.0523 47.8553 63.8939C48.0506 63.7344 48.3152 63.6945 48.5486 63.7882C51.6656 65.0433 59.7036 67.8295 66.9988 66.5928C67.3507 66.5317 67.6837 66.7476 67.7779 67.0885L69.3325 72.7096C69.3899 72.9168 69.3472 73.1392 69.2167 73.3105C69.0867 73.4819 68.8841 73.5825 68.6687 73.5825ZM50.4082 72.2043H67.7632L66.6133 68.0468C59.9374 68.9826 52.8581 66.8739 49.189 65.5132L50.4082 72.2043Z" fill="#D44424"/>
<path d="M61.0521 67.3789C60.8242 67.3789 60.6267 67.2098 60.5968 66.9783C60.4824 66.0875 60.0704 65.2473 59.4364 64.612C59.2572 64.4323 59.2572 64.1415 59.4373 63.9624C59.6169 63.7837 59.9073 63.7828 60.0869 63.9633C60.8633 64.7415 61.3681 65.771 61.5087 66.8612C61.5409 67.1129 61.3635 67.3431 61.1118 67.3757C61.0911 67.3775 61.0714 67.3789 61.0521 67.3789Z" fill="#22211F"/>
<path d="M62.9094 16.1956C62.178 16.0421 61.4471 15.8887 60.7181 15.7261C59.4975 15.4541 58.2617 15.1486 57.1849 14.5119C56.1085 13.8752 55.1961 11.9342 54.9784 10.7026C54.7404 9.35657 55.351 8.00687 56.0883 6.85562C56.4609 6.27357 56.8752 5.71035 57.3971 5.25739C58.3848 4.40062 59.6876 4.00095 60.9744 3.76803C66.2896 2.80468 71.9659 3.88656 77.321 4.59448C79.5353 4.88712 82.0023 5.48249 84.0365 6.40404C86.0711 7.32512 87.8517 10.1334 87.8899 12.3665C87.9262 14.4921 86.3647 16.3848 84.4834 17.3744C82.6018 18.3639 80.4353 18.6271 78.3239 18.8743" fill="#B05433"/>
<path d="M78.3772 19.3324L78.2706 18.4201C80.3205 18.1803 82.4401 17.9322 84.2699 16.9698C86.2205 15.9439 87.4608 14.1404 87.431 12.3758C87.3956 10.3035 85.6876 7.65738 83.8477 6.8245C82.0335 6.00264 79.6938 5.37327 77.2609 5.05216C76.502 4.95201 75.7366 4.84405 74.9662 4.73563C70.3355 4.08329 65.5468 3.40798 61.0567 4.22249C59.537 4.49767 58.4698 4.93777 57.6985 5.60711C57.1748 6.06099 56.7696 6.64626 56.4756 7.10611C55.5968 8.4774 55.2554 9.62864 55.4314 10.6255C55.6482 11.8475 56.544 13.6015 57.4196 14.1192C58.4303 14.7169 59.6045 15.0095 60.8192 15.2801C61.5464 15.4423 62.2759 15.5953 63.005 15.7487L62.8166 16.6477C62.0829 16.4943 61.3502 16.3404 60.6193 16.1773C59.3298 15.8902 58.0793 15.5764 56.9529 14.9103C55.6611 14.1463 54.7418 11.9973 54.5277 10.7854C54.3095 9.55055 54.6941 8.18523 55.7033 6.61042C56.0309 6.09912 56.4857 5.44356 57.0976 4.91296C57.9994 4.13107 59.2058 3.62436 60.894 3.31886C65.5307 2.47863 70.3934 3.16359 75.0962 3.82603C75.8634 3.93399 76.6265 4.04149 77.3831 4.14164C79.9029 4.4747 82.334 5.13025 84.2281 5.98794C86.3831 6.96416 88.3102 9.94195 88.3511 12.3611C88.387 14.4693 86.9536 16.5977 84.6994 17.7838C82.7162 18.8253 80.411 19.0949 78.3772 19.3324Z" fill="#B05433"/>
<path d="M73.4348 25.1108C72.3686 25.8826 70.7102 26.7532 69.3935 26.7467C68.8809 26.7444 66.9753 26.7389 66.4998 26.5469C65.4032 26.1036 64.9177 24.8347 64.665 23.6794C64.4031 22.4813 64.2616 21.7164 64.2442 20.4898C64.2424 20.3634 64.2391 20.2288 64.1675 20.125C64.0779 19.9946 63.9084 19.9509 63.7536 19.9169C63.058 19.7639 62.3625 19.611 61.667 19.458C62.5812 17.8754 62.9395 16.6143 63.3851 14.8319C63.6617 13.7257 63.5592 11.3033 64.1891 10.3528L72.1141 9.26172L76.4016 11.2523L78.6604 18.2773" fill="#FFC9B0"/>
<path d="M69.407 27.4331C69.4015 27.4331 69.396 27.4331 69.3904 27.4331C67.1311 27.4225 66.533 27.3008 66.2417 27.1832C65.1231 26.7312 64.3876 25.6323 63.9916 23.8236C63.7454 22.6968 63.5809 21.8551 63.5566 20.5762L61.5192 20.1283C61.3046 20.081 61.1255 19.9344 61.0368 19.7332C60.9481 19.532 60.9605 19.3009 61.0703 19.1107C61.9469 17.5933 62.2914 16.364 62.7168 14.6619C62.8041 14.3119 62.8528 13.7574 62.9038 13.1703C63.009 11.9653 63.1174 10.7199 63.6149 9.96923C63.7238 9.80431 63.8988 9.69405 64.0955 9.66741L72.02 8.57635C72.15 8.55935 72.2837 8.57819 72.4041 8.63377L76.6916 10.6243C76.8662 10.7052 76.9985 10.8554 77.0573 11.0382L79.3161 18.0633C79.4328 18.4258 79.2334 18.8135 78.871 18.9302C78.5085 19.0464 78.1203 18.847 78.0041 18.485L75.8371 11.7471L72.0067 9.96831L64.6389 10.9827C64.4294 11.5348 64.3458 12.4945 64.2765 13.2893C64.2204 13.932 64.1676 14.5393 64.0537 14.9955C63.6769 16.5041 63.3577 17.6668 62.7058 18.9775L63.9016 19.2403C64.0913 19.2821 64.4855 19.3689 64.7349 19.7304C64.9265 20.0079 64.9311 20.313 64.9334 20.4765C64.9504 21.6741 65.0979 22.4285 65.3386 23.5287C65.6294 24.8591 66.0934 25.636 66.7581 25.9047C66.8458 25.9364 67.3006 26.0444 69.3661 26.054C69.3702 26.054 69.3744 26.054 69.3776 26.054C70.5486 26.054 72.0705 25.2446 73.0307 24.549C73.3385 24.3262 73.7698 24.3942 73.9931 24.7029C74.2164 25.0112 74.1475 25.4421 73.8392 25.6654C72.6581 26.5217 70.8761 27.4331 69.407 27.4331Z" fill="#FFC9B0"/>
<path d="M78.0288 20.0586C77.773 22.1217 77.4491 28.8266 77.3912 31.2398C74.9651 32.606 71.9065 33.2469 69.3362 32.176C69.0477 32.0557 68.739 31.8935 68.6315 31.6C68.5653 31.4194 68.5888 31.22 68.6136 31.0289C68.7822 29.7252 68.5433 28.019 68.7449 26.7194" fill="#FFC9B0"/>
<path d="M72.1481 33.4019C71.0548 33.4019 70.0106 33.2094 69.0711 32.818C68.67 32.6508 68.1835 32.3884 67.9842 31.8418C67.8597 31.5009 67.9019 31.1683 67.93 30.9478C68.0048 30.3703 67.9929 29.695 67.9796 28.9802C67.9653 28.1808 67.9502 27.3535 68.0646 26.6194C68.1229 26.2431 68.4789 25.9886 68.8515 26.0442C69.2273 26.1025 69.485 26.4549 69.4267 26.8311C69.3306 27.4476 69.3444 28.2144 69.3582 28.9554C69.3711 29.6886 69.3849 30.4466 69.2971 31.1228C69.2879 31.1945 69.2705 31.3314 69.2806 31.3741C69.2856 31.3755 69.3421 31.4375 69.6017 31.5454C71.6152 32.3848 74.2499 32.1137 76.7127 30.8292C76.7949 28.0504 77.1041 21.923 77.3452 19.9793C77.3921 19.6017 77.7371 19.3338 78.1138 19.3802C78.4914 19.4271 78.7597 19.7712 78.7129 20.1488C78.4643 22.155 78.1405 28.745 78.0803 31.262C78.0743 31.5046 77.9411 31.7264 77.7293 31.8459C75.9046 32.8736 73.9595 33.4019 72.1481 33.4019Z" fill="#FFC9B0"/>
<path d="M66.4866 8.28799C69.4726 6.85238 77.3397 8.23056 78.1538 11.5198C78.4533 12.7299 78.3059 14.9304 78.2039 16.173C78.1662 16.6324 78.1019 17.1162 77.818 17.4791C77.2933 18.1498 76.194 18.1043 75.5196 17.5843C74.8452 17.0643 74.5122 16.2199 74.2907 15.3976C74.0693 14.5753 73.9219 13.7162 73.4951 12.9793C72.749 11.6907 71.2473 10.07 69.7666 9.91424C69.1106 9.84533 67.9915 9.8706 67.3369 9.94135C67.0195 9.9758 63.8179 10.4049 63.5882 10.2344C62.7871 9.6409 66.0883 8.47955 66.4866 8.28799Z" fill="#22211F"/>
<path d="M76.6975 18.4274C76.1715 18.4274 75.6367 18.2501 75.2389 17.9432C74.4134 17.307 74.061 16.3096 73.8469 15.5121C73.7996 15.3352 73.7551 15.1561 73.7105 14.9769C73.5511 14.3351 73.4004 13.7287 73.0972 13.2046C72.3369 11.8907 70.9321 10.4941 69.7188 10.3664C69.0853 10.3003 68.0011 10.3269 67.3869 10.3935L67.1132 10.4266C63.6603 10.8552 63.5156 10.7473 63.3144 10.5989C63.0879 10.4308 62.9772 10.1882 63.0094 9.93323C63.0939 9.27767 64.1064 8.75212 65.9454 8.01112C66.108 7.94543 66.2306 7.89673 66.2876 7.86917C68.4068 6.84977 72.817 7.15665 75.7249 8.5261C77.3264 9.28043 78.3201 10.2755 78.5998 11.4047C78.9072 12.6459 78.7822 14.7389 78.6619 16.2058C78.6201 16.7116 78.5452 17.2904 78.1795 17.7576C77.8143 18.2235 77.2607 18.4274 76.6975 18.4274ZM68.7936 9.40906C69.1648 9.40906 69.5254 9.42192 69.8144 9.45224C71.6409 9.64427 73.2369 11.6119 73.892 12.7443C74.2609 13.3814 74.4345 14.0802 74.6017 14.7559C74.6449 14.9291 74.6876 15.1019 74.734 15.2732C74.9114 15.9315 75.1921 16.747 75.7994 17.2155C76.2721 17.5794 77.0985 17.6483 77.4555 17.1907C77.6645 16.9238 77.7132 16.5205 77.7454 16.13C77.8124 15.3219 78.0146 12.8637 77.7077 11.6247C77.4417 10.5488 76.2698 9.79771 75.3335 9.35715C72.6828 8.10897 68.5612 7.79475 66.6859 8.697C66.6188 8.72869 66.4773 8.78658 66.2885 8.86284C65.2131 9.29605 64.6058 9.59419 64.2713 9.79908C64.7271 9.77152 65.5439 9.69526 66.9997 9.51472L67.2873 9.4798C67.68 9.43754 68.2478 9.40906 68.7936 9.40906Z" fill="#22211F"/>
<path d="M76.4403 21.8079C77.3058 21.9278 78.2227 21.513 78.7037 20.7834C79.1847 20.0539 79.2045 19.0474 78.7533 18.2995C78.6316 18.0974 78.4795 17.9154 78.3247 17.7377C78.1479 17.5346 77.9466 17.3256 77.682 17.2741C77.3834 17.2158 77.0899 17.3738 76.8266 17.5263L75.4829 18.4479" fill="#FFC9B0"/>
<path d="M76.7392 22.5158C76.6078 22.5158 76.4764 22.507 76.345 22.4887C75.9683 22.4363 75.7051 22.0885 75.7575 21.7114C75.8094 21.3347 76.1516 21.0696 76.5343 21.1233C77.1402 21.2079 77.7926 20.9106 78.1275 20.4025C78.4628 19.894 78.4775 19.175 78.1624 18.6536C78.065 18.4919 77.9263 18.3284 77.8045 18.1883C77.646 18.0068 77.5767 17.9576 77.5468 17.9475C77.4669 17.9503 77.2854 18.055 77.194 18.1074L75.8723 19.0138C75.5585 19.2297 75.1299 19.1498 74.914 18.8355C74.699 18.5218 74.779 18.0927 75.0927 17.8777L76.4364 16.9562C76.4512 16.9461 76.4658 16.9369 76.4815 16.9277C76.7668 16.7623 77.2422 16.4853 77.8137 16.5955C78.3319 16.6966 78.665 17.0774 78.8437 17.2823C79.0049 17.467 79.1887 17.6852 79.3435 17.942C79.9315 18.9164 79.9063 20.2101 79.2787 21.161C78.7252 22.0017 77.7397 22.5158 76.7392 22.5158Z" fill="#FFC9B0"/>
<path d="M64.763 23.502C64.5351 23.502 64.3371 23.3325 64.3077 23.1005C64.276 22.8487 64.4534 22.619 64.7051 22.5864C65.4792 22.4876 66.1522 21.7453 66.1752 20.9652C66.183 20.7112 66.4178 20.5155 66.6479 20.5196C66.9015 20.5269 67.1009 20.7387 67.094 20.9923C67.0577 22.2189 66.0383 23.343 64.8218 23.4979C64.8021 23.5006 64.7823 23.502 64.763 23.502Z" fill="#22211F"/>
<path d="M76.7407 22.2917C76.6194 22.2917 76.4982 22.2835 76.3769 22.2669C76.1256 22.232 75.9501 22 75.985 21.7487C76.0195 21.4974 76.251 21.3229 76.5032 21.3564C77.1928 21.4529 77.9379 21.1138 78.3197 20.5345C78.4593 20.3232 78.7446 20.2644 78.9559 20.4036C79.1682 20.5433 79.2265 20.8281 79.0869 21.0399C78.5755 21.8163 77.6655 22.2917 76.7407 22.2917Z" fill="#22211F"/>
<path d="M67.1752 16.2826C67.1297 15.1961 67.5767 14.3039 68.1734 14.2892C68.7702 14.2745 69.2902 15.1437 69.3357 16.2297C69.3812 17.3162 68.9342 18.2083 68.3374 18.223C67.7407 18.2377 67.2202 17.369 67.1752 16.2826Z" fill="white"/>
<path d="M68.3213 18.6853C67.4609 18.6853 66.7732 17.6686 66.7162 16.3038C66.6808 15.4544 66.9101 14.6794 67.3291 14.2319C67.5666 13.9779 67.8546 13.8396 68.1619 13.8322C69.0463 13.8157 69.7367 14.8346 69.7942 16.2133C69.8295 17.0631 69.6008 17.8377 69.1813 18.2851C68.9438 18.5392 68.6553 18.6775 68.3484 18.6848C68.3393 18.6848 68.3305 18.6853 68.3213 18.6853ZM68.1881 14.7506C68.1867 14.7506 68.1854 14.7506 68.1844 14.7506C68.1146 14.7524 68.0452 14.8107 67.9998 14.8594C67.8123 15.0597 67.6042 15.5481 67.6341 16.2656C67.675 17.2419 68.1082 17.7665 68.3227 17.7665C68.3236 17.7665 68.325 17.7665 68.3259 17.7665C68.3958 17.7646 68.4651 17.7063 68.5106 17.6576C68.698 17.4573 68.9061 16.969 68.8763 16.2514C68.8386 15.345 68.4389 14.7506 68.1881 14.7506Z" fill="white"/>
<path d="M67.8349 18.0098C68.0829 17.6446 68.2318 17.0741 68.2047 16.4295C68.173 15.6683 67.9061 15.0219 67.545 14.7031C67.2969 15.0683 67.1481 15.6394 67.1752 16.2834C67.2069 17.0447 67.4738 17.6915 67.8349 18.0098Z" fill="#22211F"/>
<path d="M67.8349 18.4711C67.7237 18.4711 67.6157 18.4306 67.5312 18.3562C67.0567 17.9377 66.7521 17.1705 66.7162 16.3041C66.6864 15.5879 66.8499 14.9108 67.1651 14.4472C67.239 14.3379 67.3566 14.2658 67.4876 14.2497C67.6212 14.2332 67.7503 14.274 67.8491 14.3613C68.3232 14.7803 68.6273 15.547 68.6632 16.413C68.693 17.1287 68.5295 17.8054 68.2148 18.2699C68.1404 18.3792 68.0232 18.4513 67.8923 18.4679C67.8739 18.4702 67.8542 18.4711 67.8349 18.4711ZM67.6493 15.8116C67.6332 15.9577 67.6277 16.1102 67.6341 16.266C67.6442 16.5012 67.6791 16.7157 67.7306 16.905C67.7467 16.7589 67.7522 16.6064 67.7457 16.4507C67.7361 16.2154 67.7012 16.0005 67.6493 15.8116Z" fill="#22211F"/>
<path d="M68.3237 27.5199C68.0857 27.5199 67.8841 27.3361 67.8662 27.0945C67.8473 26.8414 68.0371 26.6213 68.2902 26.6025C71.1357 26.3916 72.9898 23.9403 73.0086 23.9155C73.1607 23.7124 73.4478 23.6702 73.6509 23.8204C73.8544 23.9715 73.8975 24.2586 73.7469 24.4622C73.6619 24.577 71.6318 27.2759 68.3586 27.5185C68.3467 27.5194 68.3347 27.5199 68.3237 27.5199Z" fill="#22211F"/>
<path d="M42.391 69.2732C41.9468 68.2368 40.9021 67.4843 39.7784 67.3906C38.8105 67.3097 37.866 67.6805 36.9821 68.0829C36.0982 68.4858 35.2084 68.9351 34.2418 69.0279C33.2752 69.1207 32.1911 68.7637 31.733 67.9074C31.4349 67.3506 31.445 66.6799 31.5429 66.056C31.5773 65.8351 31.6177 65.5907 31.4974 65.4019C31.4326 65.2999 31.3288 65.2291 31.2217 65.1726C30.3291 64.6981 29.1609 65.0366 28.2821 64.5373C27.6307 64.1675 27.2838 63.3883 27.2838 62.6391C27.2838 61.8898 27.5843 61.1695 27.9747 60.53C28.294 60.0072 28.6836 59.517 29.1825 59.1615C29.9207 58.635 30.8556 58.4379 31.7624 58.4577C32.6693 58.477 33.5587 58.6979 34.432 58.9432C34.7582 59.0347 35.105 59.1302 35.4307 59.0351C36.3518 58.7668 36.3091 57.3496 37.074 56.7708C37.6556 56.3307 38.4999 56.5314 39.133 56.8934C39.7256 57.2325 40.247 57.6964 40.6527 58.2459C41.1681 58.9437 41.5838 59.8441 42.419 60.0793C43.223 60.3058 44.0517 59.7968 44.8869 59.812C46.0367 59.8322 46.9229 60.813 47.5477 61.7782C49.1524 64.2566 50.0546 67.1848 50.1226 70.1364" fill="#388886"/>
<path d="M50.1226 70.825C49.7491 70.825 49.4432 70.5268 49.434 70.1515C49.3692 67.3474 48.4941 64.5065 46.9698 62.1521C46.2683 61.0684 45.5636 60.5125 44.8745 60.5001C44.6287 60.4845 44.3195 60.5676 44.0067 60.6444C43.4761 60.7744 42.8734 60.9218 42.233 60.7422C41.3307 60.4882 40.8369 59.7476 40.4014 59.0939C40.3017 58.9441 40.2024 58.7948 40.0986 58.6543C39.7513 58.1834 39.2997 57.7814 38.7912 57.4911C38.3584 57.243 37.7874 57.0946 37.4902 57.3197C37.2959 57.4663 37.1571 57.7915 37.011 58.1356C36.7602 58.7236 36.4478 59.4554 35.6237 59.6957C35.1068 59.8459 34.6098 59.7072 34.2464 59.6057C33.487 59.3925 32.6054 59.1637 31.7482 59.1458C31.1574 59.1306 30.2837 59.2216 29.5831 59.7219C29.2174 59.9819 28.8839 60.3637 28.5632 60.8883C28.1663 61.5374 27.9734 62.1098 27.9734 62.6381C27.9734 63.1944 28.2343 63.7163 28.623 63.9373C28.9335 64.1137 29.364 64.1445 29.8197 64.1776C30.3627 64.2166 30.9774 64.2612 31.5456 64.5634C31.7854 64.6907 31.9595 64.8437 32.079 65.0316C32.3376 65.4395 32.2692 65.8713 32.2241 66.1571C32.1258 66.7874 32.1644 67.2518 32.3408 67.5817C32.6684 68.194 33.5251 68.4049 34.1761 68.341C34.9304 68.2689 35.659 67.9326 36.4299 67.5775L36.6968 67.4549C37.6064 67.0405 38.675 66.6105 39.8359 66.7024C41.2237 66.8182 42.4755 67.7204 43.024 69.0007C43.1738 69.3508 43.0121 69.756 42.662 69.9057C42.3129 70.0546 41.9077 69.8943 41.757 69.5437C41.412 68.7389 40.5938 68.149 39.7205 68.0764C38.8932 68.0084 38.0194 68.3663 37.2678 68.7095L37.006 68.8298C36.1644 69.2176 35.2943 69.6186 34.3075 69.7133C33.1728 69.8249 31.7528 69.4059 31.1253 68.2317C30.8023 67.6285 30.7155 66.882 30.8611 65.949C30.8703 65.8948 30.8809 65.8263 30.8859 65.7739C30.5758 65.6141 30.1601 65.5842 29.7204 65.5525C29.1591 65.5116 28.5233 65.4662 27.9417 65.1358C27.1235 64.6705 26.5947 63.6906 26.5947 62.6381C26.5947 61.8489 26.8534 61.0413 27.3867 60.1698C27.8061 59.4835 28.2628 58.9699 28.7828 58.5996C29.7907 57.8806 30.9718 57.7552 31.7776 57.7676C32.7961 57.7897 33.7778 58.0428 34.6185 58.2785C34.8436 58.3414 35.0986 58.4117 35.2378 58.3726C35.4224 58.3189 35.5575 58.0299 35.7431 57.5949C35.9448 57.1236 36.1726 56.5888 36.6587 56.2204C37.3836 55.6723 38.4365 55.6999 39.4761 56.2948C40.1492 56.6793 40.7477 57.2122 41.2081 57.8361C41.3243 57.9936 41.4364 58.1613 41.5485 58.3295C41.8815 58.8284 42.1953 59.2992 42.6069 59.415C42.8973 59.4977 43.2602 59.4086 43.6791 59.3061C44.0453 59.2165 44.462 59.1228 44.8998 59.1219C46.0753 59.143 47.1609 59.9107 48.1265 61.4028C49.8121 64.0057 50.7405 67.0194 50.8126 70.1203C50.8209 70.5007 50.52 70.8163 50.1392 70.825C50.1332 70.825 50.1281 70.825 50.1226 70.825Z" fill="#388886"/>
<path d="M46.4263 70.422C46.2113 70.422 46.0193 70.2709 45.9761 70.0518C45.7776 69.0521 45.502 68.0585 45.1556 67.0988C44.8905 66.3633 44.541 65.5254 43.9626 64.8799C43.5133 64.3782 42.8931 63.9501 42.0097 63.5311C40.5075 62.82 38.8367 62.3964 37.1769 62.3059C36.9237 62.2926 36.7294 62.0758 36.7437 61.8222C36.757 61.569 36.9738 61.3628 37.2274 61.389C39.0048 61.4854 40.7946 61.9393 42.4029 62.701C43.4007 63.1733 44.1142 63.6708 44.6475 64.2666C45.3306 65.0292 45.7248 65.9682 46.0197 66.7859C46.3817 67.7897 46.6702 68.8275 46.877 69.8726C46.9261 70.1216 46.7649 70.3632 46.5159 70.4124C46.486 70.4193 46.4557 70.422 46.4263 70.422Z" fill="#22211F"/>
<path d="M64.1255 70.6392C65.6475 70.2138 66.8814 69.0974 67.8926 67.8823C68.9037 66.6677 69.7554 65.3189 70.8566 64.1851C71.9578 63.0513 73.3851 62.1215 74.964 62.0545C75.4354 62.0342 75.9187 62.0949 76.3418 62.3025C77.5238 62.8827 77.8991 64.4125 77.7806 65.7241C77.5734 68.0169 74.9254 71.9493 74.8767 71.9617L70.5065 78.6262L61.5483 76.5589L64.1255 70.6392Z" fill="#B09084"/>
<path d="M70.5065 79.3131C70.4551 79.3131 70.4031 79.3071 70.3517 79.2956L61.3935 77.2283C61.1937 77.1819 61.0251 77.0496 60.9327 76.8668C60.8409 76.684 60.8344 76.4694 60.9167 76.282L63.4939 70.3618C63.5765 70.1716 63.7406 70.0287 63.9404 69.9731C65.0921 69.6511 66.2116 68.8223 67.3633 67.4391C67.7428 66.9829 68.1108 66.4914 68.4668 66.0168C69.0516 65.2363 69.6566 64.4296 70.3623 63.7028C71.3532 62.6821 72.9514 61.4481 74.9346 61.3632C75.587 61.3374 76.1594 61.4431 76.6454 61.6811C78.1949 62.4423 78.5951 64.3671 78.4669 65.7839C78.3158 67.4533 76.4276 71.2195 75.4331 72.3238L75.4533 72.3367L71.0826 79.0011C70.9535 79.1987 70.7353 79.3131 70.5065 79.3131ZM62.5112 76.0716L70.1941 77.8444L74.3016 71.5815C74.3204 71.5525 74.342 71.5245 74.365 71.4988C74.6392 71.129 76.9164 67.6339 77.0947 65.6594C77.1907 64.6 76.9013 63.3418 76.0385 62.9182C75.7615 62.7818 75.4106 62.7197 74.9943 62.74C73.4636 62.8052 72.1691 63.8214 71.3518 64.6625C70.7073 65.3259 70.1551 66.0632 69.5703 66.8428C69.2037 67.3316 68.8251 67.8369 68.4232 68.3202C67.1869 69.805 65.9434 70.75 64.6322 71.2002L62.5112 76.0716Z" fill="#B09084"/>
<path d="M80.5146 117.306C79.5545 117.397 78.4432 117.593 77.9875 118.443C77.7334 118.916 77.7546 119.484 77.7821 120.021C77.9925 124.104 78.2029 128.187 78.4133 132.271C78.4574 133.128 77.388 133.534 76.5418 133.68C74.3206 134.062 72.0989 134.445 69.8778 134.827C69.1625 134.95 69.0872 136.073 69.6279 136.557C70.1686 137.041 70.9698 137.056 71.6956 137.043C76.1715 136.969 80.6469 136.895 85.1228 136.82C85.9488 136.806 86.8676 136.755 87.4423 136.161C87.9058 135.683 88.0193 134.975 88.1102 134.315C88.7639 129.579 89.4172 124.843 90.0709 120.107C90.738 115.274 83.4051 117.03 80.5146 117.306Z" fill="#22211F"/>
<path d="M71.4562 137.506C70.6863 137.506 69.9094 137.427 69.3214 136.9C68.8905 136.514 68.7077 135.835 68.8763 135.248C69.0113 134.778 69.3563 134.452 69.7996 134.375L76.4636 133.228C77.1674 133.107 77.9805 132.79 77.9548 132.295L77.3236 120.046C77.296 119.503 77.2607 118.828 77.5827 118.226C78.1317 117.203 79.3514 116.956 80.4714 116.85C80.8628 116.812 81.3369 116.747 81.8615 116.675C84.5182 116.313 88.1593 115.814 89.7828 117.441C90.4361 118.095 90.686 119.013 90.5257 120.172L88.565 134.38C88.4782 135.012 88.3587 135.877 87.7721 136.483C87.0867 137.19 86.0916 137.265 85.1306 137.281L71.7029 137.504C71.6211 137.505 71.5389 137.506 71.4562 137.506ZM80.5582 117.764C79.6803 117.848 78.7362 118.02 78.3921 118.661C78.2061 119.008 78.213 119.453 78.2415 119.998L78.8727 132.248C78.9205 133.177 78.0784 133.883 76.6198 134.133L69.9558 135.28C69.9214 135.286 69.8157 135.305 69.7597 135.501C69.688 135.75 69.7647 136.064 69.9342 136.215C70.3385 136.577 70.9973 136.595 71.6877 136.585L85.1149 136.362C85.8835 136.349 86.6704 136.298 87.1124 135.843C87.4615 135.483 87.5644 134.91 87.6554 134.254L89.6161 120.046C89.736 119.175 89.5779 118.535 89.1328 118.089C87.8322 116.786 84.3138 117.267 81.9855 117.585C81.4467 117.659 80.9602 117.726 80.5582 117.764Z" fill="#22211F"/>
<path d="M61.9091 115.466C60.949 115.557 59.8377 115.753 59.382 116.603C59.128 117.076 59.1491 117.644 59.1767 118.181C59.3871 122.264 59.5975 126.347 59.8079 130.431C59.852 131.289 58.7825 131.694 57.9363 131.84C55.7151 132.223 53.4935 132.605 51.2723 132.987C50.557 133.111 50.4817 134.233 51.0224 134.717C51.5631 135.201 52.3643 135.216 53.0901 135.204C57.566 135.129 62.0414 135.055 66.5173 134.98C67.3433 134.967 68.2621 134.915 68.8368 134.322C69.3003 133.843 69.4138 133.135 69.5048 132.475C70.1585 127.739 70.8117 123.003 71.4655 118.268C72.1325 113.434 64.7996 115.191 61.9091 115.466Z" fill="#22211F"/>
<path d="M52.8507 135.666C52.0808 135.666 51.304 135.587 50.7159 135.06C50.285 134.675 50.1022 133.996 50.2708 133.408C50.4059 132.938 50.7509 132.612 51.1942 132.536L57.8581 131.389C58.5619 131.267 59.3751 130.95 59.3493 130.456L58.7181 118.206C58.6906 117.663 58.6552 116.988 58.9772 116.387C59.5262 115.363 60.7459 115.116 61.8659 115.01C62.2573 114.973 62.7314 114.907 63.256 114.836C65.9132 114.473 69.5539 113.974 71.1774 115.601C71.8306 116.255 72.0805 117.174 71.9202 118.332L69.9595 132.54C69.8727 133.172 69.7533 134.037 69.1666 134.643C68.4812 135.35 67.4861 135.425 66.5251 135.441L53.0974 135.664C53.0157 135.666 52.9334 135.666 52.8507 135.666ZM61.9527 115.924C61.0748 116.008 60.1308 116.18 59.7867 116.821C59.6006 117.168 59.6075 117.613 59.636 118.158L60.2672 130.408C60.315 131.338 59.4729 132.043 58.0143 132.294L51.3504 133.441C51.3159 133.447 51.2103 133.465 51.1542 133.661C51.0825 133.91 51.1593 134.224 51.3288 134.376C51.733 134.738 52.3932 134.757 53.0823 134.745L66.5095 134.523C67.278 134.51 68.065 134.459 68.5069 134.003C68.8561 133.643 68.9589 133.07 69.0499 132.414L71.0106 118.206C71.1305 117.336 70.9725 116.695 70.5273 116.25C69.2263 114.946 65.7083 115.427 63.3801 115.745C62.8412 115.819 62.3547 115.886 61.9527 115.924Z" fill="#22211F"/>
<path d="M67.0137 3.21195C67.1993 2.36988 67.9398 1.40744 68.735 1.07392C69.2744 0.847901 69.8977 0.99307 70.4334 1.22782C70.9691 1.46257 71.4712 1.78507 72.0381 1.92794C72.8884 2.14202 73.7787 1.93069 74.6447 1.79288C75.2791 1.69181 75.9195 1.63117 76.5617 1.6105C76.9049 1.59947 77.26 1.60223 77.5756 1.73867C77.8522 1.85811 78.0777 2.07357 78.2601 2.31337C78.8118 3.04059 78.9887 4.03748 78.7204 4.90987" fill="#94472B"/>
<path d="M79.1589 5.04427L78.2805 4.77415C78.5066 4.03912 78.3582 3.20256 77.8933 2.59019C77.7325 2.37886 77.5643 2.2337 77.3925 2.15927C77.1605 2.05867 76.8633 2.05821 76.5762 2.06831C75.9556 2.08807 75.3303 2.14733 74.7166 2.24518L74.349 2.30628C73.5626 2.44042 72.7481 2.57916 71.9257 2.37197C71.4967 2.26402 71.1158 2.07245 70.7483 1.88777C70.5829 1.80462 70.4176 1.72147 70.249 1.64705C69.6991 1.40633 69.2489 1.35533 68.9126 1.49637C68.285 1.7596 67.6203 2.58973 67.4623 3.30914L66.5651 3.1116C66.7897 2.08945 67.6465 1.03054 68.5575 0.648785C69.1345 0.407603 69.8277 0.459514 70.6179 0.805438C70.8011 0.885832 70.9812 0.976333 71.1613 1.06637C71.4994 1.23635 71.8192 1.39714 72.1504 1.48075C72.7867 1.64062 73.4702 1.52393 74.1951 1.40035L74.5723 1.33742C75.2242 1.23359 75.8885 1.17066 76.5468 1.14952C76.9212 1.13666 77.3517 1.13988 77.7578 1.31537C78.0761 1.45273 78.3683 1.69483 78.626 2.03386C79.2655 2.87868 79.4704 4.03176 79.1589 5.04427Z" fill="#94472B"/>
<path d="M78.6218 67.8125C78.0862 68.1768 70.1616 70.9332 60.1698 70.9332C53.5077 70.9332 41.1049 69.4401 41.1049 69.4401C41.1049 69.4401 40.6961 84.2147 40.8752 85.2892C41.2198 87.3565 43.6316 90.9168 47.6513 91.4911C51.671 92.0653 53.8531 92.5247 60.2847 92.4099C66.7162 92.295 73.4922 90.802 75.215 90.2277C76.9377 89.6535 80.2683 86.208 80.498 83.3368C80.7277 80.4656 80.2835 72.6306 80.2835 72.6306" fill="#EDC15C"/>
<path d="M58.3935 93.1191C53.9728 93.1191 51.7792 92.7957 48.8735 92.3675C48.4518 92.3055 48.0149 92.2412 47.5541 92.1755C43.2004 91.5535 40.5897 87.7671 40.1955 85.4049C40.0109 84.2959 40.3743 70.9423 40.4165 69.4235C40.422 69.2296 40.5084 69.0473 40.6549 68.9205C40.8015 68.7941 40.9926 68.7363 41.1874 68.7578C41.3105 68.7725 53.6255 70.2458 60.1696 70.2458C70.0557 70.2458 77.7405 67.5281 78.2486 67.235C78.5646 67.0209 78.9854 67.1077 79.1986 67.4219C79.4127 67.7366 79.3231 68.1698 79.0089 68.3839C78.3294 68.8461 70.1885 71.624 60.1691 71.624C54.4882 71.624 44.5667 70.5343 41.7727 70.2137C41.6192 75.9189 41.4377 84.4508 41.554 85.178C41.8365 86.8736 43.9438 90.2672 47.7475 90.8106C48.2106 90.8772 48.6493 90.9415 49.0729 91.004C52.3024 91.48 54.6325 91.8254 60.2715 91.7225C66.5055 91.6113 73.2389 90.1615 74.9961 89.5758C76.4546 89.0893 79.6033 85.8703 79.8101 83.2839C80.0333 80.4917 79.5987 72.7495 79.5941 72.6714C79.5725 72.2915 79.8633 71.9658 80.2433 71.9442C80.6333 71.9323 80.9484 72.2139 80.9705 72.5933C80.9884 72.9149 81.4147 80.5082 81.1836 83.3932C80.9351 86.4987 77.474 90.2024 75.4316 90.8832C73.8499 91.4106 67.0527 92.9799 60.2954 93.1007C59.6183 93.1131 58.9857 93.1191 58.3935 93.1191Z" fill="#EDC15C"/>
<path d="M60.2846 92.4152C66.7161 92.3004 73.4922 90.8074 75.2149 90.2331C76.9376 89.6589 80.2682 86.2134 80.4979 83.3422C80.7276 80.471 80.2834 72.636 80.2834 72.636L79.824 71.3047C73.2198 78.0674 61.4698 84.6579 40.8334 84.3189C40.8393 84.8173 40.8527 85.1614 40.8747 85.2946C41.2193 87.3619 43.6311 90.9222 47.6508 91.4965C51.6705 92.0707 53.8531 92.5301 60.2846 92.4152Z" fill="#EDA55C"/>
<path d="M58.3933 93.1204C53.9726 93.1204 51.779 92.797 48.8733 92.3688C48.4516 92.3068 48.0147 92.2425 47.5539 92.1768C43.2003 91.5548 40.5895 87.7684 40.1954 85.4062C40.1761 85.2909 40.1531 85.0644 40.1448 84.3253C40.1425 84.1392 40.2156 83.9601 40.3474 83.8287C40.4797 83.6977 40.6566 83.6265 40.8449 83.6279C57.5692 83.9045 70.8815 79.4741 79.3312 70.8209C79.4979 70.65 79.7437 70.5779 79.9748 70.6298C80.2081 70.6822 80.3979 70.8517 80.4755 71.0777L80.9345 72.409C80.9551 72.4692 80.9675 72.5317 80.9712 72.5946C80.9891 72.9162 81.4154 80.5095 81.1844 83.3945C80.9358 86.5001 77.4748 90.2037 75.4323 90.8845C73.8506 91.4119 67.0534 92.9812 60.2962 93.102C59.6181 93.1144 58.9855 93.1204 58.3933 93.1204ZM41.5418 85.0153C41.5483 85.1334 41.5538 85.1729 41.5547 85.1798C41.8372 86.8749 43.9445 90.2685 47.7483 90.8119C48.2113 90.8785 48.6501 90.9429 49.0736 91.0053C52.3032 91.4813 54.6332 91.8267 60.2723 91.7238C66.5063 91.6126 73.2396 90.1628 74.9968 89.5771C76.4554 89.0906 79.604 85.8716 79.8108 83.2852C80.0207 80.6612 79.6495 73.6664 79.6004 72.7674L79.5306 72.5643C73.3136 78.5383 61.8103 85.1922 41.5418 85.0153Z" fill="#EDA55C"/>
<path d="M59.5714 77.296C53.3305 77.296 47.1108 76.5775 40.9802 75.1446C40.733 75.0867 40.5796 74.84 40.6375 74.5929C40.6949 74.3462 40.9425 74.1932 41.1892 74.2502C50.7354 76.4819 60.503 76.9592 70.2192 75.6725C70.4669 75.6399 70.7016 75.8158 70.7347 76.0675C70.7678 76.3188 70.5909 76.5499 70.3396 76.583C66.7531 77.058 63.1583 77.296 59.5714 77.296Z" fill="#22211F"/>
<path d="M58.585 84.2428C52.6814 84.2428 46.7653 83.4752 41.0982 81.9541C40.8529 81.8884 40.7072 81.6367 40.7734 81.3914C40.8396 81.1461 41.0913 81.0009 41.3361 81.0666C50.1478 83.4311 59.5695 83.9497 68.5865 82.567C68.8369 82.5279 69.0716 82.7006 69.1102 82.9515C69.1488 83.2023 68.9765 83.4366 68.7257 83.4752C65.3841 83.9879 61.9859 84.2428 58.585 84.2428Z" fill="#22211F"/>
<path d="M61.4892 88.7418C61.2375 88.7418 61.0326 88.5392 61.0298 88.2875C60.9673 82.2322 61.2563 76.1052 61.888 70.0761C61.9146 69.8239 62.1278 69.637 62.3928 69.6673C62.645 69.6935 62.8279 69.9195 62.8017 70.1722C62.1742 76.1663 61.887 82.2579 61.9491 88.2774C61.9518 88.5314 61.7479 88.739 61.4947 88.7418C61.4924 88.7418 61.4906 88.7418 61.4892 88.7418Z" fill="#22211F"/>
<path d="M80.3136 64.3633C80.0973 64.7469 79.851 65.1098 79.5028 65.3726C78.4311 66.1811 76.6109 65.9404 75.9852 67.1279C76.7363 67.2979 77.4874 67.4674 78.2386 67.6374C78.3791 67.6691 78.5303 67.7072 78.6226 67.8179C78.7306 67.9475 78.7246 68.1344 78.7131 68.3026C78.5776 70.2748 78.4421 72.2469 78.3066 74.2187C79.1923 74.1691 79.9089 73.44 80.2842 72.6361C80.6596 71.8321 80.7809 70.9363 81.0413 70.0883C81.3142 69.1989 81.7943 68.3922 82.4094 67.6392C81.8986 66.1453 81.0969 65.0914 80.3136 64.3633Z" fill="#FFC9B0"/>
<path d="M78.3061 74.9053C78.1223 74.9053 77.9455 74.8318 77.8159 74.7004C77.6767 74.5598 77.6051 74.3659 77.6188 74.1693L78.0227 68.2927L75.8323 67.7975C75.6232 67.7502 75.4482 67.6082 75.3586 67.4135C75.2691 67.2191 75.2746 66.9936 75.3747 66.8043C75.88 65.8455 76.865 65.5814 77.7342 65.348C78.2551 65.2079 78.7476 65.0761 79.0871 64.8202C79.3572 64.6167 79.5552 64.3024 79.7128 64.0227C79.8166 63.8389 79.9985 63.7126 80.2071 63.68C80.4179 63.6478 80.6279 63.7126 80.7822 63.8564C81.8159 64.8174 82.5826 66.0141 83.0608 67.4144C83.1376 67.6395 83.0925 67.8885 82.9423 68.0727C82.335 68.8165 81.9284 69.5409 81.6996 70.2884C81.6119 70.5746 81.5407 70.8663 81.4695 71.158C81.3271 71.741 81.1796 72.3432 80.9076 72.9262C80.4822 73.8372 79.5855 74.8359 78.3438 74.9057C78.3318 74.9048 78.319 74.9053 78.3061 74.9053ZM77.6639 66.7983L78.3902 66.9623C78.5703 67.0032 78.9047 67.079 79.1505 67.3726C79.4436 67.724 79.4142 68.1453 79.3999 68.3474L79.0696 73.1559C79.3264 72.9239 79.5299 72.6189 79.659 72.3423C79.8736 71.8829 79.9985 71.3711 80.1308 70.8295C80.2085 70.5121 80.2866 70.1951 80.3821 69.8836C80.6311 69.0705 81.0409 68.2918 81.6294 67.5127C81.3266 66.7427 80.9168 66.0527 80.4055 65.4518C80.2654 65.6177 80.1046 65.7785 79.9172 65.92C79.3636 66.3376 78.6874 66.519 78.0911 66.6789C77.9377 66.7198 77.7952 66.7588 77.6639 66.7983Z" fill="#FFC9B0"/>
</svg>
