<svg width="12" height="12" viewBox="0 0 12 12" fill="none" xmlns="http://www.w3.org/2000/svg">
<path d="M5.24153 0.431946C5.42862 -0.143873 6.24325 -0.143874 6.43035 0.431946L7.37947 3.35305C7.46314 3.61056 7.70312 3.78491 7.97388 3.78491H11.0453C11.6508 3.78491 11.9025 4.55967 11.4127 4.91555L8.92784 6.72089C8.70878 6.88004 8.61712 7.16214 8.70079 7.41966L9.64992 10.3408C9.83701 10.9166 9.17796 11.3954 8.68814 11.0395L6.2033 9.23419C5.98425 9.07504 5.68763 9.07504 5.46857 9.23419L2.98373 11.0395C2.49391 11.3954 1.83486 10.9166 2.02196 10.3408L2.97108 7.41966C3.05475 7.16214 2.96309 6.88004 2.74404 6.72089L0.259201 4.91555C-0.23062 4.55967 0.0211134 3.78491 0.626566 3.78491H3.69799C3.96876 3.78491 4.20873 3.61056 4.2924 3.35305L5.24153 0.431946Z" fill="#12144A"/>
</svg>
