<svg width="20" height="19" viewBox="0 0 20 19" fill="none" xmlns="http://www.w3.org/2000/svg">
<path d="M9.16346 0.621502C9.42064 -0.169996 10.5404 -0.169997 10.7976 0.6215L12.488 5.82397C12.603 6.17794 12.9328 6.41759 13.305 6.41759H18.7752C19.6074 6.41759 19.9535 7.48255 19.2802 7.97172L14.8547 11.187C14.5536 11.4058 14.4276 11.7936 14.5426 12.1475L16.233 17.35C16.4902 18.1415 15.5843 18.7997 14.911 18.3105L10.4855 15.0952C10.1844 14.8764 9.77665 14.8764 9.47555 15.0952L5.05006 18.3105C4.37678 18.7997 3.47087 18.1415 3.72804 17.35L5.41843 12.1475C5.53344 11.7936 5.40745 11.4058 5.10634 11.187L0.680859 7.97172C0.00757101 7.48255 0.353594 6.41759 1.18582 6.41759H6.65603C7.02821 6.41759 7.35807 6.17794 7.47308 5.82397L9.16346 0.621502Z" fill="black"/>
</svg>
