<svg width="34" height="34" viewBox="0 0 34 34" fill="none" xmlns="http://www.w3.org/2000/svg">
<g clip-path="url(#clip0_5199_47982)">
<path d="M17.0002 25.051L24.2107 29.4851C24.3978 29.5987 24.6144 29.6542 24.833 29.6447C25.0517 29.6353 25.2626 29.5612 25.4392 29.4319C25.6157 29.3026 25.75 29.1238 25.825 28.9182C25.9 28.7126 25.9123 28.4894 25.8605 28.2767L23.8997 20.0029L30.317 14.4685C30.4806 14.3248 30.5986 14.1364 30.6563 13.9264C30.7141 13.7165 30.7091 13.4942 30.6419 13.2871C30.5748 13.08 30.4485 12.897 30.2786 12.7609C30.1086 12.6247 29.9026 12.5413 29.6858 12.5209L21.2643 11.8357L18.0201 3.98216C17.9374 3.77955 17.7962 3.60616 17.6146 3.48411C17.4329 3.36206 17.2191 3.29688 17.0002 3.29688C16.7814 3.29688 16.5675 3.36206 16.3858 3.48411C16.2042 3.60616 16.063 3.77955 15.9803 3.98216L12.7361 11.8357L4.31464 12.5209C4.09638 12.5401 3.88861 12.6231 3.71728 12.7597C3.54595 12.8963 3.41867 13.0803 3.35133 13.2888C3.28398 13.4973 3.27957 13.721 3.33864 13.932C3.39771 14.143 3.51765 14.3319 3.68346 14.4751L10.1007 20.0094L8.13995 28.2767C8.08811 28.4894 8.10047 28.7126 8.17547 28.9182C8.25046 29.1238 8.38472 29.3026 8.56129 29.4319C8.73785 29.5612 8.94878 29.6353 9.16744 29.6447C9.38609 29.6542 9.60264 29.5987 9.78972 29.4851L17.0002 25.051Z" stroke="#43A36D" stroke-width="2.10833" stroke-linecap="round" stroke-linejoin="round"/>
</g>
<defs>
<clipPath id="clip0_5199_47982">
<rect width="33.7333" height="33.7333" fill="white" transform="translate(0.133301 0.132812)"/>
</clipPath>
</defs>
</svg>
