<svg width="299" height="321" viewBox="0 0 299 321" fill="none" xmlns="http://www.w3.org/2000/svg">
<path d="M278.844 77.1532C278.844 95.5438 263.926 110.345 245.653 110.345C227.38 110.345 212.462 95.5438 212.462 77.1532C212.462 58.7628 227.38 43.9618 245.653 43.9618C263.926 43.9618 278.844 58.7628 278.844 77.1532Z" fill="#1DA867" stroke="black" stroke-width="0.92359"/>
<path d="M234.679 64.4727L248.431 64.4727L259.288 89.8899L249.517 89.8899L247.671 85.5326L235.439 85.5326L233.593 89.8899L223.822 89.8899L234.679 64.4727ZM241.555 71.2627L238.262 78.9968L244.848 78.9968L241.555 71.2627Z" fill="#171717"/>
<path d="M259.694 73.8388C260.054 74.0596 260.483 74.1514 260.964 74.1341C261.782 74.1245 262.951 73.7861 264.444 73.1576C265.505 72.7108 266.588 72.1112 267.691 71.3607L270.23 77.3953C268.972 78.2239 267.558 78.9689 265.988 79.6295C262.039 81.2918 259.008 81.9067 256.864 81.5405C254.641 81.1526 252.959 79.6625 251.83 76.9809L249.332 71.0453L249.218 70.7729L248.945 70.8876L244.543 72.7404L241.996 66.69L246.399 64.8372L246.671 64.7226L246.557 64.4502L245.262 61.3747L252.085 56.6945L254.026 61.3067L254.141 61.5791L254.413 61.4645L262.155 58.2063L264.701 64.2567L256.959 67.5148L256.687 67.6294L256.802 67.9018L258.883 72.8482C259.065 73.279 259.332 73.6167 259.694 73.8388Z" fill="#171717" stroke="#FFF59F" stroke-width="0.591098"/>
<path d="M123.419 68.3628C124.015 79.1994 115.704 88.4042 104.936 88.9963C94.1694 89.5885 84.899 81.3507 84.303 70.5142C83.7071 59.6777 92.0181 50.4729 102.785 49.8807C113.552 49.2885 122.823 57.5264 123.419 68.3628Z" fill="#1DA867" stroke="black" stroke-width="0.545042"/>
<path d="M96.9833 62.32L105.087 61.8743L112.308 76.4994L106.55 76.8161L105.321 74.3084L98.1136 74.7049L97.1673 77.3322L91.4097 77.6488L96.9833 62.32ZM101.255 66.0982L99.5651 70.7622L103.446 70.5487L101.255 66.0982Z" fill="#171717"/>
<path d="M112.027 67.0351C112.246 67.1535 112.502 67.1938 112.785 67.1679C113.267 67.1358 113.944 66.8985 114.804 66.4798C115.415 66.1821 116.033 65.7937 116.658 65.3158L118.351 68.7893C117.636 69.3183 116.827 69.8031 115.923 70.2433C113.65 71.3507 111.884 71.8113 110.609 71.6651C109.287 71.5085 108.247 70.685 107.495 69.1415L105.831 65.7249L105.754 65.5681L105.597 65.6445L103.063 66.8789L101.367 63.3963L103.901 62.1619L104.058 62.0855L103.981 61.9287L103.119 60.1584L106.988 57.1796L108.281 59.8344L108.357 59.9912L108.514 59.9148L112.97 57.7441L114.667 61.2266L110.21 63.3974L110.054 63.4737L110.13 63.6305L111.517 66.4777C111.638 66.7257 111.806 66.916 112.027 67.0351Z" fill="#171717" stroke="#FFF59F" stroke-width="0.348827"/>
<g opacity="0.4">
<path d="M215.74 301.531C216.252 310.831 209.119 318.731 199.878 319.239C190.637 319.748 182.681 312.678 182.17 303.377C181.658 294.077 188.791 286.177 198.032 285.669C207.273 285.16 215.229 292.23 215.74 301.531Z" fill="#1DA867" stroke="black" stroke-width="0.467779"/>
<path d="M193.052 296.346L200.007 295.964L206.204 308.516L201.263 308.788L200.208 306.635L194.022 306.976L193.21 309.231L188.269 309.502L193.052 296.346ZM196.719 299.589L195.268 303.592L198.599 303.409L196.719 299.589Z" fill="#171717"/>
<path d="M205.964 300.393C206.152 300.495 206.371 300.53 206.614 300.507C207.027 300.48 207.609 300.276 208.347 299.917C208.871 299.661 209.402 299.328 209.939 298.918L211.391 301.899C210.777 302.353 210.083 302.769 209.308 303.147C207.356 304.097 205.841 304.492 204.746 304.367C203.612 304.233 202.719 303.526 202.074 302.201L200.646 299.269L200.58 299.134L200.445 299.2L198.271 300.259L196.815 297.27L198.989 296.211L199.124 296.145L199.059 296.011L198.318 294.491L201.638 291.935L202.748 294.213L202.814 294.348L202.949 294.282L206.773 292.419L208.229 295.408L204.405 297.271L204.27 297.337L204.335 297.471L205.526 299.915C205.629 300.128 205.774 300.291 205.964 300.393Z" fill="#171717" stroke="#FFF59F" stroke-width="0.299379"/>
</g>
<g opacity="0.4">
<path d="M34.7403 17.5308C35.2518 26.8312 28.1189 34.7311 18.8781 35.2394C9.63732 35.7476 1.68107 28.6776 1.16956 19.3772C0.658052 10.0769 7.79096 2.17684 17.0317 1.6686C26.2726 1.16036 34.2288 8.23049 34.7403 17.5308Z" fill="#1DA867" stroke="black" stroke-width="0.467779"/>
<path d="M12.0523 12.3465L19.0069 11.964L25.2043 24.5159L20.2629 24.7876L19.2083 22.6355L13.0224 22.9757L12.2102 25.2305L7.26872 25.5023L12.0523 12.3465ZM15.7184 15.589L14.2681 19.5919L17.599 19.4087L15.7184 15.589Z" fill="#171717"/>
<path d="M24.9636 16.3894C25.1517 16.4911 25.3712 16.5256 25.6139 16.5034C26.0274 16.4758 26.6088 16.2722 27.3465 15.9128C27.8709 15.6574 28.4016 15.324 28.9385 14.9138L30.3907 17.895C29.7772 18.349 29.0831 18.7651 28.3076 19.1428C26.3565 20.0933 24.8409 20.4886 23.7464 20.3631C22.6116 20.2287 21.7193 19.522 21.074 18.1972L19.6456 15.265L19.5801 15.1304L19.4455 15.1959L17.2706 16.2554L15.8146 13.2665L17.9895 12.207L18.1241 12.1415L18.0585 12.0069L17.3184 10.4876L20.6385 7.93098L21.7484 10.2094L21.8139 10.344L21.9485 10.2785L25.773 8.41545L27.2289 11.4044L23.4045 13.2674L23.2699 13.3329L23.3355 13.4675L24.5258 15.911C24.6295 16.1239 24.7742 16.2872 24.9636 16.3894Z" fill="#171717" stroke="#FFF59F" stroke-width="0.299379"/>
</g>
<path d="M297.156 194.169C297.777 205.455 289.121 215.041 277.908 215.658C266.694 216.275 257.04 207.695 256.419 196.41C255.798 185.124 264.454 175.538 275.667 174.921C286.881 174.304 296.535 182.884 297.156 194.169Z" fill="#1DA867" stroke="black" stroke-width="0.567633"/>
<path d="M269.625 187.884L278.064 187.419L285.584 202.651L279.588 202.98L278.309 200.369L270.802 200.782L269.817 203.518L263.82 203.848L269.625 187.884ZM274.074 191.818L272.314 196.676L276.356 196.453L274.074 191.818Z" fill="#171717"/>
<path d="M285.292 192.784C285.521 192.907 285.787 192.949 286.081 192.922C286.583 192.889 287.289 192.642 288.184 192.205C288.82 191.896 289.464 191.491 290.116 190.993L291.878 194.611C291.133 195.162 290.291 195.667 289.35 196.125C286.982 197.278 285.143 197.758 283.815 197.606C282.438 197.443 281.355 196.585 280.572 194.977L278.839 191.419L278.76 191.256L278.596 191.336L275.957 192.621L274.19 188.994L276.829 187.709L276.993 187.629L276.913 187.466L276.015 185.622L280.044 182.52L281.391 185.285L281.47 185.448L281.634 185.368L286.274 183.108L288.041 186.735L283.4 188.995L283.237 189.075L283.317 189.238L284.761 192.203C284.887 192.462 285.062 192.66 285.292 192.784Z" fill="#171717" stroke="#FFF59F" stroke-width="0.363285"/>
</svg>
