<svg width="370" height="332" viewBox="0 0 370 332" fill="none" xmlns="http://www.w3.org/2000/svg">
<path d="M97.8766 269.756C97.8766 295.033 77.3713 315.377 52.2555 315.377C27.1401 315.377 6.63469 295.033 6.6347 269.756C6.63472 244.478 27.1401 224.135 52.2556 224.135C77.3713 224.135 97.8766 244.478 97.8766 269.756Z" fill="#1DA867" stroke="black" stroke-width="1.26946"/>
<path d="M37.1716 252.324L56.0736 252.324L70.9962 287.26L57.5658 287.26L55.029 281.271L38.2162 281.271L35.6794 287.26L22.249 287.26L37.1716 252.324ZM46.6226 261.657L42.0961 272.287L51.1491 272.287L46.6226 261.657Z" fill="#171717"/>
<path d="M71.5548 265.197C72.0496 265.5 72.6393 265.627 73.3002 265.603C74.4247 265.589 76.0305 265.124 78.083 264.26C79.5421 263.646 81.0296 262.822 82.5457 261.791L86.0365 270.085C84.3064 271.224 82.3635 272.248 80.206 273.156C74.7774 275.441 70.6119 276.286 67.6648 275.783C64.6098 275.25 62.2972 273.202 60.7459 269.516L57.3124 261.357L57.1548 260.983L56.7804 261.14L50.7293 263.687L47.2294 255.371L53.2805 252.824L53.655 252.667L53.4974 252.292L51.7183 248.065L61.0957 241.632L63.7637 247.972L63.9213 248.346L64.2957 248.189L74.9364 243.71L78.4363 252.026L67.7956 256.505L67.4211 256.662L67.5787 257.037L70.44 263.835C70.6892 264.427 71.0571 264.892 71.5548 265.197Z" fill="#171717" stroke="#FFF59F" stroke-width="0.812454"/>
<path d="M197.86 297.06C198.417 307.196 190.644 315.805 180.573 316.359C170.503 316.913 161.832 309.208 161.275 299.072C160.717 288.937 168.491 280.327 178.561 279.773C188.632 279.22 197.302 286.925 197.86 297.06Z" fill="#1DA867" stroke="black" stroke-width="0.509784"/>
<path d="M173.135 291.409L180.714 290.992L187.468 304.671L182.083 304.968L180.933 302.622L174.192 302.993L173.307 305.45L167.922 305.746L173.135 291.409ZM177.13 294.943L175.549 299.305L179.179 299.106L177.13 294.943Z" fill="#171717"/>
<path d="M187.205 295.813C187.41 295.924 187.65 295.962 187.914 295.938C188.365 295.908 188.998 295.686 189.802 295.294C190.374 295.016 190.952 294.652 191.537 294.205L193.12 297.454C192.451 297.949 191.695 298.402 190.85 298.814C188.723 299.85 187.071 300.281 185.879 300.144C184.642 299.997 183.67 299.227 182.966 297.784L181.41 294.588L181.338 294.441L181.192 294.513L178.822 295.667L177.235 292.41L179.605 291.255L179.752 291.184L179.68 291.037L178.874 289.382L182.492 286.595L183.701 289.079L183.773 289.225L183.919 289.154L188.087 287.123L189.674 290.381L185.506 292.411L185.36 292.482L185.431 292.629L186.728 295.292C186.841 295.524 186.999 295.702 187.205 295.813Z" fill="#171717" stroke="#FFF59F" stroke-width="0.326262"/>
<g opacity="0.4">
<path d="M47.7499 23.911C48.453 36.6942 38.649 47.5525 25.9476 48.2511C13.2463 48.9497 2.3106 39.232 1.60754 26.4488C0.904481 13.6657 10.7085 2.80722 23.4098 2.10866C36.1112 1.41009 47.0469 11.1279 47.7499 23.911Z" fill="#1DA867" stroke="black" stroke-width="0.642955"/>
<path d="M16.5656 16.7842L26.1246 16.2584L34.6429 33.5108L27.851 33.8843L26.4015 30.9262L17.899 31.3938L16.7827 34.4931L9.99073 34.8666L16.5656 16.7842ZM21.6047 21.241L19.6113 26.7429L24.1895 26.4911L21.6047 21.241Z" fill="#171717"/>
<path d="M34.3121 22.3397C34.5707 22.4794 34.8725 22.5268 35.206 22.4964C35.7743 22.4584 36.5735 22.1786 37.5875 21.6846C38.3082 21.3335 39.0376 20.8753 39.7756 20.3115L41.7716 24.409C40.9284 25.0331 39.9743 25.605 38.9085 26.1242C36.2266 27.4306 34.1435 27.9739 32.6391 27.8014C31.0794 27.6167 29.853 26.6453 28.966 24.8244L27.0027 20.7941L26.9126 20.6091L26.7276 20.6992L23.7383 22.1554L21.7371 18.0472L24.7264 16.591L24.9113 16.5009L24.8212 16.316L23.804 14.2277L28.3673 10.7137L29.8929 13.8454L29.983 14.0304L30.168 13.9403L35.4246 11.3796L37.4258 15.4878L32.1692 18.0485L31.9842 18.1386L32.0743 18.3235L33.7104 21.6821C33.8529 21.9747 34.0519 22.1992 34.3121 22.3397Z" fill="#171717" stroke="#FFF59F" stroke-width="0.411491"/>
</g>
<g opacity="0.4">
<path d="M367.75 316.911C368.453 329.694 358.649 340.553 345.948 341.251C333.246 341.95 322.311 332.232 321.608 319.449C320.904 306.666 330.709 295.807 343.41 295.109C356.111 294.41 367.047 304.128 367.75 316.911Z" fill="#1DA867" stroke="black" stroke-width="0.642955"/>
<path d="M336.566 309.784L346.125 309.258L354.643 326.511L347.851 326.884L346.401 323.926L337.899 324.394L336.783 327.493L329.991 327.867L336.566 309.784ZM341.605 314.241L339.611 319.743L344.19 319.491L341.605 314.241Z" fill="#171717"/>
<path d="M354.312 315.34C354.571 315.479 354.872 315.527 355.206 315.496C355.774 315.458 356.573 315.179 357.587 314.685C358.308 314.333 359.037 313.875 359.775 313.312L361.772 317.409C360.928 318.033 359.974 318.605 358.908 319.124C356.226 320.431 354.143 320.974 352.639 320.801C351.079 320.617 349.853 319.645 348.966 317.824L347.003 313.794L346.912 313.609L346.727 313.699L343.738 315.155L341.737 311.047L344.726 309.591L344.911 309.501L344.821 309.316L343.804 307.228L348.367 303.714L349.893 306.845L349.983 307.03L350.168 306.94L355.424 304.38L357.426 308.488L352.169 311.048L351.984 311.139L352.074 311.324L353.71 314.682C353.853 314.975 354.052 315.199 354.312 315.34Z" fill="#171717" stroke="#FFF59F" stroke-width="0.411491"/>
</g>
<path d="M122.943 131.906C123.796 147.418 111.899 160.594 96.4864 161.442C81.0739 162.289 67.8038 150.497 66.9507 134.985C66.0976 119.473 77.9944 106.297 93.4069 105.449C108.82 104.602 122.09 116.394 122.943 131.906Z" fill="#1DA867" stroke="black" stroke-width="0.780202"/>
<path d="M85.1018 123.258L96.7014 122.62L107.038 143.555L98.7962 144.009L97.0373 140.419L86.7198 140.986L85.3652 144.747L77.1234 145.2L85.1018 123.258ZM91.2166 128.666L88.7976 135.343L94.3532 135.037L91.2166 128.666Z" fill="#171717"/>
<path d="M106.636 129.997C106.95 130.167 107.316 130.224 107.721 130.187C108.411 130.141 109.38 129.802 110.611 129.202C111.485 128.776 112.371 128.22 113.266 127.536L115.688 132.508C114.665 133.265 113.507 133.959 112.214 134.589C108.959 136.175 106.432 136.834 104.606 136.625C102.713 136.4 101.225 135.222 100.149 133.012L97.7666 128.122L97.6573 127.897L97.4328 128.006L93.8054 129.773L91.377 124.788L95.0044 123.021L95.2288 122.912L95.1195 122.688L93.8851 120.153L99.4226 115.889L101.274 119.69L101.383 119.914L101.608 119.805L107.986 116.697L110.415 121.683L104.036 124.79L103.812 124.899L103.921 125.124L105.906 129.199C106.079 129.554 106.321 129.827 106.636 129.997Z" fill="#171717" stroke="#FFF59F" stroke-width="0.499329"/>
</svg>
