<svg width="65" height="65" viewBox="0 0 65 65" fill="none" xmlns="http://www.w3.org/2000/svg">
<g clip-path="url(#clip0_4073_64720)">
<g clip-path="url(#clip1_4073_64720)">
<g clip-path="url(#clip2_4073_64720)">
<path d="M52.5 0.375977H12.5C5.87258 0.375977 0.5 5.74856 0.5 12.376V52.376C0.5 59.0034 5.87258 64.376 12.5 64.376H52.5C59.1274 64.376 64.5 59.0034 64.5 52.376V12.376C64.5 5.74856 59.1274 0.375977 52.5 0.375977Z" fill="#F3F5F6"/>
<path d="M30.8333 44.0426C38.1971 44.0426 44.1667 37.6999 44.1667 29.8759C44.1667 22.0519 38.1971 15.7092 30.8333 15.7092C23.4695 15.7092 17.5 22.0519 17.5 29.8759C17.5 37.6999 23.4695 44.0426 30.8333 44.0426Z" stroke="#86949F" stroke-width="2.5" stroke-linecap="round" stroke-linejoin="round"/>
<path d="M47.4987 47.3758L40.832 39.0425" stroke="#86949F" stroke-width="2" stroke-linecap="round" stroke-linejoin="round"/>
</g>
</g>
</g>
<defs>
<clipPath id="clip0_4073_64720">
<rect width="65" height="65" fill="white"/>
</clipPath>
<clipPath id="clip1_4073_64720">
<rect width="65" height="65" fill="white"/>
</clipPath>
<clipPath id="clip2_4073_64720">
<rect width="65" height="65" fill="white"/>
</clipPath>
</defs>
</svg>
