<svg width="65" height="65" viewBox="0 0 65 65" fill="none" xmlns="http://www.w3.org/2000/svg">
<g clip-path="url(#clip0_4073_64747)">
<g clip-path="url(#clip1_4073_64747)">
<g clip-path="url(#clip2_4073_64747)">
<path d="M52.5 0.375977H12.5C5.87258 0.375977 0.5 5.74856 0.5 12.376V52.376C0.5 59.0034 5.87258 64.376 12.5 64.376H52.5C59.1274 64.376 64.5 59.0034 64.5 52.376V12.376C64.5 5.74856 59.1274 0.375977 52.5 0.375977Z" fill="#F3F5F6"/>
<mask id="mask0_4073_64747" style="mask-type:luminance" maskUnits="userSpaceOnUse" x="12" y="12" width="41" height="41">
<path d="M52.5 12.376H12.5V52.376H52.5V12.376Z" fill="white"/>
</mask>
<g mask="url(#mask0_4073_64747)">
<path d="M26.6673 26.9559C26.6673 26.5691 26.821 26.1982 27.0945 25.9247C27.3679 25.6512 27.7389 25.4976 28.1256 25.4976H36.8754C37.2621 25.4976 37.633 25.6512 37.9065 25.9247C38.18 26.1982 38.3337 26.5691 38.3337 26.9559C38.3337 27.3427 38.18 27.7136 37.9065 27.9871C37.633 28.2606 37.2621 28.4143 36.8754 28.4143H28.1256C27.7389 28.4143 27.3679 28.2606 27.0945 27.9871C26.821 27.7136 26.6673 27.3427 26.6673 26.9559ZM28.1256 31.3309C27.7389 31.3309 27.3679 31.4846 27.0945 31.7581C26.821 32.0315 26.6673 32.4025 26.6673 32.7893C26.6673 33.176 26.821 33.547 27.0945 33.8204C27.3679 34.0939 27.7389 34.2476 28.1256 34.2476H33.9588C34.3455 34.2476 34.7165 34.0939 34.99 33.8204C35.2634 33.547 35.4171 33.176 35.4171 32.7893C35.4171 32.4025 35.2634 32.0315 34.99 31.7581C34.7165 31.4846 34.3455 31.3309 33.9588 31.3309H28.1256ZM15.001 29.8726C15.0018 26.0198 16.2739 22.275 18.62 19.219C20.9662 16.163 24.2553 13.9667 27.977 12.9708C31.6987 11.9748 35.6451 12.235 39.2039 13.7108C42.7627 15.1867 45.735 17.7957 47.6597 21.1333C49.5844 24.4708 50.354 28.3502 49.849 32.1698C49.344 35.9893 47.5927 39.5354 44.8667 42.2581C42.1408 44.9807 38.5926 46.7276 34.7725 47.2278C30.9525 47.7281 27.0741 46.9536 23.7391 45.0247L16.9201 47.2997C16.6682 47.3838 16.3981 47.3975 16.1389 47.3393C15.8798 47.2811 15.6414 47.1533 15.4496 46.9696C15.2578 46.7859 15.1198 46.5533 15.0505 46.2969C14.9812 46.0404 14.9833 45.77 15.0564 45.5147L17.133 38.2492C15.7302 35.6804 14.997 32.7995 15.001 29.8726ZM32.5005 15.2893C29.9257 15.2891 27.3967 15.9707 25.1707 17.2647C22.9447 18.5588 21.1009 20.4192 19.8269 22.6568C18.5529 24.8944 17.894 27.4294 17.9173 30.0042C17.9405 32.5789 18.645 35.1017 19.9592 37.3159C20.0603 37.487 20.1254 37.6769 20.1505 37.874C20.1756 38.0711 20.1601 38.2712 20.105 38.4622L18.6205 43.6538L23.4562 42.0438C23.6615 41.9753 23.8796 41.9533 24.0945 41.9796C24.3094 42.0058 24.5158 42.0796 24.6986 42.1955C26.6098 43.405 28.7761 44.1534 31.0262 44.3815C33.2764 44.6097 35.5488 44.3113 37.6638 43.5099C39.7788 42.7086 41.6784 41.4262 43.2125 39.7643C44.7466 38.1023 45.8731 36.1063 46.503 33.934C47.1329 31.7618 47.2489 29.4727 46.8419 27.2479C46.4348 25.023 45.5158 22.9234 44.1576 21.1149C42.7994 19.3063 41.0391 17.8385 39.0159 16.8275C36.9928 15.8164 34.7622 15.2898 32.5005 15.2893Z" fill="#86949F"/>
</g>
</g>
</g>
</g>
<defs>
<clipPath id="clip0_4073_64747">
<rect width="65" height="65" fill="white"/>
</clipPath>
<clipPath id="clip1_4073_64747">
<rect width="65" height="65" fill="white"/>
</clipPath>
<clipPath id="clip2_4073_64747">
<rect width="65" height="65" fill="white"/>
</clipPath>
</defs>
</svg>
