<svg width="65" height="65" viewBox="0 0 65 65" fill="none" xmlns="http://www.w3.org/2000/svg">
<g clip-path="url(#clip0_4073_64728)">
<g clip-path="url(#clip1_4073_64728)">
<g clip-path="url(#clip2_4073_64728)">
<path d="M52.5 0.375977H12.5C5.87258 0.375977 0.5 5.74856 0.5 12.376V52.376C0.5 59.0034 5.87258 64.376 12.5 64.376H52.5C59.1274 64.376 64.5 59.0034 64.5 52.376V12.376C64.5 5.74856 59.1274 0.375977 52.5 0.375977Z" fill="#F3F5F6"/>
<path d="M33.3796 19.1412C32.6188 18.2279 31.7092 17.4651 30.6736 16.872C29.1524 16.0051 27.4085 15.5427 25.6326 15.5427C20.238 15.5427 15.8586 19.7958 15.6746 25.2598C15.5806 28.0217 16.4788 30.8996 18.4732 33.8386C18.6921 34.1604 19.4204 34.9361 20.622 36.0906C21.7742 37.1977 23.2445 38.5444 24.8217 39.9584C27.9742 42.7846 31.519 45.848 33.7239 47.7395C34.4001 48.3195 35.3832 48.3194 36.0593 47.7394C38.2643 45.8478 41.8094 42.7839 44.962 39.9576C46.5393 38.5435 48.0096 37.1968 49.1618 36.0898C50.364 34.9348 51.0923 34.1591 51.3105 33.838C53.3063 30.8997 54.2031 28.021 54.1107 25.2596C53.9256 19.7953 49.5453 15.5427 44.1514 15.5427C42.3762 15.5427 40.6329 16.005 39.1112 16.8721C38.0762 17.465 37.1662 18.2277 36.4041 19.1412C36.4037 19.1416 36.4033 19.142 36.403 19.1425L36.0448 19.573L34.8911 20.9598L33.7381 19.5725L33.3796 19.1412ZM33.3796 19.1412C33.3798 19.1414 33.3795 19.1411 33.3796 19.1412Z" stroke="#86949F" stroke-width="3"/>
</g>
</g>
</g>
<defs>
<clipPath id="clip0_4073_64728">
<rect width="65" height="65" fill="white"/>
</clipPath>
<clipPath id="clip1_4073_64728">
<rect width="65" height="65" fill="white"/>
</clipPath>
<clipPath id="clip2_4073_64728">
<rect width="65" height="65" fill="white"/>
</clipPath>
</defs>
</svg>
