<svg width="65" height="65" viewBox="0 0 65 65" fill="none" xmlns="http://www.w3.org/2000/svg">
<g clip-path="url(#clip0_4073_64735)">
<g clip-path="url(#clip1_4073_64735)">
<g clip-path="url(#clip2_4073_64735)">
<path d="M52.5 0.375854H12.5C5.87258 0.375854 0.5 5.74844 0.5 12.3759V52.3759C0.5 59.0033 5.87258 64.3759 12.5 64.3759H52.5C59.1274 64.3759 64.5 59.0033 64.5 52.3759V12.3759C64.5 5.74844 59.1274 0.375854 52.5 0.375854Z" fill="#F3F5F6"/>
<path d="M43.043 16.084H43.4263C46.8597 16.084 48.5764 16.084 49.643 17.1506C50.7096 18.2172 50.7096 19.9339 50.7096 23.3673V23.7507" stroke="#86949F" stroke-width="2.50152" stroke-linecap="round"/>
<path d="M43.043 48.6669H43.4263C46.8597 48.6669 48.5764 48.6669 49.643 47.6003C50.7096 46.5337 50.7096 44.817 50.7096 41.3836V41.0002" stroke="#86949F" stroke-width="2.50152" stroke-linecap="round"/>
<path d="M21.9576 16.084H21.5743C18.1409 16.084 16.4242 16.084 15.3576 17.1506C14.291 18.2172 14.291 19.9339 14.291 23.3673V23.7507" stroke="#86949F" stroke-width="2.50152" stroke-linecap="round"/>
<path d="M21.9576 48.6669H21.5743C18.1409 48.6669 16.4242 48.6669 15.3576 47.6003C14.291 46.5337 14.291 44.817 14.291 41.3836V41.0002" stroke="#86949F" stroke-width="2.50152" stroke-linecap="round"/>
<path d="M23.5684 39.7969C24.443 38.5346 25.7198 37.4603 27.2919 36.704C28.864 35.9476 30.6608 35.5437 32.4996 35.5437C34.3383 35.5437 36.1352 35.9476 37.7073 36.704C39.2794 37.4603 40.5562 38.5346 41.4308 39.7969" stroke="#86949F" stroke-width="2.50152" stroke-linecap="round"/>
<path d="M32.4992 31.1242C34.9841 31.1242 36.9985 29.1098 36.9985 26.625C36.9985 24.1401 34.9841 22.1257 32.4992 22.1257C30.0144 22.1257 28 24.1401 28 26.625C28 29.1098 30.0144 31.1242 32.4992 31.1242Z" stroke="#86949F" stroke-width="2.50152" stroke-linecap="round"/>
</g>
</g>
</g>
<defs>
<clipPath id="clip0_4073_64735">
<rect width="65" height="65" fill="white"/>
</clipPath>
<clipPath id="clip1_4073_64735">
<rect width="65" height="65" fill="white"/>
</clipPath>
<clipPath id="clip2_4073_64735">
<rect width="65" height="65" fill="white"/>
</clipPath>
</defs>
</svg>
