<svg width="24" height="24" viewBox="0 0 24 24" fill="none" xmlns="http://www.w3.org/2000/svg">
<path d="M17.6944 3H6.80556C6.393 3 5.99733 3.14329 5.70561 3.39834C5.41389 3.6534 5.25 3.99933 5.25 4.36003V19.3203C5.25007 19.4417 5.28728 19.5608 5.35778 19.6654C5.42827 19.7699 5.52948 19.856 5.65091 19.9148C5.77233 19.9736 5.90953 20.003 6.04829 19.9998C6.18705 19.9966 6.32229 19.961 6.44 19.8966L12.25 16.7218L18.061 19.8966C18.1787 19.9607 18.3138 19.9962 18.4524 19.9992C18.591 20.0023 18.7281 19.973 18.8493 19.9142C18.9706 19.8554 19.0717 19.7694 19.1421 19.6649C19.2126 19.5605 19.2498 19.4416 19.25 19.3203V4.36003C19.25 3.99933 19.0861 3.6534 18.7944 3.39834C18.5027 3.14329 18.107 3 17.6944 3ZM17.6944 18.0938L12.6612 15.3439C12.5376 15.2764 12.3948 15.2406 12.249 15.2406C12.1033 15.2406 11.9604 15.2764 11.8368 15.3439L6.80556 18.0938V4.36003H17.6944V18.0938Z" fill="black"/>
<line x1="20.0857" y1="2.05719" x2="4.05719" y2="20.9143" stroke="black" stroke-width="1.5" stroke-linecap="round"/>
</svg>
