<svg width="23" height="22" viewBox="0 0 23 22" fill="none" xmlns="http://www.w3.org/2000/svg">
<mask id="mask0_1740_59523" style="mask-type:alpha" maskUnits="userSpaceOnUse" x="0" y="0" width="23" height="22">
<rect x="0.249878" width="22" height="22" fill="#D9D9D9"/>
</mask>
<g mask="url(#mask0_1740_59523)">
<path d="M11.2519 14.2789C12.2907 14.2789 13.1729 13.9154 13.8986 13.1883C14.6243 12.4612 14.9871 11.5783 14.9871 10.5396C14.9871 9.50087 14.6236 8.61865 13.8965 7.89296C13.1694 7.16726 12.2865 6.80442 11.2478 6.80442C10.2091 6.80442 9.32685 7.16795 8.60116 7.89502C7.87546 8.62209 7.51262 9.50499 7.51262 10.5437C7.51262 11.5825 7.87615 12.4647 8.60322 13.1904C9.33029 13.9161 10.2132 14.2789 11.2519 14.2789ZM11.2499 13.0167C10.5624 13.0167 9.97799 12.776 9.49674 12.2948C9.01549 11.8135 8.77487 11.2292 8.77487 10.5417C8.77487 9.85417 9.01549 9.26979 9.49674 8.78854C9.97799 8.30729 10.5624 8.06667 11.2499 8.06667C11.9374 8.06667 12.5217 8.30729 13.003 8.78854C13.4842 9.26979 13.7249 9.85417 13.7249 10.5417C13.7249 11.2292 13.4842 11.8135 13.003 12.2948C12.5217 12.776 11.9374 13.0167 11.2499 13.0167ZM11.251 16.9583C9.14314 16.9583 7.22249 16.3769 5.48907 15.2139C3.75566 14.0511 2.47935 12.4937 1.66016 10.5417C2.47935 8.58962 3.7552 7.03221 5.4877 5.86942C7.22035 4.70647 9.14069 4.125 11.2487 4.125C13.3566 4.125 15.2772 4.70647 17.0107 5.86942C18.7441 7.03221 20.0204 8.58962 20.8396 10.5417C20.0204 12.4937 18.7445 14.0511 17.012 15.2139C15.2794 16.3769 13.359 16.9583 11.251 16.9583Z" fill="black"/>
</g>
</svg>
