<svg width="45" height="45" viewBox="0 0 45 45" fill="none" xmlns="http://www.w3.org/2000/svg">
<rect width="45" height="45" rx="22.5" fill="#6FE1A1"/>
<path d="M29.8392 24.8281L25.8389 22.828C25.7207 22.7692 25.5891 22.7426 25.4574 22.751C25.3257 22.7593 25.1986 22.8023 25.0888 22.8755L23.1286 24.1818C22.1363 23.6738 21.3289 22.8665 20.8209 21.8741L22.1285 19.9152C22.2017 19.8054 22.2447 19.6782 22.253 19.5465C22.2613 19.4148 22.2348 19.2833 22.176 19.1651L20.1759 15.1648C20.1137 15.0396 20.0177 14.9343 19.8989 14.8608C19.7801 14.7872 19.6431 14.7483 19.5033 14.7485C18.2434 14.7485 17.0351 15.249 16.1442 16.1399C15.2534 17.0307 14.7529 18.239 14.7529 19.4989C14.7562 22.3492 15.8899 25.0818 17.9054 27.0973C19.9209 29.1128 22.6535 30.2466 25.5038 30.2499C26.7637 30.2499 27.972 29.7494 28.8629 28.8585C29.7538 27.9676 30.2542 26.7593 30.2542 25.4994C30.2543 25.36 30.2155 25.2234 30.1422 25.1048C30.0689 24.9862 29.9639 24.8904 29.8392 24.8281ZM25.5038 28.7497C23.0513 28.7467 20.7 27.7712 18.9658 26.0369C17.2316 24.3027 16.256 21.9515 16.253 19.4989C16.2531 18.7145 16.5368 17.9565 17.052 17.3649C17.5671 16.7733 18.2788 16.3879 19.0558 16.2799L20.6384 19.4452L19.3395 21.3928C19.2713 21.4956 19.2294 21.6135 19.2176 21.7363C19.2059 21.859 19.2245 21.9828 19.272 22.0966C19.9617 23.7365 21.2663 25.041 22.9061 25.7307C23.0199 25.7782 23.1437 25.7969 23.2665 25.7851C23.3892 25.7733 23.5072 25.7315 23.6099 25.6632L25.5576 24.3643L28.7229 25.947C28.6148 26.724 28.2295 27.4357 27.6379 27.9508C27.0462 28.4659 26.2883 28.7497 25.5038 28.7497ZM22.5036 9.74805C20.2931 9.74758 18.1205 10.3218 16.1989 11.4142C14.2772 12.5067 12.6726 14.08 11.5424 15.9797C10.4123 17.8794 9.79534 20.0402 9.75219 22.2503C9.70904 24.4603 10.2411 26.6436 11.2963 28.586L9.84369 32.9451C9.74085 33.2535 9.72593 33.5844 9.80059 33.9008C9.87525 34.2171 10.0366 34.5065 10.2664 34.7363C10.4963 34.9662 10.7856 35.1275 11.102 35.2021C11.4183 35.2768 11.7493 35.2619 12.0576 35.159L16.4168 33.7064C18.1232 34.6324 20.0185 35.1566 21.9582 35.2388C23.8979 35.3211 25.8307 34.9594 27.6094 34.1813C29.3881 33.4031 30.9656 32.2291 32.2216 30.7487C33.4777 29.2683 34.3791 27.5206 34.8572 25.6389C35.3352 23.7573 35.3773 21.7913 34.9801 19.8909C34.583 17.9905 33.7572 16.2059 32.5656 14.6731C31.374 13.1403 29.8482 11.8999 28.1044 11.0464C26.3607 10.1929 24.445 9.7488 22.5036 9.74805ZM22.5036 33.7502C20.5258 33.7506 18.5829 33.2298 16.8706 32.24C16.7564 32.1744 16.6272 32.1395 16.4955 32.1388C16.4148 32.1392 16.3347 32.1523 16.258 32.1775L11.5838 33.7352C11.5398 33.7499 11.4925 33.752 11.4473 33.7413C11.4021 33.7307 11.3608 33.7076 11.328 33.6748C11.2951 33.6419 11.2721 33.6006 11.2614 33.5554C11.2507 33.5102 11.2529 33.4629 11.2676 33.4189L12.8252 28.7497C12.8589 28.6488 12.8708 28.5419 12.86 28.4361C12.8492 28.3303 12.816 28.228 12.7627 28.1359C11.5217 25.9921 11.0228 23.4986 11.3436 21.0424C11.6643 18.5861 12.7867 16.3043 14.5366 14.5511C16.2866 12.7978 18.5662 11.6711 21.0219 11.3457C23.4775 11.0203 25.9719 11.5144 28.1181 12.7514C30.2643 13.9883 31.9422 15.899 32.8917 18.187C33.8411 20.4749 34.0089 23.0123 33.369 25.4053C32.7292 27.7984 31.3175 29.9134 29.3529 31.4222C27.3883 32.9311 24.9807 33.7494 22.5036 33.7502Z" fill="black"/>
</svg>
