<svg width="45" height="45" viewBox="0 0 45 45" fill="none" xmlns="http://www.w3.org/2000/svg">
<rect width="45" height="45" rx="22.5" fill="#20C87A"/>
<g clip-path="url(#clip0_5199_72263)">
<path d="M16.1529 24.2977L11.7002 27.8977V13.4977C11.7002 13.259 11.795 13.03 11.9638 12.8613C12.1326 12.6925 12.3615 12.5977 12.6002 12.5977H27.0002C27.2389 12.5977 27.4678 12.6925 27.6366 12.8613C27.8054 13.03 27.9002 13.259 27.9002 13.4977V23.3977C27.9002 23.6364 27.8054 23.8653 27.6366 24.0341C27.4678 24.2028 27.2389 24.2977 27.0002 24.2977H16.1529Z" stroke="black" stroke-width="1.125" stroke-linecap="round" stroke-linejoin="round"/>
<path d="M17.1002 24.3039V28.8039C17.1002 29.0426 17.195 29.2715 17.3638 29.4403C17.5326 29.6091 17.7615 29.7039 18.0002 29.7039H28.8475L33.3002 33.3039V18.9039C33.3002 18.6652 33.2054 18.4363 33.0366 18.2675C32.8678 18.0987 32.6389 18.0039 32.4002 18.0039H27.9002" stroke="black" stroke-width="1.125" stroke-linecap="round" stroke-linejoin="round"/>
</g>
<defs>
<clipPath id="clip0_5199_72263">
<rect width="28.8" height="28.8" fill="white" transform="translate(8.09998 8.10156)"/>
</clipPath>
</defs>
</svg>
