<svg width="45" height="45" viewBox="0 0 45 45" fill="none" xmlns="http://www.w3.org/2000/svg">
<rect width="45" height="45" rx="22.5" fill="#6FE1A1"/>
<path d="M34.9683 11.336C34.8565 11.2394 34.7204 11.1752 34.5748 11.1503C34.4291 11.1254 34.2794 11.1407 34.1418 11.1946L10.6508 20.3877C10.3651 20.4995 10.1234 20.701 9.9619 20.9619C9.80045 21.2228 9.728 21.529 9.75544 21.8346C9.78287 22.1402 9.90871 22.4287 10.1141 22.6566C10.3194 22.8846 10.5932 23.0398 10.8942 23.0989L17.1675 24.3311V31.3079C17.1676 31.6314 17.2644 31.9474 17.4454 32.2154C17.6264 32.4835 17.8834 32.6913 18.1834 32.8123C18.4833 32.9333 18.8126 32.9618 19.1289 32.8943C19.4453 32.8268 19.7342 32.6663 19.9587 32.4334L23.0466 29.2307L27.8663 33.4558C28.1605 33.7162 28.5398 33.86 28.9327 33.8603C29.1043 33.8599 29.2748 33.833 29.4381 33.7804C29.7058 33.6956 29.9467 33.5422 30.1366 33.3354C30.3266 33.1285 30.459 32.8755 30.5207 32.6015L35.2291 12.1324C35.2622 11.9885 35.2554 11.8382 35.2095 11.6979C35.1635 11.5576 35.0801 11.4325 34.9683 11.336ZM11.1458 21.73C11.1413 21.718 11.1413 21.7049 11.1458 21.6929C11.151 21.6889 11.1569 21.6857 11.1632 21.6836L29.6757 14.4367L17.7018 23.0143L11.1632 21.7346L11.1458 21.73ZM18.9572 31.4667C18.9252 31.4999 18.8841 31.5228 18.8391 31.5325C18.7941 31.5422 18.7472 31.5383 18.7045 31.5212C18.6617 31.5042 18.625 31.4748 18.599 31.4368C18.573 31.3988 18.5588 31.354 18.5584 31.3079V25.2932L21.9999 28.3069L18.9572 31.4667ZM29.1657 32.2874C29.1571 32.3266 29.1382 32.3628 29.1109 32.3921C29.0835 32.4215 29.0488 32.443 29.0103 32.4543C28.9711 32.4681 28.9289 32.4711 28.8881 32.4629C28.8473 32.4547 28.8095 32.4358 28.7785 32.4079L18.9804 23.813L33.5113 13.3993L29.1657 32.2874Z" fill="black"/>
</svg>
