<svg width="45" height="45" viewBox="0 0 45 45" fill="none" xmlns="http://www.w3.org/2000/svg">
<rect width="45" height="45" rx="22.5" fill="#6FE1A1"/>
<path d="M33.5 16.25H29.25V12C29.25 11.5359 29.0656 11.0908 28.7374 10.7626C28.4092 10.4344 27.9641 10.25 27.5 10.25H11.5C11.0359 10.25 10.5908 10.4344 10.2626 10.7626C9.93437 11.0908 9.75 11.5359 9.75 12V28C9.75016 28.1416 9.7904 28.2802 9.86605 28.3999C9.9417 28.5196 10.0497 28.6154 10.1775 28.6763C10.278 28.7251 10.3883 28.7503 10.5 28.75C10.6715 28.7501 10.8378 28.6914 10.9713 28.5837L15.7137 24.75H15.75V29C15.75 29.4641 15.9344 29.9092 16.2626 30.2374C16.5908 30.5656 17.0359 30.75 17.5 30.75H29.2862L34.0287 34.5837C34.1622 34.6914 34.3285 34.7501 34.5 34.75C34.6117 34.7503 34.722 34.7251 34.8225 34.6763C34.9503 34.6154 35.0583 34.5196 35.1339 34.3999C35.2096 34.2802 35.2498 34.1416 35.25 34V18C35.25 17.5359 35.0656 17.0908 34.7374 16.7626C34.4092 16.4344 33.9641 16.25 33.5 16.25ZM15.4475 23.25C15.276 23.2499 15.1097 23.3086 14.9762 23.4163L11.25 26.4287V12C11.25 11.9337 11.2763 11.8701 11.3232 11.8232C11.3701 11.7763 11.4337 11.75 11.5 11.75H27.5C27.5663 11.75 27.6299 11.7763 27.6768 11.8232C27.7237 11.8701 27.75 11.9337 27.75 12V23C27.75 23.0663 27.7237 23.1299 27.6768 23.1768C27.6299 23.2237 27.5663 23.25 27.5 23.25H15.4475ZM33.75 32.4287L30.0238 29.4163C29.8903 29.3086 29.724 29.2499 29.5525 29.25H17.5C17.4337 29.25 17.3701 29.2237 17.3232 29.1768C17.2763 29.1299 17.25 29.0663 17.25 29V24.75H27.5C27.9641 24.75 28.4092 24.5656 28.7374 24.2374C29.0656 23.9092 29.25 23.4641 29.25 23V17.75H33.5C33.5663 17.75 33.6299 17.7763 33.6768 17.8232C33.7237 17.8701 33.75 17.9337 33.75 18V32.4287Z" fill="black"/>
</svg>
